# Blender v2.76 (sub 0) OBJ File: 'a.blend'
# www.blender.org
mtllib a_000004.mtl
o Plane
v 0.125398 0.376364 -0.120496
v 0.125454 0.391981 -0.048709
v 0.186015 0.609613 0.058061
v 0.186015 0.975839 -0.022581
v 0.186015 0.528971 -0.308166
v 0.186015 0.895198 -0.388807
v 0.125454 0.356849 -0.208253
v 0.125454 0.411444 0.039685
v 0.057662 0.582011 -0.067290
v 0.057662 0.556573 -0.182815
v 0.057662 0.521898 -0.054054
v 0.057662 0.496460 -0.169578
v 0.125956 0.439432 -0.133058
v 0.125514 0.454605 -0.062286
v 0.125454 0.536476 0.012153
v 0.125454 0.481881 -0.235785
v 0.125454 0.419366 -0.222019
v 0.125454 0.473961 0.025919
v 0.125454 0.048174 0.119675
v 0.125454 -0.006421 -0.128263
v 0.125454 0.517025 -0.076184
v 0.125454 0.028677 0.031132
v 0.125454 0.501167 -0.148203
v 0.122091 0.203782 0.053420
v 0.122202 0.225295 0.123897
v 0.185893 0.208737 0.051807
v 0.186003 0.230258 0.122309
v 0.125454 0.028677 0.031132
v 0.098032 0.048174 0.119675
v 0.098032 -0.006421 -0.128263
v 0.098032 0.028768 0.030441
v 0.125454 0.012864 -0.040681
v 0.098032 0.010888 -0.040425
v 0.028140 -0.006421 -0.128263
v 0.028140 0.011955 -0.040466
v 0.028140 0.048174 0.119675
v 0.028140 0.028766 0.030596
v 0.098032 -0.125156 0.258405
v 0.098032 -0.187805 0.219899
v 0.028140 -0.187736 0.219942
v 0.028140 -0.125115 0.258430
v 0.173795 0.373252 0.078681
v 0.173684 0.351732 0.008178
v 0.110831 0.346945 0.009043
v 0.109993 0.368289 0.080268
v 0.028140 -0.046570 0.130639
v 0.098032 -0.046611 0.130614
v 0.098032 -0.109260 0.092108
v 0.028140 -0.109239 0.091951
v -0.001485 0.411444 0.039685
v -0.001485 0.356849 -0.208253
v -0.128423 0.376135 -0.120672
v -0.128423 0.391981 -0.048709
v -0.188985 0.609613 0.058061
v -0.188985 0.975839 -0.022581
v -0.188985 0.528971 -0.308166
v -0.188985 0.895198 -0.388807
v -0.128423 0.356849 -0.208253
v -0.128423 0.411444 0.039685
v -0.060631 0.582011 -0.067290
v -0.060631 0.556573 -0.182815
v -0.001485 0.473961 0.025919
v -0.001485 0.419366 -0.222019
v -0.060631 0.521898 -0.054054
v -0.060631 0.496460 -0.169578
v -0.128772 0.436086 -0.132383
v -0.128785 0.453876 -0.062204
v -0.128423 0.536476 0.012153
v -0.128423 0.481881 -0.235785
v -0.128423 0.419366 -0.222019
v -0.128423 0.473961 0.025919
v -0.128423 0.048174 0.119675
v -0.128423 -0.006421 -0.128263
v -0.128423 0.517025 -0.076184
v -0.128423 0.028677 0.031132
v -0.128423 0.501167 -0.148203
v -0.001485 0.895198 -0.388807
v -0.001485 0.528971 -0.308166
v -0.001485 0.975839 -0.022581
v -0.001485 0.609613 0.058061
v -0.001485 0.556573 -0.182815
v -0.001485 0.582011 -0.067290
v -0.001485 0.496460 -0.169578
v -0.001485 0.521898 -0.054054
v -0.001485 0.481881 -0.235785
v -0.001485 0.536476 0.012153
v -0.001485 -0.006421 -0.128263
v -0.001485 0.048174 0.119675
v -0.120133 0.267172 -0.302275
v -0.183741 0.303781 -0.308879
v -0.090569 0.321510 -0.285809
v -0.154200 0.358132 -0.292415
v -0.001485 0.028699 0.031232
v -0.128423 0.028677 0.031132
v -0.101001 0.048174 0.119675
v -0.101001 -0.006421 -0.128263
v -0.101001 0.029930 0.028762
v -0.128423 0.012864 -0.040681
v -0.101001 0.017118 -0.044038
v -0.001485 0.012896 -0.040538
v -0.031109 -0.006421 -0.128263
v -0.031109 0.014709 -0.042025
v -0.031109 0.048174 0.119675
v -0.031109 0.029516 0.029626
v -0.101001 -0.210569 -0.157654
v -0.101001 -0.181272 -0.224836
v -0.031109 -0.181220 -0.224974
v -0.031109 -0.210558 -0.157753
v -0.184779 0.331035 -0.148087
v -0.121148 0.294413 -0.141481
v -0.151493 0.240908 -0.157718
v -0.214320 0.276684 -0.164550
v -0.031109 -0.073076 -0.097763
v -0.101001 -0.073092 -0.097681
v -0.101001 -0.044279 -0.164105
v -0.031109 -0.043735 -0.165036
vt 0.266908 0.524887
vt 0.266908 0.787331
vt 0.133454 0.787331
vt 0.533816 0.262444
vt 0.533816 0.000000
vt 0.800723 0.000000
vt 0.888345 0.260463
vt 0.844534 0.260463
vt 0.844534 0.219070
vt 0.266908 0.262444
vt 0.175551 0.352272
vt 0.091356 0.352272
vt 0.000000 0.393666
vt 0.000000 0.262444
vt 0.846961 0.659813
vt 0.895213 0.675672
vt 0.846961 0.742600
vt 0.800723 0.177676
vt 0.844534 0.177676
vt 0.804863 0.307243
vt 0.895213 0.307243
vt 0.895213 0.352044
vt 0.383204 0.569687
vt 0.447606 0.569687
vt 0.447606 0.614487
vt 0.383226 0.524887
vt 0.330738 0.569687
vt 0.266908 0.569687
vt 0.330738 0.614487
vt 0.624165 0.657168
vt 0.624165 0.701969
vt 0.533816 0.701969
vt 0.895213 0.790045
vt 0.804863 0.790045
vt 0.891073 0.114297
vt 0.912158 0.114282
vt 0.912158 0.177676
vt 0.825949 0.612369
vt 0.804863 0.352044
vt 0.383185 0.614487
vt 0.447606 0.874812
vt 0.447606 0.524887
vt 0.330738 0.524887
vt 0.624165 0.612369
vt 0.533816 0.657168
vt 0.804863 0.262444
vt 0.895213 0.262444
vt 0.804863 0.659813
vt 0.804863 0.612369
vt 0.603079 0.962294
vt 0.553333 0.962294
vt 0.932155 0.219070
vt 0.888345 0.219070
vt 0.888345 0.177676
vt 0.947679 0.367421
vt 0.895213 0.367421
vt 0.266908 0.000000
vt 0.266908 0.131222
vt 0.000000 0.131222
vt 0.266908 0.393666
vt 0.175551 0.393666
vt 0.400362 0.000000
vt 0.400362 0.262444
vt 0.895213 0.943897
vt 0.895213 0.892309
vt 0.940775 0.892327
vt 0.947660 0.577376
vt 0.895213 0.577376
vt 0.895213 0.472399
vt 0.244546 0.892309
vt 0.198984 0.892309
vt 0.198984 0.787331
vt 0.760076 0.895023
vt 0.760076 0.790045
vt 0.805638 0.790045
vt 0.961904 0.177676
vt 0.961904 0.114249
vt 0.981422 0.114225
vt 0.981422 0.062762
vt 0.981422 0.000000
vt 0.961904 0.062784
vt 0.383075 0.874812
vt 0.330738 0.874812
vt 0.266908 0.614487
vt 0.891073 0.062865
vt 0.912158 0.062841
vt 0.891073 0.000000
vt 0.912158 0.000000
vt 0.149238 0.892309
vt 0.149238 0.787331
vt 0.961904 0.000000
vt 0.316654 0.926254
vt 0.266908 0.926311
vt 0.266908 0.874846
vt 0.099492 0.892309
vt 0.099492 0.787331
vt 1.000000 0.577376
vt 0.947660 0.472399
vt 0.947660 0.787331
vt 0.999976 0.787331
vt 0.999976 0.892309
vt 0.760076 1.000000
vt 0.805638 0.895023
vt 0.244546 0.997286
vt 0.198984 0.997286
vt 0.947660 0.682354
vt 0.895213 0.682354
vt 0.999976 0.682354
vt 0.099492 0.997286
vt 0.149238 0.997286
vt 0.000000 0.787331
vt 0.000000 0.524887
vt 0.533816 0.524887
vt 0.091356 0.435059
vt 0.175551 0.435059
vt 0.091356 0.393666
vt 0.714514 0.727283
vt 0.714514 0.675672
vt 0.762766 0.742600
vt 0.895011 0.790045
vt 0.895011 0.872832
vt 0.851201 0.872832
vt 0.714514 0.352044
vt 0.714514 0.307243
vt 0.598218 0.307243
vt 0.598237 0.352044
vt 0.533816 0.352044
vt 0.650684 0.262444
vt 0.650684 0.307243
vt 0.650684 0.352044
vt 0.714514 0.701969
vt 0.714514 0.790045
vt 0.869987 0.177676
vt 0.869987 0.114282
vt 0.783778 0.612369
vt 0.734032 0.612369
vt 0.598346 0.612369
vt 0.533816 0.612369
vt 0.598196 0.262444
vt 0.533816 0.307243
vt 0.714514 0.657168
vt 0.762766 0.659813
vt 0.714514 0.612369
vt 0.694996 0.962294
vt 0.645250 0.962294
vt 0.500072 0.734842
vt 0.447606 0.734842
vt 0.447606 0.629865
vt 0.411962 0.926401
vt 0.366400 0.926401
vt 0.366400 0.874831
vt 0.947660 0.892309
vt 0.895213 0.787331
vt 0.851201 1.000000
vt 0.805639 1.000000
vt 0.820241 0.177676
vt 0.800723 0.114225
vt 0.820241 0.114249
vt 0.800723 0.062762
vt 0.820241 0.062784
vt 0.650684 0.612369
vt 0.869987 0.062841
vt 0.049746 0.997286
vt 0.000000 0.997286
vt 0.000000 0.892309
vt 0.869987 0.000000
vt 0.316654 0.874812
vt 0.366400 0.926311
vt 0.049746 0.787331
vt 0.500072 0.839820
vt 0.500072 0.944797
vt 0.447732 0.944797
vt 0.947679 0.262444
vt 0.999995 0.262444
vt 0.851201 0.895023
vt 0.714514 1.000000
vt 0.714514 0.895022
vt 0.500072 0.524887
vt 0.500072 0.629865
vt 0.999995 0.367421
vt 0.999995 0.472399
vt 0.447732 0.839820
vt 0.049746 0.892309
vt 0.133454 0.524887
vt 0.800723 0.262444
vt 0.895213 0.727283
vt 0.895213 0.612369
vt 0.800723 0.260463
vt 0.804863 0.742600
vt 0.891073 0.177676
vt 0.875695 0.612369
vt 0.533816 0.962294
vt 0.624165 0.962294
vt 0.932155 0.177676
vt 0.000000 0.000000
vt 0.940775 0.943897
vt 0.244546 0.787331
vt 0.981422 0.177676
vt 0.851201 0.790045
vt 0.714514 0.262444
vt 0.714514 0.962294
vt 0.932155 0.260463
vt 0.411962 0.874812
vt 0.820241 0.000000
vt 0.447732 0.734842
vn 0.000000 -0.215000 -0.976600
vn 1.000000 0.000000 0.000000
vn 0.000000 -0.976600 0.215000
vn -0.000000 0.976600 -0.215000
vn 1.000000 0.000100 0.000700
vn 1.000000 0.002200 0.005800
vn 0.999900 -0.009500 -0.003500
vn -0.000000 0.215000 0.976600
vn 0.006800 -0.977100 0.212900
vn 1.000000 0.006400 -0.007100
vn 0.996700 0.077400 -0.025200
vn 0.081400 -0.953300 0.290900
vn -0.997100 -0.075100 0.010800
vn 0.009000 -0.291100 -0.956600
vn 0.001100 0.291900 0.956400
vn -0.008600 -0.977100 0.212500
vn -0.008600 -0.976600 0.215000
vn 0.072200 -0.974100 0.214500
vn 1.000000 0.000300 0.000600
vn -0.031500 -0.972700 0.230100
vn 0.000000 -0.978800 0.204900
vn 0.000700 0.851900 0.523600
vn 0.000500 -0.977200 0.212500
vn 0.000000 -0.981100 0.193300
vn 0.000000 -0.523600 0.851900
vn -0.001200 -0.851900 -0.523600
vn -1.000000 -0.000000 -0.000000
vn -0.072100 0.982500 0.171800
vn 0.928000 -0.080700 -0.363700
vn -0.967700 0.246400 -0.052900
vn 0.927000 0.358200 -0.110800
vn 0.001300 -0.740900 -0.671600
vn 0.000700 0.798800 0.601600
vn -1.000000 -0.005600 0.001200
vn -1.000000 0.005000 -0.001500
vn -0.038000 -0.978500 0.202700
vn -1.000000 0.006300 0.002700
vn -1.000000 0.004200 -0.004700
vn 0.461800 0.848900 0.257200
vn 0.203900 0.180600 -0.962200
vn -0.462400 -0.849300 -0.254600
vn 0.863200 -0.496800 0.089600
vn -0.863400 0.496500 -0.089700
vn 0.063100 -0.974700 0.214600
vn 0.175100 -0.961500 0.211700
vn -0.038600 -0.975900 0.214900
vn -0.070400 -0.974200 0.214500
vn 0.001400 -0.399900 0.916500
vn -0.008200 -0.980400 0.196700
vn -0.040300 -0.970500 0.237800
vn -0.000400 -0.916600 -0.399700
vn -0.002100 0.405300 -0.914200
vn -0.880200 0.401800 0.252700
vn -0.071800 -0.252100 0.965000
vn -0.228800 -0.220700 0.948100
vn 0.143400 0.071100 -0.987100
vn -0.013000 0.890300 -0.455200
vn 0.000900 -0.775300 0.631700
vn 1.000000 -0.000900 0.000200
vn 1.000000 0.007700 -0.001700
vn 1.000000 0.000100 0.000600
vn 1.000000 0.000900 -0.000200
vn -0.996700 -0.077400 0.025200
vn -0.001100 -0.296200 -0.955100
vn 0.072000 -0.967100 0.244000
vn 1.000000 -0.000000 -0.000800
vn 0.006800 -0.976600 0.215000
vn -0.031500 -0.976100 0.214900
vn 0.000000 -0.977100 0.212900
vn -0.015100 -0.978700 0.204800
vn 0.000900 -0.852500 -0.522800
vn -0.928000 0.079800 0.363900
vn 0.071300 -0.974400 -0.213300
vn -0.973000 0.217600 -0.076700
vn 0.921900 0.379900 -0.075700
vn -0.010900 -0.737600 -0.675100
vn 0.001300 0.799000 0.601300
vn -1.000000 0.000900 0.003900
vn -1.000000 0.005500 -0.001200
vn -1.000000 -0.000800 -0.003700
vn -0.457000 -0.851600 -0.256700
vn 0.853900 -0.512200 0.092200
vn 0.061700 -0.978600 0.196400
vn 0.171400 -0.970300 0.170800
vn 0.000000 -0.963100 0.269200
vn -0.069900 -0.976900 0.201900
vn 0.000000 -0.971300 0.238000
vn 0.001200 -0.399800 0.916600
vn 0.000000 -0.979200 0.202900
vn -0.000100 -0.916500 -0.400000
vn -0.015300 0.399600 -0.916600
vn -0.889400 0.092400 0.447700
vn 0.982500 0.041200 0.181700
vn 0.714400 -0.683400 0.150500
vn -0.868100 0.481100 -0.122100
vn 0.043400 0.902400 -0.428700
vn -0.012400 -0.778800 0.627200
usemtl Material
s off
f 6/1/1 5/2/1 78/3/1
f 4/4/2 3/5/2 5/6/2
f 10/7/1 12/8/1 83/9/1
f 3/10/3 9/11/3 10/12/3
f 78/13/3 5/14/3 10/12/3
f 11/15/4 21/16/4 12/17/4
f 9/18/2 11/19/2 12/8/2
f 63/20/1 17/21/1 7/22/1
f 14/23/5 18/24/5 8/25/5
f 21/26/6 14/23/6 13/27/6
f 17/28/7 13/27/7 1/29/7
f 62/30/8 50/31/8 8/32/8
f 12/17/4 16/33/4 85/34/4
f 93/35/9 37/36/9 36/37/9
f 7/22/1 34/38/1 51/39/1
f 2/40/2 8/25/2 19/41/2
f 15/42/5 18/24/5 14/23/5
f 23/43/10 13/27/10 17/28/10
f 86/44/8 62/30/8 18/45/8
f 85/46/1 16/47/1 17/21/1
f 11/15/4 84/48/4 86/49/4
f 36/50/8 29/51/8 8/32/8
f 82/52/8 84/53/8 11/54/8
f 43/55/11 42/56/11 27/47/11
f 6/57/4 77/58/4 79/59/4
f 80/60/3 82/61/3 9/11/3
f 79/62/8 80/63/8 3/10/8
f 26/64/12 27/65/12 25/66/12
f 45/67/13 44/68/13 24/69/13
f 44/70/14 43/71/14 26/72/14
f 45/73/15 25/74/15 27/75/15
f 29/76/16 31/77/16 22/78/16
f 32/79/17 28/78/17 31/77/17
f 20/80/18 32/79/18 33/81/18
f 2/40/2 28/82/2 32/83/2
f 7/84/19 1/29/19 32/83/19
f 100/85/20 35/86/20 37/36/20
f 87/87/21 34/88/21 35/86/21
f 46/89/22 41/90/22 38/72/22
f 37/36/23 31/77/23 29/76/23
f 34/88/24 30/91/24 33/81/24
f 40/92/25 39/93/25 38/94/25
f 48/95/26 39/96/26 40/90/26
f 48/97/2 47/67/2 38/98/2
f 46/99/27 49/100/27 40/101/27
f 2/102/28 45/73/28 42/103/28
f 1/104/29 13/105/29 43/71/29
f 2/106/30 1/107/30 44/68/30
f 14/69/31 42/56/31 43/55/31
f 37/106/27 35/108/27 49/100/27
f 31/106/2 47/67/2 48/97/2
f 33/109/32 48/95/32 49/89/32
f 37/110/33 46/89/33 47/71/33
f 78/3/1 56/111/1 57/112/1
f 56/4/27 54/113/27 55/1/27
f 83/9/1 65/19/1 61/54/1
f 61/114/3 60/115/3 54/1/3
f 78/13/3 81/116/3 61/114/3
f 76/117/4 74/118/4 65/119/4
f 65/120/27 64/121/27 60/122/27
f 51/39/1 58/123/1 70/124/1
f 67/125/34 53/126/34 59/127/34
f 76/128/35 66/129/35 67/125/35
f 58/123/34 52/130/34 66/129/34
f 59/131/8 50/31/8 62/30/8
f 85/34/4 69/132/4 65/119/4
f 103/133/36 104/134/36 93/35/36
f 101/135/1 96/136/1 58/123/1
f 53/126/27 75/137/27 72/138/27
f 74/139/37 67/125/37 71/140/37
f 70/124/38 66/129/38 76/128/38
f 71/141/8 62/30/8 86/44/8
f 85/46/1 63/20/1 70/124/1
f 64/142/4 68/143/4 86/49/4
f 95/144/8 103/145/8 59/131/8
f 64/7/8 84/53/8 82/52/8
f 91/146/39 92/147/39 109/148/39
f 79/59/4 77/58/4 57/10/4
f 60/115/3 82/61/3 80/60/3
f 54/4/8 80/63/8 79/62/8
f 91/149/40 89/150/40 90/151/40
f 90/152/41 89/65/41 111/153/41
f 89/132/42 91/74/42 110/73/42
f 92/154/43 90/155/43 112/103/43
f 95/156/3 72/18/3 75/157/3
f 97/158/44 94/157/44 98/159/44
f 99/160/45 98/159/45 73/6/45
f 52/130/27 98/161/27 94/137/27
f 98/161/27 52/130/27 58/123/27
f 100/85/46 93/35/46 104/134/46
f 87/87/47 100/85/47 102/162/47
f 105/163/48 108/164/48 113/165/48
f 95/156/49 97/158/49 104/134/49
f 101/166/50 102/162/50 99/160/50
f 108/167/51 105/151/51 106/168/51
f 107/169/52 106/96/52 115/95/52
f 115/170/27 106/171/27 105/172/27
f 113/55/2 108/173/2 107/174/2
f 109/175/53 112/103/53 53/75/53
f 52/176/54 111/177/54 110/73/54
f 112/99/55 111/153/55 52/107/55
f 66/178/56 110/179/56 109/148/56
f 113/55/2 116/180/2 102/181/2
f 99/146/27 115/170/27 114/182/27
f 116/183/57 115/95/57 99/109/57
f 97/169/58 114/183/58 113/165/58
f 77/184/1 6/1/1 78/3/1
f 6/185/2 4/4/2 5/6/2
f 81/53/1 10/7/1 83/9/1
f 5/14/3 3/10/3 10/12/3
f 81/116/3 78/13/3 10/12/3
f 16/33/4 12/17/4 23/186/4
f 11/15/4 15/187/4 21/16/4
f 21/16/4 23/186/4 12/17/4
f 10/188/2 9/18/2 12/8/2
f 51/39/1 63/20/1 7/22/1
f 2/40/59 14/23/59 8/25/59
f 23/43/60 21/26/60 13/27/60
f 7/84/61 17/28/61 1/29/61
f 18/45/8 62/30/8 8/32/8
f 83/189/4 12/17/4 85/34/4
f 88/190/3 93/35/3 36/37/3
f 87/49/1 51/39/1 34/38/1
f 7/22/1 20/187/1 30/191/1
f 30/191/1 34/38/1 7/22/1
f 22/82/2 2/40/2 19/41/2
f 21/26/62 15/42/62 14/23/62
f 16/1/2 23/43/2 17/28/2
f 15/138/8 86/44/8 18/45/8
f 63/20/1 85/46/1 17/21/1
f 15/187/4 11/15/4 86/49/4
f 19/192/8 8/32/8 29/51/8
f 50/31/8 88/193/8 36/50/8
f 36/50/8 8/32/8 50/31/8
f 9/194/8 82/52/8 11/54/8
f 26/173/11 43/55/11 27/47/11
f 4/195/4 6/57/4 79/59/4
f 3/10/3 80/60/3 9/11/3
f 4/57/8 79/62/8 3/10/8
f 24/196/12 26/64/12 25/66/12
f 25/98/63 45/67/63 24/69/63
f 24/197/64 44/70/64 26/72/64
f 42/103/15 45/73/15 27/75/15
f 19/198/3 29/76/3 22/78/3
f 33/81/65 32/79/65 31/77/65
f 30/91/24 20/80/24 33/81/24
f 1/29/66 2/40/66 32/83/66
f 20/94/2 7/84/2 32/83/2
f 93/35/67 100/85/67 37/36/67
f 100/85/68 87/87/68 35/86/68
f 47/71/22 46/89/22 38/72/22
f 36/37/69 37/36/69 29/76/69
f 35/86/70 34/88/70 33/81/70
f 41/167/25 40/92/25 38/94/25
f 49/89/71 48/95/71 40/90/71
f 39/181/2 48/97/2 38/98/2
f 41/152/27 46/99/27 40/101/27
f 14/155/72 2/102/72 42/103/72
f 44/70/73 1/104/73 43/71/73
f 45/67/74 2/106/74 44/68/74
f 13/98/75 14/69/75 43/55/75
f 46/99/27 37/106/27 49/100/27
f 33/108/2 31/106/2 48/97/2
f 35/110/76 33/109/76 49/89/76
f 31/105/77 37/110/77 47/71/77
f 77/184/1 78/3/1 57/112/1
f 57/10/27 56/4/27 55/1/27
f 81/53/1 83/9/1 61/54/1
f 56/112/3 61/114/3 54/1/3
f 56/112/3 78/13/3 61/114/3
f 64/142/4 65/119/4 74/118/4
f 69/132/4 76/117/4 65/119/4
f 74/118/4 68/143/4 64/142/4
f 61/199/27 65/120/27 60/122/27
f 63/20/1 51/39/1 70/124/1
f 71/140/78 67/125/78 59/127/78
f 74/139/79 76/128/79 67/125/79
f 70/124/80 58/123/80 66/129/80
f 71/141/8 59/131/8 62/30/8
f 83/189/4 85/34/4 65/119/4
f 88/190/3 103/133/3 93/35/3
f 58/123/1 51/39/1 101/135/1
f 87/49/1 101/135/1 51/39/1
f 96/136/1 73/143/1 58/123/1
f 59/127/27 53/126/27 72/138/27
f 68/4/27 74/139/27 71/140/27
f 69/200/27 70/124/27 76/128/27
f 68/143/8 71/141/8 86/44/8
f 69/200/1 85/46/1 70/124/1
f 84/48/4 64/142/4 86/49/4
f 50/31/8 59/131/8 103/145/8
f 72/201/8 95/144/8 59/131/8
f 103/145/8 88/193/8 50/31/8
f 60/202/8 64/7/8 82/52/8
f 110/179/39 91/146/39 109/148/39
f 55/14/4 79/59/4 57/10/4
f 54/1/3 60/115/3 80/60/3
f 55/5/8 54/4/8 79/62/8
f 92/203/40 91/149/40 90/151/40
f 112/99/81 90/152/81 111/153/81
f 111/177/82 89/132/82 110/73/82
f 109/175/43 92/154/43 112/103/43
f 97/158/83 95/156/83 75/157/83
f 99/160/84 97/158/84 98/159/84
f 96/204/85 99/160/85 73/6/85
f 53/126/27 52/130/27 94/137/27
f 73/143/27 98/161/27 58/123/27
f 102/162/86 100/85/86 104/134/86
f 101/166/87 87/87/87 102/162/87
f 114/183/88 105/163/88 113/165/88
f 103/133/89 95/156/89 104/134/89
f 96/204/85 101/166/85 99/160/85
f 107/92/90 108/167/90 106/168/90
f 116/183/91 107/169/91 115/95/91
f 114/182/27 115/170/27 105/172/27
f 116/180/2 113/55/2 107/174/2
f 67/199/92 109/175/92 53/75/92
f 66/102/93 52/176/93 110/73/93
f 53/106/94 112/99/94 52/107/94
f 67/42/95 66/178/95 109/148/95
f 104/98/2 113/55/2 102/181/2
f 97/205/27 99/146/27 114/182/27
f 102/163/96 116/183/96 99/109/96
f 104/111/97 97/169/97 113/165/97
