# Blender v2.76 (sub 0) OBJ File: 'a.blend'
# www.blender.org
mtllib a_000002.mtl
o Plane
v 0.125398 0.376230 -0.120554
v 0.125454 0.391981 -0.048709
v 0.186015 0.609613 0.058061
v 0.186015 0.975839 -0.022581
v 0.186015 0.528971 -0.308166
v 0.186015 0.895198 -0.388807
v 0.125454 0.356849 -0.208253
v 0.125454 0.411444 0.039685
v 0.057662 0.582011 -0.067290
v 0.057662 0.556573 -0.182815
v 0.057662 0.521898 -0.054054
v 0.057662 0.496460 -0.169578
v 0.125956 0.438504 -0.133408
v 0.125514 0.454416 -0.062330
v 0.125454 0.536476 0.012153
v 0.125454 0.481881 -0.235785
v 0.125454 0.419366 -0.222019
v 0.125454 0.473961 0.025919
v 0.125454 0.048174 0.119675
v 0.125454 -0.006421 -0.128263
v 0.125454 0.517025 -0.076184
v 0.125454 0.028677 0.031132
v 0.125454 0.501167 -0.148203
v 0.122091 0.142626 -0.165547
v 0.122202 0.117181 -0.096393
v 0.185892 0.147549 -0.163838
v 0.186003 0.122095 -0.094659
v 0.125454 0.028677 0.031132
v 0.098032 0.048174 0.119675
v 0.098032 -0.006421 -0.128263
v 0.098032 0.028811 0.029042
v 0.125454 0.012864 -0.040681
v 0.098032 0.013071 -0.044425
v 0.028140 -0.006421 -0.128263
v 0.028140 0.012983 -0.042351
v 0.028140 0.048174 0.119675
v 0.028140 0.028802 0.029407
v 0.098032 -0.258841 0.014859
v 0.098032 -0.275209 -0.056833
v 0.028140 -0.275191 -0.056755
v 0.028140 -0.258830 0.014905
v 0.173795 0.262394 -0.043017
v 0.173684 0.287849 -0.112196
v 0.110831 0.283460 -0.113944
v 0.109993 0.257481 -0.044750
v 0.028140 -0.112593 -0.018483
v 0.098032 -0.112604 -0.018529
v 0.098032 -0.128972 -0.090221
v 0.028140 -0.128964 -0.089980
v -0.001485 0.411444 0.039685
v -0.001485 0.356849 -0.208253
v -0.128423 0.376135 -0.120672
v -0.128423 0.391981 -0.048709
v -0.188985 0.609613 0.058061
v -0.188985 0.975839 -0.022581
v -0.188985 0.528971 -0.308166
v -0.188985 0.895198 -0.388807
v -0.128423 0.356849 -0.208253
v -0.128423 0.411444 0.039685
v -0.060631 0.582011 -0.067290
v -0.060631 0.556573 -0.182815
v -0.001485 0.473961 0.025919
v -0.001485 0.419366 -0.222019
v -0.060631 0.521898 -0.054054
v -0.060631 0.496460 -0.169578
v -0.129280 0.438670 -0.132691
v -0.128405 0.454373 -0.062108
v -0.128423 0.536476 0.012153
v -0.128423 0.481881 -0.235785
v -0.128423 0.419366 -0.222019
v -0.128423 0.473961 0.025919
v -0.128423 0.048174 0.119675
v -0.128423 -0.006421 -0.128263
v -0.128423 0.517025 -0.076184
v -0.128423 0.028677 0.031132
v -0.128423 0.501167 -0.148203
v -0.001485 0.895198 -0.388807
v -0.001485 0.528971 -0.308166
v -0.001485 0.975839 -0.022581
v -0.001485 0.609613 0.058061
v -0.001485 0.556573 -0.182815
v -0.001485 0.582011 -0.067290
v -0.001485 0.496460 -0.169578
v -0.001485 0.521898 -0.054054
v -0.001485 0.481881 -0.235785
v -0.001485 0.536476 0.012153
v -0.001485 -0.006421 -0.128263
v -0.001485 0.048174 0.119675
v -0.217183 0.145282 -0.097129
v -0.155643 0.128729 -0.060134
v -0.249636 0.147818 -0.042009
v -0.188073 0.131259 -0.005001
v -0.001485 0.028699 0.031232
v -0.128423 0.028677 0.031132
v -0.101001 0.048174 0.119675
v -0.101001 -0.006421 -0.128263
v -0.101001 0.026805 0.022804
v -0.128423 0.012864 -0.040681
v -0.101001 0.007228 -0.050737
v -0.001485 0.012896 -0.040538
v -0.031109 -0.006421 -0.128263
v -0.031109 0.010469 -0.044901
v -0.031109 0.048174 0.119675
v -0.031109 0.027455 0.025693
v -0.101001 -0.123957 0.074581
v -0.101001 -0.193453 0.050356
v -0.031109 -0.193302 0.050406
v -0.031109 -0.123833 0.074585
v -0.156077 0.277305 0.007119
v -0.217640 0.293863 -0.029888
v -0.185758 0.291847 -0.085226
v -0.123646 0.274775 -0.048014
v -0.031109 -0.074521 -0.067078
v -0.101001 -0.074600 -0.066992
v -0.101001 -0.143943 -0.090686
v -0.031109 -0.143933 -0.091191
vt 0.266908 0.524887
vt 0.266908 0.787331
vt 0.133454 0.787331
vt 0.533816 0.262444
vt 0.533816 0.000000
vt 0.800723 0.000000
vt 0.888345 0.260463
vt 0.844534 0.260463
vt 0.844534 0.219070
vt 0.266908 0.262444
vt 0.175551 0.352272
vt 0.091356 0.352272
vt 0.000000 0.393666
vt 0.000000 0.262444
vt 0.846961 0.659813
vt 0.895213 0.675672
vt 0.846961 0.742600
vt 0.800723 0.177676
vt 0.844534 0.177676
vt 0.804863 0.307243
vt 0.895213 0.307243
vt 0.895213 0.352044
vt 0.383204 0.569687
vt 0.447606 0.569687
vt 0.447606 0.614487
vt 0.383226 0.524887
vt 0.330738 0.569687
vt 0.266908 0.569687
vt 0.330738 0.614487
vt 0.624165 0.657168
vt 0.624165 0.701969
vt 0.533816 0.701969
vt 0.895213 0.790045
vt 0.804863 0.790045
vt 0.891073 0.114297
vt 0.912158 0.114282
vt 0.912158 0.177676
vt 0.825949 0.612369
vt 0.804863 0.352044
vt 0.383185 0.614487
vt 0.447606 0.874812
vt 0.447606 0.524887
vt 0.330738 0.524887
vt 0.624165 0.612369
vt 0.533816 0.657168
vt 0.804863 0.262444
vt 0.895213 0.262444
vt 0.804863 0.659813
vt 0.804863 0.612369
vt 0.603079 0.962294
vt 0.553333 0.962294
vt 0.932155 0.219070
vt 0.888345 0.219070
vt 0.888345 0.177676
vt 0.895213 0.367421
vt 0.947679 0.262444
vt 0.266908 0.000000
vt 0.266908 0.131222
vt 0.000000 0.131222
vt 0.266908 0.393666
vt 0.175551 0.393666
vt 0.400362 0.000000
vt 0.400362 0.262444
vt 0.895213 0.943897
vt 0.895213 0.892309
vt 0.940775 0.892327
vt 0.947660 0.577376
vt 0.895213 0.577376
vt 0.895213 0.472399
vt 0.244546 0.892309
vt 0.198984 0.892309
vt 0.198984 0.787331
vt 0.760076 0.895023
vt 0.760076 0.790045
vt 0.805638 0.790045
vt 0.961904 0.177676
vt 0.961904 0.114249
vt 0.981422 0.114225
vt 0.981422 0.062762
vt 0.981422 0.000000
vt 0.961904 0.062784
vt 0.383075 0.874812
vt 0.330738 0.874812
vt 0.266908 0.614487
vt 0.891073 0.062865
vt 0.912158 0.062841
vt 0.891073 0.000000
vt 0.912158 0.000000
vt 0.149238 0.892309
vt 0.149238 0.787331
vt 0.961904 0.000000
vt 0.316654 0.926254
vt 0.266908 0.926311
vt 0.266908 0.874846
vt 0.099492 0.892309
vt 0.099492 0.787331
vt 1.000000 0.577376
vt 0.947660 0.472399
vt 0.999976 0.787331
vt 0.999976 0.892309
vt 0.947660 0.892309
vt 0.760076 1.000000
vt 0.805638 0.895023
vt 0.244546 0.997286
vt 0.198984 0.997286
vt 0.947660 0.682354
vt 0.895213 0.682354
vt 0.947679 0.367421
vt 0.999976 0.682354
vt 0.947660 0.787331
vt 0.099492 0.997286
vt 0.149238 0.997286
vt 0.000000 0.787331
vt 0.000000 0.524887
vt 0.533816 0.524887
vt 0.091356 0.435059
vt 0.175551 0.435059
vt 0.091356 0.393666
vt 0.714514 0.727283
vt 0.714514 0.675672
vt 0.762766 0.742600
vt 0.895011 0.790045
vt 0.895011 0.872832
vt 0.851201 0.872832
vt 0.714514 0.352044
vt 0.714514 0.307243
vt 0.598218 0.307243
vt 0.598237 0.352044
vt 0.533816 0.352044
vt 0.650684 0.307243
vt 0.598196 0.262444
vt 0.650684 0.352044
vt 0.714514 0.701969
vt 0.714514 0.790045
vt 0.869987 0.177676
vt 0.869987 0.114282
vt 0.783778 0.612369
vt 0.734032 0.612369
vt 0.598346 0.612369
vt 0.533816 0.612369
vt 0.533816 0.307243
vt 0.650684 0.262444
vt 0.714514 0.657168
vt 0.762766 0.659813
vt 0.714514 0.612369
vt 0.694996 0.962294
vt 0.645250 0.962294
vt 0.500072 0.629865
vt 0.500072 0.734842
vt 0.447606 0.734842
vt 0.411962 0.926401
vt 0.366400 0.926401
vt 0.366400 0.874831
vt 0.851201 1.000000
vt 0.805639 1.000000
vt 0.820241 0.177676
vt 0.800723 0.114225
vt 0.820241 0.114249
vt 0.800723 0.062762
vt 0.820241 0.062784
vt 0.650684 0.612369
vt 0.869987 0.062841
vt 0.049746 0.892309
vt 0.049746 0.997286
vt 0.000000 0.997286
vt 0.869987 0.000000
vt 0.316654 0.874812
vt 0.049746 0.787331
vt 0.500072 0.839820
vt 0.500072 0.944797
vt 0.447732 0.944797
vt 0.999995 0.262444
vt 0.999995 0.367421
vt 0.851201 0.895023
vt 0.714514 1.000000
vt 0.714514 0.895022
vt 0.895213 0.787331
vt 0.447606 0.629865
vt 0.999995 0.472399
vt 0.447732 0.839820
vt 0.000000 0.892309
vt 0.133454 0.524887
vt 0.800723 0.262444
vt 0.895213 0.727283
vt 0.895213 0.612369
vt 0.800723 0.260463
vt 0.804863 0.742600
vt 0.891073 0.177676
vt 0.875695 0.612369
vt 0.533816 0.962294
vt 0.624165 0.962294
vt 0.932155 0.177676
vt 0.000000 0.000000
vt 0.940775 0.943897
vt 0.244546 0.787331
vt 0.981422 0.177676
vt 0.851201 0.790045
vt 0.714514 0.262444
vt 0.714514 0.962294
vt 0.932155 0.260463
vt 0.411962 0.874812
vt 0.820241 0.000000
vt 0.366400 0.926311
vt 0.500072 0.524887
vt 0.447732 0.734842
vn 0.000000 -0.215000 -0.976600
vn 1.000000 0.000000 0.000000
vn 0.000000 -0.976600 0.215000
vn -0.000000 0.976600 -0.215000
vn 1.000000 0.000100 0.000600
vn 1.000000 0.002200 0.005700
vn 0.999900 -0.009700 -0.003600
vn -0.000000 0.215000 0.976600
vn 0.016300 -0.977600 0.209800
vn 1.000000 0.006400 -0.007000
vn 0.996700 0.076900 0.026700
vn 0.081400 -0.935300 -0.344300
vn -0.997100 -0.066200 -0.036900
vn 0.002000 0.345600 -0.938400
vn 0.001100 -0.345300 0.938500
vn -0.020700 -0.977700 0.208900
vn -0.021100 -0.976400 0.215000
vn -0.036700 -0.975900 0.214900
vn 1.000000 0.000300 0.000600
vn 0.016000 -0.976400 0.215300
vn 0.000000 -0.975400 0.220300
vn 0.000700 0.222600 0.974900
vn 0.001200 -0.977900 0.208900
vn 0.000000 -0.974000 0.226500
vn -0.000000 -0.974900 0.222600
vn -0.003400 -0.222600 -0.974900
vn -1.000000 -0.000000 -0.000000
vn -0.029700 0.032800 0.999000
vn -0.193600 -0.196700 -0.961200
vn -0.987700 0.152800 -0.032700
vn 0.963600 0.251400 0.091000
vn -0.003200 0.306900 -0.951700
vn 0.005000 -0.320800 0.947100
vn -1.000000 0.000300 -0.000100
vn -0.999900 0.002400 0.011900
vn 0.000800 -0.976600 0.215300
vn -1.000000 -0.000000 -0.000200
vn -0.999900 0.010700 -0.011900
vn -0.507000 0.039600 0.861100
vn -0.213300 -0.973600 -0.080800
vn 0.507000 -0.039600 -0.861100
vn -0.835200 0.224600 -0.502000
vn 0.835400 -0.224700 0.501700
vn -0.001400 -0.976600 0.215000
vn -0.121000 -0.969400 0.213500
vn 0.000800 -0.976600 0.215000
vn 0.048300 -0.975500 0.214800
vn -0.001700 0.944300 0.329200
vn 0.000200 -0.976500 0.215400
vn 0.028800 -0.979700 0.198500
vn 0.000500 -0.328700 0.944400
vn 0.002300 -0.943600 -0.331200
vn 0.862100 0.038100 0.505300
vn -0.806800 0.348000 -0.477500
vn 0.517100 0.016000 -0.855800
vn -0.396200 0.387400 0.832400
vn -0.007000 0.255500 -0.966800
vn 0.001700 -0.663000 0.748700
vn 1.000000 -0.000900 0.000200
vn 1.000000 0.007600 -0.001700
vn 1.000000 0.001100 0.000400
vn -0.996700 -0.076900 -0.026700
vn -0.001400 0.343900 -0.939000
vn -0.035900 -0.977200 0.209400
vn 1.000000 -0.000000 -0.000800
vn 0.016600 -0.976500 0.215000
vn 0.016000 -0.976500 0.215000
vn 0.000000 -0.977700 0.209800
vn 0.007800 -0.975400 0.220300
vn -0.001200 -0.221600 -0.975100
vn 0.414300 0.193600 0.889300
vn 0.033000 -0.076200 -0.996500
vn -0.992900 0.115000 0.031200
vn 0.954000 0.293800 -0.059800
vn -0.028500 0.318000 -0.947700
vn 0.000600 -0.318800 0.947800
vn -0.999900 0.013000 -0.002900
vn -0.999900 -0.014900 -0.006400
vn -1.000000 -0.000300 0.000100
vn 0.505800 -0.038500 -0.861800
vn -0.841700 0.220500 -0.492900
vn -0.001300 -0.976500 0.215400
vn -0.103700 -0.961100 0.255900
vn 0.000000 -0.984900 0.173400
vn 0.045200 -0.971300 0.233700
vn 0.000000 -0.980100 0.198600
vn -0.000700 0.944400 0.328700
vn 0.000000 -0.976600 0.215300
vn 0.000000 -0.329200 0.944300
vn -0.002200 -0.944200 -0.329200
vn 0.741300 0.140700 0.656300
vn -0.630900 -0.154800 -0.760300
vn 0.843200 -0.525000 0.115600
vn -0.878000 0.469400 -0.093500
vn 0.066500 0.286500 -0.955800
vn -0.024300 -0.672700 0.739500
usemtl Material
s off
f 6/1/1 5/2/1 78/3/1
f 4/4/2 3/5/2 5/6/2
f 10/7/1 12/8/1 83/9/1
f 3/10/3 9/11/3 10/12/3
f 78/13/3 5/14/3 10/12/3
f 11/15/4 21/16/4 12/17/4
f 9/18/2 11/19/2 12/8/2
f 63/20/1 17/21/1 7/22/1
f 14/23/5 18/24/5 8/25/5
f 21/26/6 14/23/6 13/27/6
f 17/28/7 13/27/7 1/29/7
f 62/30/8 50/31/8 8/32/8
f 12/17/4 16/33/4 85/34/4
f 93/35/9 37/36/9 36/37/9
f 7/22/1 34/38/1 51/39/1
f 2/40/2 8/25/2 19/41/2
f 21/26/2 15/42/2 18/24/2
f 23/43/10 13/27/10 17/28/10
f 86/44/8 62/30/8 18/45/8
f 85/46/1 16/47/1 17/21/1
f 11/15/4 84/48/4 86/49/4
f 36/50/8 29/51/8 8/32/8
f 82/52/8 84/53/8 11/54/8
f 42/55/11 27/47/11 26/56/11
f 6/57/4 77/58/4 79/59/4
f 80/60/3 82/61/3 9/11/3
f 79/62/8 80/63/8 3/10/8
f 26/64/12 27/65/12 25/66/12
f 45/67/13 44/68/13 24/69/13
f 44/70/14 43/71/14 26/72/14
f 45/73/15 25/74/15 27/75/15
f 29/76/16 31/77/16 22/78/16
f 32/79/17 28/78/17 31/77/17
f 20/80/18 32/79/18 33/81/18
f 2/40/2 28/82/2 32/83/2
f 7/84/19 1/29/19 32/83/19
f 100/85/20 35/86/20 37/36/20
f 87/87/21 34/88/21 35/86/21
f 46/89/22 41/90/22 38/72/22
f 37/36/23 31/77/23 29/76/23
f 34/88/24 30/91/24 33/81/24
f 40/92/25 39/93/25 38/94/25
f 49/89/26 48/95/26 39/96/26
f 48/97/2 47/67/2 38/98/2
f 49/99/27 40/100/27 41/101/27
f 2/102/28 45/73/28 42/103/28
f 1/104/29 13/105/29 43/71/29
f 2/106/30 1/107/30 44/68/30
f 14/69/31 42/55/31 43/108/31
f 35/109/27 49/99/27 46/110/27
f 33/109/2 31/106/2 47/67/2
f 33/111/32 48/95/32 49/89/32
f 31/105/33 37/112/33 46/89/33
f 78/3/1 56/113/1 57/114/1
f 56/4/27 54/115/27 55/1/27
f 83/9/1 65/19/1 61/54/1
f 61/116/3 60/117/3 54/1/3
f 78/13/3 81/118/3 61/116/3
f 76/119/4 74/120/4 65/121/4
f 65/122/27 64/123/27 60/124/27
f 51/39/1 58/125/1 70/126/1
f 67/127/34 53/128/34 59/129/34
f 66/130/35 67/127/35 74/131/35
f 70/126/27 58/125/27 52/132/27
f 59/133/8 50/31/8 62/30/8
f 85/34/4 69/134/4 65/121/4
f 103/135/36 104/136/36 93/35/36
f 101/137/1 96/138/1 58/125/1
f 53/128/27 75/139/27 72/140/27
f 67/127/37 71/141/37 68/4/37
f 70/126/38 66/130/38 76/142/38
f 71/143/8 62/30/8 86/44/8
f 85/46/1 63/20/1 70/126/1
f 64/144/4 68/145/4 86/49/4
f 95/146/8 103/147/8 59/133/8
f 64/7/8 84/53/8 82/52/8
f 110/148/39 91/149/39 92/150/39
f 79/59/4 77/58/4 57/10/4
f 60/117/3 82/61/3 80/60/3
f 54/4/8 80/63/8 79/62/8
f 91/151/40 89/152/40 90/153/40
f 112/110/41 90/101/41 89/65/41
f 89/134/42 91/74/42 110/73/42
f 92/154/43 90/155/43 112/103/43
f 95/156/3 72/18/3 75/157/3
f 97/158/44 94/157/44 98/159/44
f 99/160/45 98/159/45 73/6/45
f 52/132/27 98/161/27 94/139/27
f 98/161/27 52/132/27 58/125/27
f 100/85/46 93/35/46 104/136/46
f 87/87/47 100/85/47 102/162/47
f 114/163/48 105/164/48 108/165/48
f 95/156/49 97/158/49 104/136/49
f 101/166/50 102/162/50 99/160/50
f 107/92/51 108/167/51 105/153/51
f 107/168/52 106/96/52 115/95/52
f 115/169/27 106/170/27 105/171/27
f 108/56/2 107/172/2 116/173/2
f 109/174/53 112/103/53 53/75/53
f 52/175/54 111/176/54 110/73/54
f 53/106/55 112/110/55 111/177/55
f 110/148/56 109/178/56 67/42/56
f 113/108/2 116/173/2 102/179/2
f 99/149/27 115/169/27 114/180/27
f 116/163/57 115/95/57 99/111/57
f 97/168/58 114/163/58 113/181/58
f 77/182/1 6/1/1 78/3/1
f 6/183/2 4/4/2 5/6/2
f 81/53/1 10/7/1 83/9/1
f 5/14/3 3/10/3 10/12/3
f 81/118/3 78/13/3 10/12/3
f 16/33/4 12/17/4 23/184/4
f 11/15/4 15/185/4 21/16/4
f 21/16/4 23/184/4 12/17/4
f 10/186/2 9/18/2 12/8/2
f 51/39/1 63/20/1 7/22/1
f 2/40/59 14/23/59 8/25/59
f 23/43/60 21/26/60 13/27/60
f 7/84/5 17/28/5 1/29/5
f 18/45/8 62/30/8 8/32/8
f 83/187/4 12/17/4 85/34/4
f 88/188/3 93/35/3 36/37/3
f 87/49/1 51/39/1 34/38/1
f 7/22/1 20/185/1 30/189/1
f 30/189/1 34/38/1 7/22/1
f 22/82/2 2/40/2 19/41/2
f 14/23/61 21/26/61 18/24/61
f 16/1/2 23/43/2 17/28/2
f 15/140/8 86/44/8 18/45/8
f 63/20/1 85/46/1 17/21/1
f 15/185/4 11/15/4 86/49/4
f 19/190/8 8/32/8 29/51/8
f 50/31/8 88/191/8 36/50/8
f 36/50/8 8/32/8 50/31/8
f 9/192/8 82/52/8 11/54/8
f 43/108/11 42/55/11 26/56/11
f 4/193/4 6/57/4 79/59/4
f 3/10/3 80/60/3 9/11/3
f 4/57/8 79/62/8 3/10/8
f 24/194/12 26/64/12 25/66/12
f 25/98/62 45/67/62 24/69/62
f 24/195/63 44/70/63 26/72/63
f 42/103/15 45/73/15 27/75/15
f 19/196/3 29/76/3 22/78/3
f 33/81/64 32/79/64 31/77/64
f 30/91/24 20/80/24 33/81/24
f 1/29/65 2/40/65 32/83/65
f 20/94/2 7/84/2 32/83/2
f 93/35/66 100/85/66 37/36/66
f 100/85/67 87/87/67 35/86/67
f 47/71/22 46/89/22 38/72/22
f 36/37/68 37/36/68 29/76/68
f 35/86/69 34/88/69 33/81/69
f 41/167/25 40/92/25 38/94/25
f 40/90/70 49/89/70 39/96/70
f 39/179/2 48/97/2 38/98/2
f 46/110/27 49/99/27 41/101/27
f 14/155/71 2/102/71 42/103/71
f 44/70/72 1/104/72 43/71/72
f 45/67/73 2/106/73 44/68/73
f 13/98/74 14/69/74 43/108/74
f 37/106/27 35/109/27 46/110/27
f 48/97/2 33/109/2 47/67/2
f 35/112/75 33/111/75 49/89/75
f 47/71/76 31/105/76 46/89/76
f 77/182/1 78/3/1 57/114/1
f 57/10/27 56/4/27 55/1/27
f 81/53/1 83/9/1 61/54/1
f 56/114/3 61/116/3 54/1/3
f 56/114/3 78/13/3 61/116/3
f 64/144/4 65/121/4 74/120/4
f 69/134/4 76/119/4 65/121/4
f 74/120/4 68/145/4 64/144/4
f 61/197/27 65/122/27 60/124/27
f 63/20/1 51/39/1 70/126/1
f 71/141/37 67/127/37 59/129/37
f 76/142/77 66/130/77 74/131/77
f 66/130/78 70/126/78 52/132/78
f 71/143/8 59/133/8 62/30/8
f 83/187/4 85/34/4 65/121/4
f 88/188/3 103/135/3 93/35/3
f 58/125/1 51/39/1 101/137/1
f 87/49/1 101/137/1 51/39/1
f 96/138/1 73/145/1 58/125/1
f 59/129/27 53/128/27 72/140/27
f 74/131/79 67/127/79 68/4/79
f 69/198/27 70/126/27 76/142/27
f 68/145/8 71/143/8 86/44/8
f 69/198/1 85/46/1 70/126/1
f 84/48/4 64/144/4 86/49/4
f 50/31/8 59/133/8 103/147/8
f 72/199/8 95/146/8 59/133/8
f 103/147/8 88/191/8 50/31/8
f 60/200/8 64/7/8 82/52/8
f 109/178/39 110/148/39 92/150/39
f 55/14/4 79/59/4 57/10/4
f 54/1/3 60/117/3 80/60/3
f 55/5/8 54/4/8 79/62/8
f 92/201/40 91/151/40 90/153/40
f 111/177/80 112/110/80 89/65/80
f 111/176/81 89/134/81 110/73/81
f 109/174/43 92/154/43 112/103/43
f 97/158/82 95/156/82 75/157/82
f 99/160/83 97/158/83 98/159/83
f 96/202/84 99/160/84 73/6/84
f 53/128/27 52/132/27 94/139/27
f 73/145/27 98/161/27 58/125/27
f 102/162/85 100/85/85 104/136/85
f 101/166/86 87/87/86 102/162/86
f 113/181/87 114/163/87 108/165/87
f 103/135/88 95/156/88 104/136/88
f 96/202/84 101/166/84 99/160/84
f 106/203/89 107/92/89 105/153/89
f 116/163/90 107/168/90 115/95/90
f 114/180/27 115/169/27 105/171/27
f 113/108/2 108/56/2 116/173/2
f 67/197/91 109/174/91 53/75/91
f 66/102/92 52/175/92 110/73/92
f 52/107/93 53/106/93 111/177/93
f 66/204/94 110/148/94 67/42/94
f 104/98/2 113/108/2 102/179/2
f 97/205/27 99/149/27 114/180/27
f 102/164/95 116/163/95 99/111/95
f 104/113/96 97/168/96 113/181/96
