# Blender v2.76 (sub 0) OBJ File: 'a.blend'
# www.blender.org
mtllib a_000009.mtl
o Plane
v 0.125376 0.375912 -0.120500
v 0.125454 0.391981 -0.048709
v 0.186015 0.609613 0.058061
v 0.186015 0.975839 -0.022581
v 0.186015 0.528971 -0.308166
v 0.186015 0.895198 -0.388807
v 0.125454 0.356849 -0.208253
v 0.125454 0.411444 0.039685
v 0.057662 0.582011 -0.067290
v 0.057662 0.556573 -0.182815
v 0.057662 0.521898 -0.054054
v 0.057662 0.496460 -0.169578
v 0.125132 0.437109 -0.132988
v 0.125534 0.454262 -0.062387
v 0.125454 0.536476 0.012153
v 0.125454 0.481881 -0.235785
v 0.125454 0.419366 -0.222019
v 0.125454 0.473961 0.025919
v 0.125454 0.048174 0.119675
v 0.125454 -0.006421 -0.128263
v 0.125454 0.517025 -0.076184
v 0.125454 0.028677 0.031132
v 0.125454 0.501167 -0.148203
v 0.112510 0.284708 -0.333936
v 0.183725 0.266450 -0.328938
v 0.128013 0.346599 -0.328745
v 0.199253 0.328335 -0.323745
v 0.125454 0.028677 0.031132
v 0.098032 0.048174 0.119675
v 0.098032 -0.006421 -0.128263
v 0.098032 0.029029 0.029653
v 0.125454 0.012864 -0.040681
v 0.098032 0.014989 -0.043329
v 0.028140 -0.006421 -0.128263
v 0.028140 0.013886 -0.041834
v 0.028140 0.048174 0.119675
v 0.028140 0.028988 0.029926
v 0.098032 -0.249450 -0.098430
v 0.098032 -0.232193 -0.169913
v 0.028140 -0.232212 -0.169835
v 0.028140 -0.249461 -0.098383
v 0.186402 0.319042 -0.174585
v 0.115162 0.337306 -0.179585
v 0.100666 0.275992 -0.184410
v 0.170874 0.257157 -0.179779
v 0.028140 -0.103649 -0.063184
v 0.098032 -0.103638 -0.063231
v 0.098032 -0.086382 -0.134714
v 0.028140 -0.086494 -0.134385
v -0.001485 0.411444 0.039685
v -0.001485 0.356849 -0.208253
v -0.128423 0.376135 -0.120672
v -0.128423 0.391981 -0.048709
v -0.188985 0.609613 0.058061
v -0.188985 0.975839 -0.022581
v -0.188985 0.528971 -0.308166
v -0.188985 0.895198 -0.388807
v -0.128423 0.356849 -0.208253
v -0.128423 0.411444 0.039685
v -0.060631 0.582011 -0.067290
v -0.060631 0.556573 -0.182815
v -0.001485 0.473961 0.025919
v -0.001485 0.419366 -0.222019
v -0.060631 0.521898 -0.054054
v -0.060631 0.496460 -0.169578
v -0.129280 0.440062 -0.132960
v -0.128405 0.454879 -0.062176
v -0.128423 0.536476 0.012153
v -0.128423 0.481881 -0.235785
v -0.128423 0.419366 -0.222019
v -0.128423 0.473961 0.025919
v -0.128423 0.048174 0.119675
v -0.128423 -0.006421 -0.128263
v -0.128423 0.517025 -0.076184
v -0.128423 0.028677 0.031132
v -0.128423 0.501167 -0.148203
v -0.001485 0.895198 -0.388807
v -0.001485 0.528971 -0.308166
v -0.001485 0.975839 -0.022581
v -0.001485 0.609613 0.058061
v -0.001485 0.556573 -0.182815
v -0.001485 0.582011 -0.067290
v -0.001485 0.496460 -0.169578
v -0.001485 0.521898 -0.054054
v -0.001485 0.481881 -0.235785
v -0.001485 0.536476 0.012153
v -0.001485 -0.006421 -0.128263
v -0.001485 0.048174 0.119675
v -0.217183 0.259575 0.099870
v -0.155643 0.271660 0.138555
v -0.249636 0.297966 0.139503
v -0.188073 0.310055 0.178202
v -0.001485 0.028699 0.031232
v -0.128423 0.028677 0.031132
v -0.101001 0.048174 0.119675
v -0.101001 -0.006421 -0.128263
v -0.101001 0.027167 0.028892
v -0.128423 0.012864 -0.040681
v -0.101001 0.007695 -0.041322
v -0.001485 0.012896 -0.040538
v -0.031109 -0.006421 -0.128263
v -0.031109 0.010669 -0.040861
v -0.031109 0.048174 0.119675
v -0.031109 0.027694 0.029711
v -0.101001 -0.093974 0.255233
v -0.101001 -0.164984 0.235649
v -0.031109 -0.164808 0.235851
v -0.031109 -0.093831 0.255335
v -0.156077 0.427538 0.090601
v -0.217640 0.415449 0.051902
v -0.185758 0.377052 0.011455
v -0.123646 0.389143 0.050954
v -0.031109 -0.054325 0.110631
v -0.101001 -0.054420 0.110582
v -0.101001 -0.125370 0.090551
v -0.031109 -0.125239 0.091211
vt 0.266908 0.524887
vt 0.266908 0.787331
vt 0.133454 0.787331
vt 0.533816 0.262444
vt 0.533816 0.000000
vt 0.800723 0.000000
vt 0.888345 0.260463
vt 0.844534 0.260463
vt 0.844534 0.219070
vt 0.266908 0.262444
vt 0.175551 0.352272
vt 0.091356 0.352272
vt 0.000000 0.393666
vt 0.000000 0.262444
vt 0.846961 0.659813
vt 0.895213 0.675672
vt 0.846961 0.742600
vt 0.800723 0.177676
vt 0.844534 0.177676
vt 0.804863 0.307243
vt 0.895213 0.307243
vt 0.895213 0.352044
vt 0.383204 0.569687
vt 0.447606 0.569687
vt 0.447606 0.614487
vt 0.330738 0.524887
vt 0.383226 0.524887
vt 0.330738 0.569687
vt 0.330738 0.614487
vt 0.266908 0.614487
vt 0.624165 0.657168
vt 0.624165 0.701969
vt 0.533816 0.701969
vt 0.895213 0.790045
vt 0.804863 0.790045
vt 0.891073 0.114297
vt 0.912158 0.114282
vt 0.912158 0.177676
vt 0.825949 0.612369
vt 0.804863 0.352044
vt 0.383185 0.614487
vt 0.447606 0.874812
vt 0.447606 0.524887
vt 0.266908 0.569687
vt 0.624165 0.612369
vt 0.533816 0.657168
vt 0.804863 0.262444
vt 0.895213 0.262444
vt 0.804863 0.659813
vt 0.804863 0.612369
vt 0.603079 0.962294
vt 0.553333 0.962294
vt 0.932155 0.219070
vt 0.888345 0.219070
vt 0.888345 0.177676
vt 0.895213 0.367421
vt 0.947679 0.262444
vt 0.266908 0.000000
vt 0.266908 0.131222
vt 0.000000 0.131222
vt 0.266908 0.393666
vt 0.175551 0.393666
vt 0.400362 0.000000
vt 0.400362 0.262444
vt 0.895213 0.943897
vt 0.895213 0.892309
vt 0.940775 0.892327
vt 0.895213 0.577376
vt 0.895213 0.472399
vt 0.947660 0.472399
vt 0.244546 0.892309
vt 0.198984 0.892309
vt 0.198984 0.787331
vt 0.760076 0.895023
vt 0.760076 0.790045
vt 0.805638 0.790045
vt 0.961904 0.177676
vt 0.961904 0.114249
vt 0.981422 0.114225
vt 0.981422 0.062762
vt 0.981422 0.000000
vt 0.961904 0.062784
vt 0.383075 0.874812
vt 0.330738 0.874812
vt 0.266908 0.874812
vt 0.891073 0.062865
vt 0.912158 0.062841
vt 0.891073 0.000000
vt 0.912158 0.000000
vt 0.149238 0.892309
vt 0.149238 0.787331
vt 0.961904 0.000000
vt 0.316654 0.926254
vt 0.266908 0.926311
vt 0.099492 0.892309
vt 0.099492 0.787331
vt 1.000000 0.577376
vt 0.947660 0.577376
vt 0.999976 0.787331
vt 0.999976 0.892309
vt 0.947660 0.892309
vt 0.760076 1.000000
vt 0.805638 0.895023
vt 0.244546 0.997286
vt 0.198984 0.997286
vt 0.895213 0.682354
vt 0.999976 0.682354
vt 0.947660 0.787331
vt 0.947660 0.682354
vt 0.099492 0.997286
vt 0.149238 0.997286
vt 0.000000 0.787331
vt 0.000000 0.524887
vt 0.533816 0.524887
vt 0.091356 0.435059
vt 0.175551 0.435059
vt 0.091356 0.393666
vt 0.714514 0.727283
vt 0.714514 0.675672
vt 0.762766 0.742600
vt 0.895011 0.790045
vt 0.895011 0.872832
vt 0.851201 0.872832
vt 0.714514 0.352044
vt 0.714514 0.307243
vt 0.598218 0.307243
vt 0.598237 0.352044
vt 0.533816 0.352044
vt 0.650684 0.307243
vt 0.598196 0.262444
vt 0.650684 0.352044
vt 0.714514 0.701969
vt 0.714514 0.790045
vt 0.869987 0.177676
vt 0.869987 0.114282
vt 0.783778 0.612369
vt 0.734032 0.612369
vt 0.598346 0.612369
vt 0.533816 0.612369
vt 0.533816 0.307243
vt 0.650684 0.262444
vt 0.714514 0.657168
vt 0.762766 0.659813
vt 0.714514 0.612369
vt 0.694996 0.962294
vt 0.645250 0.962294
vt 0.500072 0.629865
vt 0.500072 0.734842
vt 0.447606 0.734842
vt 0.411962 0.926401
vt 0.366400 0.926401
vt 0.366400 0.874831
vt 0.851201 0.895023
vt 0.851201 1.000000
vt 0.805639 1.000000
vt 0.820241 0.177676
vt 0.800723 0.114225
vt 0.820241 0.114249
vt 0.800723 0.062762
vt 0.820241 0.062784
vt 0.650684 0.612369
vt 0.869987 0.062841
vt 0.049746 0.997286
vt 0.000000 0.997286
vt 0.000000 0.892309
vt 0.869987 0.000000
vt 0.316654 0.874812
vt 0.049746 0.892309
vt 0.049746 0.787331
vt 0.500072 0.944797
vt 0.447732 0.944797
vt 0.447732 0.839820
vt 0.947679 0.367421
vt 0.999995 0.262444
vt 0.851201 0.790045
vt 0.714514 0.895022
vt 0.895213 0.787331
vt 0.447606 0.629865
vt 0.999995 0.367421
vt 0.500072 0.839820
vt 0.447732 0.734842
vt 0.133454 0.524887
vt 0.800723 0.262444
vt 0.895213 0.727283
vt 0.895213 0.612369
vt 0.800723 0.260463
vt 0.804863 0.742600
vt 0.891073 0.177676
vt 0.875695 0.612369
vt 0.533816 0.962294
vt 0.624165 0.962294
vt 0.932155 0.177676
vt 0.000000 0.000000
vt 0.940775 0.943897
vt 0.244546 0.787331
vt 0.981422 0.177676
vt 1.000000 0.472399
vt 0.714514 0.262444
vt 0.714514 0.962294
vt 0.932155 0.260463
vt 0.411962 0.874812
vt 0.820241 0.000000
vt 0.366400 0.926311
vt 0.714514 1.000000
vt 0.500072 0.524887
vn 0.000000 -0.215000 -0.976600
vn 1.000000 0.000000 0.000000
vn 0.000000 -0.976600 0.215000
vn -0.000000 0.976600 -0.215000
vn 1.000000 0.000200 0.000900
vn 1.000000 0.001200 -0.000300
vn 1.000000 0.004000 0.000000
vn -0.000000 0.215000 0.976600
vn 0.018700 -0.977700 0.209000
vn 1.000000 -0.004000 0.004400
vn 0.242200 0.966800 0.081100
vn 0.085700 0.062000 -0.994400
vn -0.242600 -0.967200 -0.075600
vn -0.969600 0.234700 -0.068900
vn 0.966300 -0.248200 0.067800
vn -0.023800 -0.977800 0.208000
vn -0.024100 -0.976300 0.215000
vn -0.096000 -0.972100 0.214100
vn 1.000000 0.000200 -0.000000
vn 1.000000 0.000200 0.000800
vn 0.041700 -0.977700 0.205800
vn 0.000000 -0.973500 0.228700
vn 0.000700 -0.234700 0.972100
vn 0.001400 -0.978100 0.208000
vn 0.000000 -0.969700 0.244400
vn -0.000000 -0.972100 -0.234700
vn -0.005000 0.234700 -0.972100
vn -1.000000 0.000000 -0.000000
vn 0.808000 -0.247600 0.534700
vn -0.987900 0.027300 0.153000
vn -0.188900 -0.495600 0.847800
vn 0.862100 0.491200 -0.124300
vn -0.004600 0.669600 -0.742700
vn 0.003500 -0.574600 0.818500
vn -1.000000 0.000300 -0.000100
vn -0.999900 0.002400 0.011900
vn 0.021700 -0.974800 0.221900
vn -1.000000 -0.000000 -0.000200
vn -0.999900 0.011000 -0.012200
vn -0.507000 0.599700 0.619100
vn -0.213300 -0.783200 0.584000
vn 0.507000 -0.599700 -0.619100
vn -0.835200 -0.164000 -0.525000
vn 0.835400 0.163800 0.524700
vn -0.036200 -0.976000 0.214900
vn -0.176300 -0.961300 0.211700
vn 0.022100 -0.976400 0.215000
vn 0.070900 -0.974100 0.214500
vn -0.002300 0.964700 0.263400
vn 0.004700 -0.974200 0.225400
vn 0.040500 -0.980600 0.191700
vn -0.000900 -0.264700 0.964300
vn 0.003200 -0.964600 -0.263900
vn 0.849200 0.471300 0.238200
vn -0.861100 -0.246800 -0.444500
vn 0.214200 -0.976000 -0.038100
vn -0.265200 0.956300 0.123100
vn 0.008000 -0.703900 -0.710300
vn -0.001500 0.702300 0.711900
vn 1.000000 -0.001200 0.000300
vn 1.000000 -0.006000 -0.004200
vn 1.000000 0.000800 0.003500
vn 1.000000 0.001400 0.000600
vn -0.253200 -0.963900 -0.081900
vn -0.966900 0.247400 -0.062200
vn -0.093900 -0.977700 0.188100
vn 1.000000 -0.000200 -0.001000
vn 0.019000 -0.976400 0.215000
vn 0.042000 -0.975700 0.214900
vn 0.000000 -0.977900 0.209100
vn 0.020200 -0.973300 0.228700
vn -0.001200 0.236400 -0.971700
vn 0.915300 0.085300 0.393700
vn -0.973300 0.228600 0.018900
vn -0.914400 -0.394900 0.089400
vn 0.166600 0.403400 -0.899700
vn -0.026400 0.677600 -0.734900
vn 0.000600 -0.573500 0.819200
vn -0.999900 0.013300 -0.002900
vn -0.999900 -0.014600 -0.006200
vn -1.000000 -0.000300 0.000100
vn 0.509100 -0.600400 -0.616800
vn -0.843500 -0.160300 -0.512700
vn -0.035200 -0.973700 0.225300
vn -0.172800 -0.949100 0.263200
vn 0.000000 -0.987100 0.160300
vn 0.070300 -0.969700 0.233900
vn 0.000000 -0.981400 0.191900
vn -0.001500 0.964600 0.263800
vn 0.000000 -0.975100 0.222000
vn -0.002100 -0.265900 0.964000
vn 0.004300 -0.964700 -0.263400
vn 0.998800 -0.010600 -0.048200
vn -0.914000 -0.088400 -0.396000
vn 0.432700 -0.880500 0.193900
vn -0.565000 0.808900 -0.162400
vn 0.034400 -0.696500 -0.716700
vn -0.013600 0.707500 0.706600
usemtl Material
s off
f 6/1/1 5/2/1 78/3/1
f 4/4/2 3/5/2 5/6/2
f 10/7/1 12/8/1 83/9/1
f 3/10/3 9/11/3 10/12/3
f 78/13/3 5/14/3 10/12/3
f 11/15/4 21/16/4 12/17/4
f 9/18/2 11/19/2 12/8/2
f 63/20/1 17/21/1 7/22/1
f 14/23/5 18/24/5 8/25/5
f 23/26/6 21/27/6 14/23/6
f 13/28/7 1/29/7 7/30/7
f 62/31/8 50/32/8 8/33/8
f 12/17/4 16/34/4 85/35/4
f 93/36/9 37/37/9 36/38/9
f 7/22/1 34/39/1 51/40/1
f 2/41/2 8/25/2 19/42/2
f 21/27/2 15/43/2 18/24/2
f 23/26/10 13/28/10 17/44/10
f 86/45/8 62/31/8 18/46/8
f 85/47/1 16/48/1 17/21/1
f 11/15/4 84/49/4 86/50/4
f 36/51/8 29/52/8 8/33/8
f 82/53/8 84/54/8 11/55/8
f 42/56/11 27/48/11 26/57/11
f 6/58/4 77/59/4 79/60/4
f 80/61/3 82/62/3 9/11/3
f 79/63/8 80/64/8 3/10/8
f 26/65/12 27/66/12 25/67/12
f 44/68/13 24/69/13 25/70/13
f 44/71/14 43/72/14 26/73/14
f 45/74/15 25/75/15 27/76/15
f 29/77/16 31/78/16 22/79/16
f 32/80/17 28/79/17 31/78/17
f 20/81/18 32/80/18 33/82/18
f 28/83/19 32/84/19 1/29/19
f 20/85/20 7/30/20 1/29/20
f 100/86/21 35/87/21 37/37/21
f 87/88/22 34/89/22 35/87/22
f 46/90/23 41/91/23 38/73/23
f 37/37/24 31/78/24 29/77/24
f 34/89/25 30/92/25 33/82/25
f 40/93/26 39/94/26 38/85/26
f 49/90/27 48/95/27 39/96/27
f 48/97/2 47/98/2 38/70/2
f 49/99/28 40/100/28 41/101/28
f 2/102/29 45/74/29 42/103/29
f 1/104/30 13/105/30 43/72/30
f 1/106/31 44/68/31 45/98/31
f 13/70/32 14/69/32 42/56/32
f 35/107/28 49/99/28 46/108/28
f 33/107/2 31/109/2 47/98/2
f 33/110/33 48/95/33 49/90/33
f 31/105/34 37/111/34 46/90/34
f 78/3/1 56/112/1 57/113/1
f 56/4/28 54/114/28 55/1/28
f 83/9/1 65/19/1 61/55/1
f 61/115/3 60/116/3 54/1/3
f 78/13/3 81/117/3 61/115/3
f 76/118/4 74/119/4 65/120/4
f 65/121/28 64/122/28 60/123/28
f 51/40/1 58/124/1 70/125/1
f 67/126/35 53/127/35 59/128/35
f 66/129/36 67/126/36 74/130/36
f 70/125/28 58/124/28 52/131/28
f 59/132/8 50/32/8 62/31/8
f 85/35/4 69/133/4 65/120/4
f 103/134/37 104/135/37 93/36/37
f 101/136/1 96/137/1 58/124/1
f 53/127/28 75/138/28 72/139/28
f 67/126/38 71/140/38 68/4/38
f 70/125/39 66/129/39 76/141/39
f 71/142/8 62/31/8 86/45/8
f 85/47/1 63/20/1 70/125/1
f 64/143/4 68/144/4 86/50/4
f 95/145/8 103/146/8 59/132/8
f 64/7/8 84/54/8 82/53/8
f 110/147/40 91/148/40 92/149/40
f 79/60/4 77/59/4 57/10/4
f 60/116/3 82/62/3 80/61/3
f 54/4/8 80/64/8 79/63/8
f 91/150/41 89/151/41 90/152/41
f 112/108/42 90/101/42 89/66/42
f 89/133/43 91/75/43 110/74/43
f 109/153/44 92/154/44 90/155/44
f 95/156/3 72/18/3 75/157/3
f 97/158/45 94/157/45 98/159/45
f 99/160/46 98/159/46 73/6/46
f 52/131/28 98/161/28 94/138/28
f 98/161/28 52/131/28 58/124/28
f 100/86/47 93/36/47 104/135/47
f 87/88/48 100/86/48 102/162/48
f 105/163/49 108/164/49 113/165/49
f 95/156/50 97/158/50 104/135/50
f 101/166/51 102/162/51 99/160/51
f 107/93/52 108/167/52 105/152/52
f 116/168/53 107/169/53 106/96/53
f 106/170/28 105/171/28 114/172/28
f 113/173/2 108/57/2 107/174/2
f 67/175/54 109/153/54 112/103/54
f 111/176/55 110/74/55 66/102/55
f 53/109/56 112/108/56 111/177/56
f 110/147/57 109/178/57 67/43/57
f 104/70/2 113/173/2 116/179/2
f 115/180/28 114/172/28 97/181/28
f 116/168/58 115/95/58 99/110/58
f 114/168/59 113/165/59 104/112/59
f 77/182/1 6/1/1 78/3/1
f 6/183/2 4/4/2 5/6/2
f 81/54/1 10/7/1 83/9/1
f 5/14/3 3/10/3 10/12/3
f 81/117/3 78/13/3 10/12/3
f 16/34/4 12/17/4 23/184/4
f 11/15/4 15/185/4 21/16/4
f 21/16/4 23/184/4 12/17/4
f 10/186/2 9/18/2 12/8/2
f 51/40/1 63/20/1 7/22/1
f 2/41/60 14/23/60 8/25/60
f 13/28/61 23/26/61 14/23/61
f 17/44/62 13/28/62 7/30/62
f 18/46/8 62/31/8 8/33/8
f 83/187/4 12/17/4 85/35/4
f 88/188/3 93/36/3 36/38/3
f 87/50/1 51/40/1 34/39/1
f 7/22/1 20/185/1 30/189/1
f 30/189/1 34/39/1 7/22/1
f 22/83/2 2/41/2 19/42/2
f 14/23/63 21/27/63 18/24/63
f 16/1/2 23/26/2 17/44/2
f 15/139/8 86/45/8 18/46/8
f 63/20/1 85/47/1 17/21/1
f 15/185/4 11/15/4 86/50/4
f 19/190/8 8/33/8 29/52/8
f 50/32/8 88/191/8 36/51/8
f 36/51/8 8/33/8 50/32/8
f 9/192/8 82/53/8 11/55/8
f 43/173/11 42/56/11 26/57/11
f 4/193/4 6/58/4 79/60/4
f 3/10/3 80/61/3 9/11/3
f 4/58/8 79/63/8 3/10/8
f 24/194/12 26/65/12 25/67/12
f 45/98/64 44/68/64 25/70/64
f 24/195/65 44/71/65 26/73/65
f 42/103/15 45/74/15 27/76/15
f 19/196/3 29/77/3 22/79/3
f 33/82/66 32/80/66 31/78/66
f 30/92/25 20/81/25 33/82/25
f 2/41/67 28/83/67 1/29/67
f 32/84/19 20/85/19 1/29/19
f 93/36/68 100/86/68 37/37/68
f 100/86/69 87/88/69 35/87/69
f 47/72/23 46/90/23 38/73/23
f 36/38/70 37/37/70 29/77/70
f 35/87/71 34/89/71 33/82/71
f 41/167/26 40/93/26 38/85/26
f 40/91/72 49/90/72 39/96/72
f 39/197/2 48/97/2 38/70/2
f 46/108/28 49/99/28 41/101/28
f 14/155/73 2/102/73 42/103/73
f 44/71/74 1/104/74 43/72/74
f 2/109/75 1/106/75 45/98/75
f 43/173/76 13/70/76 42/56/76
f 37/109/28 35/107/28 46/108/28
f 48/97/2 33/107/2 47/98/2
f 35/111/77 33/110/77 49/90/77
f 47/72/78 31/105/78 46/90/78
f 77/182/1 78/3/1 57/113/1
f 57/10/28 56/4/28 55/1/28
f 81/54/1 83/9/1 61/55/1
f 56/113/3 61/115/3 54/1/3
f 56/113/3 78/13/3 61/115/3
f 64/143/4 65/120/4 74/119/4
f 69/133/4 76/118/4 65/120/4
f 74/119/4 68/144/4 64/143/4
f 61/175/28 65/121/28 60/123/28
f 63/20/1 51/40/1 70/125/1
f 71/140/38 67/126/38 59/128/38
f 76/141/79 66/129/79 74/130/79
f 66/129/80 70/125/80 52/131/80
f 71/142/8 59/132/8 62/31/8
f 83/187/4 85/35/4 65/120/4
f 88/188/3 103/134/3 93/36/3
f 58/124/1 51/40/1 101/136/1
f 87/50/1 101/136/1 51/40/1
f 96/137/1 73/144/1 58/124/1
f 59/128/28 53/127/28 72/139/28
f 74/130/81 67/126/81 68/4/81
f 69/198/28 70/125/28 76/141/28
f 68/144/8 71/142/8 86/45/8
f 69/198/1 85/47/1 70/125/1
f 84/49/4 64/143/4 86/50/4
f 50/32/8 59/132/8 103/146/8
f 72/199/8 95/145/8 59/132/8
f 103/146/8 88/191/8 50/32/8
f 60/200/8 64/7/8 82/53/8
f 109/178/40 110/147/40 92/149/40
f 55/14/4 79/60/4 57/10/4
f 54/1/3 60/116/3 80/61/3
f 55/5/8 54/4/8 79/63/8
f 92/201/41 91/150/41 90/152/41
f 111/177/82 112/108/82 89/66/82
f 111/176/83 89/133/83 110/74/83
f 112/103/44 109/153/44 90/155/44
f 97/158/84 95/156/84 75/157/84
f 99/160/85 97/158/85 98/159/85
f 96/202/86 99/160/86 73/6/86
f 53/127/28 52/131/28 94/138/28
f 73/144/28 98/161/28 58/124/28
f 102/162/87 100/86/87 104/135/87
f 101/166/88 87/88/88 102/162/88
f 114/168/89 105/163/89 113/165/89
f 103/134/90 95/156/90 104/135/90
f 96/202/86 101/166/86 99/160/86
f 106/203/91 107/93/91 105/152/91
f 115/95/92 116/168/92 106/96/92
f 115/180/28 106/170/28 114/172/28
f 116/179/2 113/173/2 107/174/2
f 53/76/93 67/175/93 112/103/93
f 52/204/94 111/176/94 66/102/94
f 52/106/95 53/109/95 111/177/95
f 66/205/96 110/147/96 67/43/96
f 102/197/2 104/70/2 116/179/2
f 99/148/28 115/180/28 97/181/28
f 102/163/97 116/168/97 99/110/97
f 97/169/98 114/168/98 104/112/98
