# Blender v2.76 (sub 0) OBJ File: 'a.blend'
# www.blender.org
mtllib a_000007.mtl
o Plane
v 0.125398 0.376307 -0.120450
v 0.125454 0.391981 -0.048709
v 0.186015 0.609613 0.058061
v 0.186015 0.975839 -0.022581
v 0.186015 0.528971 -0.308166
v 0.186015 0.895198 -0.388807
v 0.125454 0.356849 -0.208253
v 0.125454 0.411444 0.039685
v 0.057662 0.582011 -0.067290
v 0.057662 0.556573 -0.182815
v 0.057662 0.521898 -0.054054
v 0.057662 0.496460 -0.169578
v 0.125956 0.439041 -0.132709
v 0.125514 0.454508 -0.062240
v 0.125454 0.536476 0.012153
v 0.125454 0.481881 -0.235785
v 0.125454 0.419366 -0.222019
v 0.125454 0.473961 0.025919
v 0.125454 0.048174 0.119675
v 0.125454 -0.006421 -0.128263
v 0.125454 0.517025 -0.076184
v 0.125454 0.028677 0.031132
v 0.125454 0.501167 -0.148203
v 0.122091 0.164510 -0.045857
v 0.122202 0.155914 0.027328
v 0.185893 0.169695 -0.045344
v 0.186003 0.161097 0.027866
v 0.125454 0.028677 0.031132
v 0.098032 0.048174 0.119675
v 0.098032 -0.006421 -0.128263
v 0.098032 0.027658 0.025880
v 0.125454 0.012864 -0.040681
v 0.098032 0.008856 -0.048448
v 0.028140 -0.006421 -0.128263
v 0.028140 0.010997 -0.044249
v 0.028140 0.048174 0.119675
v 0.028140 0.027823 0.026717
v 0.098032 -0.159961 0.085015
v 0.098032 -0.223861 0.048621
v 0.028140 -0.223790 0.048661
v 0.028140 -0.159920 0.085039
v 0.173795 0.309576 0.045324
v 0.173684 0.318175 -0.027887
v 0.110831 0.313351 -0.028928
v 0.109993 0.304394 0.044785
v 0.028140 -0.085684 -0.045303
v 0.098032 -0.085725 -0.045327
v 0.098032 -0.149625 -0.081721
v 0.028140 -0.149523 -0.081536
v -0.001485 0.411444 0.039685
v -0.001485 0.356849 -0.208253
v -0.128423 0.376135 -0.120672
v -0.128423 0.391981 -0.048709
v -0.188985 0.609613 0.058061
v -0.188985 0.975839 -0.022581
v -0.188985 0.528971 -0.308166
v -0.188985 0.895198 -0.388807
v -0.128423 0.356849 -0.208253
v -0.128423 0.411444 0.039685
v -0.060631 0.582011 -0.067290
v -0.060631 0.556573 -0.182815
v -0.001485 0.473961 0.025919
v -0.001485 0.419366 -0.222019
v -0.060631 0.521898 -0.054054
v -0.060631 0.496460 -0.169578
v -0.129280 0.438586 -0.133027
v -0.128405 0.454356 -0.062199
v -0.128423 0.536476 0.012153
v -0.128423 0.481881 -0.235785
v -0.128423 0.419366 -0.222019
v -0.128423 0.473961 0.025919
v -0.128423 0.048174 0.119675
v -0.128423 -0.006421 -0.128263
v -0.128423 0.517025 -0.076184
v -0.128423 0.028677 0.031132
v -0.128423 0.501167 -0.148203
v -0.001485 0.895198 -0.388807
v -0.001485 0.528971 -0.308166
v -0.001485 0.975839 -0.022581
v -0.001485 0.609613 0.058061
v -0.001485 0.556573 -0.182815
v -0.001485 0.582011 -0.067290
v -0.001485 0.496460 -0.169578
v -0.001485 0.521898 -0.054054
v -0.001485 0.481881 -0.235785
v -0.001485 0.536476 0.012153
v -0.001485 -0.006421 -0.128263
v -0.001485 0.048174 0.119675
v -0.217183 0.136719 -0.107672
v -0.155643 0.121661 -0.070044
v -0.249636 0.141460 -0.052698
v -0.188073 0.126396 -0.015057
v -0.001485 0.028699 0.031232
v -0.128423 0.028677 0.031132
v -0.101001 0.048174 0.119675
v -0.101001 -0.006421 -0.128263
v -0.101001 0.028552 0.030093
v -0.128423 0.012864 -0.040681
v -0.101001 0.013174 -0.042342
v -0.001485 0.012896 -0.040538
v -0.031109 -0.006421 -0.128263
v -0.031109 0.013018 -0.041297
v -0.031109 0.048174 0.119675
v -0.031109 0.028607 0.030504
v -0.101001 -0.274056 0.025783
v -0.101001 -0.280276 -0.047427
v -0.031109 -0.280269 -0.047408
v -0.031109 -0.274058 0.025791
v -0.156077 0.272810 -0.008796
v -0.217640 0.287874 -0.046437
v -0.185758 0.283702 -0.101529
v -0.123646 0.268075 -0.063783
v -0.031109 -0.124594 0.013114
v -0.101001 -0.124593 0.013106
v -0.101001 -0.130833 -0.059843
v -0.031109 -0.130808 -0.060095
vt 0.266908 0.524887
vt 0.266908 0.787331
vt 0.133454 0.787331
vt 0.533816 0.262444
vt 0.533816 0.000000
vt 0.800723 0.000000
vt 0.888345 0.260463
vt 0.844534 0.260463
vt 0.844534 0.219070
vt 0.266908 0.262444
vt 0.175551 0.352272
vt 0.091356 0.352272
vt 0.000000 0.393666
vt 0.000000 0.262444
vt 0.846961 0.659813
vt 0.895213 0.675672
vt 0.846961 0.742600
vt 0.800723 0.177676
vt 0.844534 0.177676
vt 0.804863 0.307243
vt 0.895213 0.307243
vt 0.895213 0.352044
vt 0.383204 0.569687
vt 0.447606 0.569687
vt 0.447606 0.614487
vt 0.383226 0.524887
vt 0.330738 0.569687
vt 0.266908 0.569687
vt 0.330738 0.614487
vt 0.624165 0.657168
vt 0.624165 0.701969
vt 0.533816 0.701969
vt 0.895213 0.790045
vt 0.804863 0.790045
vt 0.891073 0.114297
vt 0.912158 0.114282
vt 0.912158 0.177676
vt 0.825949 0.612369
vt 0.804863 0.352044
vt 0.383185 0.614487
vt 0.447606 0.874812
vt 0.447606 0.524887
vt 0.330738 0.524887
vt 0.624165 0.612369
vt 0.533816 0.657168
vt 0.804863 0.262444
vt 0.895213 0.262444
vt 0.804863 0.659813
vt 0.804863 0.612369
vt 0.603079 0.962294
vt 0.553333 0.962294
vt 0.932155 0.219070
vt 0.888345 0.219070
vt 0.888345 0.177676
vt 0.947679 0.367421
vt 0.895213 0.367421
vt 0.266908 0.000000
vt 0.266908 0.131222
vt 0.000000 0.131222
vt 0.266908 0.393666
vt 0.175551 0.393666
vt 0.400362 0.000000
vt 0.400362 0.262444
vt 0.895213 0.943897
vt 0.895213 0.892309
vt 0.940775 0.892327
vt 0.947660 0.577376
vt 0.895213 0.577376
vt 0.895213 0.472399
vt 0.244546 0.892309
vt 0.198984 0.892309
vt 0.198984 0.787331
vt 0.760076 0.895023
vt 0.760076 0.790045
vt 0.805638 0.790045
vt 0.961904 0.177676
vt 0.961904 0.114249
vt 0.981422 0.114225
vt 0.981422 0.062762
vt 0.981422 0.000000
vt 0.961904 0.062784
vt 0.383075 0.874812
vt 0.330738 0.874812
vt 0.266908 0.614487
vt 0.891073 0.062865
vt 0.912158 0.062841
vt 0.891073 0.000000
vt 0.912158 0.000000
vt 0.149238 0.892309
vt 0.149238 0.787331
vt 0.961904 0.000000
vt 0.316654 0.926254
vt 0.266908 0.926311
vt 0.266908 0.874846
vt 0.099492 0.892309
vt 0.099492 0.787331
vt 0.947660 0.472399
vt 1.000000 0.472399
vt 0.999976 0.787331
vt 0.999976 0.892309
vt 0.947660 0.892309
vt 0.760076 1.000000
vt 0.805638 0.895023
vt 0.244546 0.997286
vt 0.198984 0.997286
vt 0.947660 0.682354
vt 0.895213 0.682354
vt 0.999976 0.682354
vt 0.947660 0.787331
vt 0.099492 0.997286
vt 0.149238 0.997286
vt 0.000000 0.787331
vt 0.000000 0.524887
vt 0.533816 0.524887
vt 0.091356 0.435059
vt 0.175551 0.435059
vt 0.091356 0.393666
vt 0.714514 0.727283
vt 0.714514 0.675672
vt 0.762766 0.742600
vt 0.895011 0.790045
vt 0.895011 0.872832
vt 0.851201 0.872832
vt 0.714514 0.352044
vt 0.714514 0.307243
vt 0.598218 0.307243
vt 0.598237 0.352044
vt 0.533816 0.352044
vt 0.650684 0.307243
vt 0.598196 0.262444
vt 0.650684 0.352044
vt 0.714514 0.701969
vt 0.714514 0.790045
vt 0.869987 0.177676
vt 0.869987 0.114282
vt 0.783778 0.612369
vt 0.734032 0.612369
vt 0.598346 0.612369
vt 0.533816 0.612369
vt 0.533816 0.307243
vt 0.650684 0.262444
vt 0.714514 0.657168
vt 0.762766 0.659813
vt 0.714514 0.612369
vt 0.694996 0.962294
vt 0.645250 0.962294
vt 0.500072 0.734842
vt 0.447606 0.734842
vt 0.447606 0.629865
vt 0.411962 0.926401
vt 0.366400 0.926401
vt 0.366400 0.874831
vt 0.851201 1.000000
vt 0.805639 1.000000
vt 0.820241 0.177676
vt 0.800723 0.114225
vt 0.820241 0.114249
vt 0.800723 0.062762
vt 0.820241 0.062784
vt 0.650684 0.612369
vt 0.869987 0.062841
vt 0.049746 0.997286
vt 0.000000 0.997286
vt 0.000000 0.892309
vt 0.869987 0.000000
vt 0.316654 0.874812
vt 0.049746 0.787331
vt 0.500072 0.839820
vt 0.500072 0.944797
vt 0.447732 0.944797
vt 0.947679 0.262444
vt 0.999995 0.262444
vt 0.999995 0.367421
vt 0.851201 0.895023
vt 0.714514 1.000000
vt 0.714514 0.895022
vt 0.895213 0.787331
vt 0.500072 0.629865
vt 0.447732 0.839820
vt 0.049746 0.892309
vt 0.133454 0.524887
vt 0.800723 0.262444
vt 0.895213 0.727283
vt 0.895213 0.612369
vt 0.800723 0.260463
vt 0.804863 0.742600
vt 0.891073 0.177676
vt 0.875695 0.612369
vt 0.533816 0.962294
vt 0.624165 0.962294
vt 0.932155 0.177676
vt 0.000000 0.000000
vt 0.940775 0.943897
vt 0.244546 0.787331
vt 0.981422 0.177676
vt 1.000000 0.577376
vt 0.851201 0.790045
vt 0.714514 0.262444
vt 0.714514 0.962294
vt 0.932155 0.260463
vt 0.411962 0.874812
vt 0.820241 0.000000
vt 0.366400 0.926311
vt 0.500072 0.524887
vt 0.447732 0.734842
vn 0.000000 -0.215000 -0.976600
vn 1.000000 0.000000 0.000000
vn 0.000000 -0.976600 0.215000
vn -0.000000 0.976600 -0.215000
vn 1.000000 0.000100 0.000700
vn 1.000000 0.002300 0.005800
vn 0.999900 -0.009600 -0.003500
vn -0.000000 0.215000 0.976600
vn 0.003700 -0.976900 0.213900
vn 1.000000 0.006300 -0.007000
vn 0.996700 0.081000 0.008000
vn 0.081400 -0.989900 -0.116400
vn -0.997100 -0.073100 -0.020200
vn 0.007400 0.117400 -0.993100
vn 0.001100 -0.116700 0.993200
vn -0.004600 -0.976900 0.213700
vn -0.004900 -0.976600 0.215000
vn 0.081600 -0.973400 0.214300
vn 1.000000 0.000300 0.000600
vn -0.033500 -0.972500 0.230600
vn 0.000000 -0.979200 0.203000
vn 0.000700 0.868900 0.494900
vn 0.000300 -0.976900 0.213700
vn 0.000000 -0.982200 0.188000
vn 0.000000 -0.494900 0.868900
vn -0.002600 -0.868900 -0.494900
vn -1.000000 -0.000000 -0.000000
vn -0.065300 0.733600 0.676400
vn 0.852100 -0.107700 -0.512100
vn -0.984100 0.173700 -0.037200
vn 0.939100 0.341500 0.038700
vn -0.002300 0.205500 -0.978700
vn 0.008900 -0.535700 0.844300
vn -1.000000 0.000300 -0.000100
vn -0.999900 0.002300 0.011800
vn -0.002200 -0.976800 0.214300
vn -1.000000 -0.000000 -0.000200
vn -0.999900 0.010800 -0.012000
vn -0.507000 0.074100 0.858800
vn -0.213300 -0.976100 -0.041700
vn 0.507000 -0.074100 -0.858800
vn -0.835200 0.204300 -0.510600
vn 0.835400 -0.204400 0.510300
vn 0.003700 -0.976600 0.215000
vn 0.024000 -0.976300 0.215000
vn -0.002200 -0.976600 0.215000
vn -0.009500 -0.976600 0.215000
vn -0.000100 0.084500 0.996400
vn -0.000500 -0.976800 0.214000
vn -0.005400 -0.975900 0.218100
vn -0.000000 -0.996400 0.084600
vn 0.000300 -0.082800 -0.996600
vn 0.859900 -0.028800 0.509600
vn -0.785100 0.386800 -0.483700
vn 0.394200 -0.414400 -0.820300
vn -0.438000 0.314500 0.842200
vn -0.003600 0.129600 -0.991600
vn -0.000100 -0.110200 0.993900
vn 1.000000 -0.000900 0.000200
vn 1.000000 0.007700 -0.001700
vn 1.000000 0.000100 0.000600
vn 1.000000 0.000900 -0.000200
vn -0.996700 -0.081000 -0.008000
vn -0.001200 0.112900 -0.993600
vn 0.072100 -0.966900 0.244600
vn 1.000000 -0.000000 -0.000800
vn 0.003900 -0.976600 0.215000
vn -0.035600 -0.976000 0.214900
vn 0.000000 -0.976900 0.213900
vn -0.017800 -0.979000 0.203000
vn -0.001200 -0.868600 -0.495500
vn -0.838300 0.116100 0.532700
vn 0.072700 -0.827100 -0.557400
vn -0.982600 0.185600 0.011400
vn 0.945900 0.318100 -0.063900
vn -0.051500 0.226000 -0.972800
vn -0.000000 -0.531800 0.846800
vn -0.999900 0.013000 -0.002900
vn -0.999900 -0.015000 -0.006400
vn -1.000000 -0.000300 0.000100
vn 0.504700 -0.072000 -0.860300
vn -0.841200 0.200800 -0.502000
vn 0.003600 -0.976800 0.214000
vn 0.023600 -0.977900 0.207600
vn 0.000000 -0.975000 0.222300
vn -0.009500 -0.977200 0.212200
vn 0.000000 -0.975900 0.218100
vn 0.000000 -0.976800 0.214300
vn 0.000100 -0.996400 0.084700
vn -0.003600 -0.084600 -0.996400
vn 0.447500 0.188900 0.874100
vn -0.523800 -0.172200 -0.834300
vn 0.999200 0.039600 -0.008700
vn -0.881200 0.463600 -0.092300
vn 0.015100 0.120600 -0.992600
vn -0.005800 -0.112800 0.993600
usemtl Material
s off
f 6/1/1 5/2/1 78/3/1
f 4/4/2 3/5/2 5/6/2
f 10/7/1 12/8/1 83/9/1
f 3/10/3 9/11/3 10/12/3
f 78/13/3 5/14/3 10/12/3
f 11/15/4 21/16/4 12/17/4
f 9/18/2 11/19/2 12/8/2
f 63/20/1 17/21/1 7/22/1
f 14/23/5 18/24/5 8/25/5
f 21/26/6 14/23/6 13/27/6
f 17/28/7 13/27/7 1/29/7
f 62/30/8 50/31/8 8/32/8
f 12/17/4 16/33/4 85/34/4
f 93/35/9 37/36/9 36/37/9
f 7/22/1 34/38/1 51/39/1
f 2/40/2 8/25/2 19/41/2
f 15/42/5 18/24/5 14/23/5
f 23/43/10 13/27/10 17/28/10
f 86/44/8 62/30/8 18/45/8
f 85/46/1 16/47/1 17/21/1
f 11/15/4 84/48/4 86/49/4
f 36/50/8 29/51/8 8/32/8
f 82/52/8 84/53/8 11/54/8
f 43/55/11 42/56/11 27/47/11
f 6/57/4 77/58/4 79/59/4
f 80/60/3 82/61/3 9/11/3
f 79/62/8 80/63/8 3/10/8
f 26/64/12 27/65/12 25/66/12
f 45/67/13 44/68/13 24/69/13
f 44/70/14 43/71/14 26/72/14
f 45/73/15 25/74/15 27/75/15
f 29/76/16 31/77/16 22/78/16
f 32/79/17 28/78/17 31/77/17
f 20/80/18 32/79/18 33/81/18
f 2/40/2 28/82/2 32/83/2
f 7/84/19 1/29/19 32/83/19
f 100/85/20 35/86/20 37/36/20
f 87/87/21 34/88/21 35/86/21
f 47/71/22 46/89/22 41/90/22
f 37/36/23 31/77/23 29/76/23
f 34/88/24 30/91/24 33/81/24
f 40/92/25 39/93/25 38/94/25
f 49/89/26 48/95/26 39/96/26
f 47/67/2 38/97/2 39/98/2
f 49/99/27 40/100/27 41/101/27
f 2/102/28 45/73/28 42/103/28
f 1/104/29 13/105/29 43/71/29
f 2/106/30 1/107/30 44/68/30
f 14/69/31 42/56/31 43/55/31
f 35/108/27 49/99/27 46/109/27
f 33/108/2 31/106/2 47/67/2
f 33/110/32 48/95/32 49/89/32
f 31/105/33 37/111/33 46/89/33
f 78/3/1 56/112/1 57/113/1
f 56/4/27 54/114/27 55/1/27
f 83/9/1 65/19/1 61/54/1
f 61/115/3 60/116/3 54/1/3
f 78/13/3 81/117/3 61/115/3
f 76/118/4 74/119/4 65/120/4
f 65/121/27 64/122/27 60/123/27
f 51/39/1 58/124/1 70/125/1
f 67/126/34 53/127/34 59/128/34
f 66/129/35 67/126/35 74/130/35
f 70/125/27 58/124/27 52/131/27
f 59/132/8 50/31/8 62/30/8
f 85/34/4 69/133/4 65/120/4
f 103/134/36 104/135/36 93/35/36
f 101/136/1 96/137/1 58/124/1
f 53/127/27 75/138/27 72/139/27
f 67/126/37 71/140/37 68/4/37
f 70/125/38 66/129/38 76/141/38
f 71/142/8 62/30/8 86/44/8
f 85/46/1 63/20/1 70/125/1
f 64/143/4 68/144/4 86/49/4
f 95/145/8 103/146/8 59/132/8
f 64/7/8 84/53/8 82/52/8
f 91/147/39 92/148/39 109/149/39
f 79/59/4 77/58/4 57/10/4
f 60/116/3 82/61/3 80/60/3
f 54/4/8 80/63/8 79/62/8
f 91/150/40 89/151/40 90/152/40
f 112/109/41 90/101/41 89/65/41
f 89/133/42 91/74/42 110/73/42
f 92/153/43 90/154/43 112/103/43
f 95/155/3 72/18/3 75/156/3
f 97/157/44 94/156/44 98/158/44
f 99/159/45 98/158/45 73/6/45
f 52/131/27 98/160/27 94/138/27
f 98/160/27 52/131/27 58/124/27
f 100/85/46 93/35/46 104/135/46
f 87/87/47 100/85/47 102/161/47
f 105/162/48 108/163/48 113/164/48
f 95/155/49 97/157/49 104/135/49
f 101/165/50 102/161/50 99/159/50
f 107/92/51 108/166/51 105/152/51
f 107/167/52 106/96/52 115/95/52
f 115/168/27 106/169/27 105/170/27
f 108/171/2 107/172/2 116/173/2
f 109/174/53 112/103/53 53/75/53
f 52/175/54 111/176/54 110/73/54
f 112/109/55 111/177/55 52/107/55
f 110/178/56 109/149/56 67/42/56
f 113/55/2 116/173/2 102/98/2
f 99/147/27 115/168/27 114/179/27
f 102/162/57 116/180/57 115/95/57
f 97/167/58 114/180/58 113/164/58
f 77/181/1 6/1/1 78/3/1
f 6/182/2 4/4/2 5/6/2
f 81/53/1 10/7/1 83/9/1
f 5/14/3 3/10/3 10/12/3
f 81/117/3 78/13/3 10/12/3
f 16/33/4 12/17/4 23/183/4
f 11/15/4 15/184/4 21/16/4
f 21/16/4 23/183/4 12/17/4
f 10/185/2 9/18/2 12/8/2
f 51/39/1 63/20/1 7/22/1
f 2/40/59 14/23/59 8/25/59
f 23/43/60 21/26/60 13/27/60
f 7/84/61 17/28/61 1/29/61
f 18/45/8 62/30/8 8/32/8
f 83/186/4 12/17/4 85/34/4
f 88/187/3 93/35/3 36/37/3
f 87/49/1 51/39/1 34/38/1
f 7/22/1 20/184/1 30/188/1
f 30/188/1 34/38/1 7/22/1
f 22/82/2 2/40/2 19/41/2
f 21/26/62 15/42/62 14/23/62
f 16/1/2 23/43/2 17/28/2
f 15/139/8 86/44/8 18/45/8
f 63/20/1 85/46/1 17/21/1
f 15/184/4 11/15/4 86/49/4
f 19/189/8 8/32/8 29/51/8
f 50/31/8 88/190/8 36/50/8
f 36/50/8 8/32/8 50/31/8
f 9/191/8 82/52/8 11/54/8
f 26/171/11 43/55/11 27/47/11
f 4/192/4 6/57/4 79/59/4
f 3/10/3 80/60/3 9/11/3
f 4/57/8 79/62/8 3/10/8
f 24/193/12 26/64/12 25/66/12
f 25/97/63 45/67/63 24/69/63
f 24/194/64 44/70/64 26/72/64
f 42/103/15 45/73/15 27/75/15
f 19/195/3 29/76/3 22/78/3
f 33/81/65 32/79/65 31/77/65
f 30/91/24 20/80/24 33/81/24
f 1/29/66 2/40/66 32/83/66
f 20/94/2 7/84/2 32/83/2
f 93/35/67 100/85/67 37/36/67
f 100/85/68 87/87/68 35/86/68
f 38/72/22 47/71/22 41/90/22
f 36/37/69 37/36/69 29/76/69
f 35/86/70 34/88/70 33/81/70
f 41/166/25 40/92/25 38/94/25
f 40/90/71 49/89/71 39/96/71
f 48/196/2 47/67/2 39/98/2
f 46/109/27 49/99/27 41/101/27
f 14/154/72 2/102/72 42/103/72
f 44/70/73 1/104/73 43/71/73
f 45/67/74 2/106/74 44/68/74
f 13/97/75 14/69/75 43/55/75
f 37/106/27 35/108/27 46/109/27
f 48/196/2 33/108/2 47/67/2
f 35/111/76 33/110/76 49/89/76
f 47/71/77 31/105/77 46/89/77
f 77/181/1 78/3/1 57/113/1
f 57/10/27 56/4/27 55/1/27
f 81/53/1 83/9/1 61/54/1
f 56/113/3 61/115/3 54/1/3
f 56/113/3 78/13/3 61/115/3
f 64/143/4 65/120/4 74/119/4
f 69/133/4 76/118/4 65/120/4
f 74/119/4 68/144/4 64/143/4
f 61/197/27 65/121/27 60/123/27
f 63/20/1 51/39/1 70/125/1
f 71/140/37 67/126/37 59/128/37
f 76/141/78 66/129/78 74/130/78
f 66/129/79 70/125/79 52/131/79
f 71/142/8 59/132/8 62/30/8
f 83/186/4 85/34/4 65/120/4
f 88/187/3 103/134/3 93/35/3
f 58/124/1 51/39/1 101/136/1
f 87/49/1 101/136/1 51/39/1
f 96/137/1 73/144/1 58/124/1
f 59/128/27 53/127/27 72/139/27
f 74/130/80 67/126/80 68/4/80
f 69/198/27 70/125/27 76/141/27
f 68/144/8 71/142/8 86/44/8
f 69/198/1 85/46/1 70/125/1
f 84/48/4 64/143/4 86/49/4
f 50/31/8 59/132/8 103/146/8
f 72/199/8 95/145/8 59/132/8
f 103/146/8 88/190/8 50/31/8
f 60/200/8 64/7/8 82/52/8
f 110/178/39 91/147/39 109/149/39
f 55/14/4 79/59/4 57/10/4
f 54/1/3 60/116/3 80/60/3
f 55/5/8 54/4/8 79/62/8
f 92/201/40 91/150/40 90/152/40
f 111/177/81 112/109/81 89/65/81
f 111/176/82 89/133/82 110/73/82
f 109/174/43 92/153/43 112/103/43
f 97/157/83 95/155/83 75/156/83
f 99/159/84 97/157/84 98/158/84
f 96/202/85 99/159/85 73/6/85
f 53/127/27 52/131/27 94/138/27
f 73/144/27 98/160/27 58/124/27
f 102/161/86 100/85/86 104/135/86
f 101/165/87 87/87/87 102/161/87
f 114/180/48 105/162/48 113/164/48
f 103/134/88 95/155/88 104/135/88
f 96/202/85 101/165/85 99/159/85
f 106/203/89 107/92/89 105/152/89
f 116/180/90 107/167/90 115/95/90
f 114/179/27 115/168/27 105/170/27
f 113/55/2 108/171/2 116/173/2
f 67/197/91 109/174/91 53/75/91
f 66/102/92 52/175/92 110/73/92
f 53/106/93 112/109/93 52/107/93
f 66/204/94 110/178/94 67/42/94
f 104/97/2 113/55/2 102/98/2
f 97/205/27 99/147/27 114/179/27
f 99/110/95 102/162/95 115/95/95
f 104/112/96 97/167/96 113/164/96
