# Blender v2.76 (sub 0) OBJ File: 'a.blend'
# www.blender.org
mtllib a_000006.mtl
o Plane
v 0.125398 0.376358 -0.120489
v 0.125454 0.391981 -0.048709
v 0.186015 0.609613 0.058061
v 0.186015 0.975839 -0.022581
v 0.186015 0.528971 -0.308166
v 0.186015 0.895198 -0.388807
v 0.125454 0.356849 -0.208253
v 0.125454 0.411444 0.039685
v 0.057662 0.582011 -0.067290
v 0.057662 0.556573 -0.182815
v 0.057662 0.521898 -0.054054
v 0.057662 0.496460 -0.169578
v 0.125956 0.439388 -0.133001
v 0.125514 0.454593 -0.062278
v 0.125454 0.536476 0.012153
v 0.125454 0.481881 -0.235785
v 0.125454 0.419366 -0.222019
v 0.125454 0.473961 0.025919
v 0.125454 0.048174 0.119675
v 0.125454 -0.006421 -0.128263
v 0.125454 0.517025 -0.076184
v 0.125454 0.028677 0.031132
v 0.125454 0.501167 -0.148203
v 0.122091 0.196043 0.040939
v 0.122202 0.213546 0.112518
v 0.185893 0.201081 0.039609
v 0.186003 0.218591 0.111213
v 0.125454 0.028677 0.031132
v 0.098032 0.048174 0.119675
v 0.098032 -0.006421 -0.128263
v 0.098032 0.026394 0.027687
v 0.125454 0.012864 -0.040681
v 0.098032 0.006231 -0.044223
v 0.028140 -0.006421 -0.128263
v 0.028140 0.009759 -0.042257
v 0.028140 0.048174 0.119675
v 0.028140 0.026748 0.028253
v 0.098032 -0.118918 0.189377
v 0.098032 -0.191069 0.175169
v 0.028140 -0.190990 0.175184
v 0.028140 -0.118871 0.189386
v 0.173795 0.363819 0.075719
v 0.173684 0.346309 0.004115
v 0.110831 0.341471 0.004723
v 0.109993 0.358774 0.077024
v 0.028140 -0.089889 0.042213
v 0.098032 -0.089935 0.042204
v 0.098032 -0.162087 0.027995
v 0.028140 -0.161951 0.027939
v -0.001485 0.411444 0.039685
v -0.001485 0.356849 -0.208253
v -0.128423 0.376135 -0.120672
v -0.128423 0.391981 -0.048709
v -0.188985 0.609613 0.058061
v -0.188985 0.975839 -0.022581
v -0.188985 0.528971 -0.308166
v -0.188985 0.895198 -0.388807
v -0.128423 0.356849 -0.208253
v -0.128423 0.411444 0.039685
v -0.060631 0.582011 -0.067290
v -0.060631 0.556573 -0.182815
v -0.001485 0.473961 0.025919
v -0.001485 0.419366 -0.222019
v -0.060631 0.521898 -0.054054
v -0.060631 0.496460 -0.169578
v -0.128866 0.435475 -0.132079
v -0.128786 0.453745 -0.062084
v -0.128423 0.536476 0.012153
v -0.128423 0.481881 -0.235785
v -0.128423 0.419366 -0.222019
v -0.128423 0.473961 0.025919
v -0.128423 0.048174 0.119675
v -0.128423 -0.006421 -0.128263
v -0.128423 0.517025 -0.076184
v -0.128423 0.028677 0.031132
v -0.128423 0.501167 -0.148203
v -0.001485 0.895198 -0.388807
v -0.001485 0.528971 -0.308166
v -0.001485 0.975839 -0.022581
v -0.001485 0.609613 0.058061
v -0.001485 0.556573 -0.182815
v -0.001485 0.582011 -0.067290
v -0.001485 0.496460 -0.169578
v -0.001485 0.521898 -0.054054
v -0.001485 0.481881 -0.235785
v -0.001485 0.536476 0.012153
v -0.001485 -0.006421 -0.128263
v -0.001485 0.048174 0.119675
v -0.120921 0.284827 -0.275733
v -0.178460 0.330824 -0.273889
v -0.084165 0.329721 -0.248690
v -0.141725 0.375735 -0.246845
v -0.001485 0.028699 0.031232
v -0.128423 0.028677 0.031132
v -0.101001 0.048174 0.119675
v -0.101001 -0.006421 -0.128263
v -0.101001 0.028995 0.027563
v -0.128423 0.012864 -0.040681
v -0.101001 0.013077 -0.046007
v -0.001485 0.012896 -0.040538
v -0.031109 -0.006421 -0.128263
v -0.031109 0.012977 -0.042870
v -0.031109 0.048174 0.119675
v -0.031109 0.028900 0.028834
v -0.101001 -0.250167 0.012666
v -0.101001 -0.270968 -0.057797
v -0.031109 -0.270937 -0.057789
v -0.031109 -0.250145 0.012665
v -0.178648 0.324097 -0.110940
v -0.121089 0.278084 -0.112785
v -0.158582 0.234065 -0.139711
v -0.215383 0.279187 -0.137984
v -0.031109 -0.106268 -0.029754
v -0.101001 -0.106291 -0.029727
v -0.101001 -0.127123 -0.099689
v -0.031109 -0.127059 -0.100201
vt 0.266908 0.524887
vt 0.266908 0.787331
vt 0.133454 0.787331
vt 0.533816 0.262444
vt 0.533816 0.000000
vt 0.800723 0.000000
vt 0.888345 0.260463
vt 0.844534 0.260463
vt 0.844534 0.219070
vt 0.266908 0.262444
vt 0.175551 0.352272
vt 0.091356 0.352272
vt 0.000000 0.393666
vt 0.000000 0.262444
vt 0.846961 0.659813
vt 0.895213 0.675672
vt 0.846961 0.742600
vt 0.800723 0.177676
vt 0.844534 0.177676
vt 0.804863 0.307243
vt 0.895213 0.307243
vt 0.895213 0.352044
vt 0.383204 0.569687
vt 0.447606 0.569687
vt 0.447606 0.614487
vt 0.383226 0.524887
vt 0.330738 0.569687
vt 0.266908 0.569687
vt 0.330738 0.614487
vt 0.624165 0.657168
vt 0.624165 0.701969
vt 0.533816 0.701969
vt 0.895213 0.790045
vt 0.804863 0.790045
vt 0.891073 0.114297
vt 0.912158 0.114282
vt 0.912158 0.177676
vt 0.825949 0.612369
vt 0.804863 0.352044
vt 0.383185 0.614487
vt 0.447606 0.874812
vt 0.447606 0.524887
vt 0.330738 0.524887
vt 0.624165 0.612369
vt 0.533816 0.657168
vt 0.804863 0.262444
vt 0.895213 0.262444
vt 0.804863 0.659813
vt 0.804863 0.612369
vt 0.603079 0.962294
vt 0.553333 0.962294
vt 0.932155 0.219070
vt 0.888345 0.219070
vt 0.888345 0.177676
vt 0.947679 0.367421
vt 0.895213 0.367421
vt 0.266908 0.000000
vt 0.266908 0.131222
vt 0.000000 0.131222
vt 0.266908 0.393666
vt 0.175551 0.393666
vt 0.400362 0.000000
vt 0.400362 0.262444
vt 0.895213 0.943897
vt 0.895213 0.892309
vt 0.940775 0.892327
vt 0.947660 0.577376
vt 0.895213 0.577376
vt 0.895213 0.472399
vt 0.244546 0.892309
vt 0.198984 0.892309
vt 0.198984 0.787331
vt 0.760076 0.895023
vt 0.760076 0.790045
vt 0.805638 0.790045
vt 0.961904 0.177676
vt 0.961904 0.114249
vt 0.981422 0.114225
vt 0.981422 0.062762
vt 0.981422 0.000000
vt 0.961904 0.062784
vt 0.383075 0.874812
vt 0.330738 0.874812
vt 0.266908 0.614487
vt 0.891073 0.062865
vt 0.912158 0.062841
vt 0.891073 0.000000
vt 0.912158 0.000000
vt 0.149238 0.892309
vt 0.149238 0.787331
vt 0.961904 0.000000
vt 0.316654 0.926254
vt 0.266908 0.926311
vt 0.266908 0.874846
vt 0.099492 0.892309
vt 0.099492 0.787331
vt 0.947660 0.472399
vt 1.000000 0.472399
vt 0.947660 0.787331
vt 0.999976 0.787331
vt 0.999976 0.892309
vt 0.760076 1.000000
vt 0.805638 0.895023
vt 0.244546 0.997286
vt 0.198984 0.997286
vt 0.947660 0.682354
vt 0.895213 0.682354
vt 0.999976 0.682354
vt 0.099492 0.997286
vt 0.149238 0.997286
vt 0.000000 0.787331
vt 0.000000 0.524887
vt 0.533816 0.524887
vt 0.091356 0.435059
vt 0.175551 0.435059
vt 0.091356 0.393666
vt 0.714514 0.727283
vt 0.714514 0.675672
vt 0.762766 0.742600
vt 0.895011 0.790045
vt 0.895011 0.872832
vt 0.851201 0.872832
vt 0.714514 0.352044
vt 0.714514 0.307243
vt 0.598218 0.307243
vt 0.598237 0.352044
vt 0.533816 0.352044
vt 0.650684 0.262444
vt 0.650684 0.307243
vt 0.650684 0.352044
vt 0.714514 0.701969
vt 0.714514 0.790045
vt 0.869987 0.177676
vt 0.869987 0.114282
vt 0.783778 0.612369
vt 0.734032 0.612369
vt 0.598346 0.612369
vt 0.533816 0.612369
vt 0.598196 0.262444
vt 0.533816 0.307243
vt 0.714514 0.657168
vt 0.762766 0.659813
vt 0.714514 0.612369
vt 0.694996 0.962294
vt 0.645250 0.962294
vt 0.500072 0.734842
vt 0.447606 0.734842
vt 0.447606 0.629865
vt 0.411962 0.926401
vt 0.366400 0.926401
vt 0.366400 0.874831
vt 0.947660 0.892309
vt 0.895213 0.787331
vt 0.714514 0.895022
vt 0.851201 0.895023
vt 0.851201 1.000000
vt 0.805639 1.000000
vt 0.820241 0.177676
vt 0.800723 0.114225
vt 0.820241 0.114249
vt 0.800723 0.062762
vt 0.820241 0.062784
vt 0.650684 0.612369
vt 0.869987 0.062841
vt 0.049746 0.892309
vt 0.049746 0.997286
vt 0.000000 0.997286
vt 0.869987 0.000000
vt 0.316654 0.874812
vt 0.049746 0.787331
vt 0.500072 0.839820
vt 0.500072 0.944797
vt 0.447732 0.944797
vt 0.947679 0.262444
vt 0.999995 0.262444
vt 0.999995 0.367421
vt 0.714514 1.000000
vt 0.500072 0.524887
vt 0.500072 0.629865
vt 0.447732 0.839820
vt 0.000000 0.892309
vt 0.133454 0.524887
vt 0.800723 0.262444
vt 0.895213 0.727283
vt 0.895213 0.612369
vt 0.800723 0.260463
vt 0.804863 0.742600
vt 0.891073 0.177676
vt 0.875695 0.612369
vt 0.533816 0.962294
vt 0.624165 0.962294
vt 0.932155 0.177676
vt 0.000000 0.000000
vt 0.940775 0.943897
vt 0.244546 0.787331
vt 0.981422 0.177676
vt 1.000000 0.577376
vt 0.851201 0.790045
vt 0.714514 0.262444
vt 0.714514 0.962294
vt 0.932155 0.260463
vt 0.411962 0.874812
vt 0.820241 0.000000
vt 0.366400 0.926311
vt 0.447732 0.734842
vn 0.000000 -0.215000 -0.976600
vn 1.000000 0.000000 0.000000
vn 0.000000 -0.976600 0.215000
vn -0.000000 0.976600 -0.215000
vn 1.000000 0.000100 0.000700
vn 1.000000 0.002200 0.005800
vn 0.999900 -0.009500 -0.003500
vn -0.000000 0.215000 0.976600
vn -0.041200 -0.972800 0.228000
vn 1.000000 0.006400 -0.007100
vn 0.996700 0.078700 -0.020800
vn 0.081400 -0.968200 0.236600
vn -0.997100 -0.075600 0.006500
vn 0.008800 -0.236700 -0.971500
vn 0.001100 0.237500 0.971400
vn 0.052000 -0.971800 0.230100
vn 0.054200 -0.975200 0.214700
vn 0.204100 -0.956100 0.210500
vn 1.000000 0.000300 0.000600
vn -0.089000 -0.968300 0.233300
vn 0.000000 -0.982800 0.184900
vn 0.000700 0.981200 0.193200
vn -0.003100 -0.973100 0.230400
vn 0.000000 -0.988900 0.148900
vn 0.000000 -0.193200 0.981200
vn -0.001200 -0.981200 -0.193200
vn -1.000000 -0.000000 -0.000000
vn -0.071400 0.966500 0.246500
vn 0.922300 -0.083100 -0.377400
vn -0.972100 0.229400 -0.049200
vn 0.929200 0.358700 -0.089100
vn -0.000000 -0.394300 -0.919000
vn 0.008600 0.118800 0.992900
vn -1.000000 -0.005600 0.001200
vn -1.000000 0.006600 -0.000600
vn -1.000000 -0.007200 0.001600
vn -0.023400 -0.978000 0.207500
vn -1.000000 0.006300 0.002700
vn -1.000000 0.005300 -0.005900
vn 0.574200 0.701300 0.422500
vn 0.246200 0.344200 -0.906000
vn -0.574600 -0.701900 -0.421000
vn 0.779000 -0.626800 -0.018200
vn -0.781100 0.623900 0.024900
vn 0.039300 -0.975900 0.214900
vn 0.049300 -0.975400 0.214800
vn -0.024000 -0.976300 0.215000
vn -0.019600 -0.976400 0.215000
vn -0.000100 0.282600 0.959200
vn -0.005000 -0.979000 0.203800
vn -0.011300 -0.975100 0.221500
vn 0.000300 -0.959100 0.283000
vn 0.000200 -0.279600 -0.960100
vn -0.707500 0.684500 -0.175600
vn -0.598300 0.019700 0.801000
vn -0.064500 -0.119100 0.990800
vn -0.133100 -0.127100 -0.982900
vn -0.007200 0.357600 -0.933900
vn 0.000500 -0.389900 0.920800
vn 1.000000 -0.000900 0.000200
vn 1.000000 0.007700 -0.001700
vn 1.000000 0.000100 0.000600
vn 1.000000 0.000900 -0.000200
vn -0.996700 -0.078700 0.020800
vn -0.001100 -0.241700 -0.970300
vn 0.194300 -0.944500 0.264800
vn 1.000000 -0.000000 -0.000800
vn -0.042700 -0.975700 0.214800
vn -0.090600 -0.972600 0.214200
vn 0.000000 -0.973600 0.228200
vn -0.044400 -0.981800 0.184700
vn -0.001700 -0.981100 -0.193500
vn -0.922500 0.082600 0.377100
vn 0.071600 -0.963000 -0.260000
vn -0.974500 0.215600 -0.062900
vn 0.927100 0.367500 -0.073200
vn -0.045100 -0.378000 -0.924700
vn 0.000200 0.123800 0.992300
vn -1.000000 0.000900 0.003900
vn -1.000000 0.005500 -0.001200
vn -1.000000 -0.001000 -0.004700
vn -0.571600 -0.703400 -0.422500
vn 0.770600 -0.636500 -0.032500
vn 0.037900 -0.978300 0.203700
vn 0.048600 -0.976200 0.211200
vn 0.000000 -0.973000 0.230600
vn -0.019700 -0.976000 0.216700
vn 0.000000 -0.975200 0.221500
vn 0.000300 0.282800 0.959200
vn 0.000000 -0.978200 0.207600
vn 0.000400 -0.959100 0.283100
vn -0.006800 -0.282700 -0.959200
vn -0.830000 0.113400 0.546100
vn 0.851900 0.105000 0.513100
vn 0.722800 -0.674900 0.148600
vn -0.915300 0.390000 -0.100700
vn 0.042000 0.378500 -0.924600
vn -0.017200 -0.397600 0.917400
usemtl Material
s off
f 6/1/1 5/2/1 78/3/1
f 4/4/2 3/5/2 5/6/2
f 10/7/1 12/8/1 83/9/1
f 3/10/3 9/11/3 10/12/3
f 78/13/3 5/14/3 10/12/3
f 11/15/4 21/16/4 12/17/4
f 9/18/2 11/19/2 12/8/2
f 63/20/1 17/21/1 7/22/1
f 14/23/5 18/24/5 8/25/5
f 21/26/6 14/23/6 13/27/6
f 17/28/7 13/27/7 1/29/7
f 62/30/8 50/31/8 8/32/8
f 12/17/4 16/33/4 85/34/4
f 93/35/9 37/36/9 36/37/9
f 7/22/1 34/38/1 51/39/1
f 2/40/2 8/25/2 19/41/2
f 15/42/5 18/24/5 14/23/5
f 23/43/10 13/27/10 17/28/10
f 86/44/8 62/30/8 18/45/8
f 85/46/1 16/47/1 17/21/1
f 11/15/4 84/48/4 86/49/4
f 36/50/8 29/51/8 8/32/8
f 82/52/8 84/53/8 11/54/8
f 43/55/11 42/56/11 27/47/11
f 6/57/4 77/58/4 79/59/4
f 80/60/3 82/61/3 9/11/3
f 79/62/8 80/63/8 3/10/8
f 26/64/12 27/65/12 25/66/12
f 45/67/13 44/68/13 24/69/13
f 44/70/14 43/71/14 26/72/14
f 45/73/15 25/74/15 27/75/15
f 29/76/16 31/77/16 22/78/16
f 32/79/17 28/78/17 31/77/17
f 20/80/18 32/79/18 33/81/18
f 2/40/2 28/82/2 32/83/2
f 7/84/19 1/29/19 32/83/19
f 100/85/20 35/86/20 37/36/20
f 87/87/21 34/88/21 35/86/21
f 46/89/22 41/90/22 38/72/22
f 37/36/23 31/77/23 29/76/23
f 34/88/24 30/91/24 33/81/24
f 40/92/25 39/93/25 38/94/25
f 48/95/26 39/96/26 40/90/26
f 47/67/2 38/97/2 39/98/2
f 46/99/27 49/100/27 40/101/27
f 2/102/28 45/73/28 42/103/28
f 1/104/29 13/105/29 43/71/29
f 2/106/30 1/107/30 44/68/30
f 14/69/31 42/56/31 43/55/31
f 35/108/27 49/100/27 46/99/27
f 33/108/2 31/106/2 47/67/2
f 33/109/32 48/95/32 49/89/32
f 31/105/33 37/110/33 46/89/33
f 78/3/1 56/111/1 57/112/1
f 56/4/27 54/113/27 55/1/27
f 83/9/1 65/19/1 61/54/1
f 61/114/3 60/115/3 54/1/3
f 78/13/3 81/116/3 61/114/3
f 76/117/4 74/118/4 65/119/4
f 65/120/27 64/121/27 60/122/27
f 51/39/1 58/123/1 70/124/1
f 67/125/34 53/126/34 59/127/34
f 76/128/35 66/129/35 67/125/35
f 58/123/36 52/130/36 66/129/36
f 59/131/8 50/31/8 62/30/8
f 85/34/4 69/132/4 65/119/4
f 103/133/37 104/134/37 93/35/37
f 101/135/1 96/136/1 58/123/1
f 53/126/27 75/137/27 72/138/27
f 74/139/38 67/125/38 71/140/38
f 70/124/39 66/129/39 76/128/39
f 71/141/8 62/30/8 86/44/8
f 85/46/1 63/20/1 70/124/1
f 64/142/4 68/143/4 86/49/4
f 95/144/8 103/145/8 59/131/8
f 64/7/8 84/53/8 82/52/8
f 91/146/40 92/147/40 109/148/40
f 79/59/4 77/58/4 57/10/4
f 60/115/3 82/61/3 80/60/3
f 54/4/8 80/63/8 79/62/8
f 91/149/41 89/150/41 90/151/41
f 90/152/42 89/65/42 111/153/42
f 111/154/43 89/132/43 91/74/43
f 109/155/44 92/156/44 90/157/44
f 95/158/3 72/18/3 75/159/3
f 97/160/45 94/159/45 98/161/45
f 99/162/46 98/161/46 73/6/46
f 52/130/27 98/163/27 94/137/27
f 98/163/27 52/130/27 58/123/27
f 100/85/47 93/35/47 104/134/47
f 87/87/48 100/85/48 102/164/48
f 114/165/49 105/166/49 108/167/49
f 95/158/50 97/160/50 104/134/50
f 101/168/51 102/164/51 99/162/51
f 107/92/52 108/169/52 105/151/52
f 107/170/53 106/96/53 115/95/53
f 115/171/27 106/172/27 105/173/27
f 108/174/2 107/175/2 116/176/2
f 109/155/54 112/103/54 53/75/54
f 52/177/55 111/154/55 110/73/55
f 112/99/56 111/153/56 52/107/56
f 66/178/57 110/179/57 109/148/57
f 113/55/2 116/176/2 102/98/2
f 99/146/27 115/171/27 114/180/27
f 116/165/58 115/95/58 99/109/58
f 97/170/59 114/165/59 113/181/59
f 77/182/1 6/1/1 78/3/1
f 6/183/2 4/4/2 5/6/2
f 81/53/1 10/7/1 83/9/1
f 5/14/3 3/10/3 10/12/3
f 81/116/3 78/13/3 10/12/3
f 16/33/4 12/17/4 23/184/4
f 11/15/4 15/185/4 21/16/4
f 21/16/4 23/184/4 12/17/4
f 10/186/2 9/18/2 12/8/2
f 51/39/1 63/20/1 7/22/1
f 2/40/60 14/23/60 8/25/60
f 23/43/61 21/26/61 13/27/61
f 7/84/62 17/28/62 1/29/62
f 18/45/8 62/30/8 8/32/8
f 83/187/4 12/17/4 85/34/4
f 88/188/3 93/35/3 36/37/3
f 87/49/1 51/39/1 34/38/1
f 7/22/1 20/185/1 30/189/1
f 30/189/1 34/38/1 7/22/1
f 22/82/2 2/40/2 19/41/2
f 21/26/63 15/42/63 14/23/63
f 16/1/2 23/43/2 17/28/2
f 15/138/8 86/44/8 18/45/8
f 63/20/1 85/46/1 17/21/1
f 15/185/4 11/15/4 86/49/4
f 19/190/8 8/32/8 29/51/8
f 50/31/8 88/191/8 36/50/8
f 36/50/8 8/32/8 50/31/8
f 9/192/8 82/52/8 11/54/8
f 26/174/11 43/55/11 27/47/11
f 4/193/4 6/57/4 79/59/4
f 3/10/3 80/60/3 9/11/3
f 4/57/8 79/62/8 3/10/8
f 24/194/12 26/64/12 25/66/12
f 25/97/64 45/67/64 24/69/64
f 24/195/65 44/70/65 26/72/65
f 42/103/15 45/73/15 27/75/15
f 19/196/3 29/76/3 22/78/3
f 33/81/66 32/79/66 31/77/66
f 30/91/24 20/80/24 33/81/24
f 1/29/67 2/40/67 32/83/67
f 20/94/2 7/84/2 32/83/2
f 93/35/68 100/85/68 37/36/68
f 100/85/69 87/87/69 35/86/69
f 47/71/22 46/89/22 38/72/22
f 36/37/70 37/36/70 29/76/70
f 35/86/71 34/88/71 33/81/71
f 41/169/25 40/92/25 38/94/25
f 49/89/72 48/95/72 40/90/72
f 48/197/2 47/67/2 39/98/2
f 41/152/27 46/99/27 40/101/27
f 14/157/73 2/102/73 42/103/73
f 44/70/74 1/104/74 43/71/74
f 45/67/75 2/106/75 44/68/75
f 13/97/76 14/69/76 43/55/76
f 37/106/27 35/108/27 46/99/27
f 48/197/2 33/108/2 47/67/2
f 35/110/77 33/109/77 49/89/77
f 47/71/78 31/105/78 46/89/78
f 77/182/1 78/3/1 57/112/1
f 57/10/27 56/4/27 55/1/27
f 81/53/1 83/9/1 61/54/1
f 56/112/3 61/114/3 54/1/3
f 56/112/3 78/13/3 61/114/3
f 64/142/4 65/119/4 74/118/4
f 69/132/4 76/117/4 65/119/4
f 74/118/4 68/143/4 64/142/4
f 61/198/27 65/120/27 60/122/27
f 63/20/1 51/39/1 70/124/1
f 71/140/79 67/125/79 59/127/79
f 74/139/80 76/128/80 67/125/80
f 70/124/81 58/123/81 66/129/81
f 71/141/8 59/131/8 62/30/8
f 83/187/4 85/34/4 65/119/4
f 88/188/3 103/133/3 93/35/3
f 58/123/1 51/39/1 101/135/1
f 87/49/1 101/135/1 51/39/1
f 96/136/1 73/143/1 58/123/1
f 59/127/27 53/126/27 72/138/27
f 68/4/27 74/139/27 71/140/27
f 69/199/27 70/124/27 76/128/27
f 68/143/8 71/141/8 86/44/8
f 69/199/1 85/46/1 70/124/1
f 84/48/4 64/142/4 86/49/4
f 50/31/8 59/131/8 103/145/8
f 72/200/8 95/144/8 59/131/8
f 103/145/8 88/191/8 50/31/8
f 60/201/8 64/7/8 82/52/8
f 110/179/40 91/146/40 109/148/40
f 55/14/4 79/59/4 57/10/4
f 54/1/3 60/115/3 80/60/3
f 55/5/8 54/4/8 79/62/8
f 92/202/41 91/149/41 90/151/41
f 112/99/82 90/152/82 111/153/82
f 110/73/83 111/154/83 91/74/83
f 112/103/44 109/155/44 90/157/44
f 97/160/84 95/158/84 75/159/84
f 99/162/85 97/160/85 98/161/85
f 96/203/86 99/162/86 73/6/86
f 53/126/27 52/130/27 94/137/27
f 73/143/27 98/163/27 58/123/27
f 102/164/87 100/85/87 104/134/87
f 101/168/88 87/87/88 102/164/88
f 113/181/89 114/165/89 108/167/89
f 103/133/90 95/158/90 104/134/90
f 96/203/86 101/168/86 99/162/86
f 106/204/91 107/92/91 105/151/91
f 116/165/92 107/170/92 115/95/92
f 114/180/27 115/171/27 105/173/27
f 113/55/2 108/174/2 116/176/2
f 67/198/93 109/155/93 53/75/93
f 66/102/94 52/177/94 110/73/94
f 53/106/95 112/99/95 52/107/95
f 67/42/96 66/178/96 109/148/96
f 104/97/2 113/55/2 102/98/2
f 97/205/27 99/146/27 114/180/27
f 102/166/97 116/165/97 99/109/97
f 104/111/98 97/170/98 113/181/98
