# Blender v2.76 (sub 0) OBJ File: 'a.blend'
# www.blender.org
mtllib a_000003.mtl
o Plane
v 0.125398 0.376265 -0.120571
v 0.125454 0.391981 -0.048709
v 0.186015 0.609613 0.058061
v 0.186015 0.975839 -0.022581
v 0.186015 0.528971 -0.308166
v 0.186015 0.895198 -0.388807
v 0.125454 0.356849 -0.208253
v 0.125454 0.411444 0.039685
v 0.057662 0.582011 -0.067290
v 0.057662 0.556573 -0.182815
v 0.057662 0.521898 -0.054054
v 0.057662 0.496460 -0.169578
v 0.125956 0.438750 -0.133576
v 0.125514 0.454532 -0.062351
v 0.125454 0.536476 0.012153
v 0.125454 0.481881 -0.235785
v 0.125454 0.419366 -0.222019
v 0.125454 0.473961 0.025919
v 0.125454 0.048174 0.119675
v 0.125454 -0.006421 -0.128263
v 0.125454 0.517025 -0.076184
v 0.125454 0.028677 0.031132
v 0.125454 0.501167 -0.148203
v 0.122091 0.161990 0.037076
v 0.122202 0.188539 0.105814
v 0.185893 0.166816 0.035109
v 0.186003 0.193375 0.103872
v 0.125454 0.028677 0.031132
v 0.098032 0.048174 0.119675
v 0.098032 -0.006421 -0.128263
v 0.098032 0.028165 0.029062
v 0.125454 0.012864 -0.040681
v 0.098032 0.010444 -0.043631
v 0.028140 -0.006421 -0.128263
v 0.028140 0.011745 -0.041977
v 0.028140 0.048174 0.119675
v 0.028140 0.028253 0.029423
v 0.098032 -0.216030 0.147984
v 0.098032 -0.264845 0.092986
v 0.028140 -0.264791 0.093047
v 0.028140 -0.215998 0.148020
v 0.173795 0.332843 0.050025
v 0.173684 0.306284 -0.018738
v 0.110831 0.301886 -0.017367
v 0.109993 0.328008 0.051967
v 0.028140 -0.103814 0.048447
v 0.098032 -0.103846 0.048411
v 0.098032 -0.152661 -0.006587
v 0.028140 -0.152570 -0.006530
v -0.001485 0.411444 0.039685
v -0.001485 0.356849 -0.208253
v -0.128423 0.376135 -0.120672
v -0.128423 0.391981 -0.048709
v -0.188985 0.609613 0.058061
v -0.188985 0.975839 -0.022581
v -0.188985 0.528971 -0.308166
v -0.188985 0.895198 -0.388807
v -0.128423 0.356849 -0.208253
v -0.128423 0.411444 0.039685
v -0.060631 0.582011 -0.067290
v -0.060631 0.556573 -0.182815
v -0.001485 0.473961 0.025919
v -0.001485 0.419366 -0.222019
v -0.060631 0.521898 -0.054054
v -0.060631 0.496460 -0.169578
v -0.129340 0.438520 -0.133536
v -0.128816 0.454215 -0.062295
v -0.128423 0.536476 0.012153
v -0.128423 0.481881 -0.235785
v -0.128423 0.419366 -0.222019
v -0.128423 0.473961 0.025919
v -0.128423 0.048174 0.119675
v -0.128423 -0.006421 -0.128263
v -0.128423 0.517025 -0.076184
v -0.128423 0.028677 0.031132
v -0.128423 0.501167 -0.148203
v -0.001485 0.895198 -0.388807
v -0.001485 0.528971 -0.308166
v -0.001485 0.975839 -0.022581
v -0.001485 0.609613 0.058061
v -0.001485 0.556573 -0.182815
v -0.001485 0.582011 -0.067290
v -0.001485 0.496460 -0.169578
v -0.001485 0.521898 -0.054054
v -0.001485 0.481881 -0.235785
v -0.001485 0.536476 0.012153
v -0.001485 -0.006421 -0.128263
v -0.001485 0.048174 0.119675
v -0.133305 0.188876 -0.255398
v -0.166357 0.144543 -0.206696
v -0.190518 0.208361 -0.276489
v -0.223582 0.164012 -0.227769
v -0.001485 0.028699 0.031232
v -0.128423 0.028677 0.031132
v -0.101001 0.048174 0.119675
v -0.101001 -0.006421 -0.128263
v -0.101001 0.030968 0.025653
v -0.128423 0.012864 -0.040681
v -0.101001 0.016316 -0.048950
v -0.001485 0.012896 -0.040538
v -0.031109 -0.006421 -0.128263
v -0.031109 0.014367 -0.044133
v -0.031109 0.048174 0.119675
v -0.031109 0.030202 0.027574
v -0.101001 -0.198962 -0.063076
v -0.101001 -0.214670 -0.134788
v -0.031109 -0.214597 -0.134844
v -0.031109 -0.198915 -0.063119
v -0.223139 0.274787 -0.126632
v -0.190075 0.319136 -0.175352
v -0.133753 0.300119 -0.154055
v -0.165914 0.255318 -0.105558
v -0.031109 -0.052351 -0.095042
v -0.101001 -0.052412 -0.094966
v -0.101001 -0.068473 -0.165827
v -0.031109 -0.068035 -0.166765
vt 0.266908 0.524887
vt 0.266908 0.787331
vt 0.133454 0.787331
vt 0.533816 0.262444
vt 0.533816 0.000000
vt 0.800723 0.000000
vt 0.888345 0.260463
vt 0.844534 0.260463
vt 0.844534 0.219070
vt 0.266908 0.262444
vt 0.175551 0.352272
vt 0.091356 0.352272
vt 0.000000 0.393666
vt 0.000000 0.262444
vt 0.846961 0.659813
vt 0.895213 0.675672
vt 0.846961 0.742600
vt 0.800723 0.177676
vt 0.844534 0.177676
vt 0.804863 0.307243
vt 0.895213 0.307243
vt 0.895213 0.352044
vt 0.383204 0.569687
vt 0.447606 0.569687
vt 0.447606 0.614487
vt 0.383226 0.524887
vt 0.330738 0.569687
vt 0.266908 0.569687
vt 0.330738 0.614487
vt 0.624165 0.657168
vt 0.624165 0.701969
vt 0.533816 0.701969
vt 0.895213 0.790045
vt 0.804863 0.790045
vt 0.891073 0.114297
vt 0.912158 0.114282
vt 0.912158 0.177676
vt 0.825949 0.612369
vt 0.804863 0.352044
vt 0.383185 0.614487
vt 0.447606 0.874812
vt 0.447606 0.524887
vt 0.330738 0.524887
vt 0.624165 0.612369
vt 0.533816 0.657168
vt 0.804863 0.262444
vt 0.895213 0.262444
vt 0.804863 0.659813
vt 0.804863 0.612369
vt 0.603079 0.962294
vt 0.553333 0.962294
vt 0.932155 0.219070
vt 0.888345 0.219070
vt 0.888345 0.177676
vt 0.947679 0.367421
vt 0.895213 0.367421
vt 0.266908 0.000000
vt 0.266908 0.131222
vt 0.000000 0.131222
vt 0.266908 0.393666
vt 0.175551 0.393666
vt 0.400362 0.000000
vt 0.400362 0.262444
vt 0.895213 0.943897
vt 0.895213 0.892309
vt 0.940775 0.892327
vt 0.947660 0.577376
vt 0.895213 0.577376
vt 0.895213 0.472399
vt 0.198984 0.892309
vt 0.198984 0.787331
vt 0.244546 0.787331
vt 0.760076 0.895023
vt 0.760076 0.790045
vt 0.805638 0.790045
vt 0.961904 0.177676
vt 0.961904 0.114249
vt 0.981422 0.114225
vt 0.981422 0.062762
vt 0.981422 0.000000
vt 0.961904 0.062784
vt 0.383075 0.874812
vt 0.330738 0.874812
vt 0.266908 0.614487
vt 0.891073 0.062865
vt 0.912158 0.062841
vt 0.891073 0.000000
vt 0.912158 0.000000
vt 0.149238 0.892309
vt 0.149238 0.787331
vt 0.961904 0.000000
vt 0.316654 0.926254
vt 0.266908 0.926311
vt 0.266908 0.874846
vt 0.099492 0.892309
vt 0.099492 0.787331
vt 0.947660 0.472399
vt 1.000000 0.472399
vt 0.947660 0.787331
vt 0.999976 0.787331
vt 0.999976 0.892309
vt 0.760076 1.000000
vt 0.805638 0.895023
vt 0.244546 0.997286
vt 0.198984 0.997286
vt 0.947660 0.682354
vt 0.895213 0.682354
vt 0.999976 0.682354
vt 0.099492 0.997286
vt 0.149238 0.997286
vt 0.000000 0.787331
vt 0.000000 0.524887
vt 0.533816 0.524887
vt 0.091356 0.435059
vt 0.175551 0.435059
vt 0.091356 0.393666
vt 0.714514 0.727283
vt 0.714514 0.675672
vt 0.762766 0.742600
vt 0.895011 0.790045
vt 0.895011 0.872832
vt 0.851201 0.872832
vt 0.714514 0.352044
vt 0.714514 0.307243
vt 0.598218 0.307243
vt 0.598237 0.352044
vt 0.533816 0.352044
vt 0.650684 0.307243
vt 0.598196 0.262444
vt 0.650684 0.352044
vt 0.714514 0.701969
vt 0.714514 0.790045
vt 0.869987 0.177676
vt 0.869987 0.114282
vt 0.783778 0.612369
vt 0.734032 0.612369
vt 0.598346 0.612369
vt 0.533816 0.612369
vt 0.533816 0.307243
vt 0.650684 0.262444
vt 0.714514 0.657168
vt 0.762766 0.659813
vt 0.714514 0.612369
vt 0.694996 0.962294
vt 0.645250 0.962294
vt 0.500072 0.734842
vt 0.447606 0.734842
vt 0.447606 0.629865
vt 0.411962 0.926401
vt 0.366400 0.926401
vt 0.366400 0.874831
vt 0.947660 0.892309
vt 0.851201 1.000000
vt 0.805639 1.000000
vt 0.820241 0.177676
vt 0.800723 0.114225
vt 0.820241 0.114249
vt 0.800723 0.062762
vt 0.820241 0.062784
vt 0.650684 0.612369
vt 0.869987 0.062841
vt 0.049746 0.892309
vt 0.049746 0.997286
vt 0.000000 0.997286
vt 0.869987 0.000000
vt 0.316654 0.874812
vt 0.366400 0.926311
vt 0.049746 0.787331
vt 0.500072 0.839820
vt 0.500072 0.944797
vt 0.447732 0.944797
vt 0.947679 0.262444
vt 0.999995 0.262444
vt 0.999995 0.367421
vt 0.851201 0.895023
vt 0.714514 1.000000
vt 0.714514 0.895022
vt 0.895213 0.787331
vt 0.500072 0.629865
vt 0.447732 0.839820
vt 0.000000 0.892309
vt 0.133454 0.524887
vt 0.800723 0.262444
vt 0.895213 0.727283
vt 0.895213 0.612369
vt 0.800723 0.260463
vt 0.804863 0.742600
vt 0.891073 0.177676
vt 0.875695 0.612369
vt 0.533816 0.962294
vt 0.624165 0.962294
vt 0.932155 0.177676
vt 0.000000 0.000000
vt 0.940775 0.943897
vt 0.244546 0.892309
vt 0.981422 0.177676
vt 1.000000 0.577376
vt 0.851201 0.790045
vt 0.714514 0.262444
vt 0.714514 0.962294
vt 0.932155 0.260463
vt 0.411962 0.874812
vt 0.820241 0.000000
vt 0.500072 0.524887
vt 0.447732 0.734842
vn 0.000000 -0.215000 -0.976600
vn 1.000000 0.000000 0.000000
vn 0.000000 -0.976600 0.215000
vn -0.000000 0.976600 -0.215000
vn 1.000000 0.000100 0.000600
vn 1.000000 0.002200 0.005700
vn 0.999900 -0.009700 -0.003600
vn -0.000000 0.215000 0.976600
vn -0.001500 -0.976500 0.215500
vn 1.000000 0.006400 -0.007100
vn 0.996700 0.075400 -0.030700
vn 0.081400 -0.929800 0.359000
vn -0.997100 -0.074100 0.015900
vn -0.001500 -0.360300 -0.932800
vn 0.001100 0.360300 0.932900
vn 0.002000 -0.976500 0.215600
vn 0.002000 -0.976600 0.215000
vn 0.062900 -0.974700 0.214600
vn 1.000000 0.000300 0.000600
vn -0.026900 -0.973900 0.225200
vn 0.000000 -0.978500 0.206000
vn 0.000700 0.663800 0.747900
vn -0.000100 -0.976500 0.215600
vn 0.000000 -0.980700 0.195400
vn 0.000000 -0.747900 0.663800
vn -0.001200 -0.663800 -0.747900
vn -1.000000 -0.000000 -0.000000
vn -0.048000 0.846400 0.530400
vn 0.867100 -0.108900 -0.486000
vn -0.988300 0.149300 -0.031900
vn 0.954400 0.278100 -0.108900
vn -0.001100 -0.221500 -0.975200
vn 0.005300 0.142600 0.989800
vn -1.000000 -0.006000 0.001300
vn -1.000000 0.007500 0.005700
vn -0.073200 -0.978900 0.191000
vn -1.000000 0.006900 0.002900
vn -0.999800 0.011600 -0.012900
vn -0.893800 0.304400 -0.329500
vn -0.003000 -0.738500 -0.674200
vn 0.893800 -0.304400 0.329500
vn 0.448500 0.601600 -0.660900
vn -0.448200 -0.601800 0.661100
vn 0.123600 -0.969100 0.213400
vn 0.184600 -0.959800 0.211400
vn -0.075900 -0.973800 0.214400
vn -0.074400 -0.973900 0.214400
vn 0.000500 0.212600 0.977100
vn -0.015700 -0.983500 0.180000
vn -0.043600 -0.969900 0.239600
vn 0.000800 -0.976800 0.214000
vn -0.000600 -0.207700 -0.978200
vn -0.408900 -0.252600 0.876900
vn 0.430500 0.337500 -0.837100
vn 0.895400 -0.230200 0.381200
vn -0.857800 0.497400 -0.129400
vn -0.012900 0.809400 -0.587200
vn 0.001300 -0.822600 0.568600
vn 1.000000 -0.000900 0.000200
vn 1.000000 0.007600 -0.001700
vn 1.000000 0.000900 -0.000200
vn -0.996700 -0.075400 0.030700
vn 0.005000 -0.362300 -0.932000
vn 0.060200 -0.969800 0.236400
vn 1.000000 -0.000000 -0.000800
vn -0.001600 -0.976600 0.215000
vn -0.027500 -0.976200 0.215000
vn 0.000000 -0.976500 0.215500
vn -0.013300 -0.978500 0.206000
vn -0.001500 -0.663700 -0.748000
vn -0.866000 0.107300 0.488300
vn 0.044300 -0.813400 -0.580000
vn -0.988300 0.138200 -0.064000
vn 0.954400 0.292800 -0.058900
vn -0.027000 -0.210800 -0.977200
vn 0.000600 0.145000 0.989400
vn -1.000000 0.000900 0.004200
vn -0.999900 0.013900 -0.003100
vn -0.999800 -0.016100 -0.006900
vn 0.899000 -0.293000 0.325500
vn 0.452100 0.601700 -0.658500
vn 0.117300 -0.976900 0.178800
vn 0.178700 -0.965500 0.189600
vn 0.000000 -0.961300 0.275600
vn -0.074400 -0.973800 0.215000
vn 0.000000 -0.970800 0.239900
vn 0.000900 0.212800 0.977100
vn 0.000000 -0.981500 0.191500
vn 0.001200 -0.976900 0.213600
vn -0.011800 -0.212800 -0.977000
vn -0.727700 0.141900 0.671100
vn 0.722300 -0.129500 -0.679400
vn 0.955400 -0.288500 0.063500
vn -0.872500 0.478500 -0.099000
vn 0.061500 0.828500 -0.556700
vn -0.024400 -0.829300 0.558300
usemtl Material
s off
f 6/1/1 5/2/1 78/3/1
f 4/4/2 3/5/2 5/6/2
f 10/7/1 12/8/1 83/9/1
f 3/10/3 9/11/3 10/12/3
f 78/13/3 5/14/3 10/12/3
f 11/15/4 21/16/4 12/17/4
f 9/18/2 11/19/2 12/8/2
f 63/20/1 17/21/1 7/22/1
f 14/23/5 18/24/5 8/25/5
f 21/26/6 14/23/6 13/27/6
f 17/28/7 13/27/7 1/29/7
f 62/30/8 50/31/8 8/32/8
f 12/17/4 16/33/4 85/34/4
f 93/35/9 37/36/9 36/37/9
f 7/22/1 34/38/1 51/39/1
f 2/40/2 8/25/2 19/41/2
f 15/42/5 18/24/5 14/23/5
f 23/43/10 13/27/10 17/28/10
f 86/44/8 62/30/8 18/45/8
f 85/46/1 16/47/1 17/21/1
f 11/15/4 84/48/4 86/49/4
f 36/50/8 29/51/8 8/32/8
f 82/52/8 84/53/8 11/54/8
f 43/55/11 42/56/11 27/47/11
f 6/57/4 77/58/4 79/59/4
f 80/60/3 82/61/3 9/11/3
f 79/62/8 80/63/8 3/10/8
f 26/64/12 27/65/12 25/66/12
f 45/67/13 44/68/13 24/69/13
f 43/70/14 26/71/14 24/72/14
f 45/73/15 25/74/15 27/75/15
f 29/76/16 31/77/16 22/78/16
f 32/79/17 28/78/17 31/77/17
f 20/80/18 32/79/18 33/81/18
f 2/40/2 28/82/2 32/83/2
f 7/84/19 1/29/19 32/83/19
f 100/85/20 35/86/20 37/36/20
f 87/87/21 34/88/21 35/86/21
f 47/70/22 46/89/22 41/90/22
f 37/36/23 31/77/23 29/76/23
f 34/88/24 30/91/24 33/81/24
f 40/92/25 39/93/25 38/94/25
f 48/95/26 39/96/26 40/90/26
f 47/67/2 38/97/2 39/98/2
f 46/99/27 49/100/27 40/101/27
f 2/102/28 45/73/28 42/103/28
f 1/104/29 13/105/29 43/70/29
f 2/106/30 1/107/30 44/68/30
f 14/69/31 42/56/31 43/55/31
f 35/108/27 49/100/27 46/99/27
f 33/108/2 31/106/2 47/67/2
f 33/109/32 48/95/32 49/89/32
f 31/105/33 37/110/33 46/89/33
f 78/3/1 56/111/1 57/112/1
f 56/4/27 54/113/27 55/1/27
f 83/9/1 65/19/1 61/54/1
f 61/114/3 60/115/3 54/1/3
f 78/13/3 81/116/3 61/114/3
f 76/117/4 74/118/4 65/119/4
f 65/120/27 64/121/27 60/122/27
f 51/39/1 58/123/1 70/124/1
f 67/125/34 53/126/34 59/127/34
f 66/128/35 67/125/35 74/129/35
f 70/124/27 58/123/27 52/130/27
f 59/131/8 50/31/8 62/30/8
f 85/34/4 69/132/4 65/119/4
f 103/133/36 104/134/36 93/35/36
f 101/135/1 96/136/1 58/123/1
f 53/126/27 75/137/27 72/138/27
f 74/129/37 67/125/37 71/139/37
f 70/124/38 66/128/38 76/140/38
f 71/141/8 62/30/8 86/44/8
f 85/46/1 63/20/1 70/124/1
f 64/142/4 68/143/4 86/49/4
f 95/144/8 103/145/8 59/131/8
f 64/7/8 84/53/8 82/52/8
f 91/146/39 92/147/39 109/148/39
f 79/59/4 77/58/4 57/10/4
f 60/115/3 82/61/3 80/60/3
f 54/4/8 80/63/8 79/62/8
f 91/149/40 89/150/40 90/151/40
f 112/99/41 90/152/41 89/65/41
f 89/132/42 91/74/42 110/73/42
f 92/153/43 90/154/43 112/103/43
f 95/155/3 72/18/3 75/156/3
f 97/157/44 94/156/44 98/158/44
f 99/159/45 98/158/45 73/6/45
f 52/130/27 98/160/27 94/137/27
f 98/160/27 52/130/27 58/123/27
f 100/85/46 93/35/46 104/134/46
f 87/87/47 100/85/47 102/161/47
f 114/162/48 105/163/48 108/164/48
f 95/155/49 97/157/49 104/134/49
f 101/165/50 102/161/50 99/159/50
f 108/166/51 105/151/51 106/167/51
f 107/168/52 106/96/52 115/95/52
f 115/169/27 106/170/27 105/171/27
f 108/172/2 107/173/2 116/174/2
f 109/175/53 112/103/53 53/75/53
f 52/176/54 111/177/54 110/73/54
f 112/99/55 111/178/55 52/107/55
f 110/179/56 109/148/56 67/42/56
f 113/55/2 116/174/2 102/98/2
f 99/146/27 115/169/27 114/180/27
f 116/162/57 115/95/57 99/109/57
f 97/168/58 114/162/58 113/181/58
f 77/182/1 6/1/1 78/3/1
f 6/183/2 4/4/2 5/6/2
f 81/53/1 10/7/1 83/9/1
f 5/14/3 3/10/3 10/12/3
f 81/116/3 78/13/3 10/12/3
f 16/33/4 12/17/4 23/184/4
f 11/15/4 15/185/4 21/16/4
f 21/16/4 23/184/4 12/17/4
f 10/186/2 9/18/2 12/8/2
f 51/39/1 63/20/1 7/22/1
f 2/40/59 14/23/59 8/25/59
f 23/43/60 21/26/60 13/27/60
f 7/84/5 17/28/5 1/29/5
f 18/45/8 62/30/8 8/32/8
f 83/187/4 12/17/4 85/34/4
f 88/188/3 93/35/3 36/37/3
f 87/49/1 51/39/1 34/38/1
f 7/22/1 20/185/1 30/189/1
f 30/189/1 34/38/1 7/22/1
f 22/82/2 2/40/2 19/41/2
f 21/26/61 15/42/61 14/23/61
f 16/1/2 23/43/2 17/28/2
f 15/138/8 86/44/8 18/45/8
f 63/20/1 85/46/1 17/21/1
f 15/185/4 11/15/4 86/49/4
f 19/190/8 8/32/8 29/51/8
f 50/31/8 88/191/8 36/50/8
f 36/50/8 8/32/8 50/31/8
f 9/192/8 82/52/8 11/54/8
f 26/172/11 43/55/11 27/47/11
f 4/193/4 6/57/4 79/59/4
f 3/10/3 80/60/3 9/11/3
f 4/57/8 79/62/8 3/10/8
f 24/194/12 26/64/12 25/66/12
f 25/97/62 45/67/62 24/69/62
f 44/195/63 43/70/63 24/72/63
f 42/103/15 45/73/15 27/75/15
f 19/196/3 29/76/3 22/78/3
f 33/81/64 32/79/64 31/77/64
f 30/91/24 20/80/24 33/81/24
f 1/29/65 2/40/65 32/83/65
f 20/94/2 7/84/2 32/83/2
f 93/35/66 100/85/66 37/36/66
f 100/85/67 87/87/67 35/86/67
f 38/71/22 47/70/22 41/90/22
f 36/37/68 37/36/68 29/76/68
f 35/86/69 34/88/69 33/81/69
f 41/166/25 40/92/25 38/94/25
f 49/89/70 48/95/70 40/90/70
f 48/197/2 47/67/2 39/98/2
f 41/152/27 46/99/27 40/101/27
f 14/154/71 2/102/71 42/103/71
f 44/195/72 1/104/72 43/70/72
f 45/67/73 2/106/73 44/68/73
f 13/97/74 14/69/74 43/55/74
f 37/106/27 35/108/27 46/99/27
f 48/197/2 33/108/2 47/67/2
f 35/110/75 33/109/75 49/89/75
f 47/70/76 31/105/76 46/89/76
f 77/182/1 78/3/1 57/112/1
f 57/10/27 56/4/27 55/1/27
f 81/53/1 83/9/1 61/54/1
f 56/112/3 61/114/3 54/1/3
f 56/112/3 78/13/3 61/114/3
f 64/142/4 65/119/4 74/118/4
f 69/132/4 76/117/4 65/119/4
f 74/118/4 68/143/4 64/142/4
f 61/198/27 65/120/27 60/122/27
f 63/20/1 51/39/1 70/124/1
f 71/139/77 67/125/77 59/127/77
f 76/140/78 66/128/78 74/129/78
f 66/128/79 70/124/79 52/130/79
f 71/141/8 59/131/8 62/30/8
f 83/187/4 85/34/4 65/119/4
f 88/188/3 103/133/3 93/35/3
f 58/123/1 51/39/1 101/135/1
f 87/49/1 101/135/1 51/39/1
f 96/136/1 73/143/1 58/123/1
f 59/127/27 53/126/27 72/138/27
f 68/4/27 74/129/27 71/139/27
f 69/199/27 70/124/27 76/140/27
f 68/143/8 71/141/8 86/44/8
f 69/199/1 85/46/1 70/124/1
f 84/48/4 64/142/4 86/49/4
f 50/31/8 59/131/8 103/145/8
f 72/200/8 95/144/8 59/131/8
f 103/145/8 88/191/8 50/31/8
f 60/201/8 64/7/8 82/52/8
f 110/179/39 91/146/39 109/148/39
f 55/14/4 79/59/4 57/10/4
f 54/1/3 60/115/3 80/60/3
f 55/5/8 54/4/8 79/62/8
f 92/202/40 91/149/40 90/151/40
f 111/178/80 112/99/80 89/65/80
f 111/177/81 89/132/81 110/73/81
f 109/175/43 92/153/43 112/103/43
f 97/157/82 95/155/82 75/156/82
f 99/159/83 97/157/83 98/158/83
f 96/203/84 99/159/84 73/6/84
f 53/126/27 52/130/27 94/137/27
f 73/143/27 98/160/27 58/123/27
f 102/161/85 100/85/85 104/134/85
f 101/165/86 87/87/86 102/161/86
f 113/181/87 114/162/87 108/164/87
f 103/133/88 95/155/88 104/134/88
f 96/203/84 101/165/84 99/159/84
f 107/92/89 108/166/89 106/167/89
f 116/162/90 107/168/90 115/95/90
f 114/180/27 115/169/27 105/171/27
f 113/55/2 108/172/2 116/174/2
f 67/198/91 109/175/91 53/75/91
f 66/102/92 52/176/92 110/73/92
f 53/106/93 112/99/93 52/107/93
f 66/204/94 110/179/94 67/42/94
f 104/97/2 113/55/2 102/98/2
f 97/205/27 99/146/27 114/180/27
f 102/163/95 116/162/95 99/109/95
f 104/111/96 97/168/96 113/181/96
