# Blender v2.76 (sub 0) OBJ File: 'enemy1.blend'
# www.blender.org
mtllib enemy1_jump_000002.mtl
o Cube
v -0.250000 0.126492 0.244503
v -0.250000 0.369877 0.283009
v -0.250000 0.204625 -0.249354
v -0.250000 0.448010 -0.210848
v 0.250000 0.126492 0.244503
v 0.250000 0.369877 0.283009
v 0.250000 0.204625 -0.249354
v 0.250000 0.448010 -0.210848
v -0.365144 0.362327 0.398391
v -0.365144 0.476447 -0.322926
v 0.365144 0.362327 0.398391
v 0.365144 0.476447 -0.322926
v -0.365144 0.826479 0.471824
v -0.365144 0.940598 -0.249493
v 0.365144 0.826479 0.471824
v 0.365144 0.940598 -0.249493
vt 0.871430 0.255027
vt 1.000000 0.255027
vt 1.000000 0.510054
vt 0.509614 1.000000
vt 0.381043 1.000000
vt 0.381043 0.744973
vt 0.871430 0.510054
vt 1.000000 0.765081
vt 0.871430 0.000000
vt 0.260885 1.000000
vt 0.000000 1.000000
vt 0.000000 0.744973
vt 0.060079 0.313757
vt 0.320964 0.313757
vt 0.381043 0.372486
vt 0.626236 0.372486
vt 0.381043 0.000000
vt 0.320964 0.058730
vt 0.000000 0.372487
vt 0.000000 0.000000
vt 0.060079 0.058730
vt 0.871430 0.744973
vt 0.626236 0.744973
vt 0.871430 0.372486
vt 0.626236 0.000000
vt 0.509614 0.744973
vt 0.871430 0.765081
vt 1.000000 0.000000
vt 0.260885 0.744973
vn -1.000000 0.000000 0.000000
vn 0.000000 0.156300 -0.987700
vn 1.000000 -0.000000 0.000000
vn 0.000000 -0.156300 0.987700
vn 0.000000 -0.987700 -0.156300
vn -0.091400 -0.983600 -0.155600
vn 0.000000 -0.997900 -0.065300
vn 0.000000 -0.969300 -0.245900
vn 0.091400 -0.983600 -0.155600
vn 0.000000 0.987700 0.156300
usemtl None
s off
f 4/1/1 3/2/1 1/3/1
f 8/4/2 7/5/2 3/6/2
f 6/7/3 5/3/3 7/8/3
f 2/2/4 1/1/4 5/9/4
f 3/10/5 7/11/5 5/12/5
f 4/13/6 2/14/6 9/15/6
f 12/16/3 16/15/3 15/17/3
f 6/18/7 11/17/7 9/15/7
f 4/13/8 10/19/8 12/20/8
f 8/21/9 12/20/9 11/17/9
f 16/15/10 14/6/10 13/12/10
f 9/22/1 13/23/1 14/16/1
f 11/15/4 15/16/4 13/23/4
f 10/24/2 14/16/2 16/25/2
f 2/7/1 4/1/1 1/3/1
f 4/26/2 8/4/2 3/6/2
f 8/27/3 6/7/3 7/8/3
f 6/28/4 2/2/4 5/9/4
f 1/29/5 3/10/5 5/12/5
f 10/19/6 4/13/6 9/15/6
f 11/25/3 12/16/3 15/17/3
f 2/14/7 6/18/7 9/15/7
f 8/21/8 4/13/8 12/20/8
f 6/18/9 8/21/9 11/17/9
f 15/19/10 16/15/10 13/12/10
f 10/24/1 9/22/1 14/16/1
f 9/6/4 11/15/4 13/23/4
f 12/9/2 10/24/2 16/25/2
