# Blender v2.76 (sub 0) OBJ File: 'enemy1.blend'
# www.blender.org
mtllib enemy1_jump_000003.mtl
o Cube
v -0.250000 0.357959 0.236759
v -0.250000 0.595408 0.302611
v -0.250000 0.491582 -0.245055
v -0.250000 0.729031 -0.179203
v 0.250000 0.357959 0.236759
v 0.250000 0.595408 0.302611
v 0.250000 0.491582 -0.245055
v 0.250000 0.729031 -0.179203
v -0.365144 0.574826 0.416393
v -0.365144 0.769992 -0.287333
v 0.365144 0.574826 0.416393
v 0.365144 0.769992 -0.287333
v -0.365144 1.027658 0.541979
v -0.365144 1.222825 -0.161748
v 0.365144 1.027658 0.541979
v 0.365144 1.222825 -0.161748
vt 0.871430 0.255027
vt 1.000000 0.255027
vt 1.000000 0.510054
vt 0.509614 1.000000
vt 0.381043 1.000000
vt 0.381043 0.744973
vt 0.871430 0.510054
vt 1.000000 0.765081
vt 0.871430 0.000000
vt 0.260885 1.000000
vt 0.000000 1.000000
vt 0.000000 0.744973
vt 0.320964 0.313757
vt 0.381043 0.372486
vt 0.000000 0.372487
vt 0.626236 0.000000
vt 0.626236 0.372486
vt 0.320964 0.058730
vt 0.381043 0.000000
vt 0.060079 0.313757
vt 0.000000 0.000000
vt 0.060079 0.058730
vt 0.871430 0.744973
vt 0.626236 0.744973
vt 0.871430 0.372486
vt 0.509614 0.744973
vt 0.871430 0.765081
vt 1.000000 0.000000
vt 0.260885 0.744973
vn -1.000000 0.000000 0.000000
vn 0.000000 0.267200 -0.963600
vn 1.000000 0.000000 0.000000
vn 0.000000 -0.267200 0.963600
vn 0.000000 -0.963600 -0.267200
vn -0.091400 -0.959600 -0.266100
vn 0.000000 -0.984000 -0.178000
vn 0.000000 -0.935200 -0.354200
vn 0.091400 -0.959600 -0.266100
vn 0.000000 0.963600 0.267200
usemtl None
s off
f 4/1/1 3/2/1 1/3/1
f 8/4/2 7/5/2 3/6/2
f 6/7/3 5/3/3 7/8/3
f 2/2/4 1/1/4 5/9/4
f 3/10/5 7/11/5 5/12/5
f 2/13/6 9/14/6 10/15/6
f 11/16/3 12/17/3 16/14/3
f 6/18/7 11/19/7 9/14/7
f 4/20/8 10/15/8 12/21/8
f 8/22/9 12/21/9 11/19/9
f 16/14/10 14/6/10 13/12/10
f 9/23/1 13/24/1 14/17/1
f 11/14/4 15/17/4 13/24/4
f 10/25/2 14/17/2 16/16/2
f 2/7/1 4/1/1 1/3/1
f 4/26/2 8/4/2 3/6/2
f 8/27/3 6/7/3 7/8/3
f 6/28/4 2/2/4 5/9/4
f 1/29/5 3/10/5 5/12/5
f 4/20/6 2/13/6 10/15/6
f 15/19/3 11/16/3 16/14/3
f 2/13/7 6/18/7 9/14/7
f 8/22/8 4/20/8 12/21/8
f 6/18/9 8/22/9 11/19/9
f 15/15/10 16/14/10 13/12/10
f 10/25/1 9/23/1 14/17/1
f 9/6/4 11/14/4 13/24/4
f 12/9/2 10/25/2 16/16/2
