# Blender v2.76 (sub 0) OBJ File: 'enemy1.blend'
# www.blender.org
mtllib enemy1_jump_000007.mtl
o Cube
v -0.250000 -0.104273 0.249094
v -0.250000 0.141908 0.259757
v -0.250000 -0.082637 -0.250437
v -0.250000 0.163544 -0.239775
v 0.250000 -0.104273 0.249094
v 0.250000 0.141908 0.259757
v 0.250000 -0.082637 -0.250437
v 0.250000 0.163544 -0.239775
v -0.365144 0.147489 0.375251
v -0.365144 0.179090 -0.354354
v 0.365144 0.147489 0.375251
v 0.365144 0.179090 -0.354354
v -0.365144 0.616974 0.395585
v -0.365144 0.648575 -0.334019
v 0.365144 0.616974 0.395585
v 0.365144 0.648575 -0.334019
vt 0.871430 0.510054
vt 0.871430 0.255027
vt 1.000000 0.255027
vt 0.509614 1.000000
vt 0.381043 1.000000
vt 0.381043 0.744973
vt 1.000000 0.510054
vt 1.000000 0.765081
vt 0.871430 0.000000
vt 0.260885 1.000000
vt 0.000000 1.000000
vt 0.000000 0.744973
vt 0.320964 0.313757
vt 0.381043 0.372486
vt 0.000000 0.372487
vt 0.626236 0.372486
vt 0.381043 0.000000
vt 0.320964 0.058730
vt 0.060079 0.313757
vt 0.000000 0.000000
vt 0.060079 0.058730
vt 0.871429 0.372487
vt 0.871430 0.744973
vt 0.626236 0.744973
vt 0.626236 0.000000
vt 0.509614 0.744973
vt 0.871430 0.765081
vt 1.000000 0.000000
vt 0.260885 0.744973
vn -1.000000 -0.000000 0.000000
vn 0.000000 0.043300 -0.999100
vn 1.000000 0.000000 0.000000
vn 0.000000 -0.043300 0.999100
vn 0.000000 -0.999100 -0.043300
vn -0.091400 -0.994900 -0.043100
vn 0.000000 -0.998800 0.048300
vn 0.000000 -0.990900 -0.134400
vn 0.091400 -0.994900 -0.043100
vn 0.000000 0.999100 0.043300
usemtl None
s off
f 2/1/1 4/2/1 3/3/1
f 8/4/2 7/5/2 3/6/2
f 6/1/3 5/7/3 7/8/3
f 2/3/4 1/2/4 5/9/4
f 3/10/5 7/11/5 5/12/5
f 2/13/6 9/14/6 10/15/6
f 12/16/3 16/14/3 15/17/3
f 6/18/7 11/17/7 9/14/7
f 4/19/8 10/15/8 12/20/8
f 6/18/9 8/21/9 12/20/9
f 16/14/10 14/6/10 13/12/10
f 10/22/1 9/23/1 13/24/1
f 11/14/4 15/16/4 13/24/4
f 10/22/2 14/16/2 16/25/2
f 1/7/1 2/1/1 3/3/1
f 4/26/2 8/4/2 3/6/2
f 8/27/3 6/1/3 7/8/3
f 6/28/4 2/3/4 5/9/4
f 1/29/5 3/10/5 5/12/5
f 4/19/6 2/13/6 10/15/6
f 11/25/3 12/16/3 15/17/3
f 2/13/7 6/18/7 9/14/7
f 8/21/8 4/19/8 12/20/8
f 11/17/9 6/18/9 12/20/9
f 15/15/10 16/14/10 13/12/10
f 14/16/1 10/22/1 13/24/1
f 9/6/4 11/14/4 13/24/4
f 12/9/2 10/22/2 16/25/2
