# Blender v2.76 (sub 0) OBJ File: 'aSw.blend'
# www.blender.org
mtllib attack_000009.mtl
o Plane_Plane.002
v -0.312891 0.087237 -0.046708
v -0.347220 0.264571 -0.136088
v -0.324321 0.076226 -0.063317
v -0.363723 0.247538 -0.160036
v -0.293632 0.084473 -0.058305
v -0.318363 0.260375 -0.152989
v -0.305071 0.073485 -0.074919
v -0.334866 0.243342 -0.176937
v -0.352647 0.292444 -0.151936
v -0.369314 0.275241 -0.176124
v -0.323501 0.288207 -0.169006
v -0.340169 0.271004 -0.193194
v -0.508931 1.116176 -0.646530
v -0.514172 1.110766 -0.654137
v -0.499765 1.114843 -0.651898
v -0.505006 1.109433 -0.659505
v -0.272428 0.247326 -0.190913
v -0.278109 0.241462 -0.199158
v -0.277792 0.275093 -0.206966
v -0.283474 0.269229 -0.215211
v -0.403977 0.266452 -0.113867
v -0.409659 0.260588 -0.122112
v -0.409342 0.294219 -0.129920
v -0.415023 0.288355 -0.138165
v 0.125643 0.368184 -0.038185
v 0.125396 0.368064 0.035428
v 0.185696 0.557644 0.186604
v 0.185696 0.932644 0.186604
v 0.186342 0.557644 -0.188395
v 0.186342 0.932644 -0.188395
v 0.125676 0.368064 -0.127940
v 0.125245 0.368064 0.125933
v 0.057564 0.557644 0.058029
v 0.057768 0.557644 -0.060263
v 0.057564 0.496091 0.058029
v 0.057768 0.496091 -0.060263
v 0.127155 0.431680 -0.037543
v 0.125540 0.431963 0.035507
v 0.125240 0.496091 0.125939
v 0.125677 0.496091 -0.127939
v 0.125677 0.432078 -0.127939
v 0.125240 0.432078 0.125939
v 0.125449 -0.003909 0.125731
v 0.125462 -0.003909 -0.128145
v 0.125395 0.496091 0.035486
v 0.125453 -0.003909 0.035066
v 0.125522 0.496091 -0.038259
v 0.141309 0.203064 -0.195728
v 0.110803 0.162683 -0.142169
v 0.198824 0.179113 -0.181026
v 0.168307 0.138718 -0.127447
v 0.125453 -0.003909 0.035065
v 0.098032 -0.003909 0.125726
v 0.098039 -0.003909 -0.128147
v 0.098032 -0.003809 0.034234
v 0.125454 -0.003909 -0.038473
v 0.098032 -0.003428 -0.039966
v 0.028140 -0.003909 -0.128152
v 0.028140 -0.003682 -0.039079
v 0.028140 -0.003909 0.125726
v 0.028140 -0.003824 0.034411
v 0.098032 -0.298767 -0.025788
v 0.098032 -0.292123 -0.099024
v 0.028140 -0.292131 -0.098944
v 0.028140 -0.298772 -0.025741
v 0.190220 0.250938 -0.030358
v 0.220737 0.291334 -0.083936
v 0.163866 0.315587 -0.098291
v 0.132716 0.274904 -0.045079
v 0.028140 -0.149385 -0.012188
v 0.098032 -0.149381 -0.012236
v 0.098032 -0.142737 -0.085472
v 0.028140 -0.142768 -0.085290
v -0.001699 0.368064 0.125720
v -0.001262 0.368064 -0.128157
v -0.128355 0.368064 -0.038696
v -0.128482 0.368064 0.034991
v -0.189303 0.557644 0.185958
v -0.189303 0.932644 0.185958
v -0.188657 0.557644 -0.189041
v -0.188657 0.932644 -0.189041
v -0.128204 0.368064 -0.128372
v -0.128632 0.368064 0.125507
v -0.060728 0.557644 0.057826
v -0.060525 0.557644 -0.060466
v -0.001699 0.432078 0.125720
v -0.001262 0.432078 -0.128157
v -0.060728 0.496091 0.057826
v -0.060524 0.496091 -0.060467
v -0.127870 0.430944 -0.036889
v -0.128627 0.431740 0.035451
v -0.128638 0.496091 0.125501
v -0.128200 0.496091 -0.128376
v -0.128200 0.432078 -0.128376
v -0.128638 0.432078 0.125501
v -0.128430 -0.003909 0.125719
v -0.128415 -0.003909 -0.128160
v -0.128482 0.496091 0.035048
v -0.128425 -0.003909 0.035054
v -0.128355 0.496091 -0.038696
v -0.001157 0.932644 -0.188718
v -0.001157 0.557644 -0.188718
v -0.001803 0.932644 0.186281
v -0.001803 0.557644 0.186281
v -0.001379 0.557644 -0.060365
v -0.001582 0.557644 0.057927
v -0.001378 0.496091 -0.060365
v -0.001582 0.496091 0.057927
v -0.001262 0.496091 -0.128157
v -0.001699 0.496091 0.125720
v -0.001482 -0.003909 -0.128152
v -0.001486 -0.003909 0.125725
v -0.246507 0.176964 -0.115817
v -0.308173 0.185112 -0.076311
v -0.255080 0.235106 -0.141190
v -0.316768 0.243256 -0.101670
v -0.001485 -0.003909 0.035164
v -0.128425 -0.003909 0.035056
v -0.101002 -0.003909 0.125725
v -0.100994 -0.003909 -0.128158
v -0.101001 -0.004036 0.032382
v -0.128423 -0.003909 -0.038474
v -0.101001 -0.006080 -0.041992
v -0.001485 -0.003909 -0.038326
v -0.031109 -0.003909 -0.128152
v -0.031109 -0.004841 -0.039886
v -0.031110 -0.003909 0.125725
v -0.031109 -0.003992 0.033350
v -0.101001 -0.265148 0.110858
v -0.101001 -0.302844 0.047717
v -0.031109 -0.302802 0.047787
v -0.031109 -0.265124 0.110899
v -0.237152 0.303783 0.010123
v -0.175463 0.295633 -0.029398
v -0.167573 0.238291 -0.004238
v -0.228556 0.245639 0.035482
v -0.031109 -0.136330 0.034008
v -0.101001 -0.136355 0.033967
v -0.101001 -0.173937 -0.029226
v -0.031109 -0.174009 -0.029104
vt 0.607621 0.804403
vt 0.610973 0.682523
vt 0.624691 0.682523
vt 0.036336 0.121881
vt 0.039689 0.000000
vt 0.053406 0.000000
vt 0.628043 0.926284
vt 0.607621 0.926284
vt 0.610973 0.804403
vt 0.129431 0.610213
vt 0.149853 0.610213
vt 0.146501 0.732094
vt 0.172472 0.745830
vt 0.172472 0.732094
vt 0.186189 0.732094
vt 0.763002 0.870578
vt 0.769697 0.834195
vt 0.776728 0.834195
vt 0.948267 0.817994
vt 0.955337 0.227508
vt 0.961823 0.227508
vt 0.149955 0.590484
vt 0.186189 0.590487
vt 0.186189 0.610216
vt 0.129329 0.590484
vt 0.056758 0.121881
vt 0.056860 0.141610
vt 0.036235 0.141610
vt 0.628043 0.728476
vt 0.628043 0.721981
vt 0.634529 0.721981
vt 0.968893 0.817993
vt 0.975962 0.227508
vt 0.982448 0.227508
vt 0.136399 0.000000
vt 0.049790 0.732094
vt 0.628043 0.702252
vt 0.628043 0.682523
vt 0.635073 0.682523
vt 0.000000 0.141607
vt 0.000000 0.121878
vt 0.742376 0.870476
vt 0.749173 0.834195
vt 0.756204 0.834195
vt 0.093095 0.610216
vt 0.635073 0.721981
vt 0.803845 0.870578
vt 0.783423 0.870578
vt 0.790119 0.834195
vt 0.721750 0.834195
vt 0.742376 0.834195
vt 0.735579 0.870476
vt 0.093095 0.121878
vt 0.186189 0.227508
vt 0.186189 0.000000
vt 0.299796 0.000000
vt 0.413403 0.682523
vt 0.413403 0.455015
vt 0.640616 0.455015
vt 0.752502 0.154024
vt 0.789797 0.154024
vt 0.789797 0.189908
vt 0.413403 0.227508
vt 0.335633 0.305378
vt 0.263959 0.305378
vt 0.186189 0.341262
vt 0.298939 0.795418
vt 0.285209 0.836547
vt 0.227265 0.795418
vt 0.677912 0.225791
vt 0.640616 0.225791
vt 0.640616 0.154024
vt 0.717529 0.492015
vt 0.640616 0.492015
vt 0.640616 0.453179
vt 0.695441 0.795359
vt 0.640616 0.795359
vt 0.640616 0.756522
vt 0.695422 0.834195
vt 0.740105 0.795359
vt 0.794442 0.795359
vt 0.740105 0.756522
vt 0.794442 0.569687
vt 0.871354 0.569687
vt 0.871354 0.608524
vt 0.186189 0.836547
vt 0.186189 0.759535
vt 0.695488 0.077012
vt 0.695500 0.094985
vt 0.640616 0.094985
vt 0.699579 0.227508
vt 0.717529 0.453179
vt 0.695457 0.756522
vt 0.640616 0.530851
vt 0.640616 0.834195
vt 0.740105 0.834195
vt 0.871354 0.530851
vt 0.717529 0.530851
vt 0.298939 0.759535
vt 0.340014 0.759535
vt 0.853405 0.834195
vt 0.811057 0.834195
vt 0.794442 0.608524
vt 0.715207 0.225791
vt 0.715207 0.189908
vt 0.752502 0.189908
vt 0.384678 0.773526
vt 0.384678 0.864529
vt 0.340014 0.864529
vt 0.413403 0.341261
vt 0.640616 0.341261
vt 0.335633 0.341261
vt 0.527010 0.227508
vt 0.527010 0.000000
vt 0.640616 0.000000
vt 0.836789 0.226727
vt 0.836789 0.182006
vt 0.875576 0.182022
vt 0.429325 0.773526
vt 0.384678 0.682523
vt 0.948267 0.908997
vt 0.987053 0.817994
vt 1.000000 0.091003
vt 1.000000 0.182006
vt 0.961214 0.182006
vt 0.640616 0.137388
vt 0.695529 0.137388
vt 0.695550 0.154024
vt 0.740104 0.154024
vt 0.794442 0.154024
vt 0.740086 0.137388
vt 0.695550 0.530851
vt 0.740105 0.530851
vt 0.794442 0.756522
vt 0.740015 0.077012
vt 0.740037 0.094985
vt 0.794442 0.077012
vt 0.794442 0.094985
vt 0.169391 0.823098
vt 0.127043 0.823097
vt 0.127043 0.732094
vt 0.794442 0.137388
vt 0.836789 0.226600
vt 0.794442 0.226649
vt 0.794442 0.182035
vt 0.084696 0.823098
vt 0.127043 0.914101
vt 0.563085 0.773526
vt 0.518529 0.773526
vt 0.518529 0.682523
vt 0.563085 0.682523
vt 0.607621 0.682523
vt 1.000000 0.000000
vt 0.961214 0.091003
vt 0.987053 1.000000
vt 0.948267 1.000000
vt 0.340014 0.682523
vt 0.563085 0.864529
vt 0.607621 0.773526
vt 0.518529 0.864529
vt 0.169391 0.914101
vt 0.413403 0.000000
vt 0.186189 0.682523
vt 0.186189 0.455015
vt 0.789797 0.225791
vt 0.263959 0.377145
vt 0.335633 0.377145
vt 0.263959 0.341261
vt 0.240526 0.682523
vt 0.285209 0.682523
vt 0.227265 0.723652
vt 0.677912 0.154024
vt 0.715207 0.154024
vt 0.794442 0.453179
vt 0.794442 0.492015
vt 0.893442 0.492015
vt 0.893426 0.453179
vt 0.948267 0.453179
vt 0.848779 0.492015
vt 0.893461 0.530851
vt 0.848779 0.453179
vt 0.948267 0.608524
vt 0.640616 0.059039
vt 0.695500 0.059039
vt 0.735479 0.227508
vt 0.777826 0.227508
vt 0.893333 0.227508
vt 0.948267 0.227508
vt 0.948267 0.492015
vt 0.948267 0.530851
vt 0.848779 0.530851
vt 0.948267 0.569687
vt 0.794442 0.530851
vt 0.298939 0.723652
vt 0.931652 0.834195
vt 0.889304 0.834195
vt 0.794442 0.000000
vt 0.839105 0.000000
vt 0.839105 0.091003
vt 0.682964 0.834195
vt 0.721750 0.878900
vt 0.473973 0.864529
vt 0.429325 0.864529
vt 0.922427 0.091003
vt 0.922427 0.182006
vt 0.883641 0.182006
vt 0.922427 0.000000
vt 0.961214 0.000000
vt 0.640616 0.016637
vt 0.695550 0.000000
vt 0.695529 0.016637
vt 0.740104 0.000000
vt 0.740086 0.016637
vt 0.848779 0.227508
vt 0.794442 0.227508
vt 0.740037 0.059039
vt 0.000000 0.823097
vt 0.000000 0.732094
vt 0.042348 0.732094
vt 0.794442 0.059039
vt 0.682964 0.878837
vt 0.640616 0.878808
vt 0.084696 0.914101
vt 0.042348 0.914101
vt 0.473973 0.682523
vt 0.883641 0.000000
vt 0.883641 0.091003
vt 0.473973 0.773526
vt 0.794442 0.091003
vt 0.839105 0.182006
vt 0.042348 0.823097
vt 0.000000 0.914101
vt 0.628043 0.804403
vt 0.624691 0.804403
vt 0.132783 0.732094
vt 0.186189 0.745830
vt 0.634529 0.728476
vt 0.989518 0.817993
vt 0.142885 0.000000
vt 0.043304 0.732094
vt 0.635073 0.702252
vt 0.763002 0.870476
vt 0.093095 0.590487
vt 0.797149 0.834195
vt 0.728548 0.870476
vt 0.093095 0.141607
vt 0.299796 0.227508
vt 0.640616 0.682523
vt 0.240526 0.836547
vt 0.340014 0.836547
vt 0.227265 0.759535
vt 0.640616 0.077012
vt 0.717529 0.227508
vt 0.640616 0.227508
vt 0.657232 0.227508
vt 0.794442 0.834195
vt 0.871354 0.834195
vt 0.752502 0.225791
vt 0.340014 0.773526
vt 0.875576 0.226727
vt 0.429325 0.682523
vt 0.987053 0.908997
vt 0.169391 0.732094
vt 0.607621 0.864529
vt 0.084696 0.732094
vt 0.948267 0.834195
vt 0.682964 0.878916
vt 0.794442 0.016637
vn -0.848900 0.098000 0.519300
vn -0.496200 -0.509300 -0.703100
vn 0.859600 -0.143200 -0.490500
vn 0.496700 0.465400 0.732600
vn 0.157500 -0.870100 0.467000
vn 0.165000 -0.853900 0.493600
vn 0.854100 -0.114200 -0.507300
vn 0.323400 0.519700 0.790800
vn 0.490500 0.500900 0.713100
vn -0.488800 -0.509800 -0.708000
vn -0.165000 0.853900 -0.493600
vn -0.858100 0.134700 0.495500
vn 0.487600 0.515600 0.704600
vn -0.491600 -0.495100 -0.716400
vn 0.856200 -0.124500 -0.501500
vn -0.323400 -0.519700 -0.790800
vn 0.637700 0.469300 0.610900
vn -0.856200 0.124500 0.501500
vn -0.635700 -0.479600 -0.604900
vn 0.001700 0.000000 -1.000000
vn 1.000000 -0.000000 0.001700
vn 0.000000 -1.000000 0.000000
vn -0.000000 1.000000 0.000000
vn 1.000000 0.000100 0.003300
vn 0.999800 0.002300 0.022100
vn 0.999600 -0.023600 -0.016400
vn -0.001700 0.000000 1.000000
vn 0.002800 -1.000000 -0.000900
vn 0.001700 0.000100 -1.000000
vn 1.000000 0.000500 0.001700
vn 0.999600 0.025200 -0.016200
vn -0.000000 -0.000600 1.000000
vn 0.898500 -0.374100 0.229700
vn -0.146100 -0.748100 -0.647300
vn -0.894900 0.380900 -0.232700
vn 0.414000 0.548000 -0.726800
vn -0.414400 -0.547800 0.726700
vn -0.003600 -1.000000 -0.001100
vn -0.003600 -1.000000 -0.000000
vn -0.017500 -0.999800 -0.000000
vn 1.000000 -0.000500 0.000000
vn 1.000000 -0.000500 0.000400
vn 0.007600 -1.000000 -0.001900
vn -0.000000 -1.000000 0.002500
vn 0.000700 -0.090400 0.995900
vn 0.000200 -1.000000 -0.001100
vn -0.000000 -1.000000 0.005500
vn -0.000000 -0.995900 -0.090300
vn -0.002600 0.090400 -0.995900
vn 1.000000 0.000000 0.000000
vn -1.000000 0.000000 0.000000
vn -0.425500 -0.610600 0.667900
vn -0.420800 0.019200 -0.906900
vn -0.853800 -0.026300 -0.519900
vn 0.943800 0.330100 0.019600
vn -0.002600 0.310500 -0.950600
vn 0.002500 -0.304900 0.952400
vn -1.000000 -0.000000 -0.001700
vn 0.001700 -0.000100 -1.000000
vn -1.000000 -0.002300 -0.001700
vn -0.999900 0.002200 -0.010500
vn -1.000000 0.000100 -0.001700
vn 0.002800 -1.000000 0.000900
vn 0.000100 -0.000600 -1.000000
vn -1.000000 -0.000500 -0.000000
vn -1.000000 -0.000000 -0.000100
vn -1.000000 -0.007400 0.003500
vn -0.000000 0.000600 1.000000
vn -0.133900 0.908300 -0.396400
vn -0.530800 -0.403500 -0.745300
vn 0.137100 -0.905800 0.400900
vn 0.838800 -0.109100 -0.533400
vn -0.836800 0.110200 0.536300
vn -0.004600 -1.000000 0.000000
vn -0.078900 -0.996900 -0.000000
vn -1.000000 0.000200 -0.001700
vn -1.000000 0.000200 -0.000100
vn 0.002800 -1.000000 -0.000000
vn 0.031400 -0.999500 0.000000
vn -0.000700 0.512600 0.858600
vn 0.000600 -1.000000 0.001400
vn 0.018000 -0.999800 -0.010600
vn 0.000000 -0.858600 0.512600
vn 0.001200 -0.512600 -0.858600
vn -0.387100 0.319900 0.864700
vn 0.345100 -0.336900 -0.876000
vn 0.471500 -0.382300 0.794700
vn -0.417700 0.503900 -0.756000
vn 0.001700 -0.075800 -0.997100
vn -0.000600 0.012000 0.999900
vn -0.850300 0.096200 0.517500
vn -0.488400 -0.511500 -0.707000
vn 0.857300 -0.146100 -0.493600
vn 0.505000 0.463100 0.728400
vn 0.157200 -0.869500 0.468300
vn 0.327400 0.514400 0.792600
vn 0.856200 -0.124500 -0.501400
vn -0.325400 -0.524700 -0.786700
vn 0.639100 0.473700 0.605900
vn -0.639100 -0.473700 -0.605900
vn 1.000000 -0.002300 0.001700
vn 0.999700 0.025400 0.001700
vn 1.000000 -0.000000 0.000400
vn -0.001700 -0.000100 1.000000
vn 0.000000 -0.000000 -1.000000
vn 0.000100 0.000600 -1.000000
vn 1.000000 0.000200 0.000000
vn 1.000000 0.002300 0.003300
vn -0.000200 -0.000500 1.000000
vn -0.000000 0.000000 1.000000
vn -0.898500 0.374100 -0.229700
vn 0.416400 0.546000 -0.727000
vn -0.017200 -0.999800 -0.005100
vn 1.000000 0.000200 0.003400
vn 1.000000 -0.000600 0.000100
vn 0.002900 -1.000000 -0.000000
vn 0.007600 -1.000000 0.000000
vn -0.000000 -1.000000 -0.000900
vn 0.003700 -1.000000 0.002500
vn -0.001200 0.091000 -0.995800
vn 0.710100 -0.002500 0.704100
vn 0.443500 0.795100 -0.413700
vn -0.997200 -0.075300 -0.003500
vn 0.728600 0.279100 0.625400
vn -0.013200 0.315300 -0.948900
vn 0.000700 -0.304100 0.952600
vn -1.000000 -0.000100 -0.000100
vn -1.000000 -0.007500 -0.001700
vn -1.000000 0.007600 0.003700
vn -0.001700 0.000100 1.000000
vn -1.000000 -0.000200 -0.001700
vn -1.000000 0.002200 -0.001700
vn -0.000200 0.000600 1.000000
vn 0.144200 -0.909600 0.389700
vn 0.838000 -0.118400 -0.532700
vn -0.004500 -1.000000 0.001400
vn -0.075400 -0.996800 0.027400
vn 0.000000 -0.999700 -0.025200
vn -1.000000 -0.000200 -0.000000
vn -1.000000 0.000600 -0.001700
vn 0.030800 -0.999500 0.011600
vn 0.000000 -0.999900 -0.010600
vn -0.000000 -1.000000 0.000900
vn 0.001000 -0.512500 -0.858700
vn -0.218800 -0.007500 0.975700
vn -0.237400 0.029700 -0.971000
vn 0.957400 -0.288900 0.001600
vn -0.943500 0.331100 -0.013500
vn 0.031200 -0.063600 -0.997500
vn -0.013800 0.005000 0.999900
usemtl Material
s off
f 4/1/1 3/2/1 1/3/1
f 8/4/2 7/5/2 3/6/2
f 8/7/3 6/8/3 5/9/3
f 6/10/4 2/11/4 1/12/4
f 3/13/5 7/14/5 5/15/5
f 8/16/6 18/17/6 17/18/6
f 12/19/7 16/20/7 15/21/7
f 9/22/8 23/23/8 21/24/8
f 6/10/9 11/25/9 9/22/9
f 4/26/10 10/27/10 12/28/10
f 15/29/11 16/30/11 14/31/11
f 9/32/12 13/33/12 14/34/12
f 9/22/13 11/25/13 15/35/13
f 12/28/14 10/27/14 14/36/14
f 18/37/15 20/38/15 19/39/15
f 12/28/16 20/40/16 18/41/16
f 11/42/11 19/43/11 20/44/11
f 11/25/17 6/10/17 17/45/17
f 22/46/18 21/30/18 23/37/18
f 4/47/6 2/48/6 21/49/6
f 9/50/11 10/51/11 24/52/11
f 10/27/19 4/26/19 22/53/19
f 30/54/20 29/55/20 102/56/20
f 28/57/21 27/58/21 29/59/21
f 34/60/20 36/61/20 107/62/20
f 27/63/22 33/64/22 34/65/22
f 102/66/22 29/54/22 34/65/22
f 35/67/23 45/68/23 36/69/23
f 33/70/21 35/71/21 36/72/21
f 87/73/20 41/74/20 31/75/20
f 38/76/24 42/77/24 32/78/24
f 45/79/25 38/76/25 37/80/25
f 41/81/26 37/80/26 25/82/26
f 42/83/27 86/84/27 74/85/27
f 36/69/23 40/86/23 109/87/23
f 117/88/28 61/89/28 60/90/28
f 31/75/29 58/91/29 75/92/29
f 26/93/30 32/78/30 43/94/30
f 45/79/21 39/95/21 42/77/21
f 47/96/31 37/80/31 41/81/31
f 110/97/27 86/84/27 42/83/27
f 109/98/20 40/94/20 41/74/20
f 35/67/23 108/99/23 110/100/23
f 60/101/32 53/102/32 32/103/32
f 33/104/27 106/105/27 108/106/27
f 66/107/33 51/108/33 50/109/33
f 30/58/23 101/110/23 103/111/23
f 104/110/22 106/112/22 33/64/22
f 103/113/27 104/114/27 27/115/27
f 50/116/34 51/117/34 49/118/34
f 69/119/35 68/107/35 48/120/35
f 67/121/36 50/19/36 48/122/36
f 69/123/37 49/124/37 51/125/37
f 53/126/38 55/127/38 46/128/38
f 56/129/39 52/128/39 55/127/39
f 44/130/40 56/129/40 57/131/40
f 52/132/41 56/133/41 25/82/41
f 31/134/42 25/82/42 56/133/42
f 124/135/43 59/136/43 61/89/43
f 111/137/44 58/138/44 59/136/44
f 71/139/45 70/140/45 65/141/45
f 61/89/46 55/127/46 53/126/46
f 58/138/47 54/142/47 57/131/47
f 64/143/48 63/144/48 62/145/48
f 73/146/49 72/140/49 63/147/49
f 72/148/50 71/149/50 62/150/50
f 73/148/51 64/151/51 65/152/51
f 26/153/52 69/123/52 66/154/52
f 25/155/53 37/156/53 67/121/53
f 25/108/54 68/107/54 69/119/54
f 37/157/55 38/120/55 66/107/55
f 59/158/51 73/148/51 70/159/51
f 57/158/50 55/160/50 71/149/50
f 57/141/56 72/140/56 73/146/56
f 55/161/57 61/147/57 70/140/57
f 102/56/20 80/162/20 81/63/20
f 80/57/58 78/163/58 79/164/58
f 105/106/20 107/62/20 89/165/20
f 85/166/22 84/167/22 78/58/22
f 102/66/22 105/168/22 85/166/22
f 100/169/23 98/170/23 89/171/23
f 85/172/58 89/173/58 88/104/58
f 75/92/59 82/174/59 94/175/59
f 91/176/60 77/177/60 83/178/60
f 90/179/61 91/176/61 98/180/61
f 94/175/62 82/174/62 76/181/62
f 83/182/27 74/85/27 86/84/27
f 109/87/23 93/163/23 89/171/23
f 127/183/63 128/184/63 117/88/63
f 125/185/64 120/186/64 82/174/64
f 99/187/65 96/188/65 83/178/65
f 91/176/66 95/189/66 92/190/66
f 94/175/67 90/179/67 100/191/67
f 92/190/27 95/192/27 86/84/27
f 87/73/20 94/175/20 93/193/20
f 88/194/23 92/157/23 110/100/23
f 119/195/68 127/196/68 83/182/68
f 84/173/27 88/60/27 108/106/27
f 115/197/69 116/198/69 133/199/69
f 103/111/23 101/110/23 81/63/23
f 84/167/22 106/112/22 104/110/22
f 78/162/27 104/114/27 103/113/27
f 115/200/70 113/50/70 114/201/70
f 114/202/71 113/203/71 135/119/71
f 135/204/72 113/205/72 115/206/72
f 116/207/73 114/208/73 136/154/73
f 119/209/22 96/115/22 99/210/22
f 121/211/74 118/210/74 122/212/74
f 123/213/75 122/212/75 97/197/75
f 77/177/76 76/181/76 122/214/76
f 97/215/77 122/214/77 76/181/77
f 124/135/78 117/88/78 128/184/78
f 111/137/79 124/135/79 126/216/79
f 138/217/80 129/218/80 132/219/80
f 119/209/81 121/211/81 128/184/81
f 125/220/82 126/216/82 123/213/82
f 131/200/83 132/221/83 129/222/83
f 140/146/84 131/223/84 130/224/84
f 130/225/51 129/150/51 138/149/51
f 132/198/50 131/226/50 140/227/50
f 133/204/85 136/154/85 77/125/85
f 76/207/86 135/204/86 134/227/86
f 77/225/87 136/228/87 135/119/87
f 134/229/88 133/199/88 91/230/88
f 137/199/50 140/227/50 126/206/50
f 123/202/51 139/228/51 138/149/51
f 140/146/89 139/231/89 123/219/89
f 121/232/90 138/217/90 137/231/90
f 2/233/91 4/1/91 1/3/91
f 4/26/92 8/4/92 3/6/92
f 7/234/93 8/7/93 5/9/93
f 5/235/94 6/10/94 1/12/94
f 1/236/95 3/13/95 5/15/95
f 6/48/6 8/16/6 17/18/6
f 11/32/7 12/19/7 15/21/7
f 2/11/96 9/22/96 21/24/96
f 2/11/9 6/10/9 9/22/9
f 8/4/10 4/26/10 12/28/10
f 13/237/11 15/29/11 14/31/11
f 10/238/12 9/32/12 14/34/12
f 13/239/13 9/22/13 15/35/13
f 16/240/14 12/28/14 14/36/14
f 17/241/97 18/37/97 19/39/97
f 8/4/98 12/28/98 18/41/98
f 12/242/11 11/42/11 20/44/11
f 19/243/99 11/25/99 17/45/99
f 24/241/18 22/46/18 23/37/18
f 22/244/6 4/47/6 21/49/6
f 23/245/11 9/50/11 24/52/11
f 24/246/100 10/27/100 22/53/100
f 101/247/20 30/54/20 102/56/20
f 30/248/21 28/57/21 29/59/21
f 105/106/20 34/60/20 107/62/20
f 29/54/22 27/63/22 34/65/22
f 105/168/22 102/66/22 34/65/22
f 40/86/23 36/69/23 47/249/23
f 35/67/23 39/250/23 45/68/23
f 47/249/23 36/69/23 45/68/23
f 34/172/21 33/70/21 36/72/21
f 75/92/20 87/73/20 31/75/20
f 26/93/101 38/76/101 32/78/101
f 47/96/102 45/79/102 37/80/102
f 31/134/103 41/81/103 25/82/103
f 32/103/104 42/83/104 74/85/104
f 107/251/23 36/69/23 109/87/23
f 112/252/22 117/88/22 60/90/22
f 111/253/105 75/92/105 58/91/105
f 31/75/106 44/254/106 54/255/106
f 54/255/106 58/91/106 31/75/106
f 46/132/107 26/93/107 43/94/107
f 38/76/108 45/79/108 42/77/108
f 40/256/21 47/96/21 41/81/21
f 39/193/27 110/97/27 42/83/27
f 87/73/20 109/98/20 41/74/20
f 39/250/23 35/67/23 110/100/23
f 43/256/109 32/103/109 53/102/109
f 74/85/110 112/257/110 60/101/110
f 60/101/104 32/103/104 74/85/104
f 35/258/27 33/104/27 108/106/27
f 67/259/33 66/107/33 50/109/33
f 28/59/23 30/58/23 103/111/23
f 27/63/22 104/110/22 33/64/22
f 28/254/27 103/113/27 27/115/27
f 48/260/34 50/116/34 49/118/34
f 49/261/111 69/119/111 48/120/111
f 68/262/112 67/121/112 48/122/112
f 66/154/37 69/123/37 51/125/37
f 43/72/22 53/126/22 46/128/22
f 57/131/113 56/129/113 55/127/113
f 54/142/47 44/130/47 57/131/47
f 26/93/114 52/132/114 25/82/114
f 44/193/115 31/134/115 56/133/115
f 117/88/116 124/135/116 61/89/116
f 124/135/117 111/137/117 59/136/117
f 62/263/45 71/139/45 65/141/45
f 60/90/118 61/89/118 53/126/118
f 59/136/119 58/138/119 57/131/119
f 65/117/48 64/143/48 62/145/48
f 64/223/120 73/146/120 63/147/120
f 63/151/50 72/148/50 62/150/50
f 70/159/51 73/148/51 65/152/51
f 38/208/121 26/153/121 66/154/121
f 68/262/122 25/155/122 67/121/122
f 26/203/123 25/108/123 69/119/123
f 67/259/124 37/157/124 66/107/124
f 61/264/51 59/158/51 70/159/51
f 72/148/50 57/158/50 71/149/50
f 59/265/125 57/141/125 73/146/125
f 71/139/126 55/161/126 70/140/126
f 101/247/20 102/56/20 81/63/20
f 81/58/58 80/57/58 79/164/58
f 85/258/20 105/106/20 89/165/20
f 80/164/22 85/166/22 78/58/22
f 80/164/22 102/66/22 85/166/22
f 88/194/23 89/171/23 98/170/23
f 93/163/23 100/169/23 89/171/23
f 98/170/23 92/157/23 88/194/23
f 84/70/58 85/172/58 88/104/58
f 87/73/20 75/92/20 94/175/20
f 95/189/127 91/176/127 83/178/127
f 100/191/128 90/179/128 98/180/128
f 90/179/129 94/175/129 76/181/129
f 95/192/130 83/182/130 86/84/130
f 107/251/23 109/87/23 89/171/23
f 112/252/22 127/183/22 117/88/22
f 82/174/59 75/92/59 125/185/59
f 111/253/105 125/185/105 75/92/105
f 120/186/64 97/215/64 82/174/64
f 77/177/131 99/187/131 83/178/131
f 98/180/132 91/176/132 92/190/132
f 93/193/58 94/175/58 100/191/58
f 110/97/27 92/190/27 86/84/27
f 109/98/20 87/73/20 93/193/20
f 108/99/23 88/194/23 110/100/23
f 74/85/130 83/182/130 127/196/130
f 96/266/133 119/195/133 83/182/133
f 127/196/110 112/257/110 74/85/110
f 106/105/27 84/173/27 108/106/27
f 134/229/69 115/197/69 133/199/69
f 79/254/23 103/111/23 81/63/23
f 78/58/22 84/167/22 104/110/22
f 79/63/27 78/162/27 103/113/27
f 116/267/70 115/200/70 114/201/70
f 136/228/134 114/202/134 135/119/134
f 134/227/135 135/204/135 115/206/135
f 133/204/73 116/207/73 136/154/73
f 121/211/136 119/209/136 99/210/136
f 123/213/137 121/211/137 122/212/137
f 120/268/138 123/213/138 97/197/138
f 118/187/139 77/177/139 122/214/139
f 82/174/140 97/215/140 76/181/140
f 126/216/141 124/135/141 128/184/141
f 125/220/142 111/137/142 126/216/142
f 137/231/80 138/217/80 132/219/80
f 127/183/143 119/209/143 128/184/143
f 120/268/138 125/220/138 123/213/138
f 130/95/83 131/200/83 129/222/83
f 139/231/144 140/146/144 130/224/144
f 139/228/51 130/225/51 138/149/51
f 137/199/50 132/198/50 140/227/50
f 91/205/145 133/204/145 77/125/145
f 90/226/146 76/207/146 134/227/146
f 76/261/147 77/225/147 135/119/147
f 90/145/148 134/229/148 91/230/148
f 128/230/50 137/199/50 126/206/50
f 121/160/51 123/202/51 138/149/51
f 126/265/149 140/146/149 123/219/149
f 128/224/150 121/232/150 137/231/150
