# Blender v2.76 (sub 0) OBJ File: 'aSw.blend'
# www.blender.org
mtllib attack_000002.mtl
o Plane_Plane.002
v -0.376211 0.234728 -0.226503
v -0.357552 0.426281 -0.168373
v -0.388526 0.240743 -0.244524
v -0.375884 0.435235 -0.195201
v -0.357351 0.236018 -0.238961
v -0.329474 0.428201 -0.186920
v -0.369666 0.242032 -0.256981
v -0.347807 0.437154 -0.213747
v -0.354321 0.457523 -0.159943
v -0.372837 0.466566 -0.187039
v -0.325963 0.459461 -0.178674
v -0.344479 0.468505 -0.205770
v -0.252794 1.397974 0.069894
v -0.258617 1.400818 0.061373
v -0.243876 1.398583 0.064003
v -0.249699 1.401427 0.055482
v -0.285526 0.434552 -0.228715
v -0.291838 0.437634 -0.237951
v -0.282247 0.465848 -0.220511
v -0.288558 0.468930 -0.229747
v -0.413521 0.425801 -0.144170
v -0.419832 0.428884 -0.153406
v -0.410241 0.457097 -0.135966
v -0.416553 0.460180 -0.145202
v 0.125575 0.368184 -0.038399
v 0.125454 0.368064 0.035215
v 0.186015 0.557644 0.186287
v 0.186015 0.932644 0.186287
v 0.186015 0.557644 -0.188713
v 0.186015 0.932644 -0.188713
v 0.125454 0.368064 -0.128152
v 0.125454 0.368064 0.125725
v 0.057662 0.557644 0.057933
v 0.057662 0.557644 -0.060360
v 0.057662 0.496091 0.057933
v 0.057662 0.496091 -0.060360
v 0.127088 0.431680 -0.037759
v 0.125599 0.431963 0.035293
v 0.125454 0.496091 0.125725
v 0.125454 0.496091 -0.128152
v 0.125454 0.432078 -0.128152
v 0.125454 0.432078 0.125725
v 0.125454 -0.003909 0.125725
v 0.125454 -0.003909 -0.128152
v 0.125454 0.496091 0.035272
v 0.125454 -0.003909 0.035061
v 0.125454 0.496091 -0.038473
v 0.140969 0.203064 -0.195969
v 0.110555 0.162683 -0.142357
v 0.198510 0.179113 -0.181366
v 0.168085 0.138718 -0.127735
v 0.125454 -0.003909 0.035061
v 0.098032 -0.003909 0.125725
v 0.098032 -0.003909 -0.128152
v 0.098032 -0.003809 0.034234
v 0.125454 -0.003909 -0.038473
v 0.098032 -0.003428 -0.039966
v 0.028140 -0.003909 -0.128152
v 0.028140 -0.003682 -0.039079
v 0.028140 -0.003909 0.125725
v 0.028140 -0.003824 0.034411
v 0.098032 -0.298767 -0.025788
v 0.098032 -0.292123 -0.099024
v 0.028140 -0.292131 -0.098944
v 0.028140 -0.298772 -0.025741
v 0.190165 0.250938 -0.030683
v 0.220590 0.291334 -0.084314
v 0.163694 0.315587 -0.098571
v 0.132636 0.274904 -0.045305
v 0.028140 -0.149385 -0.012188
v 0.098032 -0.149381 -0.012236
v 0.098032 -0.142737 -0.085472
v 0.028140 -0.142768 -0.085290
v -0.001485 0.368064 0.125725
v -0.001485 0.368064 -0.128152
v -0.128423 0.368064 -0.038473
v -0.128423 0.368064 0.035215
v -0.188985 0.557644 0.186287
v -0.188985 0.932644 0.186286
v -0.188985 0.557644 -0.188713
v -0.188985 0.932644 -0.188713
v -0.128423 0.368064 -0.128152
v -0.128423 0.368064 0.125725
v -0.060631 0.557644 0.057933
v -0.060631 0.557644 -0.060360
v -0.001485 0.432078 0.125725
v -0.001485 0.432078 -0.128152
v -0.060631 0.496091 0.057933
v -0.060631 0.496091 -0.060360
v -0.128204 0.430276 -0.037378
v -0.128656 0.431455 0.035441
v -0.128423 0.496091 0.125725
v -0.128423 0.496091 -0.128152
v -0.128423 0.432078 -0.128152
v -0.128423 0.432078 0.125725
v -0.128423 -0.003909 0.125725
v -0.128423 -0.003909 -0.128152
v -0.128423 0.496091 0.035272
v -0.128423 -0.003909 0.035061
v -0.128423 0.496091 -0.038473
v -0.001485 0.932644 -0.188713
v -0.001485 0.557644 -0.188713
v -0.001485 0.932644 0.186286
v -0.001485 0.557644 0.186287
v -0.001485 0.557644 -0.060360
v -0.001485 0.557644 0.057933
v -0.001485 0.496091 -0.060360
v -0.001485 0.496091 0.057933
v -0.001485 0.496091 -0.128152
v -0.001485 0.496091 0.125725
v -0.001485 -0.003909 -0.128152
v -0.001485 -0.003909 0.125725
v -0.283336 0.329490 -0.220074
v -0.344722 0.325294 -0.179527
v -0.276881 0.391096 -0.203924
v -0.338288 0.386898 -0.163363
v -0.001485 -0.003909 0.035164
v -0.128423 -0.003909 0.035061
v -0.101001 -0.003909 0.125725
v -0.101001 -0.003909 -0.128152
v -0.101001 -0.004036 0.032382
v -0.128423 -0.003909 -0.038473
v -0.101001 -0.006080 -0.041992
v -0.001485 -0.003909 -0.038326
v -0.031109 -0.003909 -0.128152
v -0.031109 -0.004841 -0.039886
v -0.031109 -0.003909 0.125725
v -0.031109 -0.003992 0.033350
v -0.101001 -0.265148 0.110858
v -0.101001 -0.302844 0.047717
v -0.031109 -0.302802 0.047787
v -0.031109 -0.265124 0.110899
v -0.256699 0.347050 -0.043967
v -0.195291 0.351248 -0.084529
v -0.202217 0.290123 -0.100297
v -0.263132 0.285446 -0.060131
v -0.031109 -0.136330 0.034008
v -0.101001 -0.136355 0.033967
v -0.101001 -0.173937 -0.029226
v -0.031109 -0.174009 -0.029104
vt 0.607621 0.804403
vt 0.610973 0.682523
vt 0.624691 0.682523
vt 0.056758 0.121881
vt 0.036336 0.121881
vt 0.039689 0.000000
vt 0.628043 0.926284
vt 0.607621 0.926284
vt 0.610973 0.804403
vt 0.149853 0.610213
vt 0.146501 0.732094
vt 0.132783 0.732094
vt 0.186189 0.745830
vt 0.172472 0.745830
vt 0.172472 0.732094
vt 0.783423 0.870578
vt 0.763002 0.870578
vt 0.769697 0.834195
vt 0.968893 0.817994
vt 0.948267 0.817994
vt 0.955337 0.227508
vt 0.149955 0.590484
vt 0.186189 0.590487
vt 0.186189 0.610216
vt 0.129431 0.610213
vt 0.129329 0.590484
vt 0.056860 0.141610
vt 0.036235 0.141610
vt 0.628043 0.728476
vt 0.628043 0.721981
vt 0.634529 0.721981
vt 0.975962 0.227508
vt 0.982448 0.227508
vt 0.136399 0.000000
vt 0.142885 0.000000
vt 0.049790 0.732094
vt 0.635073 0.702252
vt 0.628043 0.702252
vt 0.628043 0.682523
vt 0.000000 0.141607
vt 0.000000 0.121878
vt 0.742376 0.870476
vt 0.749173 0.834195
vt 0.756204 0.834195
vt 0.093095 0.610216
vt 0.635073 0.721981
vt 0.790119 0.834195
vt 0.797149 0.834195
vt 0.742376 0.834195
vt 0.735579 0.870476
vt 0.728548 0.870476
vt 0.093095 0.121878
vt 0.186189 0.227508
vt 0.186189 0.000000
vt 0.299796 0.000000
vt 0.640616 0.682523
vt 0.413403 0.682523
vt 0.413403 0.455015
vt 0.752502 0.154024
vt 0.789797 0.154024
vt 0.789797 0.189908
vt 0.413403 0.227508
vt 0.335633 0.305378
vt 0.263959 0.305378
vt 0.186189 0.341262
vt 0.298939 0.795418
vt 0.285209 0.836547
vt 0.227265 0.795418
vt 0.677912 0.225791
vt 0.640616 0.225791
vt 0.640616 0.154024
vt 0.640616 0.492015
vt 0.640616 0.453179
vt 0.717529 0.453179
vt 0.695441 0.795359
vt 0.640616 0.795359
vt 0.640616 0.756522
vt 0.695422 0.834195
vt 0.740105 0.795359
vt 0.794442 0.795359
vt 0.740105 0.756522
vt 0.794442 0.569687
vt 0.871354 0.569687
vt 0.871354 0.608524
vt 0.186189 0.836547
vt 0.186189 0.759535
vt 0.695488 0.077012
vt 0.695500 0.094985
vt 0.640616 0.094985
vt 0.699579 0.227508
vt 0.695457 0.756522
vt 0.640616 0.530851
vt 0.640616 0.834195
vt 0.740105 0.834195
vt 0.794442 0.530851
vt 0.871354 0.530851
vt 0.717529 0.492015
vt 0.298939 0.759535
vt 0.340014 0.759535
vt 0.853405 0.834195
vt 0.811057 0.834195
vt 0.794442 0.608524
vt 0.715207 0.225791
vt 0.715207 0.189908
vt 0.752502 0.189908
vt 0.384678 0.773526
vt 0.384678 0.864529
vt 0.340014 0.864529
vt 0.413403 0.341261
vt 0.640616 0.341261
vt 0.335633 0.341261
vt 0.527010 0.227508
vt 0.527010 0.000000
vt 0.640616 0.000000
vt 0.836789 0.226727
vt 0.836789 0.182006
vt 0.875576 0.182022
vt 0.429325 0.773526
vt 0.384678 0.682523
vt 0.948267 0.908997
vt 0.987053 0.817994
vt 1.000000 0.091003
vt 1.000000 0.182006
vt 0.961214 0.182006
vt 0.640616 0.137388
vt 0.695529 0.137388
vt 0.695550 0.154024
vt 0.740104 0.154024
vt 0.794442 0.154024
vt 0.740086 0.137388
vt 0.695550 0.530851
vt 0.740105 0.530851
vt 0.794442 0.756522
vt 0.740015 0.077012
vt 0.740037 0.094985
vt 0.794442 0.077012
vt 0.794442 0.094985
vt 0.169391 0.823098
vt 0.127043 0.823097
vt 0.127043 0.732094
vt 0.794442 0.137388
vt 0.836789 0.226600
vt 0.794442 0.226649
vt 0.794442 0.182035
vt 0.084696 0.823098
vt 0.127043 0.914101
vt 0.563085 0.773526
vt 0.518529 0.773526
vt 0.518529 0.682523
vt 0.563085 0.682523
vt 0.607621 0.682523
vt 1.000000 0.000000
vt 0.961214 0.091003
vt 0.987053 1.000000
vt 0.948267 1.000000
vt 0.340014 0.682523
vt 0.563085 0.864529
vt 0.607621 0.773526
vt 0.518529 0.864529
vt 0.169391 0.914101
vt 0.299796 0.227508
vt 0.413403 0.000000
vt 0.186189 0.682523
vt 0.186189 0.455015
vt 0.789797 0.225791
vt 0.263959 0.377145
vt 0.335633 0.377145
vt 0.263959 0.341261
vt 0.285209 0.682523
vt 0.298939 0.723652
vt 0.677912 0.154024
vt 0.715207 0.154024
vt 0.794442 0.453179
vt 0.893442 0.492015
vt 0.893426 0.453179
vt 0.948267 0.453179
vt 0.848779 0.492015
vt 0.893461 0.530851
vt 0.848779 0.453179
vt 0.948267 0.608524
vt 0.227265 0.723652
vt 0.640616 0.059039
vt 0.695500 0.059039
vt 0.735479 0.227508
vt 0.777826 0.227508
vt 0.893333 0.227508
vt 0.948267 0.227508
vt 0.948267 0.492015
vt 0.794442 0.492015
vt 0.848779 0.530851
vt 0.948267 0.530851
vt 0.948267 0.569687
vt 0.889304 0.834195
vt 0.871354 0.834195
vt 0.794442 0.000000
vt 0.839105 0.000000
vt 0.839105 0.091003
vt 0.640616 0.227508
vt 0.682964 0.834195
vt 0.721750 0.834195
vt 0.721750 0.878900
vt 0.473973 0.864529
vt 0.429325 0.864529
vt 0.922427 0.091003
vt 0.922427 0.182006
vt 0.883641 0.182006
vt 0.922427 0.000000
vt 0.961214 0.000000
vt 0.640616 0.016637
vt 0.695550 0.000000
vt 0.695529 0.016637
vt 0.740104 0.000000
vt 0.740086 0.016637
vt 0.848779 0.227508
vt 0.740037 0.059039
vt 0.000000 0.823097
vt 0.000000 0.732094
vt 0.042348 0.732094
vt 0.794442 0.059039
vt 0.682964 0.878837
vt 0.640616 0.878808
vt 0.084696 0.914101
vt 0.042348 0.914101
vt 0.473973 0.682523
vt 0.883641 0.000000
vt 0.883641 0.091003
vt 0.473973 0.773526
vt 0.429325 0.682523
vt 0.794442 0.091003
vt 0.042348 0.823097
vt 0.000000 0.914101
vt 0.628043 0.804403
vt 0.053406 0.000000
vt 0.624691 0.804403
vt 0.186189 0.732094
vt 0.776728 0.834195
vt 0.961823 0.227508
vt 0.634529 0.728476
vt 0.989518 0.817993
vt 0.043304 0.732094
vt 0.635073 0.682523
vt 0.763002 0.870476
vt 0.093095 0.590487
vt 0.803845 0.870578
vt 0.093095 0.141607
vt 0.640616 0.455015
vt 0.240526 0.836547
vt 0.340014 0.836547
vt 0.227265 0.759535
vt 0.640616 0.077012
vt 0.717529 0.227508
vt 0.657232 0.227508
vt 0.794442 0.834195
vt 0.717529 0.530851
vt 0.752502 0.225791
vt 0.340014 0.773526
vt 0.875576 0.226727
vt 0.987053 0.908997
vt 0.169391 0.732094
vt 0.607621 0.864529
vt 0.084696 0.732094
vt 0.240526 0.682523
vt 0.794442 0.227508
vt 0.931652 0.834195
vt 0.948267 0.834195
vt 0.682964 0.878916
vt 0.794442 0.016637
vt 0.839105 0.182006
vn -0.835500 -0.083400 0.543100
vn -0.546500 0.239100 -0.802600
vn 0.830000 0.030400 -0.557000
vn 0.540900 -0.292000 0.788700
vn -0.100800 -0.962400 -0.252300
vn 0.834200 0.068500 -0.547200
vn 0.381000 -0.271600 0.883800
vn 0.543400 -0.270600 0.794700
vn -0.544400 0.260700 -0.797300
vn 0.100800 0.962400 0.252300
vn -0.831800 -0.045400 0.553200
vn 0.545100 -0.254100 0.798900
vn -0.542700 0.277200 -0.792900
vn 0.833000 0.057000 -0.550300
vn -0.381000 0.271600 -0.883800
vn 0.685300 -0.256700 0.681500
vn -0.833000 -0.057000 0.550300
vn -0.686500 0.245100 -0.684600
vn 0.000000 0.000000 -1.000000
vn 1.000000 -0.000000 0.000000
vn 0.000000 -1.000000 0.000000
vn 0.000000 1.000000 0.000000
vn 1.000000 0.000000 0.001600
vn 0.999800 0.002300 0.020400
vn 0.999600 -0.023600 -0.018200
vn -0.000000 0.000000 1.000000
vn 0.002800 -1.000000 -0.000900
vn 0.999500 0.025200 -0.018000
vn 0.898900 -0.374100 0.228100
vn -0.147200 -0.748100 -0.647000
vn -0.895300 0.380900 -0.231100
vn 0.412700 0.548000 -0.727600
vn -0.413100 -0.547800 0.727500
vn -0.003600 -1.000000 -0.001100
vn -0.003600 -1.000000 -0.000000
vn -0.017500 -0.999800 0.000000
vn 1.000000 -0.000300 -0.001300
vn 0.007600 -1.000000 -0.001900
vn -0.000000 -1.000000 0.002500
vn 0.000700 -0.090400 0.995900
vn 0.000200 -1.000000 -0.001100
vn 0.000000 -1.000000 0.005500
vn -0.000000 -0.995900 -0.090300
vn -0.002600 0.090400 -0.995900
vn -1.000000 0.000000 0.000000
vn -0.424300 -0.610600 0.668600
vn -0.422400 0.019200 -0.906200
vn -0.854700 -0.026300 -0.518500
vn 0.943800 0.330100 0.018000
vn -0.002600 0.310500 -0.950600
vn 0.002500 -0.304900 0.952400
vn -1.000000 -0.003700 0.000000
vn -1.000000 0.003600 -0.006300
vn -1.000000 0.003500 0.000000
vn 0.002800 -1.000000 0.000900
vn -1.000000 0.003600 0.002600
vn -1.000000 -0.003300 0.002400
vn -0.543900 0.265700 -0.796000
vn -0.099000 -0.963300 -0.249600
vn 0.835100 0.055900 -0.547200
vn -0.833100 -0.057400 0.550200
vn -0.004600 -1.000000 0.000000
vn -0.078900 -0.996900 0.000000
vn 0.002800 -1.000000 -0.000000
vn 0.031400 -0.999500 0.000000
vn -0.000700 0.512600 0.858600
vn 0.000600 -1.000000 0.001400
vn 0.018000 -0.999800 -0.010600
vn 0.000000 -0.858600 0.512600
vn 0.001200 -0.512600 -0.858600
vn -0.497000 -0.171300 0.850700
vn 0.533900 0.154000 -0.831400
vn 0.391300 -0.770100 0.503800
vn -0.425300 0.701900 -0.571300
vn 0.001700 -0.075800 -0.997100
vn -0.000600 0.012000 0.999900
vn 0.383400 -0.277400 0.881000
vn -0.384600 0.265800 -0.884000
vn 0.688200 -0.250600 0.680900
vn -0.688200 0.250600 -0.680900
vn 1.000000 -0.002300 0.000000
vn 0.999700 0.025400 -0.000000
vn 1.000000 0.000000 -0.001300
vn 1.000000 0.002300 0.001600
vn -0.898900 0.374100 -0.228100
vn 0.415100 0.546000 -0.727700
vn -0.017200 -0.999800 -0.005100
vn 1.000000 -0.000300 0.001600
vn 0.002900 -1.000000 -0.000000
vn 0.007600 -1.000000 0.000000
vn -0.000000 -1.000000 -0.000900
vn 0.003700 -1.000000 0.002500
vn -0.001200 0.091000 -0.995800
vn 0.711300 -0.002500 0.702900
vn 0.442800 0.795100 -0.414500
vn -0.997200 -0.075400 -0.001800
vn 0.729700 0.279100 0.624200
vn -0.013200 0.315300 -0.948900
vn 0.000700 -0.304100 0.952600
vn -1.000000 -0.000000 0.002600
vn -1.000000 -0.003300 -0.000000
vn -1.000000 -0.000000 0.002400
vn -0.095000 -0.962000 -0.256100
vn 0.832100 0.048300 -0.552500
vn -0.004500 -1.000000 0.001400
vn -0.075400 -0.996800 0.027400
vn -0.000000 -0.999700 -0.025200
vn 0.030800 -0.999500 0.011600
vn 0.000000 -0.999900 -0.010600
vn -0.000000 -1.000000 0.000900
vn 0.001000 -0.512500 -0.858700
vn -0.524700 -0.005000 0.851300
vn 0.565100 0.012500 -0.825000
vn 0.522800 -0.852400 0.000000
vn -0.542900 0.839600 -0.017000
vn 0.031200 -0.063600 -0.997500
vn -0.013800 0.005000 0.999900
usemtl Material
s off
f 4/1/1 3/2/1 1/3/1
f 4/4/2 8/5/2 7/6/2
f 8/7/3 6/8/3 5/9/3
f 2/10/4 1/11/4 5/12/4
f 1/13/5 3/14/5 7/15/5
f 6/16/5 8/17/5 18/18/5
f 11/19/6 12/20/6 16/21/6
f 9/22/7 23/23/7 21/24/7
f 6/25/8 11/26/8 9/22/8
f 4/4/9 10/27/9 12/28/9
f 15/29/10 16/30/10 14/31/10
f 9/19/11 13/32/11 14/33/11
f 11/26/12 15/34/12 13/35/12
f 12/28/13 10/27/13 14/36/13
f 17/37/14 18/38/14 20/39/14
f 12/28/15 20/40/15 18/41/15
f 11/42/10 19/43/10 20/44/10
f 11/26/16 6/25/16 17/45/16
f 22/46/17 21/30/17 23/38/17
f 2/16/5 21/47/5 22/48/5
f 10/49/10 24/50/10 23/51/10
f 10/27/18 4/4/18 22/52/18
f 30/53/19 29/54/19 102/55/19
f 30/56/20 28/57/20 27/58/20
f 34/59/19 36/60/19 107/61/19
f 27/62/21 33/63/21 34/64/21
f 102/65/21 29/53/21 34/64/21
f 35/66/22 45/67/22 36/68/22
f 33/69/20 35/70/20 36/71/20
f 41/72/19 31/73/19 75/74/19
f 38/75/23 42/76/23 32/77/23
f 45/78/24 38/75/24 37/79/24
f 41/80/25 37/79/25 25/81/25
f 42/82/26 86/83/26 74/84/26
f 36/68/22 40/85/22 109/86/22
f 117/87/27 61/88/27 60/89/27
f 31/73/19 58/90/19 75/74/19
f 26/91/20 32/77/20 43/92/20
f 45/78/20 39/93/20 42/76/20
f 47/94/28 37/79/28 41/80/28
f 39/95/26 110/96/26 86/83/26
f 40/92/19 41/72/19 87/97/19
f 35/66/22 108/98/22 110/99/22
f 60/100/26 53/101/26 32/102/26
f 33/103/26 106/104/26 108/105/26
f 66/106/29 51/107/29 50/108/29
f 30/58/22 101/109/22 103/110/22
f 104/109/21 106/111/21 33/63/21
f 103/112/26 104/113/26 27/114/26
f 50/115/30 51/116/30 49/117/30
f 69/118/31 68/106/31 48/119/31
f 67/120/32 50/20/32 48/121/32
f 69/122/33 49/123/33 51/124/33
f 53/125/34 55/126/34 46/127/34
f 56/128/35 52/127/35 55/126/35
f 44/129/36 56/128/36 57/130/36
f 26/91/20 52/131/20 56/132/20
f 31/133/37 25/81/37 56/132/37
f 124/134/38 59/135/38 61/88/38
f 111/136/39 58/137/39 59/135/39
f 71/138/40 70/139/40 65/140/40
f 61/88/41 55/126/41 53/125/41
f 58/137/42 54/141/42 57/130/42
f 64/142/43 63/143/43 62/144/43
f 73/145/44 72/139/44 63/146/44
f 72/147/20 71/148/20 62/149/20
f 73/147/45 64/150/45 65/151/45
f 26/152/46 69/122/46 66/153/46
f 25/154/47 37/155/47 67/120/47
f 25/107/48 68/106/48 69/118/48
f 37/156/49 38/119/49 66/106/49
f 59/157/45 73/147/45 70/158/45
f 57/157/20 55/159/20 71/148/20
f 57/140/50 72/139/50 73/145/50
f 55/160/51 61/146/51 70/139/51
f 101/161/19 102/55/19 80/162/19
f 80/57/45 78/163/45 79/164/45
f 105/105/19 107/61/19 89/165/19
f 85/166/21 84/167/21 78/58/21
f 102/65/21 105/168/21 85/166/21
f 98/169/22 92/156/22 88/170/22
f 85/171/45 89/172/45 88/103/45
f 87/97/19 75/74/19 82/173/19
f 91/174/52 77/175/52 83/176/52
f 90/177/53 91/174/53 98/178/53
f 82/173/54 76/179/54 90/177/54
f 83/180/26 74/84/26 86/83/26
f 109/86/22 93/163/22 89/181/22
f 127/182/55 128/183/55 117/87/55
f 125/184/19 120/185/19 82/173/19
f 77/175/45 99/186/45 96/187/45
f 98/178/56 91/174/56 95/188/56
f 94/189/57 90/177/57 100/190/57
f 92/191/26 95/192/26 86/83/26
f 87/97/19 94/189/19 93/95/19
f 88/170/22 92/156/22 110/99/22
f 127/193/26 112/194/26 74/84/26
f 84/172/26 88/59/26 108/105/26
f 115/195/10 116/196/10 133/197/10
f 79/198/22 103/110/22 101/109/22
f 84/167/21 106/111/21 104/109/21
f 78/162/26 104/113/26 103/112/26
f 115/199/58 113/200/58 114/201/58
f 114/202/59 113/203/59 135/118/59
f 135/204/60 113/205/60 115/206/60
f 116/207/61 114/208/61 136/153/61
f 119/209/21 96/114/21 99/210/21
f 121/211/62 118/210/62 122/212/62
f 123/213/63 122/212/63 97/195/63
f 76/179/45 122/214/45 118/186/45
f 122/214/45 76/179/45 82/173/45
f 124/134/64 117/87/64 128/183/64
f 111/136/65 124/134/65 126/215/65
f 138/216/66 129/217/66 132/218/66
f 119/209/67 121/211/67 128/183/67
f 125/219/68 126/215/68 123/213/68
f 131/199/69 132/220/69 129/221/69
f 140/145/70 131/222/70 130/223/70
f 130/224/45 129/149/45 138/148/45
f 132/196/20 131/225/20 140/226/20
f 133/204/71 136/153/71 77/124/71
f 76/207/72 135/204/72 134/226/72
f 136/227/73 135/118/73 76/228/73
f 90/144/74 134/229/74 133/197/74
f 137/197/20 140/226/20 126/206/20
f 123/202/45 139/227/45 138/148/45
f 140/145/75 139/230/75 123/218/75
f 121/231/76 138/216/76 137/230/76
f 2/232/1 4/1/1 1/3/1
f 3/233/2 4/4/2 7/6/2
f 7/234/3 8/7/3 5/9/3
f 6/25/4 2/10/4 5/12/4
f 5/235/5 1/13/5 7/15/5
f 17/236/5 6/16/5 18/18/5
f 15/237/6 11/19/6 16/21/6
f 2/10/77 9/22/77 21/24/77
f 2/10/8 6/25/8 9/22/8
f 8/5/9 4/4/9 12/28/9
f 13/238/10 15/29/10 14/31/10
f 10/239/11 9/19/11 14/33/11
f 9/22/12 11/26/12 13/35/12
f 16/240/13 12/28/13 14/36/13
f 19/241/14 17/37/14 20/39/14
f 8/5/78 12/28/78 18/41/78
f 12/242/10 11/42/10 20/44/10
f 19/243/79 11/26/79 17/45/79
f 24/37/17 22/46/17 23/38/17
f 4/244/5 2/16/5 22/48/5
f 9/200/10 10/49/10 23/51/10
f 24/245/80 10/27/80 22/52/80
f 101/161/19 30/53/19 102/55/19
f 29/246/20 30/56/20 27/58/20
f 105/105/19 34/59/19 107/61/19
f 29/53/21 27/62/21 34/64/21
f 105/168/21 102/65/21 34/64/21
f 40/85/22 36/68/22 47/247/22
f 35/66/22 39/248/22 45/67/22
f 47/247/22 36/68/22 45/67/22
f 34/171/20 33/69/20 36/71/20
f 87/97/19 41/72/19 75/74/19
f 26/91/81 38/75/81 32/77/81
f 47/94/82 45/78/82 37/79/82
f 31/133/83 41/80/83 25/81/83
f 32/102/26 42/82/26 74/84/26
f 107/249/22 36/68/22 109/86/22
f 112/250/21 117/87/21 60/89/21
f 111/251/19 75/74/19 58/90/19
f 31/73/19 44/198/19 54/252/19
f 54/252/19 58/90/19 31/73/19
f 46/131/20 26/91/20 43/92/20
f 38/75/84 45/78/84 42/76/84
f 40/253/20 47/94/20 41/80/20
f 42/82/26 39/95/26 86/83/26
f 109/254/19 40/92/19 87/97/19
f 39/248/22 35/66/22 110/99/22
f 43/253/26 32/102/26 53/101/26
f 74/84/26 112/194/26 60/100/26
f 60/100/26 32/102/26 74/84/26
f 35/255/26 33/103/26 108/105/26
f 67/256/29 66/106/29 50/108/29
f 28/246/22 30/58/22 103/110/22
f 27/62/21 104/109/21 33/63/21
f 28/198/26 103/112/26 27/114/26
f 48/257/30 50/115/30 49/117/30
f 49/228/85 69/118/85 48/119/85
f 68/258/86 67/120/86 48/121/86
f 66/153/33 69/122/33 51/124/33
f 43/71/21 53/125/21 46/127/21
f 57/130/87 56/128/87 55/126/87
f 54/141/42 44/129/42 57/130/42
f 25/81/88 26/91/88 56/132/88
f 44/95/20 31/133/20 56/132/20
f 117/87/89 124/134/89 61/88/89
f 124/134/90 111/136/90 59/135/90
f 62/259/40 71/138/40 65/140/40
f 60/89/91 61/88/91 53/125/91
f 59/135/92 58/137/92 57/130/92
f 65/116/43 64/142/43 62/144/43
f 64/222/93 73/145/93 63/146/93
f 63/150/20 72/147/20 62/149/20
f 70/158/45 73/147/45 65/151/45
f 38/208/94 26/152/94 66/153/94
f 68/258/95 25/154/95 67/120/95
f 26/203/96 25/107/96 69/118/96
f 67/256/97 37/156/97 66/106/97
f 61/260/45 59/157/45 70/158/45
f 72/147/20 57/157/20 71/148/20
f 59/261/98 57/140/98 73/145/98
f 71/138/99 55/160/99 70/139/99
f 81/62/19 101/161/19 80/162/19
f 81/58/45 80/57/45 79/164/45
f 85/255/19 105/105/19 89/165/19
f 80/164/21 85/166/21 78/58/21
f 80/164/21 102/65/21 85/166/21
f 88/170/22 89/181/22 98/169/22
f 100/262/22 98/169/22 89/181/22
f 89/181/22 93/163/22 100/262/22
f 84/69/45 85/171/45 88/103/45
f 94/189/19 87/97/19 82/173/19
f 95/188/100 91/174/100 83/176/100
f 100/190/101 90/177/101 98/178/101
f 94/189/102 82/173/102 90/177/102
f 95/192/26 83/180/26 86/83/26
f 107/249/22 109/86/22 89/181/22
f 112/250/21 127/182/21 117/87/21
f 82/173/19 75/74/19 125/184/19
f 111/251/19 125/184/19 75/74/19
f 120/185/19 97/263/19 82/173/19
f 83/176/45 77/175/45 96/187/45
f 92/191/45 98/178/45 95/188/45
f 93/95/45 94/189/45 100/190/45
f 110/96/26 92/191/26 86/83/26
f 109/254/19 87/97/19 93/95/19
f 108/98/22 88/170/22 110/99/22
f 74/84/26 83/180/26 127/193/26
f 119/264/26 127/193/26 83/180/26
f 83/180/26 96/265/26 119/264/26
f 106/104/26 84/172/26 108/105/26
f 134/229/10 115/195/10 133/197/10
f 81/62/22 79/198/22 101/109/22
f 78/58/21 84/167/21 104/109/21
f 79/62/26 78/162/26 103/112/26
f 116/266/58 115/199/58 114/201/58
f 136/227/103 114/202/103 135/118/103
f 134/226/104 135/204/104 115/206/104
f 133/204/61 116/207/61 136/153/61
f 121/211/105 119/209/105 99/210/105
f 123/213/106 121/211/106 122/212/106
f 120/267/107 123/213/107 97/195/107
f 77/175/45 76/179/45 118/186/45
f 97/263/45 122/214/45 82/173/45
f 126/215/108 124/134/108 128/183/108
f 125/219/109 111/136/109 126/215/109
f 137/230/66 138/216/66 132/218/66
f 127/182/110 119/209/110 128/183/110
f 120/267/107 125/219/107 123/213/107
f 130/93/69 131/199/69 129/221/69
f 139/230/111 140/145/111 130/223/111
f 139/227/45 130/224/45 138/148/45
f 137/197/20 132/196/20 140/226/20
f 91/205/112 133/204/112 77/124/112
f 90/225/113 76/207/113 134/226/113
f 77/224/114 136/227/114 76/228/114
f 91/268/115 90/144/115 133/197/115
f 128/268/20 137/197/20 126/206/20
f 121/159/45 123/202/45 138/148/45
f 126/261/116 140/145/116 123/218/116
f 128/223/117 121/231/117 137/230/117
