# Blender v2.76 (sub 0) OBJ File: 'aSw.blend'
# www.blender.org
mtllib attack_000006.mtl
o Plane_Plane.002
v -0.337723 0.180080 -0.087074
v -0.195395 0.120233 -0.207451
v -0.345018 0.157573 -0.086939
v -0.210401 0.090644 -0.201512
v -0.324251 0.175720 -0.069558
v -0.176386 0.116117 -0.179925
v -0.331442 0.153236 -0.069568
v -0.191392 0.086528 -0.173986
v -0.172799 0.105345 -0.225488
v -0.187955 0.075460 -0.219489
v -0.153600 0.101188 -0.197687
v -0.168756 0.071303 -0.191688
v 0.505482 -0.356957 -0.748740
v 0.500715 -0.366355 -0.746854
v 0.511519 -0.358264 -0.739997
v 0.506753 -0.367662 -0.738111
v -0.147482 0.099093 -0.129000
v -0.152648 0.088906 -0.126955
v -0.124866 0.084036 -0.146869
v -0.130032 0.073850 -0.144825
v -0.234139 0.117855 -0.254482
v -0.239305 0.107668 -0.252437
v -0.211523 0.102799 -0.272351
v -0.216689 0.092612 -0.270307
v 0.129780 0.368184 -0.021319
v 0.119743 0.368064 0.051607
v 0.159399 0.557644 0.209460
v 0.159399 0.932644 0.209460
v 0.209921 0.557644 -0.162121
v 0.209921 0.932644 -0.162121
v 0.141645 0.368064 -0.110390
v 0.108008 0.368064 0.140893
v 0.049508 0.557644 0.064984
v 0.065445 0.557644 -0.052230
v 0.049508 0.496091 0.064984
v 0.065445 0.496091 -0.052230
v 0.131193 0.431680 -0.020482
v 0.119876 0.431963 0.051704
v 0.107549 0.496091 0.141292
v 0.141753 0.496091 -0.110271
v 0.141753 0.432078 -0.110271
v 0.107549 0.432078 0.141292
v 0.125013 -0.003909 0.126109
v 0.126005 -0.003909 -0.127548
v 0.119735 0.496091 0.051664
v 0.125315 -0.003909 0.035461
v 0.129671 0.496091 -0.021409
v 0.166263 0.203064 -0.175379
v 0.128904 0.162683 -0.126353
v 0.221312 0.179113 -0.153157
v 0.183939 0.138718 -0.104114
v 0.125358 -0.003909 0.035339
v 0.098000 -0.003909 0.125747
v 0.098540 -0.003909 -0.127717
v 0.098032 -0.003809 0.034234
v 0.125456 -0.003909 -0.038465
v 0.098032 -0.003428 -0.039966
v 0.028140 -0.003909 -0.128152
v 0.028140 -0.003682 -0.039079
v 0.028102 -0.003909 0.125731
v 0.028140 -0.003824 0.034411
v 0.098032 -0.298767 -0.025788
v 0.098032 -0.292123 -0.099024
v 0.028140 -0.292131 -0.098944
v 0.028140 -0.298772 -0.025741
v 0.192742 0.250938 -0.004972
v 0.230116 0.291334 -0.054015
v 0.175659 0.315587 -0.075807
v 0.137707 0.274904 -0.027212
v 0.028140 -0.149385 -0.012188
v 0.098032 -0.149381 -0.012236
v 0.098032 -0.142737 -0.085472
v 0.028140 -0.142768 -0.085290
v -0.018232 0.368064 0.124190
v 0.015925 0.368064 -0.127375
v -0.121892 0.368064 -0.055613
v -0.131820 0.368064 0.017403
v -0.212182 0.557644 0.158938
v -0.212182 0.932644 0.158938
v -0.161660 0.557644 -0.212643
v -0.161660 0.932644 -0.212643
v -0.110117 0.368064 -0.144206
v -0.143602 0.368064 0.107580
v -0.067706 0.557644 0.049047
v -0.051769 0.557644 -0.068167
v -0.018232 0.432078 0.124190
v 0.015971 0.432078 -0.127373
v -0.067706 0.496091 0.049047
v -0.051769 0.496091 -0.068167
v -0.122828 0.431933 -0.054164
v -0.132340 0.432152 0.017312
v -0.144014 0.496091 0.107088
v -0.109810 0.496091 -0.144475
v -0.109810 0.432078 -0.144475
v -0.144014 0.432078 0.107088
v -0.128876 -0.003909 0.125184
v -0.127754 -0.003909 -0.128739
v -0.131828 0.496091 0.017460
v -0.128532 -0.003909 0.034488
v -0.121892 0.496091 -0.055613
v 0.024131 0.932644 -0.187382
v 0.024131 0.557644 -0.187382
v -0.026392 0.932644 0.184199
v -0.026392 0.557644 0.184199
v 0.006838 0.557644 -0.060198
v -0.009099 0.557644 0.057016
v 0.006838 0.496091 -0.060198
v -0.009099 0.496091 0.057016
v 0.015971 0.496091 -0.127373
v -0.018232 0.496091 0.124190
v -0.001307 -0.003909 -0.128144
v -0.001566 -0.003909 0.125718
v -0.219681 0.138083 -0.068314
v -0.270472 0.162650 -0.115712
v -0.173365 0.161294 -0.105915
v -0.224174 0.185870 -0.153330
v -0.001485 -0.003909 0.035164
v -0.128505 -0.003909 0.034633
v -0.101076 -0.003909 0.125654
v -0.100417 -0.003909 -0.128554
v -0.101001 -0.004036 0.032382
v -0.128384 -0.003909 -0.038575
v -0.101001 -0.006080 -0.041992
v -0.001485 -0.003909 -0.038326
v -0.031109 -0.003909 -0.128152
v -0.031109 -0.004841 -0.039886
v -0.031152 -0.003909 0.125711
v -0.031109 -0.003992 0.033350
v -0.101001 -0.265148 0.110858
v -0.101001 -0.302844 0.047717
v -0.031109 -0.302802 0.047787
v -0.031109 -0.265124 0.110899
v -0.229784 0.316410 -0.079656
v -0.178975 0.291834 -0.032241
v -0.225568 0.269232 0.004862
v -0.276082 0.293190 -0.042038
v -0.031109 -0.136330 0.034008
v -0.101001 -0.136355 0.033967
v -0.101001 -0.173937 -0.029226
v -0.031109 -0.174009 -0.029104
vt 0.607621 0.804403
vt 0.610973 0.682523
vt 0.624691 0.682523
vt 0.056758 0.121881
vt 0.036336 0.121881
vt 0.039689 0.000000
vt 0.628043 0.926284
vt 0.607621 0.926284
vt 0.610973 0.804403
vt 0.149853 0.610213
vt 0.146501 0.732094
vt 0.132783 0.732094
vt 0.172472 0.745830
vt 0.172472 0.732094
vt 0.186189 0.732094
vt 0.763002 0.870578
vt 0.769697 0.834195
vt 0.776728 0.834195
vt 0.948267 0.817994
vt 0.955337 0.227508
vt 0.961823 0.227508
vt 0.149955 0.590484
vt 0.186189 0.590487
vt 0.186189 0.610216
vt 0.129431 0.610213
vt 0.129329 0.590484
vt 0.056860 0.141610
vt 0.036235 0.141610
vt 0.628043 0.728476
vt 0.628043 0.721981
vt 0.634529 0.721981
vt 0.968893 0.817993
vt 0.975962 0.227508
vt 0.982448 0.227508
vt 0.136399 0.000000
vt 0.049790 0.732094
vt 0.628043 0.702252
vt 0.628043 0.682523
vt 0.635073 0.682523
vt 0.000000 0.141607
vt 0.000000 0.121878
vt 0.763002 0.870476
vt 0.742376 0.870476
vt 0.749173 0.834195
vt 0.093095 0.610216
vt 0.635073 0.702252
vt 0.783423 0.870578
vt 0.790119 0.834195
vt 0.797149 0.834195
vt 0.742376 0.834195
vt 0.735579 0.870476
vt 0.728548 0.870476
vt 0.093095 0.121878
vt 0.186189 0.227508
vt 0.186189 0.000000
vt 0.299796 0.000000
vt 0.640616 0.682523
vt 0.413403 0.682523
vt 0.413403 0.455015
vt 0.752502 0.189908
vt 0.752502 0.154024
vt 0.789797 0.154024
vt 0.413403 0.227508
vt 0.335633 0.305378
vt 0.263959 0.305378
vt 0.186189 0.341262
vt 0.298939 0.795418
vt 0.285209 0.836547
vt 0.227265 0.795418
vt 0.677912 0.154024
vt 0.677912 0.225791
vt 0.640616 0.225791
vt 0.717529 0.492015
vt 0.640616 0.492015
vt 0.640616 0.453179
vt 0.695441 0.795359
vt 0.640616 0.795359
vt 0.640616 0.756522
vt 0.695422 0.834195
vt 0.740105 0.795359
vt 0.794442 0.795359
vt 0.740105 0.756522
vt 0.794442 0.569687
vt 0.871354 0.569687
vt 0.871354 0.608524
vt 0.186189 0.836547
vt 0.186189 0.759535
vt 0.695488 0.077012
vt 0.695500 0.094985
vt 0.640616 0.094985
vt 0.657232 0.227508
vt 0.699579 0.227508
vt 0.717529 0.453179
vt 0.695457 0.756522
vt 0.640616 0.530851
vt 0.640616 0.834195
vt 0.740105 0.834195
vt 0.794442 0.530851
vt 0.871354 0.530851
vt 0.298939 0.759535
vt 0.340014 0.759535
vt 0.853405 0.834195
vt 0.811057 0.834195
vt 0.794442 0.608524
vt 0.715207 0.189908
vt 0.752502 0.225791
vt 0.384678 0.773526
vt 0.384678 0.864529
vt 0.340014 0.864529
vt 0.413403 0.341261
vt 0.640616 0.341261
vt 0.335633 0.341261
vt 0.527010 0.227508
vt 0.527010 0.000000
vt 0.640616 0.000000
vt 0.836789 0.226727
vt 0.836789 0.182006
vt 0.875576 0.182022
vt 0.429325 0.773526
vt 0.384678 0.682523
vt 0.948267 0.908997
vt 0.987053 0.817994
vt 1.000000 0.091003
vt 1.000000 0.182006
vt 0.961214 0.182006
vt 0.640616 0.137388
vt 0.695529 0.137388
vt 0.695550 0.154024
vt 0.740104 0.154024
vt 0.794442 0.154024
vt 0.740086 0.137388
vt 0.695550 0.530851
vt 0.740105 0.530851
vt 0.794442 0.756522
vt 0.740015 0.077012
vt 0.740037 0.094985
vt 0.794442 0.077012
vt 0.794442 0.094985
vt 0.169391 0.823098
vt 0.127043 0.823097
vt 0.127043 0.732094
vt 0.794442 0.137388
vt 0.836789 0.226600
vt 0.794442 0.226649
vt 0.794442 0.182035
vt 0.084696 0.823098
vt 0.127043 0.914101
vt 0.563085 0.773526
vt 0.518529 0.773526
vt 0.518529 0.682523
vt 0.563085 0.682523
vt 0.607621 0.682523
vt 1.000000 0.000000
vt 0.961214 0.091003
vt 0.987053 1.000000
vt 0.948267 1.000000
vt 0.340014 0.682523
vt 0.563085 0.864529
vt 0.607621 0.773526
vt 0.518529 0.864529
vt 0.169391 0.914101
vt 0.413403 0.000000
vt 0.186189 0.682523
vt 0.186189 0.455015
vt 0.789797 0.189908
vt 0.789797 0.225791
vt 0.263959 0.377145
vt 0.335633 0.377145
vt 0.263959 0.341261
vt 0.240526 0.682523
vt 0.285209 0.682523
vt 0.227265 0.723652
vt 0.715207 0.154024
vt 0.715207 0.225791
vt 0.794442 0.453179
vt 0.794442 0.492015
vt 0.893426 0.453179
vt 0.948267 0.453179
vt 0.948267 0.492015
vt 0.848779 0.492015
vt 0.893442 0.492015
vt 0.893461 0.530851
vt 0.848779 0.453179
vt 0.948267 0.608524
vt 0.640616 0.059039
vt 0.695500 0.059039
vt 0.735479 0.227508
vt 0.777826 0.227508
vt 0.893333 0.227508
vt 0.948267 0.227508
vt 0.848779 0.530851
vt 0.948267 0.530851
vt 0.948267 0.569687
vt 0.298939 0.723652
vt 0.931652 0.834195
vt 0.889304 0.834195
vt 0.794442 0.091003
vt 0.794442 0.000000
vt 0.839105 0.000000
vt 0.682964 0.834195
vt 0.721750 0.834195
vt 0.721750 0.878900
vt 0.473973 0.864529
vt 0.429325 0.864529
vt 0.922427 0.182006
vt 0.883641 0.182006
vt 0.883641 0.091003
vt 0.922427 0.000000
vt 0.961214 0.000000
vt 0.640616 0.016637
vt 0.695550 0.000000
vt 0.695529 0.016637
vt 0.740104 0.000000
vt 0.740086 0.016637
vt 0.848779 0.227508
vt 0.794442 0.227508
vt 0.740037 0.059039
vt 0.000000 0.823097
vt 0.000000 0.732094
vt 0.042348 0.732094
vt 0.794442 0.059039
vt 0.682964 0.878837
vt 0.640616 0.878808
vt 0.084696 0.914101
vt 0.042348 0.914101
vt 0.473973 0.682523
vt 0.883641 0.000000
vt 0.922428 0.091003
vt 0.473973 0.773526
vt 0.839105 0.091003
vt 0.042348 0.823097
vt 0.000000 0.914101
vt 0.628043 0.804403
vt 0.053406 0.000000
vt 0.624691 0.804403
vt 0.186189 0.745830
vt 0.634529 0.728476
vt 0.989518 0.817993
vt 0.142885 0.000000
vt 0.043304 0.732094
vt 0.756204 0.834195
vt 0.093095 0.590487
vt 0.635073 0.721981
vt 0.803845 0.870578
vt 0.093095 0.141607
vt 0.299796 0.227508
vt 0.640616 0.455015
vt 0.240526 0.836547
vt 0.340014 0.836547
vt 0.640616 0.154024
vt 0.227265 0.759535
vt 0.640616 0.077012
vt 0.717529 0.227508
vt 0.640616 0.227508
vt 0.794442 0.834195
vt 0.717529 0.530851
vt 0.871354 0.834195
vt 0.340014 0.773526
vt 0.875576 0.226727
vt 0.429325 0.682523
vt 0.987053 0.908997
vt 0.169391 0.732094
vt 0.607621 0.864529
vt 0.084696 0.732094
vt 0.948267 0.834195
vt 0.682964 0.878916
vt 0.794442 0.016637
vt 0.839105 0.182006
vn -0.582400 0.184000 -0.791800
vn -0.359600 -0.926600 0.109700
vn 0.562000 -0.120800 0.818200
vn 0.356800 0.933200 -0.042100
vn -0.736400 0.235200 0.634300
vn -0.695500 0.463000 0.549500
vn 0.572300 -0.127700 0.810000
vn 0.333600 0.885400 -0.323800
vn 0.441600 0.880300 -0.173400
vn -0.448800 -0.875500 0.179000
vn 0.695500 -0.463000 -0.549500
vn -0.555600 0.116600 -0.823200
vn 0.453500 0.872300 -0.182800
vn -0.436900 -0.883400 0.169600
vn 0.564000 -0.122100 0.816700
vn -0.333600 -0.885400 0.323800
vn 0.535900 0.844000 -0.022000
vn -0.564000 0.122100 -0.816700
vn -0.544200 -0.838400 0.028600
vn 0.134700 0.000000 -0.990900
vn 0.990900 -0.000000 0.134700
vn 0.000000 -1.000000 -0.000000
vn -0.000000 1.000000 0.000000
vn 0.134700 0.001600 -0.990900
vn 0.990600 0.006300 0.136300
vn 0.987900 0.002300 0.154900
vn 0.992900 -0.023600 0.116700
vn -0.134700 -0.000000 0.990900
vn 0.002800 -1.000000 -0.000900
vn 0.006200 0.002300 -1.000000
vn 0.990700 0.040100 0.130200
vn 0.992800 0.025200 0.116900
vn -0.000200 -0.040700 0.999200
vn 0.859900 -0.374100 0.347100
vn -0.058700 -0.748100 -0.660900
vn -0.856000 0.380900 -0.349600
vn 0.507000 0.548000 -0.665300
vn -0.507400 -0.547800 0.665200
vn -0.003600 -1.000000 -0.001100
vn -0.003700 -1.000000 -0.000000
vn -0.017500 -0.999800 -0.000100
vn 0.999900 -0.011700 0.001300
vn 0.991100 -0.017600 0.132000
vn 0.007600 -1.000000 -0.001900
vn 0.000000 -1.000000 0.002500
vn 0.000700 -0.090400 0.995900
vn 0.000200 -1.000000 -0.001100
vn -0.000000 -1.000000 0.005500
vn -0.000000 -0.995900 -0.090300
vn -0.002600 0.090400 -0.995900
vn 1.000000 0.000000 0.000000
vn -1.000000 0.000000 0.000000
vn -0.510500 -0.610600 0.605400
vn -0.296500 0.019200 -0.954900
vn -0.777100 -0.026300 -0.628900
vn 0.932800 0.330100 0.145000
vn -0.002600 0.310500 -0.950600
vn 0.002500 -0.304900 0.952400
vn -0.990900 0.000000 -0.134700
vn 0.132400 -0.004800 -0.991200
vn -0.991500 -0.007400 -0.129600
vn -0.991200 0.008200 -0.131900
vn -0.991300 0.004200 -0.131800
vn -0.131300 -0.000000 0.991300
vn 0.002800 -1.000000 0.000900
vn 0.005800 -0.041900 -0.999100
vn -0.999200 -0.039700 -0.003800
vn -0.991600 0.008200 -0.128900
vn -0.989700 0.011200 -0.142600
vn -0.000800 0.004100 1.000000
vn 0.723500 0.362600 -0.587400
vn 0.037400 -0.870300 -0.491200
vn -0.723600 -0.360800 0.588400
vn 0.689300 -0.333400 0.643200
vn -0.689600 0.333300 -0.643000
vn -0.004600 -1.000000 -0.000000
vn -0.079100 -0.996900 -0.000600
vn -0.990800 0.011100 -0.134700
vn -0.999800 0.017100 -0.007000
vn 0.002800 -1.000000 -0.000000
vn 0.031400 -0.999500 0.000100
vn -0.000700 0.512600 0.858600
vn 0.000600 -1.000000 0.001400
vn 0.018000 -0.999800 -0.010600
vn 0.000000 -0.858600 0.512600
vn 0.001200 -0.512600 -0.858600
vn -0.456500 0.889600 -0.012700
vn 0.679300 -0.303900 0.667900
vn -0.517600 0.394700 0.759100
vn 0.548700 -0.339500 -0.764000
vn 0.001700 -0.075800 -0.997100
vn -0.000600 0.012000 0.999900
vn -0.601800 0.147600 -0.784900
vn -0.390900 -0.917200 0.076500
vn 0.535100 -0.171500 0.827200
vn 0.320500 0.943800 -0.080200
vn -0.738700 0.243200 0.628600
vn 0.331500 0.888300 -0.318000
vn -0.339800 -0.882700 0.324600
vn 0.541600 0.840300 -0.022600
vn -0.541600 -0.840300 0.022600
vn 0.133900 -0.000100 -0.991000
vn 0.991500 -0.002300 0.130300
vn 0.990600 0.025400 0.134700
vn 0.991200 -0.001900 0.132000
vn -0.131200 -0.007100 0.991300
vn -0.000300 0.002100 -1.000000
vn 0.006200 0.045800 -0.998900
vn 0.133800 0.030600 -0.990500
vn 0.999900 0.014800 0.003300
vn 0.990700 0.002300 0.136300
vn -0.013400 -0.040300 0.999100
vn -0.000400 0.004100 1.000000
vn -0.131200 -0.012200 0.991300
vn -0.859900 0.374100 -0.347100
vn 0.509400 0.546000 -0.665100
vn -0.017200 -0.999800 -0.005100
vn 0.990600 0.009000 0.136400
vn 0.999100 -0.042300 0.006200
vn 0.002900 -1.000000 -0.000000
vn 0.007600 -1.000000 0.000000
vn 0.000000 -1.000000 -0.000900
vn 0.003700 -1.000000 0.002500
vn -0.001200 0.091000 -0.995800
vn 0.610100 -0.002500 0.792300
vn 0.494600 0.795100 -0.351100
vn -0.987800 -0.075300 -0.136100
vn 0.639000 0.279100 0.716800
vn -0.013200 0.315300 -0.948900
vn 0.000700 -0.304100 0.952600
vn 0.134700 -0.000100 -0.990900
vn -0.991600 -0.008200 -0.129000
vn -0.990800 0.011400 -0.134700
vn -0.989700 -0.011300 -0.142700
vn -0.134700 0.006800 0.990900
vn 0.132300 -0.014700 -0.991100
vn 0.000300 0.002100 -1.000000
vn 0.006800 -0.041900 -0.999100
vn -0.991500 -0.014700 -0.129500
vn -0.131300 0.033100 0.990800
vn -0.016900 0.046600 0.998800
vn -0.000200 0.004100 1.000000
vn -0.720600 -0.364000 0.590100
vn 0.681000 -0.333300 0.652100
vn -0.004500 -1.000000 0.001400
vn -0.075600 -0.996800 0.027400
vn 0.000200 -0.999700 -0.025100
vn -1.000000 -0.009000 -0.001600
vn -0.990400 0.041500 -0.131600
vn 0.030800 -0.999500 0.011600
vn 0.000000 -0.999900 -0.010600
vn -0.000000 -1.000000 0.000900
vn 0.000100 -0.999700 -0.025100
vn 0.001000 -0.512500 -0.858700
vn -0.702600 -0.004700 0.711600
vn -0.396000 0.015000 -0.918100
vn 0.715900 -0.691400 0.097300
vn -0.719400 0.687700 -0.097800
vn 0.031200 -0.063600 -0.997500
vn -0.013800 0.005000 0.999900
usemtl Material
s off
f 4/1/1 3/2/1 1/3/1
f 4/4/2 8/5/2 7/6/2
f 8/7/3 6/8/3 5/9/3
f 2/10/4 1/11/4 5/12/4
f 3/13/5 7/14/5 5/15/5
f 8/16/6 18/17/6 17/18/6
f 12/19/7 16/20/7 15/21/7
f 9/22/8 23/23/8 21/24/8
f 2/10/9 6/25/9 11/26/9
f 4/4/10 10/27/10 12/28/10
f 15/29/11 16/30/11 14/31/11
f 9/32/12 13/33/12 14/34/12
f 9/22/13 11/26/13 15/35/13
f 12/28/14 10/27/14 14/36/14
f 18/37/15 20/38/15 19/39/15
f 12/28/16 20/40/16 18/41/16
f 12/42/11 11/43/11 19/44/11
f 11/26/17 6/25/17 17/45/17
f 21/30/18 23/37/18 24/46/18
f 2/47/6 21/48/6 22/49/6
f 10/50/11 24/51/11 23/52/11
f 10/27/19 4/4/19 22/53/19
f 30/54/20 29/55/20 102/56/20
f 30/57/21 28/58/21 27/59/21
f 105/60/20 34/61/20 36/62/20
f 27/63/22 33/64/22 34/65/22
f 102/66/22 29/54/22 34/65/22
f 35/67/23 45/68/23 36/69/23
f 34/70/21 33/71/21 35/72/21
f 87/73/24 41/74/24 31/75/24
f 38/76/25 42/77/25 32/78/25
f 45/79/26 38/76/26 37/80/26
f 41/81/27 37/80/27 25/82/27
f 42/83/28 86/84/28 74/85/28
f 36/69/23 40/86/23 109/87/23
f 117/88/29 61/89/29 60/90/29
f 54/91/30 58/92/30 75/93/30
f 26/94/31 32/78/31 43/95/31
f 45/79/21 39/96/21 42/77/21
f 47/97/32 37/80/32 41/81/32
f 39/98/28 110/99/28 86/84/28
f 40/95/20 41/74/20 87/73/20
f 35/67/23 108/100/23 110/101/23
f 60/102/33 53/103/33 32/104/33
f 106/105/28 108/60/28 35/106/28
f 66/107/34 51/108/34 50/109/34
f 30/59/23 101/110/23 103/111/23
f 104/110/22 106/112/22 33/64/22
f 103/113/28 104/114/28 27/115/28
f 50/116/35 51/117/35 49/118/35
f 69/119/36 68/107/36 48/120/36
f 67/121/37 50/19/37 48/122/37
f 69/123/38 49/124/38 51/125/38
f 53/126/39 55/127/39 46/128/39
f 56/129/40 52/128/40 55/127/40
f 44/130/41 56/129/41 57/131/41
f 52/132/42 56/133/42 25/82/42
f 31/134/43 25/82/43 56/133/43
f 124/135/44 59/136/44 61/89/44
f 111/137/45 58/138/45 59/136/45
f 71/139/46 70/140/46 65/141/46
f 61/89/47 55/127/47 53/126/47
f 58/138/48 54/142/48 57/131/48
f 64/143/49 63/144/49 62/145/49
f 73/146/50 72/140/50 63/147/50
f 72/148/51 71/149/51 62/150/51
f 73/148/52 64/151/52 65/152/52
f 26/153/53 69/123/53 66/154/53
f 25/155/54 37/156/54 67/121/54
f 25/108/55 68/107/55 69/119/55
f 37/157/56 38/120/56 66/107/56
f 59/158/52 73/148/52 70/159/52
f 57/158/51 55/160/51 71/149/51
f 57/141/57 72/140/57 73/146/57
f 55/161/58 61/147/58 70/140/58
f 102/56/20 80/162/20 81/63/20
f 80/58/59 78/163/59 79/164/59
f 107/165/20 89/166/20 85/106/20
f 85/167/22 84/168/22 78/59/22
f 102/66/22 105/169/22 85/167/22
f 100/170/23 98/171/23 89/172/23
f 85/70/59 89/173/59 88/174/59
f 75/93/60 82/175/60 94/176/60
f 77/177/61 83/178/61 95/179/61
f 90/180/62 91/181/62 98/182/62
f 94/176/63 82/175/63 76/183/63
f 83/184/64 74/85/64 86/84/64
f 109/87/23 93/163/23 89/172/23
f 127/185/65 128/186/65 117/88/65
f 125/187/66 120/188/66 82/175/66
f 99/189/67 96/190/67 83/178/67
f 98/182/68 91/181/68 95/179/68
f 94/176/69 90/180/69 100/191/69
f 92/192/28 95/193/28 86/84/28
f 87/73/20 94/176/20 93/98/20
f 88/194/23 92/157/23 110/101/23
f 119/195/70 127/196/70 74/85/70
f 88/61/28 108/60/28 106/105/28
f 134/197/71 115/198/71 116/199/71
f 103/111/23 101/110/23 81/63/23
f 84/168/22 106/112/22 104/110/22
f 79/63/28 78/162/28 104/114/28
f 115/200/72 113/201/72 114/202/72
f 114/203/73 113/204/73 135/119/73
f 113/205/74 115/206/74 134/207/74
f 116/208/75 114/209/75 136/154/75
f 119/210/22 96/115/22 99/211/22
f 121/212/76 118/211/76 122/213/76
f 123/214/77 122/213/77 97/198/77
f 77/177/78 76/183/78 122/215/78
f 97/216/79 122/215/79 76/183/79
f 124/135/80 117/88/80 128/186/80
f 111/137/81 124/135/81 126/217/81
f 138/218/82 129/219/82 132/220/82
f 119/210/83 121/212/83 128/186/83
f 125/221/84 126/217/84 123/214/84
f 131/200/85 132/222/85 129/223/85
f 140/146/86 131/224/86 130/225/86
f 130/226/52 129/150/52 138/149/52
f 132/199/51 131/227/51 140/207/51
f 133/228/87 136/154/87 77/125/87
f 76/208/88 135/228/88 134/207/88
f 77/226/89 136/229/89 135/119/89
f 90/145/90 134/197/90 133/230/90
f 137/230/51 140/207/51 126/206/51
f 123/203/52 139/229/52 138/149/52
f 140/146/91 139/231/91 123/220/91
f 121/232/92 138/218/92 137/231/92
f 2/233/93 4/1/93 1/3/93
f 3/234/94 4/4/94 7/6/94
f 7/235/95 8/7/95 5/9/95
f 6/25/96 2/10/96 5/12/96
f 1/236/97 3/13/97 5/15/97
f 6/47/6 8/16/6 17/18/6
f 11/32/7 12/19/7 15/21/7
f 2/10/98 9/22/98 21/24/98
f 9/22/9 2/10/9 11/26/9
f 8/5/10 4/4/10 12/28/10
f 13/237/11 15/29/11 14/31/11
f 10/238/12 9/32/12 14/34/12
f 13/239/13 9/22/13 15/35/13
f 16/240/14 12/28/14 14/36/14
f 17/46/15 18/37/15 19/39/15
f 8/5/99 12/28/99 18/41/99
f 20/241/11 12/42/11 19/44/11
f 19/242/100 11/26/100 17/45/100
f 22/243/18 21/30/18 24/46/18
f 4/244/6 2/47/6 22/49/6
f 9/201/11 10/50/11 23/52/11
f 24/245/101 10/27/101 22/53/101
f 101/246/20 30/54/20 102/56/20
f 29/247/21 30/57/21 27/59/21
f 107/165/20 105/60/20 36/62/20
f 29/54/22 27/63/22 34/65/22
f 105/169/22 102/66/22 34/65/22
f 40/86/23 36/69/23 47/248/23
f 35/67/23 39/249/23 45/68/23
f 47/248/23 36/69/23 45/68/23
f 36/250/21 34/70/21 35/72/21
f 75/93/102 87/73/102 31/75/102
f 26/94/103 38/76/103 32/78/103
f 47/97/104 45/79/104 37/80/104
f 31/134/105 41/81/105 25/82/105
f 32/104/106 42/83/106 74/85/106
f 107/251/23 36/69/23 109/87/23
f 112/252/22 117/88/22 60/90/22
f 111/253/107 75/93/107 58/92/107
f 31/75/108 44/254/108 54/91/108
f 54/91/109 75/93/109 31/75/109
f 46/132/110 26/94/110 43/95/110
f 38/76/111 45/79/111 42/77/111
f 40/255/21 47/97/21 41/81/21
f 42/83/28 39/98/28 86/84/28
f 109/256/20 40/95/20 87/73/20
f 39/249/23 35/67/23 110/101/23
f 43/255/112 32/104/112 53/103/112
f 74/85/113 112/257/113 60/102/113
f 60/102/114 32/104/114 74/85/114
f 33/174/28 106/105/28 35/106/28
f 67/258/34 66/107/34 50/109/34
f 28/247/23 30/59/23 103/111/23
f 27/63/22 104/110/22 33/64/22
f 28/254/28 103/113/28 27/115/28
f 48/259/35 50/116/35 49/118/35
f 49/260/115 69/119/115 48/120/115
f 68/261/116 67/121/116 48/122/116
f 66/154/38 69/123/38 51/125/38
f 43/250/22 53/126/22 46/128/22
f 57/131/117 56/129/117 55/127/117
f 54/142/48 44/130/48 57/131/48
f 26/94/118 52/132/118 25/82/118
f 44/98/119 31/134/119 56/133/119
f 117/88/120 124/135/120 61/89/120
f 124/135/121 111/137/121 59/136/121
f 62/262/46 71/139/46 65/141/46
f 60/90/122 61/89/122 53/126/122
f 59/136/123 58/138/123 57/131/123
f 65/117/49 64/143/49 62/145/49
f 64/224/124 73/146/124 63/147/124
f 63/151/51 72/148/51 62/150/51
f 70/159/52 73/148/52 65/152/52
f 38/209/125 26/153/125 66/154/125
f 68/261/126 25/155/126 67/121/126
f 26/204/127 25/108/127 69/119/127
f 67/258/128 37/157/128 66/107/128
f 61/263/52 59/158/52 70/159/52
f 72/148/51 57/158/51 71/149/51
f 59/264/129 57/141/129 73/146/129
f 71/139/130 55/161/130 70/140/130
f 101/246/20 102/56/20 81/63/20
f 81/59/59 80/58/59 79/164/59
f 105/60/20 107/165/20 85/106/20
f 80/164/22 85/167/22 78/59/22
f 80/164/22 102/66/22 85/167/22
f 88/194/23 89/172/23 98/171/23
f 93/163/23 100/170/23 89/172/23
f 98/171/23 92/157/23 88/194/23
f 84/71/59 85/70/59 88/174/59
f 87/73/131 75/93/131 94/176/131
f 91/181/132 77/177/132 95/179/132
f 100/191/133 90/180/133 98/182/133
f 90/180/134 94/176/134 76/183/134
f 95/193/135 83/184/135 86/84/135
f 107/251/23 109/87/23 89/172/23
f 112/252/22 127/185/22 117/88/22
f 82/175/136 75/93/136 125/187/136
f 111/253/137 125/187/137 75/93/137
f 120/188/138 97/216/138 82/175/138
f 77/177/139 99/189/139 83/178/139
f 92/192/59 98/182/59 95/179/59
f 93/98/59 94/176/59 100/191/59
f 110/99/28 92/192/28 86/84/28
f 109/256/20 87/73/20 93/98/20
f 108/100/23 88/194/23 110/101/23
f 74/85/140 83/184/140 119/195/140
f 96/265/141 119/195/141 83/184/141
f 127/196/142 112/257/142 74/85/142
f 84/173/28 88/61/28 106/105/28
f 133/230/71 134/197/71 116/199/71
f 79/254/23 103/111/23 81/63/23
f 78/59/22 84/168/22 104/110/22
f 103/113/28 79/63/28 104/114/28
f 116/266/72 115/200/72 114/202/72
f 136/229/143 114/203/143 135/119/143
f 135/228/144 113/205/144 134/207/144
f 133/228/75 116/208/75 136/154/75
f 121/212/145 119/210/145 99/211/145
f 123/214/146 121/212/146 122/213/146
f 120/267/147 123/214/147 97/198/147
f 118/189/148 77/177/148 122/215/148
f 82/175/149 97/216/149 76/183/149
f 126/217/150 124/135/150 128/186/150
f 125/221/151 111/137/151 126/217/151
f 137/231/82 138/218/82 132/220/82
f 127/185/152 119/210/152 128/186/152
f 120/267/153 125/221/153 123/214/153
f 130/96/85 131/200/85 129/223/85
f 139/231/154 140/146/154 130/225/154
f 139/229/52 130/226/52 138/149/52
f 137/230/51 132/199/51 140/207/51
f 91/205/155 133/228/155 77/125/155
f 90/227/156 76/208/156 134/207/156
f 76/260/157 77/226/157 135/119/157
f 91/268/158 90/145/158 133/230/158
f 128/268/51 137/230/51 126/206/51
f 121/160/52 123/203/52 138/149/52
f 126/264/159 140/146/159 123/220/159
f 128/225/160 121/232/160 137/231/160
