# Blender v2.76 (sub 0) OBJ File: 'aSw.blend'
# www.blender.org
mtllib attack_000004.mtl
o Plane_Plane.002
v -0.246742 0.246210 -0.330449
v -0.084018 0.362191 -0.340497
v -0.239022 0.234838 -0.348908
v -0.073924 0.341991 -0.365519
v -0.236209 0.231734 -0.316937
v -0.068872 0.342044 -0.318122
v -0.228465 0.220308 -0.335493
v -0.058778 0.321844 -0.343143
v -0.056775 0.379707 -0.343421
v -0.046580 0.359305 -0.368692
v -0.041477 0.359358 -0.320823
v -0.031282 0.338957 -0.346094
v 0.771125 0.883962 -0.432245
v 0.774331 0.877546 -0.440192
v 0.775936 0.877563 -0.425138
v 0.779142 0.871147 -0.433085
v -0.038611 0.299573 -0.286513
v -0.035136 0.292618 -0.295127
v -0.011242 0.316887 -0.289450
v -0.007767 0.309933 -0.298064
v -0.107660 0.391416 -0.388514
v -0.104185 0.384462 -0.397128
v -0.080290 0.408731 -0.391451
v -0.076815 0.401776 -0.400065
v 0.131642 0.368184 -0.003935
v 0.111929 0.368064 0.066990
v 0.130087 0.557644 0.228733
v 0.130087 0.932644 0.228733
v 0.229918 0.557644 -0.132735
v 0.229918 0.932644 -0.132735
v 0.155221 0.368064 -0.090732
v 0.088799 0.368064 0.153504
v 0.040535 0.557644 0.070841
v 0.072026 0.557644 -0.043182
v 0.040535 0.496091 0.070841
v 0.072026 0.496091 -0.043182
v 0.132931 0.431680 -0.002915
v 0.112047 0.431963 0.067104
v 0.087834 0.496091 0.154235
v 0.155420 0.496091 -0.090481
v 0.155420 0.432078 -0.090481
v 0.087834 0.432078 0.154235
v 0.124527 -0.003909 0.126428
v 0.126467 -0.003909 -0.126879
v 0.111914 0.496091 0.067046
v 0.125125 -0.003909 0.035837
v 0.131546 0.496091 -0.004038
v 0.188429 0.203064 -0.151720
v 0.144840 0.162683 -0.108140
v 0.240005 0.179113 -0.122326
v 0.196401 0.138718 -0.078730
v 0.125226 -0.003909 0.035600
v 0.097965 -0.003909 0.125765
v 0.098981 -0.003909 -0.127221
v 0.098032 -0.003809 0.034234
v 0.125457 -0.003909 -0.038457
v 0.098032 -0.003428 -0.039966
v 0.028140 -0.003909 -0.128152
v 0.028140 -0.003682 -0.039079
v 0.028063 -0.003909 0.125731
v 0.028140 -0.003824 0.034411
v 0.098032 -0.298767 -0.025788
v 0.098032 -0.292123 -0.099024
v 0.028140 -0.292131 -0.098944
v 0.028140 -0.298772 -0.025741
v 0.191848 0.250938 0.020698
v 0.235452 0.291334 -0.022898
v 0.184405 0.315587 -0.051787
v 0.140287 0.274904 -0.008712
v 0.028140 -0.149385 -0.012188
v 0.098032 -0.149381 -0.012236
v 0.098032 -0.142737 -0.085472
v 0.028140 -0.142768 -0.085290
v -0.034524 0.368064 0.120442
v 0.032970 0.368064 -0.124285
v -0.113170 0.368064 -0.071624
v -0.132787 0.368064 -0.000596
v -0.231381 0.557644 0.128902
v -0.231381 0.932644 0.128902
v -0.131550 0.557644 -0.232565
v -0.131550 0.932644 -0.232565
v -0.089941 0.368064 -0.157574
v -0.156131 0.368064 0.087681
v -0.073489 0.557644 0.039350
v -0.041998 0.557644 -0.074674
v -0.034524 0.432078 0.120442
v 0.033062 0.432078 -0.124274
v -0.073489 0.496091 0.039350
v -0.041997 0.496091 -0.074674
v -0.114626 0.430946 -0.070463
v -0.133368 0.431976 -0.000693
v -0.156883 0.496091 0.086649
v -0.089296 0.496091 -0.158067
v -0.089296 0.432078 -0.158067
v -0.156883 0.432078 0.086649
v -0.129250 -0.003909 0.124591
v -0.127017 -0.003909 -0.129228
v -0.132802 0.496091 -0.000540
v -0.128563 -0.003909 0.033908
v -0.113170 0.496091 -0.071624
v 0.049184 0.932644 -0.182650
v 0.049184 0.557644 -0.182650
v -0.050647 0.932644 0.178818
v -0.050647 0.557644 0.178817
v 0.015014 0.557644 -0.058928
v -0.016477 0.557644 0.055095
v 0.015014 0.496091 -0.058928
v -0.016477 0.496091 0.055095
v 0.033062 0.496091 -0.124274
v -0.034524 0.496091 0.120442
v -0.001133 -0.003909 -0.128113
v -0.001646 -0.003909 0.125700
v -0.135467 0.250035 -0.271640
v -0.172693 0.305421 -0.302887
v -0.086936 0.289806 -0.258962
v -0.124176 0.345212 -0.290221
v -0.001485 -0.003909 0.035164
v -0.128527 -0.003909 0.034200
v -0.101141 -0.003909 0.125574
v -0.099788 -0.003909 -0.128872
v -0.101001 -0.004036 0.032382
v -0.128332 -0.003909 -0.038671
v -0.101001 -0.006080 -0.041992
v -0.001485 -0.003909 -0.038326
v -0.031109 -0.003909 -0.128152
v -0.031109 -0.004841 -0.039886
v -0.031192 -0.003909 0.125691
v -0.031109 -0.003992 0.033350
v -0.101001 -0.265148 0.110858
v -0.101001 -0.302844 0.047717
v -0.031109 -0.302802 0.047787
v -0.031109 -0.265124 0.110899
v -0.186024 0.378428 -0.157663
v -0.148784 0.323023 -0.126405
v -0.197685 0.283770 -0.138914
v -0.234542 0.338637 -0.170330
v -0.031109 -0.136330 0.034008
v -0.101001 -0.136355 0.033967
v -0.101001 -0.173937 -0.029226
v -0.031109 -0.174009 -0.029104
vt 0.628043 0.804403
vt 0.607621 0.804403
vt 0.610973 0.682523
vt 0.056758 0.121881
vt 0.036336 0.121881
vt 0.039689 0.000000
vt 0.628043 0.926284
vt 0.607621 0.926284
vt 0.610973 0.804403
vt 0.149853 0.610213
vt 0.146501 0.732094
vt 0.132783 0.732094
vt 0.186189 0.745830
vt 0.172472 0.745830
vt 0.172472 0.732094
vt 0.763002 0.870578
vt 0.769697 0.834195
vt 0.776728 0.834195
vt 0.968893 0.817994
vt 0.948267 0.817994
vt 0.955337 0.227508
vt 0.149955 0.590484
vt 0.186189 0.590487
vt 0.186189 0.610216
vt 0.129431 0.610213
vt 0.129329 0.590484
vt 0.056860 0.141610
vt 0.036235 0.141610
vt 0.628043 0.728476
vt 0.628043 0.721981
vt 0.634529 0.721981
vt 0.975962 0.227508
vt 0.982448 0.227508
vt 0.136399 0.000000
vt 0.049790 0.732094
vt 0.043304 0.732094
vt 0.635073 0.702252
vt 0.628043 0.702252
vt 0.628043 0.682523
vt 0.000000 0.141607
vt 0.000000 0.121878
vt 0.763002 0.870476
vt 0.742376 0.870476
vt 0.749173 0.834195
vt 0.093095 0.610216
vt 0.803845 0.870578
vt 0.783423 0.870578
vt 0.790119 0.834195
vt 0.721750 0.834195
vt 0.742376 0.834195
vt 0.735579 0.870476
vt 0.093095 0.121878
vt 0.186189 0.227508
vt 0.186189 0.000000
vt 0.299796 0.000000
vt 0.413403 0.682523
vt 0.413403 0.455015
vt 0.640616 0.455015
vt 0.752502 0.189908
vt 0.752502 0.154024
vt 0.789797 0.154024
vt 0.413403 0.227508
vt 0.335633 0.305378
vt 0.263959 0.305378
vt 0.186189 0.341262
vt 0.298939 0.795418
vt 0.285209 0.836547
vt 0.227265 0.795418
vt 0.677912 0.225791
vt 0.640616 0.225791
vt 0.640616 0.154024
vt 0.717529 0.492015
vt 0.640616 0.492015
vt 0.640616 0.453179
vt 0.695441 0.795359
vt 0.640616 0.795359
vt 0.640616 0.756522
vt 0.695422 0.834195
vt 0.740105 0.795359
vt 0.794442 0.795359
vt 0.740105 0.756522
vt 0.794442 0.569687
vt 0.871354 0.569687
vt 0.871354 0.608524
vt 0.186189 0.836547
vt 0.186189 0.759535
vt 0.695488 0.077012
vt 0.695500 0.094985
vt 0.640616 0.094985
vt 0.657232 0.227508
vt 0.717529 0.453179
vt 0.695457 0.756522
vt 0.640616 0.530851
vt 0.640616 0.834195
vt 0.740105 0.834195
vt 0.794442 0.530851
vt 0.871354 0.530851
vt 0.298939 0.759535
vt 0.340014 0.759535
vt 0.853405 0.834195
vt 0.794442 0.608524
vt 0.715207 0.189908
vt 0.752502 0.225791
vt 0.384678 0.773526
vt 0.384678 0.864529
vt 0.340014 0.864529
vt 0.413403 0.341261
vt 0.640616 0.341261
vt 0.335633 0.341261
vt 0.640616 0.227508
vt 0.527010 0.227508
vt 0.527010 0.000000
vt 0.836789 0.226727
vt 0.836789 0.182006
vt 0.875576 0.182022
vt 0.429325 0.773526
vt 0.384678 0.682523
vt 0.948267 0.908997
vt 0.987053 0.817994
vt 1.000000 0.091003
vt 1.000000 0.182006
vt 0.961214 0.182006
vt 0.640616 0.137388
vt 0.695529 0.137388
vt 0.695550 0.154024
vt 0.740104 0.154024
vt 0.794442 0.154024
vt 0.740086 0.137388
vt 0.695550 0.530851
vt 0.740105 0.530851
vt 0.794442 0.756522
vt 0.740015 0.077012
vt 0.740037 0.094985
vt 0.794442 0.077012
vt 0.794442 0.094985
vt 0.169391 0.823098
vt 0.127043 0.823097
vt 0.127043 0.732094
vt 0.794442 0.137388
vt 0.836789 0.226600
vt 0.794442 0.226649
vt 0.794442 0.182035
vt 0.084696 0.823098
vt 0.127043 0.914101
vt 0.563085 0.773526
vt 0.518529 0.773526
vt 0.518529 0.682523
vt 0.563085 0.682523
vt 0.607621 0.682523
vt 1.000000 0.000000
vt 0.961214 0.091003
vt 0.987053 1.000000
vt 0.948267 1.000000
vt 0.340014 0.682523
vt 0.563085 0.864529
vt 0.607621 0.773526
vt 0.518529 0.864529
vt 0.169391 0.914101
vt 0.413403 0.000000
vt 0.186189 0.682523
vt 0.186189 0.455015
vt 0.789797 0.189908
vt 0.789797 0.225791
vt 0.263959 0.377145
vt 0.335633 0.377145
vt 0.263959 0.341261
vt 0.240526 0.682523
vt 0.285209 0.682523
vt 0.227265 0.723652
vt 0.715207 0.154024
vt 0.715207 0.225791
vt 0.794442 0.453179
vt 0.794442 0.492015
vt 0.893426 0.453179
vt 0.948267 0.453179
vt 0.948267 0.492015
vt 0.848779 0.492015
vt 0.893442 0.492015
vt 0.893461 0.530851
vt 0.848779 0.453179
vt 0.948267 0.608524
vt 0.640616 0.059039
vt 0.695500 0.059039
vt 0.735479 0.227508
vt 0.777826 0.227508
vt 0.893333 0.227508
vt 0.948267 0.227508
vt 0.848779 0.530851
vt 0.948267 0.569687
vt 0.298939 0.723652
vt 0.931652 0.834195
vt 0.889304 0.834195
vt 0.794442 0.091003
vt 0.794442 0.000000
vt 0.839105 0.000000
vt 0.682964 0.834195
vt 0.721750 0.878900
vt 0.473973 0.773526
vt 0.473973 0.864529
vt 0.429325 0.864529
vt 0.922427 0.182006
vt 0.883641 0.182006
vt 0.883641 0.091003
vt 0.922427 0.000000
vt 0.961214 0.000000
vt 0.640616 0.016637
vt 0.640616 0.000000
vt 0.695550 0.000000
vt 0.695529 0.016637
vt 0.740104 0.000000
vt 0.740086 0.016637
vt 0.848779 0.227508
vt 0.794442 0.227508
vt 0.740037 0.059039
vt 0.000000 0.823097
vt 0.000000 0.732094
vt 0.042348 0.732094
vt 0.794442 0.059039
vt 0.682964 0.878837
vt 0.640616 0.878808
vt 0.084696 0.914101
vt 0.042348 0.914101
vt 0.473973 0.682523
vt 0.883641 0.000000
vt 0.922428 0.091003
vt 0.839105 0.091003
vt 0.042348 0.823097
vt 0.000000 0.914101
vt 0.624691 0.682523
vt 0.053406 0.000000
vt 0.624691 0.804403
vt 0.186189 0.732094
vt 0.961823 0.227508
vt 0.634529 0.728476
vt 0.989518 0.817993
vt 0.142885 0.000000
vt 0.635073 0.682523
vt 0.756204 0.834195
vt 0.093095 0.590487
vt 0.635073 0.721981
vt 0.797149 0.834195
vt 0.728548 0.870476
vt 0.093095 0.141607
vt 0.299796 0.227508
vt 0.640616 0.682523
vt 0.240526 0.836547
vt 0.340014 0.836547
vt 0.677912 0.154024
vt 0.227265 0.759535
vt 0.640616 0.077012
vt 0.717529 0.227508
vt 0.699579 0.227508
vt 0.794442 0.834195
vt 0.717529 0.530851
vt 0.811057 0.834195
vt 0.871354 0.834195
vt 0.340014 0.773526
vt 0.875576 0.226727
vt 0.429325 0.682523
vt 0.987053 0.908997
vt 0.169391 0.732094
vt 0.607621 0.864529
vt 0.084696 0.732094
vt 0.948267 0.530851
vt 0.948267 0.834195
vt 0.682964 0.878916
vt 0.794442 0.016637
vt 0.839105 0.182006
vn -0.453200 0.595400 -0.663500
vn 0.318000 -0.587400 -0.744200
vn 0.413300 -0.619800 0.667100
vn -0.316900 0.513700 0.797300
vn -0.815600 -0.578500 0.015300
vn -0.841600 -0.532400 0.090300
vn 0.459500 -0.591300 0.662700
vn -0.377200 0.699300 0.607200
vn -0.303800 0.596600 0.742800
vn 0.295100 -0.602100 -0.741900
vn 0.841600 0.532400 -0.090300
vn -0.439300 0.604100 -0.664900
vn -0.289400 0.605700 0.741200
vn 0.309500 -0.592900 -0.743400
vn 0.449400 -0.597800 0.663900
vn 0.377200 -0.699300 -0.607200
vn -0.218200 0.477900 0.850900
vn -0.449400 0.597800 -0.663900
vn 0.208000 -0.484300 -0.849800
vn 0.266200 0.000000 -0.963900
vn 0.963900 0.000000 0.266200
vn 0.000000 -1.000000 0.000000
vn 0.000000 1.000000 -0.000000
vn 0.266200 0.002900 -0.963900
vn 0.963400 0.011500 0.267700
vn 0.958300 0.002300 0.285800
vn 0.968300 -0.023600 0.248600
vn -0.266200 0.000000 0.963900
vn 0.002800 -1.000000 -0.000900
vn 0.264300 0.054500 -0.962900
vn 0.963400 0.073800 0.257600
vn 0.968200 0.025200 0.248800
vn -0.258800 -0.029800 0.965500
vn 0.805700 -0.374100 0.459200
vn 0.030400 -0.748100 -0.662800
vn -0.801400 0.380900 -0.461100
vn 0.591500 0.548000 -0.591400
vn -0.591900 -0.547800 0.591200
vn -0.003600 -1.000000 -0.001100
vn -0.003700 -1.000000 -0.000000
vn -0.017500 -0.999800 -0.000200
vn 0.999900 -0.016900 0.003100
vn 0.964200 -0.040300 0.262000
vn 0.007600 -1.000000 -0.001900
vn 0.000000 -1.000000 0.002500
vn 0.000700 -0.090400 0.995900
vn 0.000200 -1.000000 -0.001100
vn -0.000100 -1.000000 0.005500
vn -0.000000 -0.995900 -0.090300
vn -0.002600 0.090400 -0.995900
vn 1.000000 0.000000 0.000000
vn -1.000000 0.000000 0.000000
vn -0.587000 -0.610600 0.531600
vn -0.165900 0.019200 -0.986000
vn -0.685800 -0.026300 -0.727300
vn 0.904900 0.330100 0.268600
vn -0.002600 0.310500 -0.950600
vn 0.002500 -0.304900 0.952400
vn -0.963900 0.000000 -0.266200
vn 0.261400 -0.010100 -0.965200
vn -0.966700 -0.015500 -0.255600
vn -0.965700 0.009100 -0.259500
vn -0.965300 0.007700 -0.260900
vn -0.260100 0.000000 0.965600
vn 0.002800 -1.000000 0.000900
vn 0.010400 -0.077200 -0.997000
vn -0.997300 -0.072800 -0.007600
vn -0.965600 0.009100 -0.260000
vn -0.960600 0.016500 -0.277500
vn -0.001700 0.014100 0.999900
vn 0.758100 0.621300 0.198000
vn 0.412300 -0.221400 -0.883700
vn -0.758100 -0.621300 -0.198000
vn 0.505200 -0.751600 0.424100
vn -0.505500 0.751400 -0.424100
vn -0.004600 -1.000000 -0.000000
vn -0.079300 -0.996800 -0.001200
vn -0.963800 0.015700 -0.266200
vn -0.999100 0.039400 -0.014500
vn 0.002800 -1.000000 -0.000000
vn 0.031400 -0.999500 0.000100
vn -0.000700 0.512600 0.858600
vn 0.000600 -1.000000 0.001400
vn 0.018000 -0.999800 -0.010600
vn 0.000000 -0.858600 0.512600
vn 0.001200 -0.512600 -0.858600
vn -0.651800 0.709500 0.267700
vn 0.555700 -0.782100 0.281800
vn -0.812900 -0.242900 0.529400
vn 0.733500 0.115100 -0.669900
vn 0.001700 -0.075800 -0.997100
vn -0.000600 0.012000 0.999900
vn -0.489900 0.635700 -0.596500
vn 0.270100 -0.539800 -0.797300
vn 0.431700 -0.676500 0.596700
vn -0.362200 0.557400 0.747100
vn -0.815500 -0.578500 0.015900
vn -0.381000 0.694500 0.610300
vn 0.370900 -0.700900 -0.609200
vn -0.211500 0.478800 0.852000
vn 0.211500 -0.478800 -0.852000
vn 0.264700 -0.000200 -0.964300
vn 0.966100 -0.002200 0.258300
vn 0.963600 0.025400 0.266100
vn 0.965000 -0.004000 0.262200
vn -0.258900 -0.014900 0.965800
vn -0.001300 0.010400 -0.999900
vn 0.012400 0.095800 -0.995300
vn 0.013100 0.010200 -0.999900
vn 0.999400 0.034900 0.006600
vn 0.963500 0.002300 0.267800
vn -0.024900 -0.075000 0.996900
vn -0.001100 0.014000 0.999900
vn -0.000500 -0.074400 0.997200
vn -0.805700 0.374100 -0.459200
vn 0.593800 0.546000 -0.590900
vn -0.017200 -0.999800 -0.005100
vn 0.963400 0.011800 0.267800
vn 0.996900 -0.078200 0.011400
vn 0.002900 -1.000000 -0.000000
vn 0.007600 -1.000000 0.000000
vn 0.000000 -1.000000 -0.000900
vn 0.003700 -1.000000 0.002500
vn -0.001200 0.091000 -0.995800
vn 0.498500 -0.002500 0.866900
vn 0.537100 0.795100 -0.281700
vn -0.960700 -0.075300 -0.267200
vn 0.537200 0.279100 0.795900
vn -0.013200 0.315300 -0.948900
vn 0.000700 -0.304100 0.952600
vn 0.266200 -0.000200 -0.963900
vn -0.965600 -0.009200 -0.259900
vn -0.963800 0.016800 -0.266200
vn -0.960500 -0.017100 -0.277900
vn -0.266200 0.012400 0.963800
vn 0.261300 -0.035000 -0.964600
vn 0.001300 0.010200 -0.999900
vn 0.013000 -0.077300 -0.996900
vn -0.966200 -0.034700 -0.255500
vn -0.259700 0.059800 0.963800
vn -0.034800 0.096200 0.994800
vn -0.000300 0.014100 0.999900
vn -0.757800 -0.622000 -0.197200
vn 0.497800 -0.755800 0.425500
vn -0.004500 -1.000000 0.001400
vn -0.075800 -0.996700 0.027400
vn 0.000300 -0.999700 -0.025000
vn -0.999900 -0.011700 -0.002700
vn -0.962600 0.076100 -0.260100
vn 0.030800 -0.999500 0.011600
vn 0.000000 -0.999900 -0.010600
vn -0.000000 -1.000000 0.000900
vn 0.001000 -0.512500 -0.858700
vn -0.947200 -0.008100 0.320500
vn 0.826800 0.029500 -0.561800
vn 0.623500 -0.762600 0.172200
vn -0.470700 0.871200 -0.139300
vn 0.031200 -0.063600 -0.997500
vn -0.013800 0.005000 0.999900
usemtl Material
s off
f 2/1/1 4/2/1 3/3/1
f 4/4/2 8/5/2 7/6/2
f 8/7/3 6/8/3 5/9/3
f 2/10/4 1/11/4 5/12/4
f 1/13/5 3/14/5 7/15/5
f 8/16/6 18/17/6 17/18/6
f 11/19/7 12/20/7 16/21/7
f 9/22/8 23/23/8 21/24/8
f 2/10/9 6/25/9 11/26/9
f 4/4/10 10/27/10 12/28/10
f 15/29/11 16/30/11 14/31/11
f 9/19/12 13/32/12 14/33/12
f 9/22/13 11/26/13 15/34/13
f 10/27/14 14/35/14 16/36/14
f 17/37/15 18/38/15 20/39/15
f 12/28/16 20/40/16 18/41/16
f 12/42/11 11/43/11 19/44/11
f 11/26/17 6/25/17 17/45/17
f 21/30/18 23/38/18 24/37/18
f 4/46/6 2/47/6 21/48/6
f 9/49/11 10/50/11 24/51/11
f 10/27/19 4/4/19 22/52/19
f 30/53/20 29/54/20 102/55/20
f 28/56/21 27/57/21 29/58/21
f 105/59/20 34/60/20 36/61/20
f 27/62/22 33/63/22 34/64/22
f 102/65/22 29/53/22 34/64/22
f 35/66/23 45/67/23 36/68/23
f 33/69/21 35/70/21 36/71/21
f 87/72/24 41/73/24 31/74/24
f 38/75/25 42/76/25 32/77/25
f 45/78/26 38/75/26 37/79/26
f 41/80/27 37/79/27 25/81/27
f 42/82/28 86/83/28 74/84/28
f 36/68/23 40/85/23 109/86/23
f 117/87/29 61/88/29 60/89/29
f 31/74/30 54/90/30 75/91/30
f 26/92/31 32/77/31 43/93/31
f 45/78/21 39/94/21 42/76/21
f 47/95/32 37/79/32 41/80/32
f 39/96/28 110/97/28 86/83/28
f 40/93/20 41/73/20 87/72/20
f 35/66/23 108/98/23 110/99/23
f 74/84/33 60/100/33 32/101/33
f 106/102/28 108/59/28 35/103/28
f 66/104/34 51/105/34 50/106/34
f 30/57/23 101/107/23 103/108/23
f 104/107/22 106/109/22 33/63/22
f 28/110/28 103/111/28 104/112/28
f 50/113/35 51/114/35 49/115/35
f 69/116/36 68/104/36 48/117/36
f 67/118/37 50/20/37 48/119/37
f 69/120/38 49/121/38 51/122/38
f 53/123/39 55/124/39 46/125/39
f 56/126/40 52/125/40 55/124/40
f 44/127/41 56/126/41 57/128/41
f 52/129/42 56/130/42 25/81/42
f 31/131/43 25/81/43 56/130/43
f 124/132/44 59/133/44 61/88/44
f 111/134/45 58/135/45 59/133/45
f 71/136/46 70/137/46 65/138/46
f 61/88/47 55/124/47 53/123/47
f 58/135/48 54/139/48 57/128/48
f 64/140/49 63/141/49 62/142/49
f 73/143/50 72/137/50 63/144/50
f 72/145/51 71/146/51 62/147/51
f 73/145/52 64/148/52 65/149/52
f 26/150/53 69/120/53 66/151/53
f 25/152/54 37/153/54 67/118/54
f 25/105/55 68/104/55 69/116/55
f 37/154/56 38/117/56 66/104/56
f 59/155/52 73/145/52 70/156/52
f 57/155/51 55/157/51 71/146/51
f 57/138/57 72/137/57 73/143/57
f 55/158/58 61/144/58 70/137/58
f 102/55/20 80/159/20 81/62/20
f 80/56/59 78/160/59 79/161/59
f 105/59/20 107/162/20 89/163/20
f 85/164/22 84/165/22 78/57/22
f 102/65/22 105/166/22 85/164/22
f 100/167/23 98/168/23 89/169/23
f 89/170/59 88/171/59 84/69/59
f 75/91/60 82/172/60 94/173/60
f 77/174/61 83/175/61 95/176/61
f 90/177/62 91/178/62 98/179/62
f 94/173/63 82/172/63 76/180/63
f 83/181/64 74/84/64 86/83/64
f 109/86/23 93/160/23 89/169/23
f 127/182/65 128/183/65 117/87/65
f 125/184/66 120/185/66 82/172/66
f 99/186/67 96/187/67 83/175/67
f 98/179/68 91/178/68 95/176/68
f 94/173/69 90/177/69 100/188/69
f 95/189/28 86/83/28 110/97/28
f 87/72/20 94/173/20 93/96/20
f 88/190/23 92/154/23 110/99/23
f 119/191/70 127/192/70 74/84/70
f 88/60/28 108/59/28 106/102/28
f 134/193/71 115/194/71 116/195/71
f 103/108/23 101/107/23 81/62/23
f 84/165/22 106/109/22 104/107/22
f 79/62/28 78/159/28 104/112/28
f 115/196/72 113/49/72 114/197/72
f 136/198/73 114/199/73 113/200/73
f 113/201/74 115/202/74 134/203/74
f 116/204/75 114/205/75 136/151/75
f 119/206/22 96/207/22 99/208/22
f 121/209/76 118/208/76 122/210/76
f 123/211/77 122/210/77 97/194/77
f 77/174/78 76/180/78 122/212/78
f 97/213/79 122/212/79 76/180/79
f 124/132/80 117/87/80 128/183/80
f 111/134/81 124/132/81 126/214/81
f 138/215/82 129/216/82 132/217/82
f 119/206/83 121/209/83 128/183/83
f 125/218/84 126/214/84 123/211/84
f 131/196/85 132/219/85 129/220/85
f 140/143/86 131/221/86 130/222/86
f 130/223/52 129/147/52 138/146/52
f 132/195/51 131/224/51 140/203/51
f 133/225/87 136/151/87 77/122/87
f 76/204/88 135/225/88 134/203/88
f 77/223/89 136/198/89 135/116/89
f 90/142/90 134/193/90 133/226/90
f 137/226/51 140/203/51 126/202/51
f 123/199/52 139/198/52 138/146/52
f 140/143/91 139/227/91 123/217/91
f 121/228/92 138/215/92 137/227/92
f 1/229/93 2/1/93 3/3/93
f 3/230/94 4/4/94 7/6/94
f 7/231/95 8/7/95 5/9/95
f 6/25/96 2/10/96 5/12/96
f 5/232/97 1/13/97 7/15/97
f 6/47/6 8/16/6 17/18/6
f 15/233/7 11/19/7 16/21/7
f 2/10/98 9/22/98 21/24/98
f 9/22/9 2/10/9 11/26/9
f 8/5/10 4/4/10 12/28/10
f 13/234/11 15/29/11 14/31/11
f 10/235/12 9/19/12 14/33/12
f 13/236/13 9/22/13 15/34/13
f 12/28/14 10/27/14 16/36/14
f 19/237/15 17/37/15 20/39/15
f 8/5/99 12/28/99 18/41/99
f 20/238/11 12/42/11 19/44/11
f 19/239/100 11/26/100 17/45/100
f 22/240/18 21/30/18 24/37/18
f 22/241/6 4/46/6 21/48/6
f 23/242/11 9/49/11 24/51/11
f 24/243/101 10/27/101 22/52/101
f 101/244/20 30/53/20 102/55/20
f 30/245/21 28/56/21 29/58/21
f 107/162/20 105/59/20 36/61/20
f 29/53/22 27/62/22 34/64/22
f 105/166/22 102/65/22 34/64/22
f 40/85/23 36/68/23 47/246/23
f 35/66/23 39/247/23 45/67/23
f 47/246/23 36/68/23 45/67/23
f 34/248/21 33/69/21 36/71/21
f 75/91/102 87/72/102 31/74/102
f 26/92/103 38/75/103 32/77/103
f 47/95/104 45/78/104 37/79/104
f 31/131/105 41/80/105 25/81/105
f 32/101/106 42/82/106 74/84/106
f 107/249/23 36/68/23 109/86/23
f 112/250/22 117/87/22 60/89/22
f 111/251/107 75/91/107 58/252/107
f 31/74/108 44/110/108 54/90/108
f 54/90/109 58/252/109 75/91/109
f 46/129/110 26/92/110 43/93/110
f 38/75/111 45/78/111 42/76/111
f 40/253/21 47/95/21 41/80/21
f 42/82/28 39/96/28 86/83/28
f 109/254/20 40/93/20 87/72/20
f 39/247/23 35/66/23 110/99/23
f 43/253/112 32/101/112 53/255/112
f 74/84/113 112/256/113 60/100/113
f 60/100/114 53/255/114 32/101/114
f 33/171/28 106/102/28 35/103/28
f 67/257/34 66/104/34 50/106/34
f 28/58/23 30/57/23 103/108/23
f 27/62/22 104/107/22 33/63/22
f 27/207/28 28/110/28 104/112/28
f 48/258/35 50/113/35 49/115/35
f 49/259/115 69/116/115 48/117/115
f 68/260/116 67/118/116 48/119/116
f 66/151/38 69/120/38 51/122/38
f 43/71/22 53/123/22 46/125/22
f 57/128/117 56/126/117 55/124/117
f 54/139/48 44/127/48 57/128/48
f 26/92/118 52/129/118 25/81/118
f 44/96/119 31/131/119 56/130/119
f 117/87/120 124/132/120 61/88/120
f 124/132/121 111/134/121 59/133/121
f 62/261/46 71/136/46 65/138/46
f 60/89/122 61/88/122 53/123/122
f 59/133/123 58/135/123 57/128/123
f 65/114/49 64/140/49 62/142/49
f 64/221/124 73/143/124 63/144/124
f 63/148/51 72/145/51 62/147/51
f 70/156/52 73/145/52 65/149/52
f 38/205/125 26/150/125 66/151/125
f 68/260/126 25/152/126 67/118/126
f 26/200/127 25/105/127 69/116/127
f 67/257/128 37/154/128 66/104/128
f 61/262/52 59/155/52 70/156/52
f 72/145/51 57/155/51 71/146/51
f 59/263/129 57/138/129 73/143/129
f 71/136/130 55/158/130 70/137/130
f 101/244/20 102/55/20 81/62/20
f 81/57/59 80/56/59 79/161/59
f 85/103/20 105/59/20 89/163/20
f 80/161/22 85/164/22 78/57/22
f 80/161/22 102/65/22 85/164/22
f 88/190/23 89/169/23 98/168/23
f 98/168/23 92/154/23 88/190/23
f 89/169/23 93/160/23 100/167/23
f 85/248/59 89/170/59 84/69/59
f 87/72/131 75/91/131 94/173/131
f 91/178/132 77/174/132 95/176/132
f 100/188/133 90/177/133 98/179/133
f 90/177/134 94/173/134 76/180/134
f 95/189/135 83/181/135 86/83/135
f 107/249/23 109/86/23 89/169/23
f 112/250/22 127/182/22 117/87/22
f 82/172/136 75/91/136 125/184/136
f 111/251/137 125/184/137 75/91/137
f 120/185/138 97/213/138 82/172/138
f 77/174/139 99/186/139 83/175/139
f 92/264/59 98/179/59 95/176/59
f 93/96/59 94/173/59 100/188/59
f 92/264/28 95/189/28 110/97/28
f 109/254/20 87/72/20 93/96/20
f 108/98/23 88/190/23 110/99/23
f 74/84/140 83/181/140 119/191/140
f 96/265/141 119/191/141 83/181/141
f 127/192/142 112/256/142 74/84/142
f 84/170/28 88/60/28 106/102/28
f 133/226/71 134/193/71 116/195/71
f 79/110/23 103/108/23 81/62/23
f 78/57/22 84/165/22 104/107/22
f 103/111/28 79/62/28 104/112/28
f 116/266/72 115/196/72 114/197/72
f 135/116/143 136/198/143 113/200/143
f 135/225/144 113/201/144 134/203/144
f 133/225/75 116/204/75 136/151/75
f 121/209/145 119/206/145 99/208/145
f 123/211/146 121/209/146 122/210/146
f 120/267/147 123/211/147 97/194/147
f 118/186/148 77/174/148 122/212/148
f 82/172/149 97/213/149 76/180/149
f 126/214/150 124/132/150 128/183/150
f 125/218/151 111/134/151 126/214/151
f 137/227/82 138/215/82 132/217/82
f 127/182/152 119/206/152 128/183/152
f 120/267/147 125/218/147 123/211/147
f 130/94/85 131/196/85 129/220/85
f 139/227/153 140/143/153 130/222/153
f 139/198/52 130/223/52 138/146/52
f 137/226/51 132/195/51 140/203/51
f 91/201/154 133/225/154 77/122/154
f 90/224/155 76/204/155 134/203/155
f 76/259/156 77/223/156 135/116/156
f 91/268/157 90/142/157 133/226/157
f 128/268/51 137/226/51 126/202/51
f 121/157/52 123/199/52 138/146/52
f 126/263/158 140/143/158 123/217/158
f 128/222/159 121/228/159 137/227/159
