# Blender v2.76 (sub 0) OBJ File: 'aSw_Run.blend'
# www.blender.org
mtllib run_000000.mtl
o Plane.001_Plane.000
v -0.095654 0.311069 0.270885
v -0.223989 0.250431 0.179595
v -0.093297 0.315388 0.261829
v -0.215529 0.272145 0.155245
v -0.112346 0.319144 0.273500
v -0.247580 0.271879 0.190525
v -0.110065 0.323030 0.264260
v -0.239120 0.293592 0.166174
v -0.245657 0.236418 0.159805
v -0.237114 0.258348 0.135211
v -0.269484 0.258079 0.170844
v -0.260940 0.280010 0.146250
v -0.901695 -0.161610 -0.439168
v -0.899008 -0.154714 -0.446903
v -0.909188 -0.154798 -0.435697
v -0.906501 -0.147901 -0.443431
v -0.286782 0.317160 0.201989
v -0.283870 0.324635 0.193605
v -0.308526 0.303362 0.182131
v -0.305614 0.310837 0.173748
v -0.179239 0.219388 0.152164
v -0.176327 0.226864 0.143781
v -0.200983 0.205590 0.132307
v -0.198071 0.213066 0.123924
v 0.125541 0.350560 -0.117127
v 0.125454 0.366699 -0.045338
v 0.186015 0.584331 0.061432
v 0.186015 0.950557 -0.019210
v 0.186015 0.503689 -0.304795
v 0.186015 0.869916 -0.385436
v 0.125454 0.331568 -0.204883
v 0.125454 0.386162 0.043056
v 0.057662 0.556729 -0.063919
v 0.057662 0.531291 -0.179444
v 0.057662 0.496616 -0.050683
v 0.057662 0.471178 -0.166207
v 0.125557 0.411202 -0.129515
v 0.125567 0.429005 -0.059017
v 0.125454 0.511194 0.015524
v 0.125454 0.456600 -0.232414
v 0.125454 0.394084 -0.218648
v 0.125454 0.448679 0.029290
v 0.125454 0.022892 0.123046
v 0.125454 -0.031703 -0.124892
v 0.125454 0.491743 -0.072813
v 0.125454 0.003395 0.034503
v 0.125454 0.475885 -0.144833
v 0.128620 0.244778 -0.326156
v 0.189116 0.286769 -0.328773
v 0.093067 0.296724 -0.314518
v 0.153585 0.338730 -0.317137
v 0.125454 0.003395 0.034503
v 0.098032 0.022892 0.123046
v 0.098032 -0.031703 -0.124892
v 0.098032 0.002692 0.034351
v 0.125454 -0.012418 -0.037311
v 0.098032 -0.010905 -0.036983
v 0.028140 -0.031703 -0.124892
v 0.028140 -0.011685 -0.037061
v 0.028140 0.022892 0.123046
v 0.028140 0.002808 0.034426
v 0.098032 -0.261236 -0.156974
v 0.098032 -0.216071 -0.215006
v 0.028140 -0.216120 -0.214942
v 0.028140 -0.261266 -0.156936
v 0.173449 0.319301 -0.169733
v 0.112931 0.277295 -0.167114
v 0.149211 0.226068 -0.178400
v 0.208979 0.267340 -0.181369
v 0.028140 -0.142892 -0.064807
v 0.098032 -0.142863 -0.064845
v 0.098032 -0.097697 -0.122877
v 0.028140 -0.097878 -0.122560
v -0.001485 0.386162 0.043056
v -0.001485 0.331568 -0.204883
v -0.128423 0.350853 -0.117301
v -0.128423 0.366699 -0.045338
v -0.188985 0.584331 0.061432
v -0.188985 0.950557 -0.019210
v -0.188985 0.503689 -0.304795
v -0.188985 0.869916 -0.385436
v -0.128423 0.331568 -0.204883
v -0.128423 0.386162 0.043056
v -0.060631 0.556729 -0.063919
v -0.060631 0.531291 -0.179444
v -0.001485 0.448679 0.029290
v -0.001485 0.394084 -0.218648
v -0.060631 0.496616 -0.050683
v -0.060631 0.471178 -0.166207
v -0.129278 0.414385 -0.130222
v -0.128402 0.429615 -0.059003
v -0.128423 0.511194 0.015524
v -0.128423 0.456599 -0.232414
v -0.128423 0.394084 -0.218648
v -0.128423 0.448679 0.029290
v -0.128423 0.022892 0.123046
v -0.128423 -0.031703 -0.124892
v -0.128423 0.491743 -0.072813
v -0.128423 0.003395 0.034503
v -0.128423 0.475885 -0.144833
v -0.001485 0.869916 -0.385436
v -0.001485 0.503689 -0.304795
v -0.001485 0.950557 -0.019210
v -0.001485 0.584331 0.061432
v -0.001485 0.531291 -0.179444
v -0.001485 0.556729 -0.063919
v -0.001485 0.471178 -0.166207
v -0.001485 0.496616 -0.050683
v -0.001485 0.456599 -0.232414
v -0.001485 0.511194 0.015524
v -0.001485 -0.031703 -0.124892
v -0.001485 0.022892 0.123046
v -0.217183 0.287713 0.161270
v -0.155643 0.314598 0.191597
v -0.249636 0.338979 0.181675
v -0.188073 0.365874 0.212014
v -0.001485 0.003417 0.034603
v -0.128423 0.003395 0.034503
v -0.101001 0.022892 0.123046
v -0.101001 -0.031703 -0.124892
v -0.101001 -0.002800 0.031552
v -0.128423 -0.012418 -0.037311
v -0.101001 -0.024183 -0.035910
v -0.001485 -0.012386 -0.037167
v -0.031109 -0.031703 -0.124892
v -0.031109 -0.017450 -0.036615
v -0.031109 0.022892 0.123046
v -0.031109 -0.000686 0.032609
v -0.101001 -0.011428 0.200218
v -0.101001 -0.073075 0.240310
v -0.031109 -0.073007 0.240266
v -0.031109 -0.011388 0.200192
v -0.156077 0.437105 0.083942
v -0.217640 0.410210 0.053604
v -0.185758 0.358894 0.032276
v -0.123646 0.385829 0.063526
v -0.031109 -0.093167 0.074446
v -0.101001 -0.093207 0.074472
v -0.101001 -0.154876 0.113892
v -0.031109 -0.154786 0.114519
vt 0.628043 0.804403
vt 0.607621 0.804403
vt 0.610973 0.682523
vt 0.056758 0.121881
vt 0.036336 0.121881
vt 0.039689 0.000000
vt 0.607621 0.926284
vt 0.610973 0.804403
vt 0.624691 0.804403
vt 0.149853 0.610213
vt 0.146501 0.732094
vt 0.132783 0.732094
vt 0.186189 0.745830
vt 0.172472 0.745830
vt 0.172472 0.732094
vt 0.783423 0.870578
vt 0.763002 0.870578
vt 0.769697 0.834195
vt 0.948267 0.817994
vt 0.955337 0.227508
vt 0.961823 0.227508
vt 0.149955 0.590484
vt 0.186189 0.590487
vt 0.186189 0.610216
vt 0.129431 0.610213
vt 0.129329 0.590484
vt 0.056860 0.141610
vt 0.628043 0.728476
vt 0.628043 0.721981
vt 0.634529 0.721981
vt 0.989518 0.817993
vt 0.968893 0.817993
vt 0.975962 0.227508
vt 0.136399 0.000000
vt 0.142885 0.000000
vt 0.049790 0.732094
vt 0.043304 0.732094
vt 0.635073 0.702252
vt 0.628043 0.702252
vt 0.628043 0.682523
vt 0.036235 0.141610
vt 0.000000 0.141607
vt 0.000000 0.121878
vt 0.763002 0.870476
vt 0.742376 0.870476
vt 0.749173 0.834195
vt 0.093095 0.610216
vt 0.635073 0.721981
vt 0.790119 0.834195
vt 0.797149 0.834195
vt 0.721750 0.834195
vt 0.742376 0.834195
vt 0.735579 0.870476
vt 0.093095 0.121878
vt 0.186189 0.227508
vt 0.186189 0.000000
vt 0.299796 0.000000
vt 0.640616 0.682523
vt 0.413403 0.682523
vt 0.413403 0.455015
vt 0.752502 0.154024
vt 0.789797 0.154024
vt 0.789797 0.189908
vt 0.413403 0.227508
vt 0.335633 0.305378
vt 0.263959 0.305378
vt 0.186189 0.341262
vt 0.298939 0.795418
vt 0.285209 0.836547
vt 0.227265 0.795418
vt 0.677912 0.154024
vt 0.677912 0.225791
vt 0.640616 0.225791
vt 0.717529 0.492015
vt 0.640616 0.492015
vt 0.640616 0.453179
vt 0.695441 0.795359
vt 0.640616 0.795359
vt 0.640616 0.756522
vt 0.740105 0.834195
vt 0.695422 0.834195
vt 0.740105 0.795359
vt 0.740105 0.756522
vt 0.794442 0.756522
vt 0.871354 0.569687
vt 0.871354 0.608524
vt 0.794442 0.608524
vt 0.186189 0.836547
vt 0.186189 0.759535
vt 0.695488 0.077012
vt 0.695500 0.094985
vt 0.640616 0.094985
vt 0.699579 0.227508
vt 0.717529 0.453179
vt 0.695457 0.756522
vt 0.640616 0.530851
vt 0.640616 0.834195
vt 0.794442 0.795359
vt 0.871354 0.530851
vt 0.794442 0.569687
vt 0.717529 0.530851
vt 0.298939 0.759535
vt 0.340014 0.759535
vt 0.853405 0.834195
vt 0.715207 0.225791
vt 0.715207 0.189908
vt 0.752502 0.189908
vt 0.384678 0.773526
vt 0.384678 0.864529
vt 0.340014 0.864529
vt 0.640616 0.455015
vt 0.413403 0.341261
vt 0.335633 0.341261
vt 0.527010 0.227508
vt 0.527010 0.000000
vt 0.640616 0.000000
vt 0.836789 0.226727
vt 0.836789 0.182006
vt 0.875576 0.182022
vt 0.384678 0.682523
vt 0.429325 0.682523
vt 0.948267 0.908997
vt 0.987053 0.817994
vt 1.000000 0.091003
vt 1.000000 0.182006
vt 0.961214 0.182006
vt 0.640616 0.137388
vt 0.695529 0.137388
vt 0.695550 0.154024
vt 0.740086 0.137388
vt 0.740104 0.154024
vt 0.794442 0.137388
vt 0.794442 0.154024
vt 0.695550 0.530851
vt 0.740105 0.530851
vt 0.794442 0.530851
vt 0.740015 0.077012
vt 0.740037 0.094985
vt 0.794442 0.094985
vt 0.169391 0.823098
vt 0.127043 0.823097
vt 0.127043 0.732094
vt 0.836789 0.226600
vt 0.794442 0.226649
vt 0.794442 0.182035
vt 0.127043 0.914101
vt 0.084696 0.914101
vt 0.563085 0.773526
vt 0.518529 0.773526
vt 0.518529 0.682523
vt 0.563085 0.682523
vt 0.607621 0.682523
vt 1.000000 0.000000
vt 0.961214 0.091003
vt 0.987053 1.000000
vt 0.948267 1.000000
vt 0.429325 0.773526
vt 0.340014 0.682523
vt 0.563085 0.864529
vt 0.607621 0.773526
vt 0.518529 0.864529
vt 0.084696 0.732094
vt 0.169391 0.914101
vt 0.413403 0.000000
vt 0.186189 0.682523
vt 0.789797 0.225791
vt 0.263959 0.377145
vt 0.335633 0.377145
vt 0.263959 0.341261
vt 0.240526 0.682523
vt 0.285209 0.682523
vt 0.227265 0.723652
vt 0.715207 0.154024
vt 0.794442 0.453179
vt 0.893426 0.453179
vt 0.948267 0.453179
vt 0.948267 0.492015
vt 0.848779 0.492015
vt 0.893442 0.492015
vt 0.893461 0.530851
vt 0.794442 0.492015
vt 0.848779 0.453179
vt 0.948267 0.608524
vt 0.640616 0.059039
vt 0.695500 0.059039
vt 0.777826 0.227508
vt 0.794442 0.227508
vt 0.893333 0.227508
vt 0.948267 0.227508
vt 0.948267 0.530851
vt 0.848779 0.530851
vt 0.948267 0.569687
vt 0.298939 0.723652
vt 0.931652 0.834195
vt 0.889304 0.834195
vt 0.794442 0.091003
vt 0.794442 0.000000
vt 0.839105 0.000000
vt 0.640616 0.341261
vt 0.682964 0.834195
vt 0.721750 0.878900
vt 0.473973 0.773526
vt 0.473973 0.864529
vt 0.429325 0.864529
vt 0.922427 0.182006
vt 0.883641 0.182006
vt 0.883641 0.091003
vt 0.922427 0.000000
vt 0.961214 0.000000
vt 0.640616 0.016637
vt 0.695550 0.000000
vt 0.695529 0.016637
vt 0.740104 0.000000
vt 0.740086 0.016637
vt 0.848779 0.227508
vt 0.794442 0.077012
vt 0.740037 0.059039
vt 0.000000 0.823097
vt 0.000000 0.732094
vt 0.042348 0.732094
vt 0.794442 0.059039
vt 0.682964 0.878837
vt 0.640616 0.878808
vt 0.084696 0.823098
vt 0.042348 0.914101
vt 0.473973 0.682523
vt 0.883641 0.000000
vt 0.922428 0.091003
vt 0.839105 0.091003
vt 0.839105 0.182006
vt 0.042348 0.823097
vt 0.000000 0.914101
vt 0.624691 0.682523
vt 0.053406 0.000000
vt 0.628043 0.926284
vt 0.186189 0.732094
vt 0.776728 0.834195
vt 0.634529 0.728476
vt 0.982448 0.227508
vt 0.635073 0.682523
vt 0.756204 0.834195
vt 0.093095 0.590487
vt 0.803845 0.870578
vt 0.728548 0.870476
vt 0.093095 0.141607
vt 0.299796 0.227508
vt 0.240526 0.836547
vt 0.340014 0.836547
vt 0.640616 0.154024
vt 0.227265 0.759535
vt 0.640616 0.077012
vt 0.717529 0.227508
vt 0.640616 0.227508
vt 0.657232 0.227508
vt 0.794442 0.834195
vt 0.811057 0.834195
vt 0.871354 0.834195
vt 0.752502 0.225791
vt 0.340014 0.773526
vt 0.875576 0.226727
vt 0.987053 0.908997
vt 0.169391 0.732094
vt 0.607621 0.864529
vt 0.186189 0.455015
vt 0.735479 0.227508
vt 0.948267 0.834195
vt 0.682964 0.878916
vt 0.794442 0.016637
vn 0.598900 -0.689700 -0.407000
vn 0.330700 0.691200 -0.642600
vn -0.452000 0.856600 0.248700
vn -0.204700 -0.657900 0.724800
vn 0.420800 0.771400 0.477500
vn 0.668700 0.424300 0.610600
vn -0.707900 0.631200 0.316900
vn -0.117600 -0.750500 0.650300
vn -0.247500 -0.642000 0.725600
vn 0.254400 0.646400 -0.719300
vn -0.668700 -0.424300 -0.610600
vn 0.691900 -0.641400 -0.331600
vn -0.259000 -0.649300 0.715100
vn 0.243000 0.639100 -0.729700
vn -0.699900 0.636300 0.324300
vn 0.117600 0.750500 -0.650300
vn -0.369600 -0.515700 0.772900
vn 0.699900 -0.636300 -0.324300
vn 0.377700 0.520800 -0.765600
vn 0.000000 -0.215000 -0.976600
vn 1.000000 -0.000000 0.000000
vn 0.000000 -0.976600 0.215000
vn -0.000000 0.976600 -0.215000
vn 1.000000 0.000300 0.001200
vn 1.000000 0.001700 -0.000400
vn 1.000000 -0.000400 -0.000900
vn -0.000000 0.215000 0.976600
vn -0.018700 -0.975100 0.221000
vn 1.000000 0.001300 -0.001400
vn -0.555400 0.811500 0.181800
vn -0.132400 0.129500 -0.982700
vn 0.555600 -0.811700 -0.180200
vn -0.821000 -0.569900 0.035500
vn 0.821200 0.569500 -0.035600
vn 0.023800 -0.974800 0.222000
vn -0.051200 -0.975300 0.214800
vn 1.000000 -0.000200 0.000100
vn 1.000000 -0.000200 -0.000900
vn 0.022500 -0.979800 0.198600
vn 0.022300 -0.974800 0.222200
vn 0.000700 -0.614200 0.789200
vn -0.001400 -0.975000 0.222100
vn 0.010600 -0.973100 0.230200
vn 0.000000 -0.789200 -0.614200
vn -0.001200 0.614200 -0.789200
vn -1.000000 0.000000 -0.000000
vn 0.831800 0.543300 0.113900
vn -0.981000 0.039100 0.190200
vn 0.301900 -0.374200 0.876800
vn 0.855800 0.501500 -0.126800
vn -0.007100 0.703400 -0.710800
vn -0.000100 -0.562900 0.826500
vn -0.999900 0.002300 0.011800
vn 0.116200 -0.961100 0.250600
vn -1.000000 -0.000100 -0.000200
vn -0.999900 0.011000 -0.012200
vn -0.507000 0.800900 0.318800
vn -0.213300 -0.474900 0.853800
vn 0.507000 -0.800900 -0.318800
vn -0.835200 -0.364900 -0.411600
vn 0.835400 0.364500 0.411400
vn -0.193800 -0.958100 0.211000
vn -0.395000 -0.897200 0.197600
vn 0.119900 -0.969600 0.213500
vn 0.168500 -0.962600 0.212000
vn -0.000700 0.838300 -0.545200
vn 0.025000 -0.962500 0.270300
vn 0.096300 -0.982600 0.158600
vn 0.000000 0.545200 0.838300
vn 0.001200 -0.838300 0.545200
vn 0.861100 0.488400 0.141100
vn -0.840800 -0.351100 -0.412100
vn 0.329200 -0.932400 0.149400
vn -0.348900 0.929900 -0.116300
vn 0.006900 -0.753500 -0.657400
vn 0.000100 0.428900 0.903400
vn 0.548700 -0.801100 -0.239200
vn 0.257300 0.756000 -0.601800
vn -0.516300 0.720400 0.463100
vn -0.232500 -0.632300 0.739000
vn 0.446100 0.780300 0.438300
vn -0.116000 -0.746300 0.655400
vn 0.242900 0.639100 -0.729700
vn 0.124000 0.751400 -0.648100
vn -0.375700 -0.515900 0.769900
vn 0.375700 0.515900 -0.769900
vn 1.000000 -0.001700 0.000400
vn 1.000000 0.001500 -0.000500
vn 1.000000 -0.000200 -0.001100
vn 1.000000 0.002000 0.000800
vn 0.552600 -0.813400 -0.181700
vn -0.811300 -0.583300 0.039200
vn 0.024200 -0.982000 0.187200
vn -0.050900 -0.971900 0.229900
vn 1.000000 -0.000200 0.000000
vn -0.018800 -0.976400 0.215000
vn 0.000000 -0.975300 0.221000
vn 0.000000 -0.975000 0.222200
vn -0.005200 0.615700 -0.788000
vn 0.939400 0.071900 0.335100
vn -0.411600 -0.464300 0.784300
vn -0.627100 -0.760100 0.170100
vn -0.236800 0.283300 -0.929300
vn -0.005000 0.704200 -0.710000
vn 0.000700 -0.563200 0.826300
vn -1.000000 0.000300 -0.000300
vn -0.999900 0.013200 -0.002900
vn -0.999900 -0.014700 -0.006300
vn -1.000000 -0.000300 0.000100
vn 0.507400 -0.800800 -0.318300
vn -0.843200 -0.356700 -0.402200
vn -0.185200 -0.946100 0.265700
vn -0.390700 -0.877500 0.278100
vn 0.000000 -0.996400 0.084200
vn 0.168100 -0.958100 0.232000
vn 0.000000 -0.987200 0.159400
vn 0.000000 -0.967700 0.252300
vn -0.003800 -0.839600 0.543300
vn 0.999100 -0.009500 -0.042200
vn -0.931900 -0.084300 -0.352700
vn 0.390400 -0.899100 0.198000
vn -0.425200 0.886100 -0.184300
vn 0.064400 -0.738500 -0.671100
vn -0.026200 0.412000 0.910800
usemtl Material.001
s off
f 2/1/1 4/2/1 3/3/1
f 4/4/2 8/5/2 7/6/2
f 6/7/3 5/8/3 7/9/3
f 2/10/4 1/11/4 5/12/4
f 1/13/5 3/14/5 7/15/5
f 6/16/6 8/17/6 18/18/6
f 12/19/7 16/20/7 15/21/7
f 9/22/8 23/23/8 21/24/8
f 6/25/9 11/26/9 9/22/9
f 8/5/10 4/4/10 10/27/10
f 15/28/11 16/29/11 14/30/11
f 10/31/12 9/32/12 13/33/12
f 11/26/13 15/34/13 13/35/13
f 10/27/14 14/36/14 16/37/14
f 17/38/15 18/39/15 20/40/15
f 12/41/16 20/42/16 18/43/16
f 12/44/11 11/45/11 19/46/11
f 11/26/17 6/25/17 17/47/17
f 22/48/18 21/29/18 23/39/18
f 2/16/6 21/49/6 22/50/6
f 9/51/11 10/52/11 24/53/11
f 10/27/19 4/4/19 22/54/19
f 30/55/20 29/56/20 102/57/20
f 30/58/21 28/59/21 27/60/21
f 34/61/20 36/62/20 107/63/20
f 27/64/22 33/65/22 34/66/22
f 102/67/22 29/55/22 34/66/22
f 35/68/23 45/69/23 36/70/23
f 34/71/21 33/72/21 35/73/21
f 87/74/20 41/75/20 31/76/20
f 38/77/24 42/78/24 32/79/24
f 47/80/25 45/81/25 38/77/25
f 37/82/26 25/83/26 31/84/26
f 86/85/27 74/86/27 32/87/27
f 36/70/23 40/88/23 109/89/23
f 117/90/28 61/91/28 60/92/28
f 31/76/20 58/93/20 75/94/20
f 26/95/21 32/79/21 43/96/21
f 45/81/21 39/97/21 42/78/21
f 47/80/29 37/82/29 41/98/29
f 110/99/27 86/85/27 42/100/27
f 109/101/20 40/96/20 41/75/20
f 35/68/23 108/102/23 110/103/23
f 74/86/27 60/104/27 32/87/27
f 33/105/27 106/106/27 108/107/27
f 66/108/30 51/109/30 50/110/30
f 28/111/23 30/60/23 101/112/23
f 104/112/22 106/113/22 33/65/22
f 103/114/27 104/115/27 27/116/27
f 50/117/31 51/118/31 49/119/31
f 68/108/32 48/120/32 49/121/32
f 67/122/33 50/19/33 48/123/33
f 69/124/34 49/125/34 51/126/34
f 53/127/35 55/128/35 46/129/35
f 57/130/36 56/131/36 52/129/36
f 54/132/22 44/133/22 56/131/22
f 52/134/37 56/135/37 25/83/37
f 44/136/38 31/84/38 25/83/38
f 124/137/39 59/138/39 61/91/39
f 58/139/40 59/138/40 124/137/40
f 71/140/41 70/141/41 65/142/41
f 61/91/42 55/128/42 53/127/42
f 54/132/43 57/130/43 59/138/43
f 64/143/44 63/144/44 62/145/44
f 72/141/45 63/146/45 64/147/45
f 72/148/21 71/149/21 62/150/21
f 73/148/46 64/151/46 65/152/46
f 26/153/47 69/124/47 66/154/47
f 25/155/48 37/156/48 67/122/48
f 25/109/49 68/108/49 69/157/49
f 37/158/50 38/120/50 66/108/50
f 59/159/46 73/148/46 70/160/46
f 57/159/21 55/161/21 71/149/21
f 59/162/51 57/142/51 72/141/51
f 55/163/52 61/146/52 70/141/52
f 102/57/20 80/164/20 81/64/20
f 81/60/46 80/59/46 78/165/46
f 105/107/20 107/63/20 89/166/20
f 85/167/22 84/168/22 78/60/22
f 102/67/22 105/169/22 85/167/22
f 100/170/23 98/171/23 89/172/23
f 89/173/46 88/105/46 84/72/46
f 87/74/20 75/94/20 82/174/20
f 77/175/46 83/176/46 95/177/46
f 90/178/53 91/179/53 98/180/53
f 94/181/46 82/174/46 76/182/46
f 83/183/27 74/86/27 86/85/27
f 109/89/23 93/165/23 89/172/23
f 127/184/54 128/185/54 117/90/54
f 120/186/20 97/187/20 82/174/20
f 77/175/46 99/188/46 96/189/46
f 91/179/55 95/177/55 92/190/55
f 94/181/56 90/178/56 100/191/56
f 95/192/27 86/85/27 110/99/27
f 109/101/20 87/74/20 94/181/20
f 88/193/23 92/158/23 110/103/23
f 119/194/27 127/195/27 83/183/27
f 84/173/27 88/61/27 108/107/27
f 134/196/57 115/197/57 116/198/57
f 103/199/23 101/112/23 81/64/23
f 84/168/22 106/113/22 104/112/22
f 79/64/27 78/164/27 104/115/27
f 115/200/58 113/51/58 114/201/58
f 136/202/59 114/203/59 113/204/59
f 113/205/60 115/206/60 134/207/60
f 116/208/61 114/209/61 136/154/61
f 119/210/22 96/116/22 99/211/22
f 121/212/62 118/211/62 122/213/62
f 123/214/63 122/213/63 97/197/63
f 76/182/46 122/215/46 118/188/46
f 122/215/46 76/182/46 82/174/46
f 124/137/64 117/90/64 128/185/64
f 111/216/65 124/137/65 126/217/65
f 138/218/66 129/219/66 132/220/66
f 119/210/67 121/212/67 128/185/67
f 125/221/68 126/217/68 123/214/68
f 131/200/69 132/222/69 129/223/69
f 140/224/70 131/147/70 130/225/70
f 130/226/46 129/150/46 138/149/46
f 132/198/21 131/227/21 140/207/21
f 91/205/71 133/228/71 136/154/71
f 135/228/72 134/207/72 90/227/72
f 77/226/73 136/202/73 135/157/73
f 134/196/74 133/229/74 91/230/74
f 137/229/21 140/207/21 126/206/21
f 123/203/46 139/202/46 138/149/46
f 140/224/75 139/231/75 123/220/75
f 121/232/76 138/218/76 137/231/76
f 1/233/77 2/1/77 3/3/77
f 3/234/78 4/4/78 7/6/78
f 8/235/79 6/7/79 7/9/79
f 6/25/80 2/10/80 5/12/80
f 5/236/81 1/13/81 7/15/81
f 17/237/6 6/16/6 18/18/6
f 11/32/7 12/19/7 15/21/7
f 2/10/82 9/22/82 21/24/82
f 2/10/9 6/25/9 9/22/9
f 12/41/10 8/5/10 10/27/10
f 13/238/11 15/28/11 14/30/11
f 14/239/12 10/31/12 13/33/12
f 9/22/13 11/26/13 13/35/13
f 12/41/83 10/27/83 16/37/83
f 19/240/15 17/38/15 20/40/15
f 8/5/84 12/41/84 18/43/84
f 20/241/11 12/44/11 19/46/11
f 19/242/85 11/26/85 17/47/85
f 24/38/18 22/48/18 23/39/18
f 4/243/6 2/16/6 22/50/6
f 23/244/11 9/51/11 24/53/11
f 24/245/86 10/27/86 22/54/86
f 101/246/20 30/55/20 102/57/20
f 29/111/21 30/58/21 27/60/21
f 105/107/20 34/61/20 107/63/20
f 29/55/22 27/64/22 34/66/22
f 105/169/22 102/67/22 34/66/22
f 40/88/23 36/70/23 47/247/23
f 35/68/23 39/248/23 45/69/23
f 45/69/23 47/247/23 36/70/23
f 36/249/21 34/71/21 35/73/21
f 75/94/20 87/74/20 31/76/20
f 26/95/87 38/77/87 32/79/87
f 37/82/88 47/80/88 38/77/88
f 41/98/89 37/82/89 31/84/89
f 42/100/27 86/85/27 32/87/27
f 107/250/23 36/70/23 109/89/23
f 112/251/22 117/90/22 60/92/22
f 111/252/20 75/94/20 58/93/20
f 31/76/20 44/253/20 54/254/20
f 54/254/20 58/93/20 31/76/20
f 46/134/21 26/95/21 43/96/21
f 38/77/90 45/81/90 42/78/90
f 40/255/21 47/80/21 41/98/21
f 39/136/27 110/99/27 42/100/27
f 87/74/20 109/101/20 41/75/20
f 39/248/23 35/68/23 110/103/23
f 43/255/27 32/87/27 53/256/27
f 74/86/27 112/257/27 60/104/27
f 53/256/27 32/87/27 60/104/27
f 35/258/27 33/105/27 108/107/27
f 67/259/30 66/108/30 50/110/30
f 103/199/23 28/111/23 101/112/23
f 27/64/22 104/112/22 33/65/22
f 28/253/27 103/114/27 27/116/27
f 48/260/31 50/117/31 49/119/31
f 69/157/91 68/108/91 49/121/91
f 68/261/92 67/122/92 48/123/92
f 66/154/34 69/124/34 51/126/34
f 43/249/22 53/127/22 46/129/22
f 55/128/93 57/130/93 52/129/93
f 57/130/94 54/132/94 56/131/94
f 26/95/24 52/134/24 25/83/24
f 56/135/95 44/136/95 25/83/95
f 117/90/96 124/137/96 61/91/96
f 111/216/22 58/139/22 124/137/22
f 62/262/41 71/140/41 65/142/41
f 60/92/97 61/91/97 53/127/97
f 58/139/98 54/132/98 59/138/98
f 65/118/44 64/143/44 62/145/44
f 73/224/99 72/141/99 64/147/99
f 63/151/21 72/148/21 62/150/21
f 70/160/46 73/148/46 65/152/46
f 38/209/100 26/153/100 66/154/100
f 68/261/101 25/155/101 67/122/101
f 26/204/102 25/109/102 69/157/102
f 67/259/103 37/158/103 66/108/103
f 61/263/46 59/159/46 70/160/46
f 72/148/21 57/159/21 71/149/21
f 73/224/104 59/162/104 72/141/104
f 71/140/105 55/163/105 70/141/105
f 101/246/20 102/57/20 81/64/20
f 79/264/46 81/60/46 78/165/46
f 85/258/20 105/107/20 89/166/20
f 80/264/22 85/167/22 78/60/22
f 80/264/22 102/67/22 85/167/22
f 88/193/23 89/172/23 98/171/23
f 93/165/23 100/170/23 89/172/23
f 98/171/23 92/158/23 88/193/23
f 85/71/46 89/173/46 84/72/46
f 94/181/20 87/74/20 82/174/20
f 91/179/106 77/175/106 95/177/106
f 100/191/107 90/178/107 98/180/107
f 90/178/108 94/181/108 76/182/108
f 95/192/27 83/183/27 86/85/27
f 107/250/23 109/89/23 89/172/23
f 112/251/22 127/184/22 117/90/22
f 82/174/20 75/94/20 125/265/20
f 125/265/20 120/186/20 82/174/20
f 75/94/20 111/252/20 125/265/20
f 83/176/46 77/175/46 96/189/46
f 98/180/109 91/179/109 92/190/109
f 93/136/46 94/181/46 100/191/46
f 92/190/27 95/192/27 110/99/27
f 93/136/20 109/101/20 94/181/20
f 108/102/23 88/193/23 110/103/23
f 74/86/27 83/183/27 127/195/27
f 96/266/27 119/194/27 83/183/27
f 127/195/27 112/257/27 74/86/27
f 106/106/27 84/173/27 108/107/27
f 133/229/57 134/196/57 116/198/57
f 79/253/23 103/199/23 81/64/23
f 78/60/22 84/168/22 104/112/22
f 103/114/27 79/64/27 104/115/27
f 116/267/58 115/200/58 114/201/58
f 135/157/110 136/202/110 113/204/110
f 135/228/111 113/205/111 134/207/111
f 133/228/61 116/208/61 136/154/61
f 121/212/112 119/210/112 99/211/112
f 123/214/113 121/212/113 122/213/113
f 120/268/114 123/214/114 97/197/114
f 77/175/46 76/182/46 118/188/46
f 97/187/46 122/215/46 82/174/46
f 126/217/115 124/137/115 128/185/115
f 125/221/116 111/216/116 126/217/116
f 137/231/66 138/218/66 132/220/66
f 127/184/117 119/210/117 128/185/117
f 120/268/114 125/221/114 123/214/114
f 130/97/69 131/200/69 129/223/69
f 139/231/118 140/224/118 130/225/118
f 139/202/46 130/226/46 138/149/46
f 137/229/21 132/198/21 140/207/21
f 77/126/119 91/205/119 136/154/119
f 76/208/120 135/228/120 90/227/120
f 76/121/121 77/226/121 135/157/121
f 90/145/122 134/196/122 91/230/122
f 128/230/21 137/229/21 126/206/21
f 121/161/46 123/203/46 138/149/46
f 126/162/123 140/224/123 123/220/123
f 128/225/124 121/232/124 137/231/124
