# Blender v2.76 (sub 0) OBJ File: 'aSw_Run.blend'
# www.blender.org
mtllib run_000008.mtl
o Plane.001_Plane.000
v -0.225740 0.120938 0.122217
v -0.250309 0.124569 -0.018454
v -0.219527 0.098176 0.118095
v -0.242992 0.091741 -0.016265
v -0.213987 0.125354 0.120103
v -0.217654 0.132089 -0.014838
v -0.208972 0.102579 0.115930
v -0.210337 0.099261 -0.012649
v -0.246639 0.123406 -0.050745
v -0.239249 0.090251 -0.048534
v -0.213658 0.131001 -0.047093
v -0.206268 0.097846 -0.044882
v -0.116999 0.076071 -1.014349
v -0.114675 0.065644 -1.013654
v -0.106627 0.078460 -1.013201
v -0.104303 0.068033 -1.012505
v -0.157151 0.134705 -0.007686
v -0.154632 0.123404 -0.006933
v -0.153282 0.133417 -0.039949
v -0.150762 0.122115 -0.039195
v -0.306014 0.100426 -0.024170
v -0.303495 0.089124 -0.023416
v -0.302145 0.099137 -0.056432
v -0.299626 0.087835 -0.055678
v 0.125398 0.350907 -0.117063
v 0.125454 0.366699 -0.045338
v 0.186015 0.584331 0.061432
v 0.186015 0.950557 -0.019210
v 0.186015 0.503689 -0.304795
v 0.186015 0.869916 -0.385436
v 0.125454 0.331568 -0.204883
v 0.125454 0.386162 0.043056
v 0.057662 0.556729 -0.063919
v 0.057662 0.531291 -0.179444
v 0.057662 0.496616 -0.050683
v 0.057662 0.471178 -0.166207
v 0.125956 0.412927 -0.129184
v 0.125514 0.429054 -0.058887
v 0.125454 0.511194 0.015524
v 0.125454 0.456600 -0.232414
v 0.125454 0.394084 -0.218648
v 0.125454 0.448679 0.029290
v 0.125454 0.022892 0.123046
v 0.125454 -0.031703 -0.124892
v 0.125454 0.491743 -0.072813
v 0.125454 0.003395 0.034503
v 0.125454 0.475885 -0.144833
v 0.122091 0.168016 -0.212558
v 0.122202 0.115543 -0.160825
v 0.185893 0.171743 -0.208915
v 0.186003 0.119250 -0.157163
v 0.125454 0.003395 0.034503
v 0.098032 0.022892 0.123046
v 0.098032 -0.031703 -0.124892
v 0.098032 0.004777 0.030715
v 0.125454 -0.012418 -0.037311
v 0.098032 -0.009948 -0.044106
v 0.028140 -0.031703 -0.124892
v 0.028140 -0.011233 -0.040418
v 0.028140 0.022892 0.123046
v 0.028140 0.004581 0.031335
v 0.098032 -0.235837 -0.051597
v 0.098032 -0.251462 -0.123455
v 0.028140 -0.251445 -0.123376
v 0.028140 -0.235827 -0.051551
v 0.173795 0.224197 -0.050688
v 0.173684 0.276690 -0.102440
v 0.110831 0.273410 -0.106147
v 0.109993 0.220490 -0.054349
v 0.028140 -0.089252 -0.083424
v 0.098032 -0.089262 -0.083470
v 0.098032 -0.104888 -0.155328
v 0.028140 -0.104987 -0.154926
v -0.001485 0.386162 0.043056
v -0.001485 0.331568 -0.204883
v -0.128423 0.350853 -0.117301
v -0.128423 0.366699 -0.045338
v -0.188985 0.584331 0.061432
v -0.188985 0.950557 -0.019210
v -0.188985 0.503689 -0.304795
v -0.188985 0.869916 -0.385436
v -0.128423 0.331568 -0.204883
v -0.128423 0.386162 0.043056
v -0.060631 0.556729 -0.063919
v -0.060631 0.531291 -0.179444
v -0.001485 0.448679 0.029290
v -0.001485 0.394084 -0.218648
v -0.060631 0.496616 -0.050683
v -0.060631 0.471178 -0.166207
v -0.129278 0.414116 -0.128844
v -0.128402 0.429343 -0.058498
v -0.128423 0.511194 0.015524
v -0.128423 0.456599 -0.232414
v -0.128423 0.394084 -0.218648
v -0.128423 0.448679 0.029290
v -0.128423 0.022892 0.123046
v -0.128423 -0.031703 -0.124892
v -0.128423 0.491743 -0.072813
v -0.128423 0.003395 0.034503
v -0.128423 0.475885 -0.144833
v -0.001485 0.869916 -0.385436
v -0.001485 0.503689 -0.304795
v -0.001485 0.950557 -0.019210
v -0.001485 0.584331 0.061432
v -0.001485 0.531291 -0.179444
v -0.001485 0.556729 -0.063919
v -0.001485 0.471178 -0.166207
v -0.001485 0.496616 -0.050683
v -0.001485 0.456599 -0.232414
v -0.001485 0.511194 0.015524
v -0.001485 -0.031703 -0.124892
v -0.001485 0.022892 0.123046
v -0.217183 0.159346 -0.007771
v -0.155643 0.149653 0.031581
v -0.249636 0.171666 0.046014
v -0.188073 0.161970 0.085381
v -0.001485 0.003417 0.034603
v -0.128423 0.003395 0.034503
v -0.101001 0.022892 0.123046
v -0.101001 -0.031703 -0.124892
v -0.101001 0.002828 0.031708
v -0.128423 -0.012418 -0.037311
v -0.101001 -0.014794 -0.040848
v -0.001485 -0.012386 -0.037167
v -0.031109 -0.031703 -0.124892
v -0.031109 -0.013416 -0.038734
v -0.031109 0.022892 0.123046
v -0.031109 0.003033 0.032714
v -0.101001 -0.251478 0.135380
v -0.101001 -0.296137 0.076956
v -0.031109 -0.296088 0.077021
v -0.031109 -0.251449 0.135418
v -0.156077 0.307837 0.071273
v -0.217640 0.317533 0.031907
v -0.185758 0.305493 -0.022463
v -0.123646 0.295520 0.017474
v -0.031109 -0.132278 0.044323
v -0.101001 -0.132307 0.044285
v -0.101001 -0.176864 -0.014087
v -0.031109 -0.176916 -0.014074
vt 0.628043 0.804403
vt 0.607621 0.804403
vt 0.610973 0.682523
vt 0.036336 0.121881
vt 0.039689 0.000000
vt 0.053406 0.000000
vt 0.607621 0.926284
vt 0.610973 0.804403
vt 0.624691 0.804403
vt 0.129431 0.610213
vt 0.149853 0.610213
vt 0.146501 0.732094
vt 0.186189 0.745830
vt 0.172472 0.745830
vt 0.172472 0.732094
vt 0.763002 0.870578
vt 0.769697 0.834195
vt 0.776728 0.834195
vt 0.948267 0.817994
vt 0.955337 0.227508
vt 0.961823 0.227508
vt 0.149955 0.590484
vt 0.186189 0.590487
vt 0.186189 0.610216
vt 0.129329 0.590484
vt 0.056758 0.121881
vt 0.056860 0.141610
vt 0.036235 0.141610
vt 0.628043 0.721981
vt 0.634529 0.721981
vt 0.634529 0.728476
vt 0.989518 0.817993
vt 0.968893 0.817993
vt 0.975962 0.227508
vt 0.136399 0.000000
vt 0.049790 0.732094
vt 0.043304 0.732094
vt 0.628043 0.702252
vt 0.628043 0.682523
vt 0.635073 0.682523
vt 0.000000 0.141607
vt 0.000000 0.121878
vt 0.763002 0.870476
vt 0.742376 0.870476
vt 0.749173 0.834195
vt 0.093095 0.610216
vt 0.635073 0.721981
vt 0.803845 0.870578
vt 0.783423 0.870578
vt 0.790119 0.834195
vt 0.742376 0.834195
vt 0.735579 0.870476
vt 0.728548 0.870476
vt 0.093095 0.121878
vt 0.186189 0.227508
vt 0.186189 0.000000
vt 0.299796 0.000000
vt 0.640616 0.682523
vt 0.413403 0.682523
vt 0.413403 0.455015
vt 0.752502 0.154024
vt 0.789797 0.154024
vt 0.789797 0.189908
vt 0.413403 0.227508
vt 0.335633 0.305378
vt 0.263959 0.305378
vt 0.186189 0.341262
vt 0.298939 0.795418
vt 0.285209 0.836547
vt 0.227265 0.795418
vt 0.677912 0.154024
vt 0.677912 0.225791
vt 0.640616 0.225791
vt 0.717529 0.492015
vt 0.640616 0.492015
vt 0.640616 0.453179
vt 0.695441 0.795359
vt 0.640616 0.795359
vt 0.640616 0.756522
vt 0.695422 0.834195
vt 0.740105 0.795359
vt 0.794442 0.795359
vt 0.740105 0.756522
vt 0.871354 0.569687
vt 0.871354 0.608524
vt 0.794442 0.608524
vt 0.186189 0.836547
vt 0.186189 0.759535
vt 0.695488 0.077012
vt 0.695500 0.094985
vt 0.640616 0.094985
vt 0.699579 0.227508
vt 0.717529 0.453179
vt 0.695457 0.756522
vt 0.640616 0.530851
vt 0.640616 0.834195
vt 0.740105 0.834195
vt 0.871354 0.530851
vt 0.794442 0.569687
vt 0.717529 0.530851
vt 0.298939 0.759535
vt 0.340014 0.759535
vt 0.853405 0.834195
vt 0.715207 0.225791
vt 0.715207 0.189908
vt 0.752502 0.189908
vt 0.340014 0.773526
vt 0.384678 0.773526
vt 0.384678 0.864529
vt 0.640616 0.455015
vt 0.413403 0.341261
vt 0.335633 0.341261
vt 0.527010 0.227508
vt 0.527010 0.000000
vt 0.640616 0.000000
vt 0.836789 0.226727
vt 0.836789 0.182006
vt 0.875576 0.182022
vt 0.429325 0.773526
vt 0.384678 0.682523
vt 0.987053 0.908997
vt 0.948267 0.908997
vt 1.000000 0.091003
vt 1.000000 0.182006
vt 0.961214 0.182006
vt 0.640616 0.137388
vt 0.695529 0.137388
vt 0.695550 0.154024
vt 0.740104 0.154024
vt 0.794442 0.154024
vt 0.740086 0.137388
vt 0.695550 0.530851
vt 0.740105 0.530851
vt 0.794442 0.756522
vt 0.740015 0.077012
vt 0.740037 0.094985
vt 0.794442 0.077012
vt 0.794442 0.094985
vt 0.127043 0.823097
vt 0.127043 0.732094
vt 0.169391 0.732094
vt 0.794442 0.137388
vt 0.836789 0.226600
vt 0.794442 0.226649
vt 0.794442 0.182035
vt 0.084696 0.823098
vt 0.127043 0.914101
vt 0.563085 0.773526
vt 0.518529 0.773526
vt 0.518529 0.682523
vt 0.563085 0.682523
vt 0.607621 0.682523
vt 1.000000 0.000000
vt 0.961214 0.091003
vt 0.987053 1.000000
vt 0.948267 1.000000
vt 0.429325 0.864529
vt 0.563085 0.864529
vt 0.607621 0.773526
vt 0.518529 0.864529
vt 0.169391 0.914101
vt 0.413403 0.000000
vt 0.186189 0.682523
vt 0.789797 0.225791
vt 0.263959 0.377145
vt 0.335633 0.377145
vt 0.263959 0.341261
vt 0.240526 0.682523
vt 0.285209 0.682523
vt 0.227265 0.723652
vt 0.715207 0.154024
vt 0.794442 0.453179
vt 0.893442 0.492015
vt 0.893426 0.453179
vt 0.948267 0.453179
vt 0.848779 0.492015
vt 0.893461 0.530851
vt 0.794442 0.492015
vt 0.848779 0.453179
vt 0.948267 0.608524
vt 0.640616 0.059039
vt 0.695500 0.059039
vt 0.777826 0.227508
vt 0.794442 0.227508
vt 0.893333 0.227508
vt 0.948267 0.227508
vt 0.948267 0.492015
vt 0.948267 0.530851
vt 0.848779 0.530851
vt 0.948267 0.569687
vt 0.298939 0.723652
vt 0.340014 0.682523
vt 0.931652 0.834195
vt 0.889304 0.834195
vt 0.794442 0.000000
vt 0.839105 0.000000
vt 0.839105 0.091003
vt 0.640616 0.341261
vt 0.682964 0.834195
vt 0.721750 0.834195
vt 0.721750 0.878900
vt 0.473973 0.773526
vt 0.473973 0.864529
vt 0.922427 0.182006
vt 0.883641 0.182006
vt 0.883641 0.091003
vt 0.922427 0.000000
vt 0.961214 0.000000
vt 0.640616 0.016637
vt 0.695550 0.000000
vt 0.695529 0.016637
vt 0.740104 0.000000
vt 0.740086 0.016637
vt 0.848779 0.227508
vt 0.740037 0.059039
vt 0.000000 0.732094
vt 0.042348 0.732094
vt 0.042348 0.823097
vt 0.794442 0.059039
vt 0.682964 0.878837
vt 0.640616 0.878808
vt 0.084696 0.914101
vt 0.042348 0.914101
vt 0.473973 0.682523
vt 0.883641 0.000000
vt 0.922428 0.091003
vt 0.794442 0.091003
vt 0.839105 0.182006
vt 0.000000 0.914101
vt 0.000000 0.823097
vt 0.624691 0.682523
vt 0.628043 0.926284
vt 0.132783 0.732094
vt 0.186189 0.732094
vt 0.628043 0.728476
vt 0.982448 0.227508
vt 0.142885 0.000000
vt 0.635073 0.702252
vt 0.756204 0.834195
vt 0.093095 0.590487
vt 0.797149 0.834195
vt 0.093095 0.141607
vt 0.299796 0.227508
vt 0.240526 0.836547
vt 0.340014 0.836547
vt 0.640616 0.154024
vt 0.227265 0.759535
vt 0.640616 0.077012
vt 0.717529 0.227508
vt 0.640616 0.227508
vt 0.657232 0.227508
vt 0.794442 0.834195
vt 0.794442 0.530851
vt 0.811057 0.834195
vt 0.871354 0.834195
vt 0.752502 0.225791
vt 0.340014 0.864529
vt 0.875576 0.226727
vt 0.429325 0.682523
vt 0.987053 0.817994
vt 0.169391 0.823098
vt 0.607621 0.864529
vt 0.084696 0.732094
vt 0.186189 0.455015
vt 0.735479 0.227508
vt 0.948267 0.834195
vt 0.682964 0.878916
vt 0.794442 0.016637
vn -0.962900 -0.202800 0.177900
vn 0.388400 -0.921300 0.019700
vn 0.975900 0.217800 -0.015700
vn -0.230800 0.970800 0.065400
vn 0.242900 -0.108300 0.964000
vn -0.119000 0.039600 0.992100
vn 0.970200 0.222600 0.095400
vn -0.392000 0.916200 -0.083600
vn -0.217700 0.974200 -0.059800
vn 0.216500 -0.973800 0.070100
vn 0.119000 -0.039600 -0.992100
vn -0.967400 -0.223600 -0.119200
vn -0.215600 0.973400 -0.076800
vn 0.218500 -0.974400 0.053000
vn 0.968900 0.223100 0.107300
vn 0.392000 -0.916200 0.083600
vn -0.038600 0.998500 -0.038500
vn -0.968900 -0.223100 -0.107300
vn 0.037200 -0.998000 0.050400
vn 0.000000 -0.215000 -0.976600
vn 1.000000 -0.000000 0.000000
vn 0.000000 -0.976600 0.215000
vn -0.000000 0.976600 -0.215000
vn 1.000000 0.000100 0.000600
vn 1.000000 0.002200 0.005800
vn 0.999900 -0.009700 -0.003600
vn -0.000000 0.215000 0.976600
vn 0.060000 -0.978900 0.195400
vn 1.000000 0.006300 -0.006900
vn 0.996700 0.058200 0.056900
vn 0.081400 -0.699600 -0.709800
vn -0.997100 -0.044400 -0.061500
vn 0.004200 0.712400 -0.701700
vn 0.001100 -0.712100 0.702000
vn -0.075800 -0.978500 0.192000
vn -0.078700 -0.973600 0.214400
vn -0.139900 -0.967000 0.212900
vn 1.000000 0.000100 -0.000000
vn 1.000000 0.000300 0.000600
vn 0.061500 -0.974700 0.214800
vn 0.000000 -0.971900 0.235500
vn 0.000700 0.212500 0.977200
vn 0.004500 -0.981300 0.192500
vn 0.000000 -0.965600 0.260000
vn 0.000000 -0.977200 0.212500
vn -0.005300 -0.212500 -0.977200
vn -1.000000 0.000000 0.000000
vn -0.054000 -0.055700 0.997000
vn 0.002400 -0.191800 -0.981400
vn -0.983000 0.179300 -0.038700
vn 0.944400 0.231900 0.233200
vn -0.004800 0.760600 -0.649200
vn 0.007800 -0.774100 0.633000
vn -1.000000 0.000300 -0.000100
vn -0.999900 0.002400 0.011900
vn -0.001000 -0.976700 0.214700
vn -1.000000 -0.000100 -0.000200
vn -0.999900 0.010700 -0.011900
vn -0.507000 0.192500 0.840200
vn -0.213300 -0.972400 0.094000
vn 0.507000 -0.192500 -0.840200
vn -0.835200 0.131500 -0.534000
vn 0.835400 -0.131600 0.533700
vn 0.001700 -0.976600 0.215000
vn -0.056800 -0.975000 0.214700
vn -0.001100 -0.976600 0.215000
vn 0.022600 -0.976400 0.215000
vn -0.000700 0.607300 0.794500
vn -0.000200 -0.976700 0.214600
vn 0.013000 -0.978100 0.207600
vn -0.000000 -0.794500 0.607300
vn 0.001200 -0.607300 -0.794500
vn 0.820000 0.408700 0.400700
vn -0.865700 -0.038600 -0.499100
vn 0.360400 -0.603500 -0.711300
vn -0.283200 0.729500 0.622600
vn 0.000100 -0.162900 -0.986600
vn -0.000600 0.092700 0.995700
vn -0.945000 -0.286500 0.157700
vn 0.223600 -0.974700 0.007600
vn 0.976100 0.216500 -0.016000
vn -0.342300 0.937900 0.056100
vn 0.222000 -0.128200 0.966600
vn -0.389800 0.917700 -0.077300
vn 0.388300 -0.917200 0.089300
vn -0.034700 0.998400 -0.044100
vn 0.034700 -0.998400 0.044100
vn 1.000000 -0.000900 0.000200
vn 1.000000 0.007600 -0.001700
vn 1.000000 0.001100 0.000400
vn -0.996700 -0.058200 -0.056900
vn -0.001300 0.710400 -0.703800
vn -0.135000 -0.972200 0.191300
vn 1.000000 -0.000200 -0.000700
vn 0.062000 -0.974700 0.214600
vn 0.061500 -0.974800 0.214600
vn 0.000000 -0.980600 0.195800
vn 0.030300 -0.971400 0.235400
vn -0.001200 -0.210600 -0.977600
vn 0.590700 0.170800 0.788600
vn 0.066100 -0.151300 -0.986300
vn -0.991300 0.099500 0.085700
vn 0.945700 0.318100 -0.067000
vn -0.047600 0.772900 -0.632800
vn 0.000300 -0.771900 0.635700
vn -0.999900 0.013100 -0.002900
vn -0.999900 -0.014600 -0.006200
vn -1.000000 -0.000300 0.000100
vn 0.508400 -0.193700 -0.839100
vn -0.842800 0.128700 -0.522700
vn 0.001600 -0.976700 0.214600
vn -0.053700 -0.970400 0.235700
vn 0.000000 -0.980400 0.197200
vn 0.022000 -0.974300 0.224300
vn 0.000000 -0.978200 0.207600
vn 0.000000 -0.976700 0.214700
vn -0.000300 -0.606800 -0.794900
vn 0.965200 0.053400 0.255900
vn -0.825800 -0.112000 -0.552800
vn 0.748400 -0.647700 0.142600
vn -0.818800 0.563200 -0.111700
vn 0.032800 -0.149100 -0.988300
vn -0.014600 0.085500 0.996200
usemtl Material.001
s off
f 2/1/1 4/2/1 3/3/1
f 8/4/2 7/5/2 3/6/2
f 6/7/3 5/8/3 7/9/3
f 6/10/4 2/11/4 1/12/4
f 1/13/5 3/14/5 7/15/5
f 8/16/6 18/17/6 17/18/6
f 12/19/7 16/20/7 15/21/7
f 9/22/8 23/23/8 21/24/8
f 6/10/9 11/25/9 9/22/9
f 4/26/10 10/27/10 12/28/10
f 16/29/11 14/30/11 13/31/11
f 10/32/12 9/33/12 13/34/12
f 9/22/13 11/25/13 15/35/13
f 10/27/14 14/36/14 16/37/14
f 18/38/15 20/39/15 19/40/15
f 12/28/16 20/41/16 18/42/16
f 12/43/11 11/44/11 19/45/11
f 11/25/17 6/10/17 17/46/17
f 22/47/18 21/29/18 23/38/18
f 4/48/6 2/49/6 21/50/6
f 10/51/11 24/52/11 23/53/11
f 10/27/19 4/26/19 22/54/19
f 30/55/20 29/56/20 102/57/20
f 30/58/21 28/59/21 27/60/21
f 34/61/20 36/62/20 107/63/20
f 27/64/22 33/65/22 34/66/22
f 102/67/22 29/55/22 34/66/22
f 35/68/23 45/69/23 36/70/23
f 34/71/21 33/72/21 35/73/21
f 87/74/20 41/75/20 31/76/20
f 38/77/24 42/78/24 32/79/24
f 45/80/25 38/77/25 37/81/25
f 41/82/26 37/81/26 25/83/26
f 86/84/27 74/85/27 32/86/27
f 36/70/23 40/87/23 109/88/23
f 117/89/28 61/90/28 60/91/28
f 31/76/20 58/92/20 75/93/20
f 26/94/21 32/79/21 43/95/21
f 45/80/21 39/96/21 42/78/21
f 47/97/29 37/81/29 41/82/29
f 110/98/27 86/84/27 42/99/27
f 109/100/20 40/95/20 41/75/20
f 35/68/23 108/101/23 110/102/23
f 74/85/27 60/103/27 32/86/27
f 33/104/27 106/105/27 108/106/27
f 67/107/30 66/108/30 51/109/30
f 28/110/23 30/60/23 101/111/23
f 104/111/22 106/112/22 33/65/22
f 103/113/27 104/114/27 27/115/27
f 50/116/31 51/117/31 49/118/31
f 69/119/32 68/108/32 48/120/32
f 68/121/33 67/122/33 50/19/33
f 69/123/34 49/124/34 51/125/34
f 53/126/35 55/127/35 46/128/35
f 56/129/36 52/128/36 55/127/36
f 44/130/37 56/129/37 57/131/37
f 52/132/38 56/133/38 25/83/38
f 31/134/39 25/83/39 56/133/39
f 124/135/40 59/136/40 61/90/40
f 111/137/41 58/138/41 59/136/41
f 70/139/42 65/140/42 62/141/42
f 61/90/43 55/127/43 53/126/43
f 58/138/44 54/142/44 57/131/44
f 64/143/45 63/144/45 62/145/45
f 73/146/46 72/139/46 63/147/46
f 72/148/21 71/149/21 62/150/21
f 73/148/47 64/151/47 65/152/47
f 26/153/48 69/123/48 66/154/48
f 25/155/49 37/156/49 67/122/49
f 26/157/50 25/109/50 68/108/50
f 38/120/51 66/108/51 67/107/51
f 59/158/47 73/148/47 70/159/47
f 57/158/21 55/160/21 71/149/21
f 57/140/52 72/139/52 73/146/52
f 55/161/53 61/147/53 70/139/53
f 102/57/20 80/162/20 81/64/20
f 81/60/47 80/59/47 78/163/47
f 105/106/20 107/63/20 89/164/20
f 85/165/22 84/166/22 78/60/22
f 102/67/22 105/167/22 85/165/22
f 100/168/23 98/169/23 89/170/23
f 89/171/47 88/104/47 84/72/47
f 87/74/20 75/93/20 82/172/20
f 91/173/54 77/174/54 83/175/54
f 90/176/55 91/173/55 98/177/55
f 94/178/47 82/172/47 76/179/47
f 83/180/27 74/85/27 86/84/27
f 109/88/23 93/163/23 89/170/23
f 127/181/56 128/182/56 117/89/56
f 120/183/20 97/184/20 82/172/20
f 77/174/47 99/185/47 96/186/47
f 91/173/57 95/187/57 92/188/57
f 94/178/58 90/176/58 100/189/58
f 95/190/27 86/84/27 110/98/27
f 109/100/20 87/74/20 94/178/20
f 88/191/23 92/192/23 110/102/23
f 119/193/27 127/194/27 83/180/27
f 84/171/27 88/61/27 108/106/27
f 115/195/59 116/196/59 133/197/59
f 103/198/23 101/111/23 81/64/23
f 84/166/22 106/112/22 104/111/22
f 79/64/27 78/162/27 104/114/27
f 115/199/60 113/200/60 114/201/60
f 136/202/61 114/203/61 113/157/61
f 113/204/62 115/205/62 134/206/62
f 116/207/63 114/208/63 136/154/63
f 119/209/22 96/115/22 99/210/22
f 121/211/64 118/210/64 122/212/64
f 123/213/65 122/212/65 97/195/65
f 76/179/47 122/214/47 118/185/47
f 122/214/47 76/179/47 82/172/47
f 124/135/66 117/89/66 128/182/66
f 111/137/67 124/135/67 126/215/67
f 129/216/68 132/217/68 137/218/68
f 119/209/69 121/211/69 128/182/69
f 125/219/70 126/215/70 123/213/70
f 131/199/71 132/220/71 129/221/71
f 140/146/72 131/222/72 130/223/72
f 139/202/47 130/224/47 129/150/47
f 132/196/21 131/225/21 140/206/21
f 133/226/73 136/154/73 77/125/73
f 135/226/74 134/206/74 90/225/74
f 77/224/75 136/202/75 135/119/75
f 134/227/76 133/197/76 91/228/76
f 137/197/21 140/206/21 126/205/21
f 123/203/47 139/202/47 138/149/47
f 140/146/77 139/218/77 123/217/77
f 121/229/78 138/230/78 137/218/78
f 1/231/79 2/1/79 3/3/79
f 4/26/80 8/4/80 3/6/80
f 8/232/81 6/7/81 7/9/81
f 5/233/82 6/10/82 1/12/82
f 5/234/83 1/13/83 7/15/83
f 6/49/6 8/16/6 17/18/6
f 11/33/7 12/19/7 15/21/7
f 2/11/84 9/22/84 21/24/84
f 2/11/9 6/10/9 9/22/9
f 8/4/10 4/26/10 12/28/10
f 15/235/11 16/29/11 13/31/11
f 14/236/12 10/32/12 13/34/12
f 13/237/13 9/22/13 15/35/13
f 12/28/14 10/27/14 16/37/14
f 17/238/15 18/38/15 19/40/15
f 8/4/85 12/28/85 18/42/85
f 20/239/11 12/43/11 19/45/11
f 19/240/86 11/25/86 17/46/86
f 24/238/18 22/47/18 23/38/18
f 22/241/6 4/48/6 21/50/6
f 9/200/11 10/51/11 23/53/11
f 24/242/87 10/27/87 22/54/87
f 101/243/20 30/55/20 102/57/20
f 29/110/21 30/58/21 27/60/21
f 105/106/20 34/61/20 107/63/20
f 29/55/22 27/64/22 34/66/22
f 105/167/22 102/67/22 34/66/22
f 40/87/23 36/70/23 47/244/23
f 35/68/23 39/245/23 45/69/23
f 45/69/23 47/244/23 36/70/23
f 36/246/21 34/71/21 35/73/21
f 75/93/20 87/74/20 31/76/20
f 26/94/88 38/77/88 32/79/88
f 47/97/89 45/80/89 37/81/89
f 31/134/24 41/82/24 25/83/24
f 42/99/27 86/84/27 32/86/27
f 107/247/23 36/70/23 109/88/23
f 112/248/22 117/89/22 60/91/22
f 111/249/20 75/93/20 58/92/20
f 31/76/20 44/250/20 54/251/20
f 54/251/20 58/92/20 31/76/20
f 46/132/21 26/94/21 43/95/21
f 38/77/90 45/80/90 42/78/90
f 40/252/21 47/97/21 41/82/21
f 39/253/27 110/98/27 42/99/27
f 87/74/20 109/100/20 41/75/20
f 39/245/23 35/68/23 110/102/23
f 43/252/27 32/86/27 53/254/27
f 74/85/27 112/255/27 60/103/27
f 53/254/27 32/86/27 60/103/27
f 35/256/27 33/104/27 108/106/27
f 50/257/30 67/107/30 51/109/30
f 103/198/23 28/110/23 101/111/23
f 27/64/22 104/111/22 33/65/22
f 28/250/27 103/113/27 27/115/27
f 48/258/31 50/116/31 49/118/31
f 49/259/91 69/119/91 48/120/91
f 48/260/92 68/121/92 50/19/92
f 66/154/34 69/123/34 51/125/34
f 43/246/22 53/126/22 46/128/22
f 57/131/93 56/129/93 55/127/93
f 54/142/44 44/130/44 57/131/44
f 26/94/94 52/132/94 25/83/94
f 44/253/21 31/134/21 56/133/21
f 117/89/95 124/135/95 61/90/95
f 124/135/96 111/137/96 59/136/96
f 71/261/42 70/139/42 62/141/42
f 60/91/97 61/90/97 53/126/97
f 59/136/98 58/138/98 57/131/98
f 65/117/45 64/143/45 62/145/45
f 64/222/99 73/146/99 63/147/99
f 63/151/21 72/148/21 62/150/21
f 70/159/47 73/148/47 65/152/47
f 38/208/100 26/153/100 66/154/100
f 68/121/101 25/155/101 67/122/101
f 69/119/102 26/157/102 68/108/102
f 37/192/103 38/120/103 67/107/103
f 61/262/47 59/158/47 70/159/47
f 72/148/21 57/158/21 71/149/21
f 59/263/104 57/140/104 73/146/104
f 71/261/105 55/161/105 70/139/105
f 101/243/20 102/57/20 81/64/20
f 79/264/47 81/60/47 78/163/47
f 85/256/20 105/106/20 89/164/20
f 80/264/22 85/165/22 78/60/22
f 80/264/22 102/67/22 85/165/22
f 88/191/23 89/170/23 98/169/23
f 93/163/23 100/168/23 89/170/23
f 98/169/23 92/192/23 88/191/23
f 85/71/47 89/171/47 84/72/47
f 94/178/20 87/74/20 82/172/20
f 95/187/57 91/173/57 83/175/57
f 100/189/106 90/176/106 98/177/106
f 90/176/107 94/178/107 76/179/107
f 95/190/27 83/180/27 86/84/27
f 107/247/23 109/88/23 89/170/23
f 112/248/22 127/181/22 117/89/22
f 82/172/20 75/93/20 125/265/20
f 125/265/20 120/183/20 82/172/20
f 75/93/20 111/249/20 125/265/20
f 83/175/47 77/174/47 96/186/47
f 98/177/108 91/173/108 92/188/108
f 93/253/47 94/178/47 100/189/47
f 92/188/27 95/190/27 110/98/27
f 93/253/20 109/100/20 94/178/20
f 108/101/23 88/191/23 110/102/23
f 74/85/27 83/180/27 127/194/27
f 96/266/27 119/193/27 83/180/27
f 127/194/27 112/255/27 74/85/27
f 106/105/27 84/171/27 108/106/27
f 134/227/59 115/195/59 133/197/59
f 79/250/23 103/198/23 81/64/23
f 78/60/22 84/166/22 104/111/22
f 103/113/27 79/64/27 104/114/27
f 116/267/60 115/199/60 114/201/60
f 135/119/109 136/202/109 113/157/109
f 135/226/110 113/204/110 134/206/110
f 133/226/63 116/207/63 136/154/63
f 121/211/111 119/209/111 99/210/111
f 123/213/112 121/211/112 122/212/112
f 120/268/113 123/213/113 97/195/113
f 77/174/47 76/179/47 118/185/47
f 97/184/47 122/214/47 82/172/47
f 126/215/114 124/135/114 128/182/114
f 125/219/115 111/137/115 126/215/115
f 138/230/68 129/216/68 137/218/68
f 127/181/116 119/209/116 128/182/116
f 120/268/113 125/219/113 123/213/113
f 130/96/71 131/199/71 129/221/71
f 139/218/117 140/146/117 130/223/117
f 138/149/47 139/202/47 129/150/47
f 137/197/21 132/196/21 140/206/21
f 91/204/118 133/226/118 77/125/118
f 76/207/119 135/226/119 90/225/119
f 76/259/120 77/224/120 135/119/120
f 90/145/121 134/227/121 91/228/121
f 128/228/21 137/197/21 126/205/21
f 121/160/47 123/203/47 138/149/47
f 126/263/122 140/146/122 123/217/122
f 128/223/123 121/229/123 137/218/123
