# Blender v2.76 (sub 0) OBJ File: 'aSw_Run.blend'
# www.blender.org
mtllib run_000003.mtl
o Plane.001_Plane.000
v -0.121824 0.036253 -0.170923
v -0.149932 0.189095 -0.283931
v -0.131900 0.038118 -0.165960
v -0.173952 0.201005 -0.263506
v -0.130569 0.031905 -0.183867
v -0.173326 0.172899 -0.301998
v -0.140073 0.034262 -0.179001
v -0.197345 0.184809 -0.281572
v -0.153006 0.215217 -0.303055
v -0.177265 0.227246 -0.282426
v -0.176633 0.198859 -0.321302
v -0.200893 0.210888 -0.300673
v -0.268497 0.994930 -0.874275
v -0.276126 0.998713 -0.867788
v -0.275927 0.989785 -0.880013
v -0.283556 0.993568 -0.873526
v -0.222826 0.147985 -0.327447
v -0.231095 0.152086 -0.320415
v -0.226136 0.174086 -0.346560
v -0.234406 0.178186 -0.339528
v -0.116182 0.221818 -0.245088
v -0.124452 0.225919 -0.238057
v -0.119493 0.247919 -0.264201
v -0.127762 0.252020 -0.257169
v 0.125398 0.350984 -0.117200
v 0.125454 0.366699 -0.045338
v 0.186015 0.584331 0.061432
v 0.186015 0.950557 -0.019210
v 0.186015 0.503689 -0.304795
v 0.186015 0.869916 -0.385436
v 0.125454 0.331568 -0.204883
v 0.125454 0.386162 0.043056
v 0.057662 0.556729 -0.063919
v 0.057662 0.531291 -0.179444
v 0.057662 0.496616 -0.050683
v 0.057662 0.471178 -0.166207
v 0.125956 0.413468 -0.130205
v 0.125514 0.429250 -0.058980
v 0.125454 0.511194 0.015524
v 0.125454 0.456600 -0.232414
v 0.125454 0.394084 -0.218648
v 0.125454 0.448679 0.029290
v 0.125454 0.022892 0.123046
v 0.125454 -0.031703 -0.124892
v 0.125454 0.491743 -0.072813
v 0.125454 0.003395 0.034503
v 0.125454 0.475885 -0.144833
v 0.122091 0.136708 0.040447
v 0.122202 0.163257 0.109185
v 0.185893 0.141534 0.038480
v 0.186003 0.168093 0.107243
v 0.125454 0.003395 0.034503
v 0.098032 0.022892 0.123046
v 0.098032 -0.031703 -0.124892
v 0.098032 0.002884 0.032437
v 0.125454 -0.012418 -0.037311
v 0.098032 -0.014840 -0.040262
v 0.028140 -0.031703 -0.124892
v 0.028140 -0.013538 -0.038607
v 0.028140 0.022892 0.123046
v 0.028140 0.002973 0.032799
v 0.098032 -0.241312 0.151355
v 0.098032 -0.290127 0.096357
v 0.028140 -0.290073 0.096418
v 0.028140 -0.241280 0.151391
v 0.173795 0.307561 0.053396
v 0.173684 0.281002 -0.015368
v 0.110831 0.276604 -0.013996
v 0.109993 0.302726 0.055338
v 0.028140 -0.129096 0.051818
v 0.098032 -0.129128 0.051782
v 0.098032 -0.177943 -0.003216
v 0.028140 -0.177848 -0.003159
v -0.001485 0.386162 0.043056
v -0.001485 0.331568 -0.204883
v -0.128423 0.350853 -0.117301
v -0.128423 0.366699 -0.045338
v -0.188985 0.584331 0.061432
v -0.188985 0.950557 -0.019210
v -0.188985 0.503689 -0.304795
v -0.188985 0.869916 -0.385436
v -0.128423 0.331568 -0.204883
v -0.128423 0.386162 0.043056
v -0.060631 0.556729 -0.063919
v -0.060631 0.531291 -0.179444
v -0.001485 0.448679 0.029290
v -0.001485 0.394084 -0.218648
v -0.060631 0.496616 -0.050683
v -0.060631 0.471178 -0.166207
v -0.129337 0.413238 -0.130168
v -0.128893 0.428877 -0.058893
v -0.128423 0.511194 0.015524
v -0.128423 0.456599 -0.232414
v -0.128423 0.394084 -0.218648
v -0.128423 0.448679 0.029290
v -0.128423 0.022892 0.123046
v -0.128423 -0.031703 -0.124892
v -0.128423 0.491743 -0.072813
v -0.128423 0.003395 0.034503
v -0.128423 0.475885 -0.144833
v -0.001485 0.869916 -0.385436
v -0.001485 0.503689 -0.304795
v -0.001485 0.950557 -0.019210
v -0.001485 0.584331 0.061432
v -0.001485 0.531291 -0.179444
v -0.001485 0.556729 -0.063919
v -0.001485 0.471178 -0.166207
v -0.001485 0.496616 -0.050683
v -0.001485 0.456599 -0.232414
v -0.001485 0.511194 0.015524
v -0.001485 -0.031703 -0.124892
v -0.001485 0.022892 0.123046
v -0.133305 0.163594 -0.252027
v -0.166357 0.119261 -0.203325
v -0.190518 0.183079 -0.273118
v -0.223582 0.138730 -0.224398
v -0.001485 0.003417 0.034603
v -0.128423 0.003395 0.034503
v -0.101001 0.022892 0.123046
v -0.101001 -0.031703 -0.124892
v -0.101001 0.005681 0.029036
v -0.128423 -0.012418 -0.037311
v -0.101001 -0.008962 -0.045587
v -0.001485 -0.012386 -0.037167
v -0.031109 -0.031703 -0.124892
v -0.031109 -0.010912 -0.040770
v -0.031109 0.022892 0.123046
v -0.031109 0.004919 0.030948
v -0.101001 -0.224207 -0.059795
v -0.101001 -0.239857 -0.131647
v -0.031109 -0.239840 -0.131568
v -0.031109 -0.224197 -0.059748
v -0.223139 0.249505 -0.123261
v -0.190075 0.293854 -0.171981
v -0.133754 0.274837 -0.150684
v -0.165914 0.230036 -0.102187
v -0.031109 -0.077633 -0.091672
v -0.101001 -0.077643 -0.091718
v -0.101001 -0.093662 -0.162680
v -0.031109 -0.093277 -0.163491
vt 0.628043 0.804403
vt 0.607621 0.804403
vt 0.610973 0.682523
vt 0.056758 0.121881
vt 0.036336 0.121881
vt 0.039689 0.000000
vt 0.607621 0.926284
vt 0.610973 0.804403
vt 0.624691 0.804403
vt 0.149853 0.610213
vt 0.146501 0.732094
vt 0.132783 0.732094
vt 0.172472 0.745830
vt 0.172472 0.732094
vt 0.186189 0.732094
vt 0.783423 0.870578
vt 0.763002 0.870578
vt 0.769697 0.834195
vt 0.948267 0.817994
vt 0.955337 0.227508
vt 0.961823 0.227508
vt 0.149955 0.590484
vt 0.186189 0.590487
vt 0.186189 0.610216
vt 0.129431 0.610213
vt 0.129329 0.590484
vt 0.056860 0.141610
vt 0.036235 0.141610
vt 0.628043 0.721981
vt 0.634529 0.721981
vt 0.634529 0.728476
vt 0.989518 0.817993
vt 0.968893 0.817993
vt 0.975962 0.227508
vt 0.136399 0.000000
vt 0.049790 0.732094
vt 0.043304 0.732094
vt 0.635073 0.702252
vt 0.628043 0.702252
vt 0.628043 0.682523
vt 0.000000 0.141607
vt 0.000000 0.121878
vt 0.742376 0.870476
vt 0.749173 0.834195
vt 0.756204 0.834195
vt 0.093095 0.610216
vt 0.635073 0.721981
vt 0.790119 0.834195
vt 0.797149 0.834195
vt 0.721750 0.834195
vt 0.742376 0.834195
vt 0.735579 0.870476
vt 0.093095 0.121878
vt 0.186189 0.227508
vt 0.186189 0.000000
vt 0.299796 0.000000
vt 0.640616 0.682523
vt 0.413403 0.682523
vt 0.413403 0.455015
vt 0.752502 0.154024
vt 0.789797 0.154024
vt 0.789797 0.189908
vt 0.413403 0.227508
vt 0.335633 0.305378
vt 0.263959 0.305378
vt 0.186189 0.341262
vt 0.298939 0.795418
vt 0.285209 0.836547
vt 0.227265 0.795418
vt 0.677912 0.154024
vt 0.677912 0.225791
vt 0.640616 0.225791
vt 0.717529 0.492015
vt 0.640616 0.492015
vt 0.640616 0.453179
vt 0.695441 0.795359
vt 0.640616 0.795359
vt 0.640616 0.756522
vt 0.695422 0.834195
vt 0.740105 0.795359
vt 0.794442 0.795359
vt 0.740105 0.756522
vt 0.871354 0.569687
vt 0.871354 0.608524
vt 0.794442 0.608524
vt 0.186189 0.836547
vt 0.186189 0.759535
vt 0.695488 0.077012
vt 0.695500 0.094985
vt 0.640616 0.094985
vt 0.699579 0.227508
vt 0.717529 0.453179
vt 0.695457 0.756522
vt 0.640616 0.530851
vt 0.640616 0.834195
vt 0.740105 0.834195
vt 0.871354 0.530851
vt 0.794442 0.569687
vt 0.717529 0.530851
vt 0.298939 0.759535
vt 0.340014 0.759535
vt 0.853405 0.834195
vt 0.715207 0.225791
vt 0.715207 0.189908
vt 0.752502 0.189908
vt 0.340014 0.773526
vt 0.384678 0.773526
vt 0.384678 0.864529
vt 0.640616 0.455015
vt 0.413403 0.341261
vt 0.335633 0.341261
vt 0.527010 0.227508
vt 0.527010 0.000000
vt 0.640616 0.000000
vt 0.836789 0.226727
vt 0.836789 0.182006
vt 0.875576 0.182022
vt 0.429325 0.773526
vt 0.384678 0.682523
vt 0.948267 0.908997
vt 0.987053 0.817994
vt 1.000000 0.091003
vt 1.000000 0.182006
vt 0.961214 0.182006
vt 0.640616 0.137388
vt 0.695529 0.137388
vt 0.695550 0.154024
vt 0.740104 0.154024
vt 0.794442 0.154024
vt 0.740086 0.137388
vt 0.695550 0.530851
vt 0.740105 0.530851
vt 0.794442 0.756522
vt 0.740015 0.077012
vt 0.740037 0.094985
vt 0.794442 0.077012
vt 0.794442 0.094985
vt 0.127043 0.823097
vt 0.127043 0.732094
vt 0.169391 0.732094
vt 0.794442 0.137388
vt 0.836789 0.226600
vt 0.794442 0.226649
vt 0.794442 0.182035
vt 0.127043 0.914101
vt 0.084696 0.914101
vt 0.563085 0.773526
vt 0.518529 0.773526
vt 0.518529 0.682523
vt 0.607621 0.773526
vt 0.563085 0.682523
vt 1.000000 0.000000
vt 0.961214 0.091003
vt 0.987053 1.000000
vt 0.948267 1.000000
vt 0.429325 0.864529
vt 0.563085 0.864529
vt 0.518529 0.864529
vt 0.084696 0.823098
vt 0.169391 0.914101
vt 0.413403 0.000000
vt 0.186189 0.682523
vt 0.789797 0.225791
vt 0.263959 0.377145
vt 0.335633 0.377145
vt 0.263959 0.341261
vt 0.240526 0.682523
vt 0.285209 0.682523
vt 0.227265 0.723652
vt 0.715207 0.154024
vt 0.794442 0.453179
vt 0.893442 0.492015
vt 0.893426 0.453179
vt 0.948267 0.453179
vt 0.848779 0.492015
vt 0.893461 0.530851
vt 0.794442 0.492015
vt 0.848779 0.453179
vt 0.948267 0.608524
vt 0.640616 0.059039
vt 0.695500 0.059039
vt 0.777826 0.227508
vt 0.794442 0.227508
vt 0.893333 0.227508
vt 0.948267 0.227508
vt 0.948267 0.492015
vt 0.848779 0.530851
vt 0.948267 0.569687
vt 0.298939 0.723652
vt 0.340014 0.682523
vt 0.931652 0.834195
vt 0.889304 0.834195
vt 0.794442 0.000000
vt 0.839105 0.000000
vt 0.839105 0.091003
vt 0.640616 0.341261
vt 0.682964 0.834195
vt 0.721750 0.878900
vt 0.473973 0.773526
vt 0.473973 0.864529
vt 0.922427 0.182006
vt 0.883641 0.182006
vt 0.883641 0.091003
vt 0.922427 0.000000
vt 0.961214 0.000000
vt 0.640616 0.016637
vt 0.695550 0.000000
vt 0.695529 0.016637
vt 0.740104 0.000000
vt 0.740086 0.016637
vt 0.848779 0.227508
vt 0.740037 0.059039
vt 0.000000 0.732094
vt 0.042348 0.732094
vt 0.042348 0.823097
vt 0.794442 0.059039
vt 0.682964 0.878837
vt 0.640616 0.878808
vt 0.042348 0.914101
vt 0.473973 0.682523
vt 0.883641 0.000000
vt 0.922428 0.091003
vt 0.429325 0.682523
vt 0.794442 0.091003
vt 0.839105 0.182006
vt 0.000000 0.914101
vt 0.000000 0.823097
vt 0.624691 0.682523
vt 0.053406 0.000000
vt 0.628043 0.926284
vt 0.186189 0.745830
vt 0.776728 0.834195
vt 0.628043 0.728476
vt 0.982448 0.227508
vt 0.142885 0.000000
vt 0.635073 0.682523
vt 0.763002 0.870476
vt 0.093095 0.590487
vt 0.803845 0.870578
vt 0.728548 0.870476
vt 0.093095 0.141607
vt 0.299796 0.227508
vt 0.240526 0.836547
vt 0.340014 0.836547
vt 0.640616 0.154024
vt 0.227265 0.759535
vt 0.640616 0.077012
vt 0.717529 0.227508
vt 0.640616 0.227508
vt 0.657232 0.227508
vt 0.794442 0.834195
vt 0.794442 0.530851
vt 0.811057 0.834195
vt 0.871354 0.834195
vt 0.752502 0.225791
vt 0.340014 0.864529
vt 0.875576 0.226727
vt 0.987053 0.908997
vt 0.169391 0.823098
vt 0.607621 0.682523
vt 0.607621 0.864529
vt 0.084696 0.732094
vt 0.186189 0.455015
vt 0.735479 0.227508
vt 0.948267 0.530851
vt 0.948267 0.834195
vt 0.682964 0.878916
vt 0.794442 0.016637
vn 0.692300 0.493800 0.526200
vn -0.685400 0.213500 0.696100
vn -0.468600 -0.646500 -0.602100
vn 0.841300 -0.212700 -0.496900
vn -0.069000 -0.944100 0.322400
vn 0.101800 -0.802600 0.587700
vn -0.695300 -0.470900 -0.543000
vn 0.828400 -0.258700 -0.496800
vn 0.713200 -0.357500 -0.603000
vn -0.712100 0.349200 0.609000
vn -0.101800 0.802600 -0.587700
vn 0.692800 0.490100 0.528900
vn 0.711400 -0.343700 -0.613000
vn -0.713800 0.363000 0.598900
vn -0.694100 -0.480500 -0.536000
vn -0.828400 0.258700 0.496800
vn 0.575700 -0.439400 -0.689600
vn 0.694100 0.480500 0.536000
vn -0.574500 0.429800 0.696600
vn 0.000000 -0.215000 -0.976600
vn 1.000000 -0.000000 0.000000
vn 0.000000 -0.976600 0.215000
vn -0.000000 0.976600 -0.215000
vn 1.000000 0.000100 0.000600
vn 1.000000 0.002200 0.005700
vn 0.999900 -0.009700 -0.003600
vn -0.000000 0.215000 0.976600
vn -0.001500 -0.976500 0.215500
vn 1.000000 0.006400 -0.007100
vn 0.996700 0.075400 -0.030700
vn 0.081400 -0.929800 0.359000
vn -0.997100 -0.074100 0.015900
vn -0.001500 -0.360300 -0.932800
vn 0.001100 0.360300 0.932900
vn 0.002000 -0.976500 0.215600
vn 0.002000 -0.976600 0.215000
vn 0.063000 -0.974700 0.214600
vn 1.000000 0.000300 0.000600
vn -0.026900 -0.973900 0.225200
vn -0.000000 -0.978600 0.206000
vn 0.000700 0.663800 0.747900
vn -0.000100 -0.976500 0.215600
vn 0.000000 -0.980700 0.195400
vn -0.000000 -0.747900 0.663800
vn -0.001200 -0.663800 -0.747900
vn -1.000000 0.000000 0.000000
vn -0.048000 0.846400 0.530400
vn 0.867100 -0.108900 -0.486000
vn -0.988300 0.149300 -0.031900
vn 0.954400 0.278100 -0.108900
vn -0.001100 -0.221500 -0.975200
vn 0.005300 0.142500 0.989800
vn -1.000000 -0.007200 0.001600
vn -1.000000 0.008400 0.004400
vn -0.073200 -0.978900 0.191000
vn -1.000000 0.008200 0.003500
vn -0.999900 0.011600 -0.012800
vn -0.893800 0.304400 -0.329500
vn -0.003000 -0.738500 -0.674200
vn 0.893800 -0.304400 0.329500
vn 0.448500 0.601600 -0.660900
vn -0.448200 -0.601800 0.661100
vn 0.123300 -0.969100 0.213400
vn 0.184700 -0.959800 0.211300
vn -0.075800 -0.973800 0.214400
vn -0.074500 -0.973900 0.214400
vn -0.000700 0.212800 0.977100
vn -0.015700 -0.983500 0.180100
vn -0.043600 -0.969900 0.239700
vn -0.000000 -0.977100 0.212800
vn 0.001200 -0.207600 -0.978200
vn -0.408900 -0.252600 0.876900
vn 0.430500 0.337500 -0.837100
vn 0.895400 -0.230200 0.381200
vn -0.857900 0.497200 -0.129600
vn -0.011300 0.810200 -0.586100
vn -0.000300 -0.823100 0.567900
vn 0.443100 0.584200 0.680000
vn -0.855400 0.085200 0.511000
vn -0.677100 -0.572600 -0.462300
vn 0.707200 -0.315700 -0.632700
vn -0.014000 -0.945000 0.326800
vn 0.827200 -0.265300 -0.495300
vn 0.692800 0.490100 0.529000
vn -0.826000 0.255600 0.502400
vn 0.572500 -0.435900 -0.694500
vn -0.572500 0.435900 0.694500
vn 1.000000 -0.000900 0.000200
vn 1.000000 0.007600 -0.001700
vn 1.000000 0.000900 -0.000200
vn -0.996700 -0.075400 0.030700
vn 0.005000 -0.362300 -0.932000
vn 0.060200 -0.969800 0.236400
vn 1.000000 -0.000000 -0.000800
vn -0.001600 -0.976600 0.215000
vn -0.027500 -0.976200 0.215000
vn 0.000000 -0.976500 0.215500
vn -0.013400 -0.978500 0.206000
vn -0.001500 -0.663700 -0.748000
vn -0.866000 0.107300 0.488300
vn 0.044300 -0.813400 -0.580000
vn -0.988300 0.138200 -0.064000
vn 0.954400 0.292800 -0.058900
vn -0.027100 -0.210800 -0.977200
vn 0.000600 0.145000 0.989400
vn -1.000000 0.001100 0.005100
vn -0.999900 0.013900 -0.003100
vn -0.999800 -0.016100 -0.006800
vn 0.899000 -0.292900 0.325500
vn 0.452100 0.601700 -0.658500
vn 0.117100 -0.976900 0.178800
vn 0.178800 -0.965500 0.189500
vn 0.000000 -0.961300 0.275600
vn -0.074600 -0.973800 0.214900
vn -0.000000 -0.970800 0.239900
vn 0.000000 -0.981500 0.191500
vn -0.010200 -0.212800 -0.977000
vn -0.727200 0.141000 0.671800
vn 0.722300 -0.129500 -0.679400
vn 0.955400 -0.288500 0.063500
vn -0.872300 0.478700 -0.099600
vn 0.061500 0.828800 -0.556200
vn -0.024300 -0.829300 0.558300
usemtl Material.001
s off
f 2/1/1 4/2/1 3/3/1
f 4/4/2 8/5/2 7/6/2
f 6/7/3 5/8/3 7/9/3
f 2/10/4 1/11/4 5/12/4
f 3/13/5 7/14/5 5/15/5
f 6/16/6 8/17/6 18/18/6
f 12/19/7 16/20/7 15/21/7
f 9/22/8 23/23/8 21/24/8
f 2/10/9 6/25/9 11/26/9
f 4/4/10 10/27/10 12/28/10
f 16/29/11 14/30/11 13/31/11
f 10/32/12 9/33/12 13/34/12
f 9/22/13 11/26/13 15/35/13
f 10/27/14 14/36/14 16/37/14
f 17/38/15 18/39/15 20/40/15
f 12/28/16 20/41/16 18/42/16
f 11/43/11 19/44/11 20/45/11
f 11/26/17 6/25/17 17/46/17
f 22/47/18 21/29/18 23/39/18
f 2/16/6 21/48/6 22/49/6
f 9/50/11 10/51/11 24/52/11
f 10/27/19 4/4/19 22/53/19
f 30/54/20 29/55/20 102/56/20
f 30/57/21 28/58/21 27/59/21
f 34/60/20 36/61/20 107/62/20
f 27/63/22 33/64/22 34/65/22
f 102/66/22 29/54/22 34/65/22
f 35/67/23 45/68/23 36/69/23
f 34/70/21 33/71/21 35/72/21
f 87/73/20 41/74/20 31/75/20
f 38/76/24 42/77/24 32/78/24
f 45/79/25 38/76/25 37/80/25
f 41/81/26 37/80/26 25/82/26
f 86/83/27 74/84/27 32/85/27
f 36/69/23 40/86/23 109/87/23
f 117/88/28 61/89/28 60/90/28
f 31/75/20 58/91/20 75/92/20
f 26/93/21 32/78/21 43/94/21
f 39/95/24 42/77/24 38/76/24
f 47/96/29 37/80/29 41/81/29
f 110/97/27 86/83/27 42/98/27
f 109/99/20 40/94/20 41/74/20
f 35/67/23 108/100/23 110/101/23
f 74/84/27 60/102/27 32/85/27
f 33/103/27 106/104/27 108/105/27
f 67/106/30 66/107/30 51/108/30
f 28/109/23 30/59/23 101/110/23
f 104/110/22 106/111/22 33/64/22
f 103/112/27 104/113/27 27/114/27
f 50/115/31 51/116/31 49/117/31
f 69/118/32 68/107/32 48/119/32
f 67/120/33 50/19/33 48/121/33
f 69/122/34 49/123/34 51/124/34
f 53/125/35 55/126/35 46/127/35
f 56/128/36 52/127/36 55/126/36
f 44/129/37 56/128/37 57/130/37
f 26/93/21 52/131/21 56/132/21
f 31/133/38 25/82/38 56/132/38
f 124/134/39 59/135/39 61/89/39
f 111/136/40 58/137/40 59/135/40
f 70/138/41 65/139/41 62/140/41
f 61/89/42 55/126/42 53/125/42
f 58/137/43 54/141/43 57/130/43
f 64/142/44 63/143/44 62/144/44
f 72/138/45 63/145/45 64/146/45
f 72/147/21 71/148/21 62/149/21
f 70/150/46 73/147/46 64/151/46
f 26/152/47 69/122/47 66/153/47
f 25/154/48 37/155/48 67/120/48
f 26/156/49 25/108/49 68/107/49
f 38/119/50 66/107/50 67/106/50
f 59/157/46 73/147/46 70/150/46
f 57/157/21 55/158/21 71/148/21
f 57/139/51 72/138/51 73/159/51
f 55/160/52 61/145/52 70/138/52
f 102/56/20 80/161/20 81/63/20
f 81/59/46 80/58/46 78/162/46
f 105/105/20 107/62/20 89/163/20
f 85/164/22 84/165/22 78/59/22
f 102/66/22 105/166/22 85/164/22
f 100/167/23 98/168/23 89/169/23
f 89/170/46 88/103/46 84/71/46
f 87/73/20 75/92/20 82/171/20
f 91/172/53 77/173/53 83/174/53
f 90/175/54 91/172/54 98/176/54
f 94/177/46 82/171/46 76/178/46
f 83/179/27 74/84/27 86/83/27
f 109/87/23 93/162/23 89/169/23
f 127/180/55 128/181/55 117/88/55
f 120/182/20 97/183/20 82/171/20
f 77/173/46 99/184/46 96/185/46
f 98/176/56 91/172/56 95/186/56
f 94/177/57 90/175/57 100/187/57
f 95/188/27 86/83/27 110/97/27
f 109/99/20 87/73/20 94/177/20
f 88/189/23 92/190/23 110/101/23
f 119/191/27 127/192/27 83/179/27
f 84/170/27 88/60/27 108/105/27
f 115/193/58 116/194/58 133/195/58
f 103/196/23 101/110/23 81/63/23
f 84/165/22 106/111/22 104/110/22
f 79/63/27 78/161/27 104/113/27
f 115/197/59 113/50/59 114/198/59
f 136/199/60 114/200/60 113/156/60
f 113/201/61 115/202/61 134/203/61
f 116/204/62 114/205/62 136/153/62
f 119/206/22 96/114/22 99/207/22
f 121/208/63 118/207/63 122/209/63
f 123/210/64 122/209/64 97/193/64
f 76/178/46 122/211/46 118/184/46
f 122/211/46 76/178/46 82/171/46
f 124/134/65 117/88/65 128/181/65
f 111/136/66 124/134/66 126/212/66
f 129/213/67 132/214/67 137/215/67
f 119/206/68 121/208/68 128/181/68
f 125/216/69 126/212/69 123/210/69
f 131/197/70 132/217/70 129/218/70
f 131/146/71 130/219/71 139/215/71
f 139/199/46 130/220/46 129/149/46
f 132/194/21 131/221/21 140/203/21
f 133/222/72 136/153/72 77/124/72
f 76/204/73 135/222/73 134/203/73
f 136/199/74 135/118/74 76/223/74
f 134/224/75 133/195/75 91/225/75
f 137/195/21 140/203/21 126/202/21
f 123/200/46 139/199/46 138/148/46
f 140/159/76 139/215/76 123/214/76
f 121/226/77 138/227/77 137/215/77
f 1/228/78 2/1/78 3/3/78
f 3/229/79 4/4/79 7/6/79
f 8/230/80 6/7/80 7/9/80
f 6/25/81 2/10/81 5/12/81
f 1/231/82 3/13/82 5/15/82
f 17/232/6 6/16/6 18/18/6
f 11/33/7 12/19/7 15/21/7
f 2/10/83 9/22/83 21/24/83
f 9/22/9 2/10/9 11/26/9
f 8/5/10 4/4/10 12/28/10
f 15/233/11 16/29/11 13/31/11
f 14/234/84 10/32/84 13/34/84
f 13/235/13 9/22/13 15/35/13
f 12/28/14 10/27/14 16/37/14
f 19/236/15 17/38/15 20/40/15
f 8/5/85 12/28/85 18/42/85
f 12/237/11 11/43/11 20/45/11
f 19/238/86 11/26/86 17/46/86
f 24/38/18 22/47/18 23/39/18
f 4/239/6 2/16/6 22/49/6
f 23/240/11 9/50/11 24/52/11
f 24/241/87 10/27/87 22/53/87
f 101/242/20 30/54/20 102/56/20
f 29/109/21 30/57/21 27/59/21
f 105/105/20 34/60/20 107/62/20
f 29/54/22 27/63/22 34/65/22
f 105/166/22 102/66/22 34/65/22
f 40/86/23 36/69/23 47/243/23
f 35/67/23 39/244/23 45/68/23
f 45/68/23 47/243/23 36/69/23
f 36/245/21 34/70/21 35/72/21
f 75/92/20 87/73/20 31/75/20
f 26/93/88 38/76/88 32/78/88
f 47/96/89 45/79/89 37/80/89
f 31/133/24 41/81/24 25/82/24
f 42/98/27 86/83/27 32/85/27
f 107/246/23 36/69/23 109/87/23
f 112/247/22 117/88/22 60/90/22
f 111/248/20 75/92/20 58/91/20
f 31/75/20 44/249/20 54/250/20
f 54/250/20 58/91/20 31/75/20
f 46/131/21 26/93/21 43/94/21
f 45/79/90 39/95/90 38/76/90
f 40/251/21 47/96/21 41/81/21
f 39/252/27 110/97/27 42/98/27
f 87/73/20 109/99/20 41/74/20
f 39/244/23 35/67/23 110/101/23
f 43/251/27 32/85/27 53/253/27
f 74/84/27 112/254/27 60/102/27
f 53/253/27 32/85/27 60/102/27
f 35/255/27 33/103/27 108/105/27
f 50/256/30 67/106/30 51/108/30
f 103/196/23 28/109/23 101/110/23
f 27/63/22 104/110/22 33/64/22
f 28/249/27 103/112/27 27/114/27
f 48/257/31 50/115/31 49/117/31
f 49/223/91 69/118/91 48/119/91
f 68/258/92 67/120/92 48/121/92
f 66/153/34 69/122/34 51/124/34
f 43/245/22 53/125/22 46/127/22
f 57/130/93 56/128/93 55/126/93
f 54/141/43 44/129/43 57/130/43
f 25/82/94 26/93/94 56/132/94
f 44/252/21 31/133/21 56/132/21
f 117/88/95 124/134/95 61/89/95
f 124/134/96 111/136/96 59/135/96
f 71/259/41 70/138/41 62/140/41
f 60/90/97 61/89/97 53/125/97
f 59/135/98 58/137/98 57/130/98
f 65/116/44 64/142/44 62/144/44
f 73/159/99 72/138/99 64/146/99
f 63/151/21 72/147/21 62/149/21
f 65/260/46 70/150/46 64/151/46
f 38/205/100 26/152/100 66/153/100
f 68/258/101 25/154/101 67/120/101
f 69/118/102 26/156/102 68/107/102
f 37/190/103 38/119/103 67/106/103
f 61/261/46 59/157/46 70/150/46
f 72/147/21 57/157/21 71/148/21
f 59/262/104 57/139/104 73/159/104
f 71/259/105 55/160/105 70/138/105
f 101/242/20 102/56/20 81/63/20
f 79/263/46 81/59/46 78/162/46
f 85/255/20 105/105/20 89/163/20
f 80/263/22 85/164/22 78/59/22
f 80/263/22 102/66/22 85/164/22
f 88/189/23 89/169/23 98/168/23
f 93/162/23 100/167/23 89/169/23
f 98/168/23 92/190/23 88/189/23
f 85/70/46 89/170/46 84/71/46
f 94/177/20 87/73/20 82/171/20
f 95/186/106 91/172/106 83/174/106
f 100/187/107 90/175/107 98/176/107
f 90/175/108 94/177/108 76/178/108
f 95/188/27 83/179/27 86/83/27
f 107/246/23 109/87/23 89/169/23
f 112/247/22 127/180/22 117/88/22
f 82/171/20 75/92/20 125/264/20
f 125/264/20 120/182/20 82/171/20
f 75/92/20 111/248/20 125/264/20
f 83/174/46 77/173/46 96/185/46
f 92/265/46 98/176/46 95/186/46
f 93/252/46 94/177/46 100/187/46
f 92/265/27 95/188/27 110/97/27
f 93/252/20 109/99/20 94/177/20
f 108/100/23 88/189/23 110/101/23
f 74/84/27 83/179/27 127/192/27
f 96/266/27 119/191/27 83/179/27
f 127/192/27 112/254/27 74/84/27
f 106/104/27 84/170/27 108/105/27
f 134/224/58 115/193/58 133/195/58
f 79/249/23 103/196/23 81/63/23
f 78/59/22 84/165/22 104/110/22
f 103/112/27 79/63/27 104/113/27
f 116/267/59 115/197/59 114/198/59
f 135/118/109 136/199/109 113/156/109
f 135/222/110 113/201/110 134/203/110
f 133/222/62 116/204/62 136/153/62
f 121/208/111 119/206/111 99/207/111
f 123/210/112 121/208/112 122/209/112
f 120/268/113 123/210/113 97/193/113
f 77/173/46 76/178/46 118/184/46
f 97/183/46 122/211/46 82/171/46
f 126/212/114 124/134/114 128/181/114
f 125/216/115 111/136/115 126/212/115
f 138/227/67 129/213/67 137/215/67
f 127/180/116 119/206/116 128/181/116
f 120/268/113 125/216/113 123/210/113
f 130/95/70 131/197/70 129/218/70
f 140/159/117 131/146/117 139/215/117
f 138/148/46 139/199/46 129/149/46
f 137/195/21 132/194/21 140/203/21
f 91/201/118 133/222/118 77/124/118
f 90/221/119 76/204/119 134/203/119
f 77/220/120 136/199/120 76/223/120
f 90/144/121 134/224/121 91/225/121
f 128/225/21 137/195/21 126/202/21
f 121/158/46 123/200/46 138/148/46
f 126/262/122 140/159/122 123/214/122
f 128/219/123 121/226/123 137/215/123
