# Blender v2.76 (sub 0) OBJ File: 'aSw_Run.blend'
# www.blender.org
mtllib run_000001.mtl
o Plane.001_Plane.000
v -0.109688 0.152797 0.182396
v -0.200571 0.125847 0.056118
v -0.110370 0.161112 0.176745
v -0.199419 0.158533 0.047978
v -0.129372 0.154484 0.186058
v -0.230319 0.130655 0.071215
v -0.130046 0.162693 0.180138
v -0.229167 0.163342 0.063075
v -0.215674 0.119226 0.028090
v -0.214511 0.152238 0.019868
v -0.245719 0.124082 0.043337
v -0.244556 0.157095 0.035116
v -0.681892 -0.060371 -0.807354
v -0.681526 -0.049989 -0.809940
v -0.691340 -0.058844 -0.802559
v -0.690974 -0.048462 -0.805144
v -0.282873 0.149927 0.095408
v -0.282476 0.161180 0.092605
v -0.298119 0.143493 0.067414
v -0.297722 0.154746 0.064611
v -0.147261 0.128008 0.026588
v -0.146865 0.139261 0.023785
v -0.162507 0.121574 -0.001406
v -0.162111 0.132827 -0.004209
v 0.125541 0.350726 -0.116904
v 0.125454 0.366699 -0.045338
v 0.186015 0.584331 0.061432
v 0.186015 0.950557 -0.019210
v 0.186015 0.503689 -0.304795
v 0.186015 0.869916 -0.385436
v 0.125454 0.331568 -0.204883
v 0.125454 0.386162 0.043056
v 0.057662 0.556729 -0.063919
v 0.057662 0.531291 -0.179444
v 0.057662 0.496616 -0.050683
v 0.057662 0.471178 -0.166207
v 0.125557 0.412278 -0.128485
v 0.125567 0.429114 -0.058938
v 0.125454 0.511194 0.015524
v 0.125454 0.456600 -0.232414
v 0.125454 0.394084 -0.218648
v 0.125454 0.448679 0.029290
v 0.125454 0.022892 0.123046
v 0.125454 -0.031703 -0.124892
v 0.125454 0.491743 -0.072813
v 0.125454 0.003395 0.034503
v 0.125454 0.475885 -0.144833
v 0.128620 0.124855 -0.169199
v 0.189116 0.154920 -0.198630
v 0.093067 0.171772 -0.194350
v 0.153585 0.201848 -0.223791
v 0.125454 0.003395 0.034503
v 0.098032 0.022892 0.123046
v 0.098032 -0.031703 -0.124892
v 0.098032 0.004297 0.030959
v 0.125454 -0.012418 -0.037311
v 0.098032 -0.010972 -0.043629
v 0.028140 -0.031703 -0.124892
v 0.028140 -0.011715 -0.040194
v 0.028140 0.022892 0.123046
v 0.028140 0.004173 0.031542
v 0.098032 -0.250986 -0.027015
v 0.098032 -0.270293 -0.097972
v 0.028140 -0.270272 -0.097894
v 0.028140 -0.250974 -0.026969
v 0.173449 0.283506 -0.099544
v 0.112931 0.253430 -0.070102
v 0.149211 0.207340 -0.045366
v 0.208980 0.236578 -0.074382
v 0.028140 -0.106236 -0.066351
v 0.098032 -0.106248 -0.066398
v 0.098032 -0.125555 -0.137355
v 0.028140 -0.125606 -0.136992
v -0.001485 0.386162 0.043056
v -0.001485 0.331568 -0.204883
v -0.128423 0.350853 -0.117301
v -0.128423 0.366699 -0.045338
v -0.188985 0.584331 0.061432
v -0.188985 0.950557 -0.019210
v -0.188985 0.503689 -0.304795
v -0.188985 0.869916 -0.385436
v -0.128423 0.331568 -0.204883
v -0.128423 0.386162 0.043056
v -0.060631 0.556729 -0.063919
v -0.060631 0.531291 -0.179444
v -0.001485 0.448679 0.029290
v -0.001485 0.394084 -0.218648
v -0.060631 0.496616 -0.050683
v -0.060631 0.471178 -0.166207
v -0.129278 0.414074 -0.129547
v -0.128402 0.429406 -0.058729
v -0.128423 0.511194 0.015524
v -0.128423 0.456599 -0.232414
v -0.128423 0.394084 -0.218648
v -0.128423 0.448679 0.029290
v -0.128423 0.022892 0.123046
v -0.128423 -0.031703 -0.124892
v -0.128423 0.491743 -0.072813
v -0.128423 0.003395 0.034503
v -0.128423 0.475885 -0.144833
v -0.001485 0.869916 -0.385436
v -0.001485 0.503689 -0.304795
v -0.001485 0.950557 -0.019210
v -0.001485 0.584331 0.061432
v -0.001485 0.531291 -0.179444
v -0.001485 0.556729 -0.063919
v -0.001485 0.471178 -0.166207
v -0.001485 0.496616 -0.050683
v -0.001485 0.456599 -0.232414
v -0.001485 0.511194 0.015524
v -0.001485 -0.031703 -0.124892
v -0.001485 0.022892 0.123046
v -0.217184 0.169114 0.060861
v -0.155643 0.174859 0.100980
v -0.249636 0.200675 0.106122
v -0.188073 0.206421 0.146256
v -0.001485 0.003417 0.034603
v -0.128423 0.003395 0.034503
v -0.101001 0.022892 0.123046
v -0.101001 -0.031703 -0.124892
v -0.101001 -0.003150 0.029607
v -0.128423 -0.012418 -0.037311
v -0.101001 -0.024913 -0.039197
v -0.001485 -0.012386 -0.037167
v -0.031109 -0.031703 -0.124892
v -0.031109 -0.017763 -0.038027
v -0.031109 0.022892 0.123046
v -0.031109 -0.000916 0.031324
v -0.101001 -0.048629 0.159969
v -0.101001 -0.114125 0.193405
v -0.031109 -0.114053 0.193368
v -0.031109 -0.048586 0.159948
v -0.156077 0.336399 0.078564
v -0.217640 0.330652 0.038430
v -0.185758 0.299408 -0.007507
v -0.123646 0.304836 0.033289
v -0.031109 -0.116788 0.026349
v -0.101001 -0.116830 0.026371
v -0.101001 -0.182195 0.059442
v -0.031109 -0.182254 0.059770
vt 0.628043 0.804403
vt 0.607621 0.804403
vt 0.610973 0.682523
vt 0.056758 0.121881
vt 0.036336 0.121881
vt 0.039689 0.000000
vt 0.607621 0.926284
vt 0.610973 0.804403
vt 0.624691 0.804403
vt 0.149853 0.610213
vt 0.146501 0.732094
vt 0.132783 0.732094
vt 0.172472 0.745830
vt 0.172472 0.732094
vt 0.186189 0.732094
vt 0.763002 0.870578
vt 0.769697 0.834195
vt 0.776728 0.834195
vt 0.968893 0.817994
vt 0.948267 0.817994
vt 0.955337 0.227508
vt 0.149955 0.590484
vt 0.186189 0.590487
vt 0.186189 0.610216
vt 0.129431 0.610213
vt 0.129329 0.590484
vt 0.056860 0.141610
vt 0.628043 0.721981
vt 0.634529 0.721981
vt 0.634529 0.728476
vt 0.989518 0.817993
vt 0.975962 0.227508
vt 0.136399 0.000000
vt 0.049790 0.732094
vt 0.043304 0.732094
vt 0.635073 0.702252
vt 0.628043 0.702252
vt 0.628043 0.682523
vt 0.036235 0.141610
vt 0.000000 0.141607
vt 0.000000 0.121878
vt 0.763002 0.870476
vt 0.742376 0.870476
vt 0.749173 0.834195
vt 0.093095 0.610216
vt 0.783423 0.870578
vt 0.790119 0.834195
vt 0.797149 0.834195
vt 0.721750 0.834195
vt 0.742376 0.834195
vt 0.735579 0.870476
vt 0.093095 0.121878
vt 0.186189 0.227508
vt 0.186189 0.000000
vt 0.299796 0.000000
vt 0.640616 0.682523
vt 0.413403 0.682523
vt 0.413403 0.455015
vt 0.752502 0.154024
vt 0.789797 0.154024
vt 0.789797 0.189908
vt 0.413403 0.227508
vt 0.335633 0.305378
vt 0.263959 0.305378
vt 0.186189 0.341262
vt 0.298939 0.795418
vt 0.285209 0.836547
vt 0.227265 0.795418
vt 0.677912 0.154024
vt 0.677912 0.225791
vt 0.640616 0.225791
vt 0.717529 0.492015
vt 0.640616 0.492015
vt 0.640616 0.453179
vt 0.695441 0.795359
vt 0.640616 0.795359
vt 0.640616 0.756522
vt 0.695422 0.834195
vt 0.740105 0.795359
vt 0.794442 0.795359
vt 0.740105 0.756522
vt 0.871354 0.569687
vt 0.871354 0.608524
vt 0.794442 0.608524
vt 0.186189 0.836547
vt 0.186189 0.759535
vt 0.695488 0.077012
vt 0.695500 0.094985
vt 0.640616 0.094985
vt 0.699579 0.227508
vt 0.717529 0.453179
vt 0.695457 0.756522
vt 0.640616 0.530851
vt 0.640616 0.834195
vt 0.740105 0.834195
vt 0.871354 0.530851
vt 0.794442 0.569687
vt 0.717529 0.530851
vt 0.298939 0.759535
vt 0.340014 0.759535
vt 0.853405 0.834195
vt 0.715207 0.225791
vt 0.715207 0.189908
vt 0.752502 0.189908
vt 0.340014 0.773526
vt 0.384678 0.773526
vt 0.384678 0.864529
vt 0.640616 0.455015
vt 0.413403 0.341261
vt 0.335633 0.341261
vt 0.527010 0.227508
vt 0.527010 0.000000
vt 0.640616 0.000000
vt 0.836789 0.226727
vt 0.836789 0.182006
vt 0.875576 0.182022
vt 0.384678 0.682523
vt 0.429325 0.682523
vt 0.948267 0.908997
vt 0.987053 0.817994
vt 1.000000 0.091003
vt 1.000000 0.182006
vt 0.961214 0.182006
vt 0.640616 0.137388
vt 0.695529 0.137388
vt 0.695550 0.154024
vt 0.740104 0.154024
vt 0.794442 0.154024
vt 0.740086 0.137388
vt 0.695550 0.530851
vt 0.740105 0.530851
vt 0.794442 0.530851
vt 0.794442 0.756522
vt 0.740015 0.077012
vt 0.740037 0.094985
vt 0.794442 0.077012
vt 0.794442 0.094985
vt 0.127043 0.823097
vt 0.127043 0.732094
vt 0.169391 0.732094
vt 0.794442 0.137388
vt 0.836789 0.226600
vt 0.794442 0.226649
vt 0.794442 0.182035
vt 0.084696 0.823098
vt 0.127043 0.914101
vt 0.563085 0.773526
vt 0.518529 0.773526
vt 0.518529 0.682523
vt 0.563085 0.682523
vt 0.607621 0.682523
vt 1.000000 0.000000
vt 0.961214 0.091003
vt 0.987053 1.000000
vt 0.948267 1.000000
vt 0.429325 0.864529
vt 0.340014 0.682523
vt 0.563085 0.864529
vt 0.607621 0.773526
vt 0.518529 0.864529
vt 0.169391 0.914101
vt 0.413403 0.000000
vt 0.186189 0.682523
vt 0.789797 0.225791
vt 0.263959 0.377145
vt 0.335633 0.377145
vt 0.263959 0.341261
vt 0.240526 0.682523
vt 0.285209 0.682523
vt 0.227265 0.723652
vt 0.715207 0.154024
vt 0.794442 0.453179
vt 0.893442 0.492015
vt 0.893426 0.453179
vt 0.948267 0.453179
vt 0.848779 0.492015
vt 0.893461 0.530851
vt 0.794442 0.492015
vt 0.848779 0.453179
vt 0.948267 0.608524
vt 0.640616 0.059039
vt 0.695500 0.059039
vt 0.777826 0.227508
vt 0.794442 0.227508
vt 0.893333 0.227508
vt 0.948267 0.227508
vt 0.948267 0.492015
vt 0.948267 0.530851
vt 0.848779 0.530851
vt 0.948267 0.569687
vt 0.298939 0.723652
vt 0.931652 0.834195
vt 0.889304 0.834195
vt 0.794442 0.091003
vt 0.794442 0.000000
vt 0.839105 0.000000
vt 0.640616 0.341261
vt 0.682964 0.834195
vt 0.721750 0.878900
vt 0.473973 0.773526
vt 0.473973 0.864529
vt 0.922427 0.182006
vt 0.883641 0.182006
vt 0.883641 0.091003
vt 0.922427 0.000000
vt 0.961214 0.000000
vt 0.640616 0.016637
vt 0.695550 0.000000
vt 0.695529 0.016637
vt 0.740104 0.000000
vt 0.740086 0.016637
vt 0.848779 0.227508
vt 0.740037 0.059039
vt 0.000000 0.823097
vt 0.000000 0.732094
vt 0.042348 0.732094
vt 0.794442 0.059039
vt 0.682964 0.878837
vt 0.640616 0.878808
vt 0.084696 0.914101
vt 0.042348 0.914101
vt 0.473973 0.682523
vt 0.883641 0.000000
vt 0.922428 0.091003
vt 0.429325 0.773526
vt 0.839105 0.091003
vt 0.839105 0.182006
vt 0.042348 0.823097
vt 0.000000 0.914101
vt 0.624691 0.682523
vt 0.053406 0.000000
vt 0.628043 0.926284
vt 0.186189 0.745830
vt 0.961823 0.227508
vt 0.628043 0.728476
vt 0.982448 0.227508
vt 0.142885 0.000000
vt 0.635073 0.682523
vt 0.756204 0.834195
vt 0.093095 0.590487
vt 0.635073 0.721981
vt 0.803845 0.870578
vt 0.728548 0.870476
vt 0.093095 0.141607
vt 0.299796 0.227508
vt 0.240526 0.836547
vt 0.340014 0.836547
vt 0.640616 0.154024
vt 0.227265 0.759535
vt 0.640616 0.077012
vt 0.717529 0.227508
vt 0.640616 0.227508
vt 0.657232 0.227508
vt 0.794442 0.834195
vt 0.811057 0.834195
vt 0.871354 0.834195
vt 0.752502 0.225791
vt 0.340014 0.864529
vt 0.875576 0.226727
vt 0.987053 0.908997
vt 0.169391 0.823098
vt 0.607621 0.864529
vt 0.084696 0.732094
vt 0.186189 0.455015
vt 0.735479 0.227508
vt 0.948267 0.834195
vt 0.682964 0.878916
vt 0.794442 0.016637
vn 0.812400 -0.167700 -0.558500
vn 0.113800 0.989300 -0.090900
vn -0.737600 0.354100 0.574900
vn -0.039400 -0.971100 0.235600
vn 0.183200 0.584900 0.790100
vn 0.468800 0.197900 0.860800
vn -0.888200 0.140300 0.437600
vn 0.129100 -0.979500 0.154800
vn -0.031800 -0.968800 0.246000
vn 0.036600 0.970800 -0.237100
vn -0.468900 -0.197900 -0.860800
vn 0.876900 -0.145000 -0.458200
vn -0.039800 -0.972100 0.231200
vn 0.028600 0.967400 -0.251800
vn -0.882600 0.142700 0.447900
vn -0.129100 0.979500 -0.154800
vn -0.468800 -0.197900 -0.860800
vn -0.190700 -0.926700 0.323900
vn 0.882600 -0.142700 -0.447900
vn 0.196400 0.929100 -0.313500
vn 0.000000 -0.215000 -0.976600
vn 1.000000 -0.000000 0.000000
vn 0.000000 -0.976600 0.215000
vn -0.000000 0.976600 -0.215000
vn 1.000000 0.000300 0.001200
vn 1.000000 0.001700 -0.000600
vn 1.000000 -0.000500 -0.001000
vn -0.000000 0.215000 0.976600
vn 0.045700 -0.978700 0.200200
vn 1.000000 0.001300 -0.001400
vn -0.555400 0.732900 -0.392900
vn -0.132400 -0.544400 -0.828300
vn 0.555700 -0.731600 0.394900
vn -0.821000 -0.408000 0.399400
vn 0.821200 0.407700 -0.399200
vn -0.057700 -0.978600 0.197600
vn -0.059800 -0.974900 0.214700
vn -0.100500 -0.971700 0.214000
vn 1.000000 -0.000200 0.000100
vn 1.000000 -0.000200 -0.000900
vn 0.044200 -0.975400 0.216000
vn 0.000000 -0.973300 0.229700
vn 0.000700 0.262500 0.964900
vn 0.003400 -0.980200 0.197900
vn 0.000000 -0.969000 0.247200
vn -0.000000 -0.964900 0.262500
vn -0.004800 -0.262500 -0.964900
vn -1.000000 -0.000000 0.000000
vn 0.822100 0.555500 -0.124700
vn 0.912100 0.075600 0.402900
vn -0.988600 -0.147400 0.031700
vn 0.940000 0.331500 -0.080400
vn -0.004500 0.633100 -0.774000
vn 0.007400 -0.663400 0.748200
vn -1.000000 0.000300 -0.000100
vn -0.999900 0.002300 0.011900
vn 0.113100 -0.961700 0.249600
vn -1.000000 -0.000100 -0.000200
vn -0.999900 0.010800 -0.012000
vn -0.507000 0.493000 0.707000
vn -0.213300 -0.866500 0.451300
vn 0.507000 -0.493000 -0.707000
vn -0.835200 -0.078000 -0.544500
vn 0.835400 0.077800 0.544200
vn -0.191100 -0.958600 0.211100
vn -0.395200 -0.897100 0.197500
vn 0.118200 -0.969800 0.213500
vn 0.168600 -0.962600 0.212000
vn -0.000700 0.890700 -0.454700
vn 0.024200 -0.963000 0.268400
vn 0.097900 -0.982600 0.157700
vn 0.000000 0.454700 0.890700
vn 0.001200 -0.890700 0.454700
vn 0.845900 0.442900 0.297100
vn -0.852300 -0.121700 -0.508700
vn 0.436700 -0.693900 -0.572500
vn -0.378300 0.800000 0.465700
vn 0.003500 -0.531300 -0.847200
vn 0.000300 -0.028500 0.999600
vn 0.805600 -0.286400 -0.518700
vn 0.068400 0.995400 -0.067200
vn -0.749500 0.184700 0.635700
vn -0.037800 -0.971300 0.234800
vn 0.197600 0.562100 0.803200
vn 0.129200 -0.978400 0.161500
vn -0.468800 -0.197800 -0.860800
vn -0.123500 0.980800 -0.151200
vn -0.196300 -0.926900 0.320000
vn 0.196300 0.926900 -0.320000
vn 1.000000 -0.001700 0.000400
vn 1.000000 0.001500 -0.000300
vn 1.000000 0.002000 0.000800
vn 0.551300 -0.735000 0.394900
vn -0.810300 -0.416600 0.412200
vn -0.097400 -0.975000 0.199600
vn 1.000000 -0.000200 0.000000
vn 0.047100 -0.975500 0.214800
vn 0.044000 -0.975700 0.214800
vn 0.000000 -0.979700 0.200400
vn 0.021600 -0.973000 0.229600
vn -0.001200 -0.260900 -0.965400
vn 0.826600 0.118400 0.550200
vn -0.054500 0.438600 0.897000
vn 0.411500 0.061200 0.909300
vn -0.286700 -0.310300 -0.906400
vn -0.044300 0.647000 -0.761200
vn 0.000400 -0.660900 0.750500
vn -0.999900 0.013100 -0.002900
vn -0.999900 -0.014700 -0.006300
vn -1.000000 -0.000300 0.000100
vn 0.507300 -0.493200 -0.706700
vn -0.842700 -0.076400 -0.532900
vn -0.179000 -0.947700 0.264100
vn -0.382300 -0.881000 0.278700
vn 0.000000 -0.996900 0.079000
vn 0.167200 -0.958100 0.232700
vn -0.000000 -0.987400 0.158400
vn 0.000000 -0.967900 0.251200
vn -0.002900 -0.891500 0.453000
vn 0.972200 0.048500 0.228900
vn -0.859500 -0.108400 -0.499600
vn 0.789900 -0.598900 0.131900
vn -0.792300 0.598200 -0.119700
vn 0.066500 -0.509900 -0.857700
vn -0.023200 -0.042900 0.998800
usemtl Material.001
s off
f 2/1/1 4/2/1 3/3/1
f 4/4/2 8/5/2 7/6/2
f 6/7/3 5/8/3 7/9/3
f 2/10/4 1/11/4 5/12/4
f 3/13/5 7/14/5 5/15/5
f 8/16/6 18/17/6 17/18/6
f 11/19/7 12/20/7 16/21/7
f 9/22/8 23/23/8 21/24/8
f 2/10/9 6/25/9 11/26/9
f 8/5/10 4/4/10 10/27/10
f 16/28/11 14/29/11 13/30/11
f 10/31/12 9/19/12 13/32/12
f 9/22/13 11/26/13 15/33/13
f 10/27/14 14/34/14 16/35/14
f 17/36/15 18/37/15 20/38/15
f 12/39/16 20/40/16 18/41/16
f 12/42/17 11/43/17 19/44/17
f 11/26/18 6/25/18 17/45/18
f 21/28/19 23/37/19 24/36/19
f 2/46/6 21/47/6 22/48/6
f 9/49/17 10/50/17 24/51/17
f 10/27/20 4/4/20 22/52/20
f 30/53/21 29/54/21 102/55/21
f 30/56/22 28/57/22 27/58/22
f 34/59/21 36/60/21 107/61/21
f 27/62/23 33/63/23 34/64/23
f 102/65/23 29/53/23 34/64/23
f 35/66/24 45/67/24 36/68/24
f 34/69/22 33/70/22 35/71/22
f 87/72/21 41/73/21 31/74/21
f 38/75/25 42/76/25 32/77/25
f 45/78/26 38/75/26 37/79/26
f 41/80/27 37/79/27 25/81/27
f 86/82/28 74/83/28 32/84/28
f 36/68/24 40/85/24 109/86/24
f 117/87/29 61/88/29 60/89/29
f 31/74/21 58/90/21 75/91/21
f 26/92/22 32/77/22 43/93/22
f 45/78/22 39/94/22 42/76/22
f 47/95/30 37/79/30 41/80/30
f 110/96/28 86/82/28 42/97/28
f 109/98/21 40/93/21 41/73/21
f 35/66/24 108/99/24 110/100/24
f 74/83/28 60/101/28 32/84/28
f 33/102/28 106/103/28 108/104/28
f 67/105/31 66/106/31 51/107/31
f 28/108/24 30/58/24 101/109/24
f 104/109/23 106/110/23 33/63/23
f 103/111/28 104/112/28 27/113/28
f 50/114/32 51/115/32 49/116/32
f 68/106/33 48/117/33 49/118/33
f 67/119/34 50/20/34 48/120/34
f 69/121/35 49/122/35 51/123/35
f 53/124/36 55/125/36 46/126/36
f 56/127/37 52/126/37 55/125/37
f 44/128/38 56/127/38 57/129/38
f 52/130/39 56/131/39 25/81/39
f 44/132/40 31/133/40 25/81/40
f 124/134/41 59/135/41 61/88/41
f 111/136/42 58/137/42 59/135/42
f 70/138/43 65/139/43 62/140/43
f 61/88/44 55/125/44 53/124/44
f 58/137/45 54/141/45 57/129/45
f 64/142/46 63/143/46 62/144/46
f 73/145/47 72/138/47 63/146/47
f 72/147/22 71/148/22 62/149/22
f 73/147/48 64/150/48 65/151/48
f 26/152/49 69/121/49 66/153/49
f 25/154/50 37/155/50 67/119/50
f 26/156/51 25/107/51 68/106/51
f 37/157/52 38/117/52 66/106/52
f 59/158/48 73/147/48 70/159/48
f 57/158/22 55/160/22 71/148/22
f 57/139/53 72/138/53 73/145/53
f 55/161/54 61/146/54 70/138/54
f 102/55/21 80/162/21 81/62/21
f 81/58/48 80/57/48 78/163/48
f 105/104/21 107/61/21 89/164/21
f 85/165/23 84/166/23 78/58/23
f 102/65/23 105/167/23 85/165/23
f 100/168/24 98/169/24 89/170/24
f 89/171/48 88/102/48 84/70/48
f 87/72/21 75/91/21 82/172/21
f 91/173/55 77/174/55 83/175/55
f 90/176/56 91/173/56 98/177/56
f 94/178/48 82/172/48 76/179/48
f 83/180/28 74/83/28 86/82/28
f 109/86/24 93/163/24 89/170/24
f 127/181/57 128/182/57 117/87/57
f 120/183/21 97/184/21 82/172/21
f 77/174/48 99/185/48 96/186/48
f 91/173/58 95/187/58 92/188/58
f 94/178/59 90/176/59 100/189/59
f 95/190/28 86/82/28 110/96/28
f 109/98/21 87/72/21 94/178/21
f 88/191/24 92/157/24 110/100/24
f 119/192/28 127/193/28 83/180/28
f 84/171/28 88/59/28 108/104/28
f 134/194/60 115/195/60 116/196/60
f 103/197/24 101/109/24 81/62/24
f 84/166/23 106/110/23 104/109/23
f 79/62/28 78/162/28 104/112/28
f 115/198/61 113/49/61 114/199/61
f 136/200/62 114/201/62 113/156/62
f 113/202/63 115/203/63 134/204/63
f 116/205/64 114/206/64 136/153/64
f 119/207/23 96/113/23 99/208/23
f 121/209/65 118/208/65 122/210/65
f 123/211/66 122/210/66 97/195/66
f 76/179/48 122/212/48 118/185/48
f 122/212/48 76/179/48 82/172/48
f 124/134/67 117/87/67 128/182/67
f 111/136/68 124/134/68 126/213/68
f 138/214/69 129/215/69 132/216/69
f 119/207/70 121/209/70 128/182/70
f 125/217/71 126/213/71 123/211/71
f 131/198/72 132/218/72 129/219/72
f 140/145/73 131/220/73 130/221/73
f 130/222/48 129/149/48 138/148/48
f 132/196/22 131/223/22 140/204/22
f 133/224/74 136/153/74 77/123/74
f 135/224/75 134/204/75 90/223/75
f 77/222/76 136/200/76 135/225/76
f 134/194/77 133/226/77 91/227/77
f 137/226/22 140/204/22 126/203/22
f 123/201/48 139/200/48 138/148/48
f 140/145/78 139/228/78 123/216/78
f 121/229/79 138/214/79 137/228/79
f 1/230/80 2/1/80 3/3/80
f 3/231/81 4/4/81 7/6/81
f 8/232/82 6/7/82 7/9/82
f 6/25/83 2/10/83 5/12/83
f 1/233/84 3/13/84 5/15/84
f 6/46/6 8/16/6 17/18/6
f 15/234/7 11/19/7 16/21/7
f 2/10/85 9/22/85 21/24/85
f 9/22/9 2/10/9 11/26/9
f 12/39/10 8/5/10 10/27/10
f 15/235/86 16/28/86 13/30/86
f 14/236/12 10/31/12 13/32/12
f 13/237/13 9/22/13 15/33/13
f 12/39/14 10/27/14 16/35/14
f 19/238/15 17/36/15 20/38/15
f 8/5/87 12/39/87 18/41/87
f 20/239/17 12/42/17 19/44/17
f 19/240/88 11/26/88 17/45/88
f 22/241/19 21/28/19 24/36/19
f 4/242/6 2/46/6 22/48/6
f 23/243/17 9/49/17 24/51/17
f 24/244/89 10/27/89 22/52/89
f 101/245/21 30/53/21 102/55/21
f 29/108/22 30/56/22 27/58/22
f 105/104/21 34/59/21 107/61/21
f 29/53/23 27/62/23 34/64/23
f 105/167/23 102/65/23 34/64/23
f 40/85/24 36/68/24 47/246/24
f 35/66/24 39/247/24 45/67/24
f 45/67/24 47/246/24 36/68/24
f 36/248/22 34/69/22 35/71/22
f 75/91/21 87/72/21 31/74/21
f 26/92/90 38/75/90 32/77/90
f 47/95/91 45/78/91 37/79/91
f 31/133/40 41/80/40 25/81/40
f 42/97/28 86/82/28 32/84/28
f 107/249/24 36/68/24 109/86/24
f 112/250/23 117/87/23 60/89/23
f 111/251/21 75/91/21 58/90/21
f 31/74/21 44/252/21 54/253/21
f 54/253/21 58/90/21 31/74/21
f 46/130/22 26/92/22 43/93/22
f 38/75/92 45/78/92 42/76/92
f 40/254/22 47/95/22 41/80/22
f 39/132/28 110/96/28 42/97/28
f 87/72/21 109/98/21 41/73/21
f 39/247/24 35/66/24 110/100/24
f 43/254/28 32/84/28 53/255/28
f 74/83/28 112/256/28 60/101/28
f 53/255/28 32/84/28 60/101/28
f 35/257/28 33/102/28 108/104/28
f 50/258/31 67/105/31 51/107/31
f 103/197/24 28/108/24 101/109/24
f 27/62/23 104/109/23 33/63/23
f 28/252/28 103/111/28 27/113/28
f 48/259/32 50/114/32 49/116/32
f 69/225/93 68/106/93 49/118/93
f 68/260/94 67/119/94 48/120/94
f 66/153/35 69/121/35 51/123/35
f 43/248/23 53/124/23 46/126/23
f 57/129/95 56/127/95 55/125/95
f 54/141/45 44/128/45 57/129/45
f 26/92/25 52/130/25 25/81/25
f 56/131/96 44/132/96 25/81/96
f 117/87/97 124/134/97 61/88/97
f 124/134/98 111/136/98 59/135/98
f 71/261/43 70/138/43 62/140/43
f 60/89/99 61/88/99 53/124/99
f 59/135/100 58/137/100 57/129/100
f 65/115/46 64/142/46 62/144/46
f 64/220/101 73/145/101 63/146/101
f 63/150/22 72/147/22 62/149/22
f 70/159/48 73/147/48 65/151/48
f 38/206/102 26/152/102 66/153/102
f 68/260/103 25/154/103 67/119/103
f 69/225/104 26/156/104 68/106/104
f 67/105/105 37/157/105 66/106/105
f 61/262/48 59/158/48 70/159/48
f 72/147/22 57/158/22 71/148/22
f 59/263/106 57/139/106 73/145/106
f 71/261/107 55/161/107 70/138/107
f 101/245/21 102/55/21 81/62/21
f 79/264/48 81/58/48 78/163/48
f 85/257/21 105/104/21 89/164/21
f 80/264/23 85/165/23 78/58/23
f 80/264/23 102/65/23 85/165/23
f 88/191/24 89/170/24 98/169/24
f 93/163/24 100/168/24 89/170/24
f 98/169/24 92/157/24 88/191/24
f 85/69/48 89/171/48 84/70/48
f 94/178/21 87/72/21 82/172/21
f 95/187/58 91/173/58 83/175/58
f 100/189/108 90/176/108 98/177/108
f 90/176/109 94/178/109 76/179/109
f 95/190/28 83/180/28 86/82/28
f 107/249/24 109/86/24 89/170/24
f 112/250/23 127/181/23 117/87/23
f 82/172/21 75/91/21 125/265/21
f 125/265/21 120/183/21 82/172/21
f 75/91/21 111/251/21 125/265/21
f 83/175/48 77/174/48 96/186/48
f 98/177/110 91/173/110 92/188/110
f 93/132/48 94/178/48 100/189/48
f 92/188/28 95/190/28 110/96/28
f 93/132/21 109/98/21 94/178/21
f 108/99/24 88/191/24 110/100/24
f 74/83/28 83/180/28 127/193/28
f 96/266/28 119/192/28 83/180/28
f 127/193/28 112/256/28 74/83/28
f 106/103/28 84/171/28 108/104/28
f 133/226/60 134/194/60 116/196/60
f 79/252/24 103/197/24 81/62/24
f 78/58/23 84/166/23 104/109/23
f 103/111/28 79/62/28 104/112/28
f 116/267/61 115/198/61 114/199/61
f 135/225/111 136/200/111 113/156/111
f 135/224/112 113/202/112 134/204/112
f 133/224/64 116/205/64 136/153/64
f 121/209/113 119/207/113 99/208/113
f 123/211/114 121/209/114 122/210/114
f 120/268/115 123/211/115 97/195/115
f 77/174/48 76/179/48 118/185/48
f 97/184/48 122/212/48 82/172/48
f 126/213/116 124/134/116 128/182/116
f 125/217/117 111/136/117 126/213/117
f 137/228/69 138/214/69 132/216/69
f 127/181/118 119/207/118 128/182/118
f 120/268/115 125/217/115 123/211/115
f 130/94/72 131/198/72 129/219/72
f 139/228/119 140/145/119 130/221/119
f 139/200/48 130/222/48 138/148/48
f 137/226/22 132/196/22 140/204/22
f 91/202/120 133/224/120 77/123/120
f 76/205/121 135/224/121 90/223/121
f 76/118/122 77/222/122 135/225/122
f 90/144/123 134/194/123 91/227/123
f 128/227/22 137/226/22 126/203/22
f 121/160/48 123/201/48 138/148/48
f 126/263/124 140/145/124 123/216/124
f 128/221/125 121/229/125 137/228/125
