# Blender v2.76 (sub 0) OBJ File: 'aSw_Run.blend'
# www.blender.org
mtllib run_000004.mtl
o Plane.001_Plane.000
v -0.099847 0.198046 -0.298153
v -0.120652 0.374978 -0.340556
v -0.112457 0.200115 -0.292921
v -0.139176 0.376725 -0.312453
v -0.107727 0.186980 -0.305795
v -0.145697 0.358583 -0.356045
v -0.119197 0.189045 -0.300262
v -0.164222 0.360330 -0.327942
v -0.132849 0.403413 -0.350566
v -0.151559 0.405178 -0.322183
v -0.158144 0.386854 -0.366210
v -0.176854 0.388619 -0.337827
v -0.519505 1.247226 -0.643922
v -0.525389 1.247782 -0.634995
v -0.527460 1.242019 -0.648841
v -0.533344 1.242574 -0.639915
v -0.196333 0.329983 -0.374392
v -0.202711 0.330585 -0.364717
v -0.208748 0.358346 -0.384340
v -0.215126 0.358947 -0.374664
v -0.082162 0.404723 -0.303781
v -0.088540 0.405325 -0.294106
v -0.094577 0.433086 -0.313728
v -0.100954 0.433687 -0.304053
v 0.125398 0.351082 -0.117126
v 0.125454 0.366699 -0.045338
v 0.186015 0.584331 0.061432
v 0.186015 0.950557 -0.019210
v 0.186015 0.503689 -0.304795
v 0.186015 0.869916 -0.385436
v 0.125454 0.331568 -0.204883
v 0.125454 0.386162 0.043056
v 0.057662 0.556729 -0.063919
v 0.057662 0.531291 -0.179444
v 0.057662 0.496616 -0.050683
v 0.057662 0.471178 -0.166207
v 0.125956 0.414150 -0.129687
v 0.125514 0.429323 -0.058915
v 0.125454 0.511194 0.015524
v 0.125454 0.456600 -0.232414
v 0.125454 0.394084 -0.218648
v 0.125454 0.448679 0.029290
v 0.125454 0.022892 0.123046
v 0.125454 -0.031703 -0.124892
v 0.125454 0.491743 -0.072813
v 0.125454 0.003395 0.034503
v 0.125454 0.475885 -0.144833
v 0.122091 0.178500 0.056791
v 0.122202 0.200013 0.127268
v 0.185893 0.183455 0.055178
v 0.186003 0.204976 0.125680
v 0.125454 0.003395 0.034503
v 0.098032 0.022892 0.123046
v 0.098032 -0.031703 -0.124892
v 0.098032 0.003486 0.033814
v 0.125454 -0.012418 -0.037311
v 0.098032 -0.014395 -0.037054
v 0.028140 -0.031703 -0.124892
v 0.028140 -0.013328 -0.037095
v 0.028140 0.022892 0.123046
v 0.028140 0.003484 0.033968
v 0.098032 -0.150437 0.261776
v 0.098032 -0.213087 0.223270
v 0.028140 -0.213018 0.223313
v 0.028140 -0.150397 0.261801
v 0.173795 0.347970 0.082051
v 0.173684 0.326450 0.011549
v 0.110831 0.321663 0.012414
v 0.109993 0.343007 0.083639
v 0.028140 -0.071852 0.134010
v 0.098032 -0.071893 0.133985
v 0.098032 -0.134542 0.095478
v 0.028140 -0.134525 0.095305
v -0.001485 0.386162 0.043056
v -0.001485 0.331568 -0.204883
v -0.128423 0.350853 -0.117301
v -0.128423 0.366699 -0.045338
v -0.188985 0.584331 0.061432
v -0.188985 0.950557 -0.019210
v -0.188985 0.503689 -0.304795
v -0.188985 0.869916 -0.385436
v -0.128423 0.331568 -0.204883
v -0.128423 0.386162 0.043056
v -0.060631 0.556729 -0.063919
v -0.060631 0.531291 -0.179444
v -0.001485 0.448679 0.029290
v -0.001485 0.394084 -0.218648
v -0.060631 0.496616 -0.050683
v -0.060631 0.471178 -0.166207
v -0.128672 0.410811 -0.129031
v -0.128825 0.428470 -0.058775
v -0.128423 0.511194 0.015524
v -0.128423 0.456599 -0.232414
v -0.128423 0.394084 -0.218648
v -0.128423 0.448679 0.029290
v -0.128423 0.022892 0.123046
v -0.128423 -0.031703 -0.124892
v -0.128423 0.491743 -0.072813
v -0.128423 0.003395 0.034503
v -0.128423 0.475885 -0.144833
v -0.001485 0.869916 -0.385436
v -0.001485 0.503689 -0.304795
v -0.001485 0.950557 -0.019210
v -0.001485 0.584331 0.061432
v -0.001485 0.531291 -0.179444
v -0.001485 0.556729 -0.063919
v -0.001485 0.471178 -0.166207
v -0.001485 0.496616 -0.050683
v -0.001485 0.456599 -0.232414
v -0.001485 0.511194 0.015524
v -0.001485 -0.031703 -0.124892
v -0.001485 0.022892 0.123046
v -0.127329 0.241890 -0.300973
v -0.191172 0.278499 -0.304684
v -0.097049 0.296228 -0.285865
v -0.160914 0.332850 -0.289578
v -0.001485 0.003417 0.034603
v -0.128423 0.003395 0.034503
v -0.101001 0.022892 0.123046
v -0.101001 -0.031703 -0.124892
v -0.101001 0.004646 0.032138
v -0.128423 -0.012418 -0.037311
v -0.101001 -0.008160 -0.040670
v -0.001485 -0.012386 -0.037167
v -0.031109 -0.031703 -0.124892
v -0.031109 -0.010568 -0.038657
v -0.031109 0.022892 0.123046
v -0.031109 0.004234 0.032998
v -0.101001 -0.235821 -0.154425
v -0.101001 -0.206411 -0.221825
v -0.031109 -0.206443 -0.221751
v -0.031109 -0.235840 -0.154382
v -0.184914 0.305753 -0.144011
v -0.121048 0.269131 -0.140298
v -0.152107 0.215626 -0.155172
v -0.215171 0.251402 -0.159117
v -0.031109 -0.098358 -0.094392
v -0.101001 -0.098339 -0.094436
v -0.101001 -0.069435 -0.160955
v -0.031109 -0.068962 -0.161761
vt 0.628043 0.804403
vt 0.607621 0.804403
vt 0.610973 0.682523
vt 0.036336 0.121881
vt 0.039689 0.000000
vt 0.053406 0.000000
vt 0.607621 0.926284
vt 0.610973 0.804403
vt 0.624691 0.804403
vt 0.129431 0.610213
vt 0.149853 0.610213
vt 0.146501 0.732094
vt 0.172472 0.745830
vt 0.172472 0.732094
vt 0.186189 0.732094
vt 0.783423 0.870578
vt 0.763002 0.870578
vt 0.769697 0.834195
vt 0.948267 0.817994
vt 0.955337 0.227508
vt 0.961823 0.227508
vt 0.149955 0.590484
vt 0.186189 0.590487
vt 0.186189 0.610216
vt 0.129329 0.590484
vt 0.056758 0.121881
vt 0.056860 0.141610
vt 0.628043 0.721981
vt 0.634529 0.721981
vt 0.634529 0.728476
vt 0.989518 0.817993
vt 0.968893 0.817993
vt 0.975962 0.227508
vt 0.136399 0.000000
vt 0.142885 0.000000
vt 0.049790 0.732094
vt 0.043304 0.732094
vt 0.635073 0.702252
vt 0.628043 0.702252
vt 0.628043 0.682523
vt 0.036235 0.141610
vt 0.000000 0.141607
vt 0.000000 0.121878
vt 0.742376 0.870476
vt 0.749173 0.834195
vt 0.756204 0.834195
vt 0.093095 0.610216
vt 0.803845 0.870578
vt 0.790119 0.834195
vt 0.742376 0.834195
vt 0.735579 0.870476
vt 0.728548 0.870476
vt 0.093095 0.121878
vt 0.186189 0.227508
vt 0.186189 0.000000
vt 0.299796 0.000000
vt 0.640616 0.682523
vt 0.413403 0.682523
vt 0.413403 0.455015
vt 0.752502 0.154024
vt 0.789797 0.154024
vt 0.789797 0.189908
vt 0.413403 0.227508
vt 0.335633 0.305378
vt 0.263959 0.305378
vt 0.186189 0.341262
vt 0.298939 0.795418
vt 0.285209 0.836547
vt 0.227265 0.795418
vt 0.677912 0.154024
vt 0.677912 0.225791
vt 0.640616 0.225791
vt 0.717529 0.492015
vt 0.640616 0.492015
vt 0.640616 0.453179
vt 0.695441 0.795359
vt 0.640616 0.795359
vt 0.640616 0.756522
vt 0.695422 0.834195
vt 0.740105 0.795359
vt 0.794442 0.795359
vt 0.740105 0.756522
vt 0.871354 0.569687
vt 0.871354 0.608524
vt 0.794442 0.608524
vt 0.186189 0.836547
vt 0.186189 0.759535
vt 0.695488 0.077012
vt 0.695500 0.094985
vt 0.640616 0.094985
vt 0.699579 0.227508
vt 0.717529 0.453179
vt 0.695457 0.756522
vt 0.640616 0.530851
vt 0.640616 0.834195
vt 0.740105 0.834195
vt 0.871354 0.530851
vt 0.794442 0.569687
vt 0.717529 0.530851
vt 0.298939 0.759535
vt 0.340014 0.759535
vt 0.853405 0.834195
vt 0.715207 0.225791
vt 0.715207 0.189908
vt 0.752502 0.189908
vt 0.384678 0.773526
vt 0.384678 0.864529
vt 0.340014 0.864529
vt 0.640616 0.455015
vt 0.413403 0.341261
vt 0.335633 0.341261
vt 0.527010 0.227508
vt 0.527010 0.000000
vt 0.640616 0.000000
vt 0.836789 0.226727
vt 0.836789 0.182006
vt 0.875576 0.182022
vt 0.429325 0.773526
vt 0.384678 0.682523
vt 0.987053 0.908997
vt 0.948267 0.908997
vt 1.000000 0.091003
vt 1.000000 0.182006
vt 0.961214 0.182006
vt 0.640616 0.137388
vt 0.695529 0.137388
vt 0.695550 0.154024
vt 0.740104 0.154024
vt 0.794442 0.154024
vt 0.740086 0.137388
vt 0.695550 0.530851
vt 0.740105 0.530851
vt 0.794442 0.756522
vt 0.740015 0.077012
vt 0.740037 0.094985
vt 0.794442 0.077012
vt 0.794442 0.094985
vt 0.127043 0.823097
vt 0.127043 0.732094
vt 0.169391 0.732094
vt 0.794442 0.137388
vt 0.836789 0.226600
vt 0.794442 0.226649
vt 0.794442 0.182035
vt 0.127043 0.914101
vt 0.084696 0.914101
vt 0.518529 0.773526
vt 0.518529 0.682523
vt 0.563085 0.682523
vt 0.607621 0.773526
vt 0.563085 0.773526
vt 1.000000 0.000000
vt 0.961214 0.091003
vt 0.987053 1.000000
vt 0.948267 1.000000
vt 0.429325 0.864529
vt 0.340014 0.773526
vt 0.607621 0.864529
vt 0.563085 0.864529
vt 0.518529 0.864529
vt 0.084696 0.823098
vt 0.169391 0.823098
vt 0.413403 0.000000
vt 0.186189 0.682523
vt 0.789797 0.225791
vt 0.263959 0.377145
vt 0.335633 0.377145
vt 0.263959 0.341261
vt 0.240526 0.682523
vt 0.285209 0.682523
vt 0.227265 0.723652
vt 0.715207 0.154024
vt 0.794442 0.453179
vt 0.893442 0.492015
vt 0.893426 0.453179
vt 0.948267 0.453179
vt 0.848779 0.530851
vt 0.848779 0.492015
vt 0.848779 0.453179
vt 0.948267 0.608524
vt 0.640616 0.059039
vt 0.695500 0.059039
vt 0.777826 0.227508
vt 0.794442 0.227508
vt 0.893333 0.227508
vt 0.948267 0.227508
vt 0.893461 0.530851
vt 0.948267 0.492015
vt 0.794442 0.492015
vt 0.948267 0.569687
vt 0.298939 0.723652
vt 0.340014 0.682523
vt 0.931652 0.834195
vt 0.889304 0.834195
vt 0.794442 0.091003
vt 0.794442 0.000000
vt 0.839105 0.000000
vt 0.640616 0.341261
vt 0.682964 0.834195
vt 0.721750 0.834195
vt 0.721750 0.878900
vt 0.473973 0.864529
vt 0.922427 0.182006
vt 0.883641 0.182006
vt 0.883641 0.091003
vt 0.922427 0.000000
vt 0.961214 0.000000
vt 0.640616 0.016637
vt 0.695550 0.000000
vt 0.695529 0.016637
vt 0.740104 0.000000
vt 0.740086 0.016637
vt 0.848779 0.227508
vt 0.740037 0.059039
vt 0.000000 0.823097
vt 0.000000 0.732094
vt 0.042348 0.732094
vt 0.794442 0.059039
vt 0.682964 0.878837
vt 0.640616 0.878808
vt 0.042348 0.914101
vt 0.042348 0.823097
vt 0.473973 0.773526
vt 0.473973 0.682523
vt 0.883641 0.000000
vt 0.922428 0.091003
vt 0.429325 0.682523
vt 0.839105 0.091003
vt 0.000000 0.914101
vt 0.624691 0.682523
vt 0.628043 0.926284
vt 0.132783 0.732094
vt 0.186189 0.745830
vt 0.776728 0.834195
vt 0.628043 0.728476
vt 0.982448 0.227508
vt 0.635073 0.682523
vt 0.763002 0.870476
vt 0.093095 0.590487
vt 0.635073 0.721981
vt 0.797149 0.834195
vt 0.093095 0.141607
vt 0.299796 0.227508
vt 0.240526 0.836547
vt 0.340014 0.836547
vt 0.640616 0.154024
vt 0.227265 0.759535
vt 0.640616 0.077012
vt 0.717529 0.227508
vt 0.640616 0.227508
vt 0.657232 0.227508
vt 0.794442 0.834195
vt 0.794442 0.530851
vt 0.811057 0.834195
vt 0.871354 0.834195
vt 0.752502 0.225791
vt 0.875576 0.226727
vt 0.987053 0.817994
vt 0.607621 0.682523
vt 0.084696 0.732094
vt 0.169391 0.914101
vt 0.186189 0.455015
vt 0.735479 0.227508
vt 0.948267 0.530851
vt 0.948267 0.834195
vt 0.682964 0.878916
vt 0.794442 0.016637
vt 0.839105 0.182006
vn 0.825900 0.183900 0.533000
vn -0.685900 -0.063100 0.725000
vn -0.457500 -0.341600 -0.821000
vn 0.579700 -0.124800 -0.805200
vn 0.240400 -0.633900 0.735100
vn 0.381800 -0.872200 0.305900
vn -0.747600 -0.476000 -0.463200
vn 0.677200 0.038700 -0.734800
vn 0.551600 -0.056400 -0.832200
vn -0.547600 0.047300 0.835400
vn -0.381800 0.872200 -0.305900
vn 0.738500 0.496900 0.455900
vn 0.545000 -0.041400 -0.837400
vn -0.554200 0.062300 0.830100
vn -0.743100 -0.486400 -0.459600
vn -0.677200 -0.038700 0.734800
vn 0.408200 -0.144400 -0.901400
vn 0.743100 0.486400 0.459600
vn -0.403600 0.133900 0.905100
vn 0.000000 -0.215000 -0.976600
vn 1.000000 -0.000000 0.000000
vn 0.000000 -0.976600 0.215000
vn -0.000000 0.976600 -0.215000
vn 1.000000 0.000100 0.000700
vn 1.000000 0.002200 0.005800
vn 0.999900 -0.009500 -0.003500
vn -0.000000 0.215000 0.976600
vn 0.006800 -0.977100 0.212900
vn 1.000000 0.006400 -0.007100
vn 0.996700 0.077400 -0.025200
vn 0.081400 -0.953300 0.290900
vn -0.997100 -0.075100 0.010800
vn 0.009000 -0.291100 -0.956600
vn 0.001100 0.291900 0.956400
vn -0.008600 -0.977100 0.212500
vn -0.008600 -0.976600 0.215000
vn 0.072300 -0.974100 0.214500
vn 1.000000 0.000300 0.000600
vn -0.031500 -0.972700 0.230100
vn 0.000000 -0.978800 0.204900
vn 0.000700 0.851900 0.523600
vn 0.000500 -0.977200 0.212500
vn 0.000000 -0.981100 0.193300
vn -0.000000 -0.523600 0.851900
vn -0.001200 -0.851900 -0.523600
vn -1.000000 0.000000 0.000000
vn -0.072100 0.982500 0.171800
vn 0.928000 -0.080700 -0.363700
vn -0.967700 0.246400 -0.052900
vn 0.927000 0.358200 -0.110800
vn 0.001500 -0.740900 -0.671600
vn 0.000700 0.798800 0.601600
vn -1.000000 -0.006200 0.001400
vn -1.000000 0.003100 -0.003000
vn -1.000000 -0.004000 0.000900
vn -0.037900 -0.978500 0.202800
vn -1.000000 0.007000 0.003000
vn -1.000000 0.003000 -0.003300
vn 0.473000 0.848900 0.236000
vn 0.160000 0.180600 -0.970400
vn -0.473400 -0.849300 -0.233500
vn 0.866400 -0.496800 0.050400
vn -0.866600 0.496500 -0.050500
vn 0.062900 -0.974700 0.214600
vn 0.175200 -0.961500 0.211700
vn -0.038500 -0.975900 0.214900
vn -0.070600 -0.974200 0.214500
vn -0.000700 -0.399900 0.916500
vn -0.008200 -0.980400 0.196800
vn -0.040300 -0.970500 0.237800
vn 0.000000 -0.916500 -0.399900
vn 0.001200 0.406100 -0.913800
vn -0.874800 0.419900 0.241500
vn 0.004900 -0.270500 0.962700
vn -0.192000 -0.233300 0.953300
vn 0.106000 0.084500 -0.990800
vn -0.011300 0.891000 -0.453900
vn -0.000600 -0.775700 0.631100
vn 0.406100 0.257900 0.876700
vn -0.532100 0.013100 0.846500
vn -0.806100 -0.294800 -0.513100
vn 0.724700 -0.041100 -0.687800
vn 0.198500 -0.648700 0.734700
vn 0.677500 0.031900 -0.734900
vn -0.672900 -0.042400 0.738500
vn 0.403200 -0.140700 -0.904200
vn -0.403200 0.140700 0.904200
vn 1.000000 -0.000900 0.000200
vn 1.000000 0.007700 -0.001700
vn 1.000000 0.000100 0.000600
vn 1.000000 0.000900 -0.000200
vn -0.996700 -0.077400 0.025200
vn -0.001100 -0.296200 -0.955100
vn 0.072000 -0.967100 0.244000
vn 1.000000 -0.000000 -0.000800
vn 0.006800 -0.976600 0.215000
vn -0.031600 -0.976100 0.214900
vn 0.000000 -0.977100 0.212900
vn -0.015100 -0.978700 0.204800
vn 0.001100 -0.852500 -0.522700
vn -0.928000 0.079800 0.363900
vn 0.071300 -0.974400 -0.213300
vn -0.973000 0.217600 -0.076700
vn 0.921900 0.379900 -0.075700
vn -0.010900 -0.737600 -0.675200
vn 0.001300 0.799000 0.601300
vn -1.000000 0.001000 0.004300
vn -1.000000 0.006000 -0.001300
vn -1.000000 -0.000600 -0.002700
vn -0.468300 -0.851500 -0.235700
vn 0.857100 -0.512400 0.053400
vn 0.061600 -0.978600 0.196400
vn 0.171600 -0.970300 0.170700
vn 0.000000 -0.963100 0.269200
vn -0.070100 -0.976900 0.201800
vn 0.000000 -0.971300 0.238000
vn 0.000000 -0.979200 0.202900
vn -0.013300 0.399900 -0.916500
vn -0.887700 0.092400 0.451100
vn 0.983400 0.038800 0.177500
vn 0.712700 -0.685100 0.150900
vn -0.867500 0.482000 -0.123000
vn 0.043400 0.902700 -0.428200
vn -0.012300 -0.778800 0.627200
usemtl Material.001
s off
f 2/1/1 4/2/1 3/3/1
f 8/4/2 7/5/2 3/6/2
f 6/7/3 5/8/3 7/9/3
f 6/10/4 2/11/4 1/12/4
f 3/13/5 7/14/5 5/15/5
f 6/16/6 8/17/6 18/18/6
f 12/19/7 16/20/7 15/21/7
f 9/22/8 23/23/8 21/24/8
f 2/11/9 6/10/9 11/25/9
f 8/4/10 4/26/10 10/27/10
f 16/28/11 14/29/11 13/30/11
f 10/31/12 9/32/12 13/33/12
f 11/25/13 15/34/13 13/35/13
f 10/27/14 14/36/14 16/37/14
f 17/38/15 18/39/15 20/40/15
f 12/41/16 20/42/16 18/43/16
f 11/44/11 19/45/11 20/46/11
f 11/25/17 6/10/17 17/47/17
f 21/28/18 23/39/18 24/38/18
f 4/48/6 2/16/6 21/49/6
f 10/50/11 24/51/11 23/52/11
f 10/27/19 4/26/19 22/53/19
f 30/54/20 29/55/20 102/56/20
f 30/57/21 28/58/21 27/59/21
f 34/60/20 36/61/20 107/62/20
f 27/63/22 33/64/22 34/65/22
f 102/66/22 29/54/22 34/65/22
f 35/67/23 45/68/23 36/69/23
f 34/70/21 33/71/21 35/72/21
f 87/73/20 41/74/20 31/75/20
f 38/76/24 42/77/24 32/78/24
f 45/79/25 38/76/25 37/80/25
f 41/81/26 37/80/26 25/82/26
f 86/83/27 74/84/27 32/85/27
f 36/69/23 40/86/23 109/87/23
f 117/88/28 61/89/28 60/90/28
f 31/75/20 58/91/20 75/92/20
f 26/93/21 32/78/21 43/94/21
f 39/95/24 42/77/24 38/76/24
f 47/96/29 37/80/29 41/81/29
f 110/97/27 86/83/27 42/98/27
f 109/99/20 40/94/20 41/74/20
f 35/67/23 108/100/23 110/101/23
f 74/84/27 60/102/27 32/85/27
f 33/103/27 106/104/27 108/105/27
f 66/106/30 51/107/30 50/108/30
f 28/109/23 30/59/23 101/110/23
f 104/110/22 106/111/22 33/64/22
f 103/112/27 104/113/27 27/114/27
f 50/115/31 51/116/31 49/117/31
f 69/118/32 68/106/32 48/119/32
f 68/120/33 67/121/33 50/19/33
f 69/122/34 49/123/34 51/124/34
f 53/125/35 55/126/35 46/127/35
f 56/128/36 52/127/36 55/126/36
f 44/129/37 56/128/37 57/130/37
f 26/93/21 52/131/21 56/132/21
f 31/133/38 25/82/38 56/132/38
f 124/134/39 59/135/39 61/89/39
f 111/136/40 58/137/40 59/135/40
f 70/138/41 65/139/41 62/140/41
f 61/89/42 55/126/42 53/125/42
f 58/137/43 54/141/43 57/130/43
f 64/142/44 63/143/44 62/144/44
f 72/138/45 63/145/45 64/146/45
f 71/147/21 62/148/21 63/149/21
f 70/150/46 73/151/46 64/149/46
f 26/152/47 69/122/47 66/153/47
f 25/154/48 37/155/48 67/121/48
f 26/156/49 25/107/49 68/106/49
f 38/119/50 66/106/50 67/157/50
f 61/158/46 59/159/46 73/151/46
f 55/160/21 71/147/21 72/151/21
f 57/139/51 72/138/51 73/161/51
f 61/145/52 70/138/52 71/162/52
f 102/56/20 80/163/20 81/63/20
f 81/59/46 80/58/46 78/164/46
f 105/105/20 107/62/20 89/165/20
f 85/166/22 84/167/22 78/59/22
f 102/66/22 105/168/22 85/166/22
f 100/169/23 98/170/23 89/171/23
f 89/172/46 88/103/46 84/71/46
f 87/73/20 75/92/20 82/173/20
f 91/174/53 77/175/53 83/176/53
f 100/177/54 90/178/54 91/174/54
f 82/173/55 76/179/55 90/178/55
f 83/180/27 74/84/27 86/83/27
f 109/87/23 93/164/23 89/171/23
f 127/181/56 128/182/56 117/88/56
f 120/183/20 97/184/20 82/173/20
f 77/175/46 99/185/46 96/186/46
f 98/187/57 91/174/57 95/188/57
f 94/189/58 90/178/58 100/177/58
f 95/190/27 86/83/27 110/97/27
f 109/99/20 87/73/20 94/189/20
f 88/191/23 92/192/23 110/101/23
f 119/193/27 127/194/27 83/180/27
f 84/172/27 88/60/27 108/105/27
f 134/195/59 115/196/59 116/197/59
f 103/198/23 101/110/23 81/63/23
f 84/167/22 106/111/22 104/110/22
f 79/63/27 78/163/27 104/113/27
f 115/199/60 113/200/60 114/201/60
f 114/202/61 113/156/61 135/118/61
f 113/203/62 115/204/62 134/205/62
f 116/206/63 114/207/63 136/153/63
f 119/208/22 96/114/22 99/209/22
f 121/210/64 118/209/64 122/211/64
f 123/212/65 122/211/65 97/196/65
f 76/179/46 122/213/46 118/185/46
f 122/213/46 76/179/46 82/173/46
f 124/134/66 117/88/66 128/182/66
f 111/136/67 124/134/67 126/214/67
f 138/215/68 129/216/68 132/217/68
f 119/208/69 121/210/69 128/182/69
f 125/218/70 126/214/70 123/212/70
f 131/199/71 132/219/71 129/220/71
f 131/146/72 130/221/72 139/222/72
f 139/223/46 130/224/46 129/148/46
f 132/197/21 131/225/21 140/205/21
f 133/226/73 136/153/73 77/124/73
f 76/206/74 135/226/74 134/205/74
f 136/223/75 135/118/75 76/227/75
f 90/144/76 134/195/76 133/228/76
f 137/228/21 140/205/21 126/204/21
f 123/202/46 139/223/46 138/147/46
f 140/161/77 139/222/77 123/217/77
f 121/229/78 138/215/78 137/222/78
f 1/230/79 2/1/79 3/3/79
f 4/26/80 8/4/80 3/6/80
f 8/231/81 6/7/81 7/9/81
f 5/232/82 6/10/82 1/12/82
f 1/233/83 3/13/83 5/15/83
f 17/234/6 6/16/6 18/18/6
f 11/32/7 12/19/7 15/21/7
f 2/11/84 9/22/84 21/24/84
f 9/22/9 2/11/9 11/25/9
f 12/41/10 8/4/10 10/27/10
f 15/235/11 16/28/11 13/30/11
f 14/236/12 10/31/12 13/33/12
f 9/22/13 11/25/13 13/35/13
f 12/41/14 10/27/14 16/37/14
f 19/237/15 17/38/15 20/40/15
f 8/4/85 12/41/85 18/43/85
f 12/238/11 11/44/11 20/46/11
f 19/239/86 11/25/86 17/47/86
f 22/240/18 21/28/18 24/38/18
f 22/241/6 4/48/6 21/49/6
f 9/200/11 10/50/11 23/52/11
f 24/242/87 10/27/87 22/53/87
f 101/243/20 30/54/20 102/56/20
f 29/109/21 30/57/21 27/59/21
f 105/105/20 34/60/20 107/62/20
f 29/54/22 27/63/22 34/65/22
f 105/168/22 102/66/22 34/65/22
f 40/86/23 36/69/23 47/244/23
f 35/67/23 39/245/23 45/68/23
f 45/68/23 47/244/23 36/69/23
f 36/246/21 34/70/21 35/72/21
f 75/92/20 87/73/20 31/75/20
f 26/93/88 38/76/88 32/78/88
f 47/96/89 45/79/89 37/80/89
f 31/133/90 41/81/90 25/82/90
f 42/98/27 86/83/27 32/85/27
f 107/247/23 36/69/23 109/87/23
f 112/248/22 117/88/22 60/90/22
f 111/249/20 75/92/20 58/91/20
f 31/75/20 44/250/20 54/251/20
f 54/251/20 58/91/20 31/75/20
f 46/131/21 26/93/21 43/94/21
f 45/79/91 39/95/91 38/76/91
f 40/252/21 47/96/21 41/81/21
f 39/253/27 110/97/27 42/98/27
f 87/73/20 109/99/20 41/74/20
f 39/245/23 35/67/23 110/101/23
f 43/252/27 32/85/27 53/254/27
f 74/84/27 112/255/27 60/102/27
f 53/254/27 32/85/27 60/102/27
f 35/256/27 33/103/27 108/105/27
f 67/157/30 66/106/30 50/108/30
f 103/198/23 28/109/23 101/110/23
f 27/63/22 104/110/22 33/64/22
f 28/250/27 103/112/27 27/114/27
f 48/257/31 50/115/31 49/117/31
f 49/227/92 69/118/92 48/119/92
f 48/258/93 68/120/93 50/19/93
f 66/153/34 69/122/34 51/124/34
f 43/246/22 53/125/22 46/127/22
f 57/130/94 56/128/94 55/126/94
f 54/141/43 44/129/43 57/130/43
f 25/82/95 26/93/95 56/132/95
f 44/253/21 31/133/21 56/132/21
f 117/88/96 124/134/96 61/89/96
f 124/134/97 111/136/97 59/135/97
f 71/162/41 70/138/41 62/140/41
f 60/90/98 61/89/98 53/125/98
f 59/135/99 58/137/99 57/130/99
f 65/116/44 64/142/44 62/144/44
f 73/161/100 72/138/100 64/146/100
f 72/151/21 71/147/21 63/149/21
f 65/259/46 70/150/46 64/149/46
f 38/207/101 26/152/101 66/153/101
f 68/120/102 25/154/102 67/121/102
f 69/118/103 26/156/103 68/106/103
f 37/192/104 38/119/104 67/157/104
f 70/150/46 61/158/46 73/151/46
f 57/159/21 55/160/21 72/151/21
f 59/260/105 57/139/105 73/161/105
f 55/261/106 61/145/106 71/162/106
f 101/243/20 102/56/20 81/63/20
f 79/262/46 81/59/46 78/164/46
f 85/256/20 105/105/20 89/165/20
f 80/262/22 85/166/22 78/59/22
f 80/262/22 102/66/22 85/166/22
f 88/191/23 89/171/23 98/170/23
f 93/164/23 100/169/23 89/171/23
f 98/170/23 92/192/23 88/191/23
f 85/70/46 89/172/46 84/71/46
f 94/189/20 87/73/20 82/173/20
f 95/188/107 91/174/107 83/176/107
f 98/187/108 100/177/108 91/174/108
f 94/189/109 82/173/109 90/178/109
f 95/190/27 83/180/27 86/83/27
f 107/247/23 109/87/23 89/171/23
f 112/248/22 127/181/22 117/88/22
f 82/173/20 75/92/20 125/263/20
f 125/263/20 120/183/20 82/173/20
f 75/92/20 111/249/20 125/263/20
f 83/176/46 77/175/46 96/186/46
f 92/264/46 98/187/46 95/188/46
f 93/253/46 94/189/46 100/177/46
f 92/264/27 95/190/27 110/97/27
f 93/253/20 109/99/20 94/189/20
f 108/100/23 88/191/23 110/101/23
f 74/84/27 83/180/27 127/194/27
f 96/265/27 119/193/27 83/180/27
f 127/194/27 112/255/27 74/84/27
f 106/104/27 84/172/27 108/105/27
f 133/228/59 134/195/59 116/197/59
f 79/250/23 103/198/23 81/63/23
f 78/59/22 84/167/22 104/110/22
f 103/112/27 79/63/27 104/113/27
f 116/266/60 115/199/60 114/201/60
f 136/223/110 114/202/110 135/118/110
f 135/226/111 113/203/111 134/205/111
f 133/226/63 116/206/63 136/153/63
f 121/210/112 119/208/112 99/209/112
f 123/212/113 121/210/113 122/211/113
f 120/267/114 123/212/114 97/196/114
f 77/175/46 76/179/46 118/185/46
f 97/184/46 122/213/46 82/173/46
f 126/214/115 124/134/115 128/182/115
f 125/218/116 111/136/116 126/214/116
f 137/222/68 138/215/68 132/217/68
f 127/181/117 119/208/117 128/182/117
f 120/267/114 125/218/114 123/212/114
f 130/95/71 131/199/71 129/220/71
f 140/161/118 131/146/118 139/222/118
f 138/147/46 139/223/46 129/148/46
f 137/228/21 132/197/21 140/205/21
f 91/203/119 133/226/119 77/124/119
f 90/225/120 76/206/120 134/205/120
f 77/224/121 136/223/121 76/227/121
f 91/268/122 90/144/122 133/228/122
f 128/268/21 137/228/21 126/204/21
f 121/160/46 123/202/46 138/147/46
f 126/260/123 140/161/123 123/217/123
f 128/221/124 121/229/124 137/222/124
