# Blender v2.76 (sub 0) OBJ File: 'aSw_Run.blend'
# www.blender.org
mtllib run_000007.mtl
o Plane.001_Plane.000
v -0.225740 0.055371 0.019103
v -0.250309 0.078477 -0.119704
v -0.219527 0.033400 0.011864
v -0.242992 0.045663 -0.122089
v -0.213987 0.060037 0.017622
v -0.217654 0.085423 -0.115080
v -0.208972 0.038061 0.010330
v -0.210337 0.052609 -0.117466
v -0.246639 0.081805 -0.151844
v -0.239249 0.048663 -0.154254
v -0.213658 0.088820 -0.147174
v -0.206268 0.055678 -0.149584
v -0.116999 0.168582 -1.112700
v -0.114675 0.158160 -1.113458
v -0.106627 0.170788 -1.111232
v -0.104303 0.160366 -1.111989
v -0.157151 0.087023 -0.107635
v -0.154632 0.075725 -0.108456
v -0.153281 0.090221 -0.139764
v -0.150762 0.078924 -0.140585
v -0.306014 0.055361 -0.128713
v -0.303495 0.044064 -0.129535
v -0.302145 0.058559 -0.160843
v -0.299626 0.047262 -0.161664
v 0.125398 0.351025 -0.117079
v 0.125454 0.366699 -0.045338
v 0.186015 0.584331 0.061432
v 0.186015 0.950557 -0.019210
v 0.186015 0.503689 -0.304795
v 0.186015 0.869916 -0.385436
v 0.125454 0.331568 -0.204883
v 0.125454 0.386162 0.043056
v 0.057662 0.556729 -0.063919
v 0.057662 0.531291 -0.179444
v 0.057662 0.496616 -0.050683
v 0.057662 0.471178 -0.166207
v 0.125956 0.413759 -0.129339
v 0.125514 0.429227 -0.058869
v 0.125454 0.511194 0.015524
v 0.125454 0.456600 -0.232414
v 0.125454 0.394084 -0.218648
v 0.125454 0.448679 0.029290
v 0.125454 0.022892 0.123046
v 0.125454 -0.031703 -0.124892
v 0.125454 0.491743 -0.072813
v 0.125454 0.003395 0.034503
v 0.125454 0.475885 -0.144833
v 0.122091 0.139228 -0.042486
v 0.122202 0.130632 0.030698
v 0.185893 0.144413 -0.041973
v 0.186003 0.135815 0.031237
v 0.125454 0.003395 0.034503
v 0.098032 0.022892 0.123046
v 0.098032 -0.031703 -0.124892
v 0.098032 0.002378 0.029263
v 0.125454 -0.012418 -0.037311
v 0.098032 -0.016429 -0.045084
v 0.028140 -0.031703 -0.124892
v 0.028140 -0.014286 -0.040880
v 0.028140 0.022892 0.123046
v 0.028140 0.002543 0.030100
v 0.098032 -0.185243 0.088386
v 0.098032 -0.249143 0.051992
v 0.028140 -0.249072 0.052032
v 0.028140 -0.185202 0.088409
v 0.173795 0.284294 0.048695
v 0.173684 0.292893 -0.024516
v 0.110831 0.288069 -0.025557
v 0.109993 0.279112 0.048156
v 0.028140 -0.110966 -0.041933
v 0.098032 -0.111007 -0.041956
v 0.098032 -0.174907 -0.078350
v 0.028140 -0.174802 -0.078152
v -0.001485 0.386162 0.043056
v -0.001485 0.331568 -0.204883
v -0.128423 0.350853 -0.117301
v -0.128423 0.366699 -0.045338
v -0.188985 0.584331 0.061432
v -0.188985 0.950557 -0.019210
v -0.188985 0.503689 -0.304795
v -0.188985 0.869916 -0.385436
v -0.128423 0.331568 -0.204883
v -0.128423 0.386162 0.043056
v -0.060631 0.556729 -0.063919
v -0.060631 0.531291 -0.179444
v -0.001485 0.448679 0.029290
v -0.001485 0.394084 -0.218648
v -0.060631 0.496616 -0.050683
v -0.060631 0.471178 -0.166207
v -0.129278 0.413304 -0.129660
v -0.128402 0.429045 -0.058779
v -0.128423 0.511194 0.015524
v -0.128423 0.456599 -0.232414
v -0.128423 0.394084 -0.218648
v -0.128423 0.448679 0.029290
v -0.128423 0.022892 0.123046
v -0.128423 -0.031703 -0.124892
v -0.128423 0.491743 -0.072813
v -0.128423 0.003395 0.034503
v -0.128423 0.475885 -0.144833
v -0.001485 0.869916 -0.385436
v -0.001485 0.503689 -0.304795
v -0.001485 0.950557 -0.019210
v -0.001485 0.584331 0.061432
v -0.001485 0.531291 -0.179444
v -0.001485 0.556729 -0.063919
v -0.001485 0.471178 -0.166207
v -0.001485 0.496616 -0.050683
v -0.001485 0.456599 -0.232414
v -0.001485 0.511194 0.015524
v -0.001485 -0.031703 -0.124892
v -0.001485 0.022892 0.123046
v -0.217183 0.111437 -0.104301
v -0.155643 0.096379 -0.066673
v -0.249636 0.116178 -0.049327
v -0.188073 0.101114 -0.011686
v -0.001485 0.003417 0.034603
v -0.128423 0.003395 0.034503
v -0.101001 0.022892 0.123046
v -0.101001 -0.031703 -0.124892
v -0.101001 0.003270 0.033466
v -0.128423 -0.012418 -0.037311
v -0.101001 -0.012107 -0.038972
v -0.001485 -0.012386 -0.037167
v -0.031109 -0.031703 -0.124892
v -0.031109 -0.012263 -0.037928
v -0.031109 0.022892 0.123046
v -0.031109 0.003325 0.033876
v -0.101001 -0.299344 0.029114
v -0.101001 -0.305558 -0.044160
v -0.031109 -0.305551 -0.044079
v -0.031109 -0.299340 0.029162
v -0.156077 0.247528 -0.005425
v -0.217640 0.262592 -0.043066
v -0.185758 0.258420 -0.098158
v -0.123646 0.242793 -0.060412
v -0.031109 -0.149876 0.016485
v -0.101001 -0.149880 0.016438
v -0.101001 -0.156111 -0.056545
v -0.031109 -0.156088 -0.056756
vt 0.628043 0.804403
vt 0.607621 0.804403
vt 0.610973 0.682523
vt 0.036336 0.121881
vt 0.039689 0.000000
vt 0.053406 0.000000
vt 0.607621 0.926284
vt 0.610973 0.804403
vt 0.624691 0.804403
vt 0.129431 0.610213
vt 0.149853 0.610213
vt 0.146501 0.732094
vt 0.186189 0.745830
vt 0.172472 0.745830
vt 0.172472 0.732094
vt 0.763002 0.870578
vt 0.769697 0.834195
vt 0.776728 0.834195
vt 0.968893 0.817994
vt 0.948267 0.817994
vt 0.955337 0.227508
vt 0.149955 0.590484
vt 0.186189 0.590487
vt 0.186189 0.610216
vt 0.129329 0.590484
vt 0.056758 0.121881
vt 0.056860 0.141610
vt 0.036235 0.141610
vt 0.628043 0.728476
vt 0.628043 0.721981
vt 0.634529 0.721981
vt 0.989518 0.817993
vt 0.975962 0.227508
vt 0.136399 0.000000
vt 0.142885 0.000000
vt 0.049790 0.732094
vt 0.043304 0.732094
vt 0.635073 0.702252
vt 0.628043 0.702252
vt 0.628043 0.682523
vt 0.000000 0.141607
vt 0.000000 0.121878
vt 0.742376 0.870476
vt 0.749173 0.834195
vt 0.756204 0.834195
vt 0.093095 0.610216
vt 0.783423 0.870578
vt 0.790119 0.834195
vt 0.797149 0.834195
vt 0.742376 0.834195
vt 0.735579 0.870476
vt 0.728548 0.870476
vt 0.093095 0.121878
vt 0.186189 0.227508
vt 0.186189 0.000000
vt 0.299796 0.000000
vt 0.640616 0.682523
vt 0.413403 0.682523
vt 0.413403 0.455015
vt 0.752502 0.154024
vt 0.789797 0.154024
vt 0.789797 0.189908
vt 0.413403 0.227508
vt 0.335633 0.305378
vt 0.263959 0.305378
vt 0.186189 0.341262
vt 0.298939 0.795418
vt 0.285209 0.836547
vt 0.227265 0.795418
vt 0.677912 0.154024
vt 0.677912 0.225791
vt 0.640616 0.225791
vt 0.717529 0.492015
vt 0.640616 0.492015
vt 0.640616 0.453179
vt 0.695441 0.795359
vt 0.640616 0.795359
vt 0.640616 0.756522
vt 0.695422 0.834195
vt 0.740105 0.795359
vt 0.794442 0.795359
vt 0.740105 0.756522
vt 0.871354 0.569687
vt 0.871354 0.608524
vt 0.794442 0.608524
vt 0.186189 0.836547
vt 0.186189 0.759535
vt 0.695488 0.077012
vt 0.695500 0.094985
vt 0.640616 0.094985
vt 0.699579 0.227508
vt 0.717529 0.453179
vt 0.695457 0.756522
vt 0.640616 0.530851
vt 0.640616 0.834195
vt 0.740105 0.834195
vt 0.871354 0.530851
vt 0.794442 0.569687
vt 0.717529 0.530851
vt 0.298939 0.759535
vt 0.340014 0.759535
vt 0.853405 0.834195
vt 0.715207 0.225791
vt 0.715207 0.189908
vt 0.752502 0.189908
vt 0.340014 0.773526
vt 0.384678 0.773526
vt 0.384678 0.864529
vt 0.640616 0.455015
vt 0.413403 0.341261
vt 0.335633 0.341261
vt 0.527010 0.227508
vt 0.527010 0.000000
vt 0.640616 0.000000
vt 0.836789 0.226727
vt 0.836789 0.182006
vt 0.875576 0.182022
vt 0.429325 0.773526
vt 0.384678 0.682523
vt 0.987053 0.908997
vt 0.948267 0.908997
vt 1.000000 0.091003
vt 1.000000 0.182006
vt 0.961214 0.182006
vt 0.640616 0.137388
vt 0.695529 0.137388
vt 0.695550 0.154024
vt 0.740104 0.154024
vt 0.794442 0.154024
vt 0.740086 0.137388
vt 0.695550 0.530851
vt 0.740105 0.530851
vt 0.794442 0.756522
vt 0.740015 0.077012
vt 0.740037 0.094985
vt 0.794442 0.077012
vt 0.794442 0.094985
vt 0.127043 0.823097
vt 0.127043 0.732094
vt 0.169391 0.732094
vt 0.794442 0.137388
vt 0.836789 0.226600
vt 0.794442 0.226649
vt 0.794442 0.182035
vt 0.084696 0.823098
vt 0.127043 0.914101
vt 0.518529 0.773526
vt 0.518529 0.682523
vt 0.563085 0.682523
vt 0.563085 0.773526
vt 0.607621 0.682523
vt 1.000000 0.000000
vt 0.961214 0.091003
vt 0.987053 1.000000
vt 0.948267 1.000000
vt 0.429325 0.864529
vt 0.563085 0.864529
vt 0.607621 0.773526
vt 0.518529 0.864529
vt 0.169391 0.914101
vt 0.413403 0.000000
vt 0.186189 0.682523
vt 0.789797 0.225791
vt 0.263959 0.377145
vt 0.335633 0.377145
vt 0.263959 0.341261
vt 0.240526 0.682523
vt 0.285209 0.682523
vt 0.227265 0.723652
vt 0.715207 0.154024
vt 0.794442 0.453179
vt 0.893442 0.492015
vt 0.893426 0.453179
vt 0.948267 0.453179
vt 0.848779 0.492015
vt 0.893461 0.530851
vt 0.794442 0.492015
vt 0.848779 0.453179
vt 0.948267 0.608524
vt 0.640616 0.059039
vt 0.695500 0.059039
vt 0.777826 0.227508
vt 0.794442 0.227508
vt 0.893333 0.227508
vt 0.948267 0.227508
vt 0.948267 0.492015
vt 0.948267 0.530851
vt 0.848779 0.530851
vt 0.948267 0.569687
vt 0.298939 0.723652
vt 0.340014 0.682523
vt 0.931652 0.834195
vt 0.889304 0.834195
vt 0.794442 0.000000
vt 0.839105 0.000000
vt 0.839105 0.091003
vt 0.640616 0.341261
vt 0.682964 0.834195
vt 0.721750 0.834195
vt 0.721750 0.878900
vt 0.473973 0.773526
vt 0.473973 0.864529
vt 0.922427 0.182006
vt 0.883641 0.182006
vt 0.883641 0.091003
vt 0.922427 0.000000
vt 0.961214 0.000000
vt 0.640616 0.016637
vt 0.695550 0.000000
vt 0.695529 0.016637
vt 0.740104 0.000000
vt 0.740086 0.016637
vt 0.848779 0.227508
vt 0.740037 0.059039
vt 0.000000 0.823097
vt 0.000000 0.732094
vt 0.042348 0.732094
vt 0.794442 0.059039
vt 0.682964 0.878837
vt 0.640616 0.878808
vt 0.084696 0.914101
vt 0.042348 0.914101
vt 0.042348 0.823097
vt 0.473973 0.682523
vt 0.883641 0.000000
vt 0.922428 0.091003
vt 0.429325 0.682523
vt 0.794442 0.091003
vt 0.839105 0.182006
vt 0.084696 0.732094
vt 0.000000 0.914101
vt 0.624691 0.682523
vt 0.628043 0.926284
vt 0.132783 0.732094
vt 0.186189 0.732094
vt 0.961823 0.227508
vt 0.634529 0.728476
vt 0.982448 0.227508
vt 0.635073 0.682523
vt 0.763002 0.870476
vt 0.093095 0.590487
vt 0.635073 0.721981
vt 0.803845 0.870578
vt 0.093095 0.141607
vt 0.299796 0.227508
vt 0.240526 0.836547
vt 0.340014 0.836547
vt 0.640616 0.154024
vt 0.227265 0.759535
vt 0.640616 0.077012
vt 0.717529 0.227508
vt 0.640616 0.227508
vt 0.657232 0.227508
vt 0.794442 0.834195
vt 0.794442 0.530851
vt 0.811057 0.834195
vt 0.871354 0.834195
vt 0.752502 0.225791
vt 0.340014 0.864529
vt 0.875576 0.226727
vt 0.987053 0.817994
vt 0.169391 0.823098
vt 0.607621 0.864529
vt 0.186189 0.455015
vt 0.735479 0.227508
vt 0.948267 0.834195
vt 0.682964 0.878916
vt 0.794442 0.016637
vn -0.962900 -0.225500 0.148000
vn 0.388400 -0.915100 -0.108300
vn 0.975900 0.217800 0.014700
vn -0.230800 0.952400 0.199400
vn 0.242900 -0.240900 0.939700
vn -0.119000 -0.098400 0.988000
vn 0.970200 0.207200 0.125300
vn -0.392000 0.918900 0.044300
vn -0.217700 0.973100 0.075900
vn 0.216500 -0.974100 -0.065700
vn 0.119000 0.098400 -0.988000
vn -0.967400 -0.204900 -0.149000
vn -0.215600 0.974700 0.058900
vn 0.218500 -0.972300 -0.082600
vn 0.968900 0.206100 0.137200
vn 0.392000 -0.918900 -0.044300
vn -0.038600 0.994200 0.100400
vn -0.968900 -0.206100 -0.137200
vn 0.037200 -0.995400 -0.088500
vn 0.000000 -0.215000 -0.976600
vn 1.000000 -0.000000 0.000000
vn 0.000000 -0.976600 0.215000
vn -0.000000 0.976600 -0.215000
vn 1.000000 0.000100 0.000700
vn 1.000000 0.002200 0.005800
vn 0.999900 -0.009600 -0.003500
vn -0.000000 0.215000 0.976600
vn 0.003700 -0.976900 0.213900
vn 1.000000 0.006300 -0.007000
vn 0.996700 0.081000 0.008000
vn 0.081400 -0.989900 -0.116400
vn -0.997100 -0.073100 -0.020200
vn 0.007400 0.117400 -0.993100
vn 0.001100 -0.116700 0.993200
vn -0.004600 -0.976900 0.213700
vn -0.004900 -0.976600 0.215000
vn 0.081600 -0.973300 0.214300
vn 1.000000 0.000300 0.000600
vn -0.033500 -0.972500 0.230600
vn -0.000000 -0.979200 0.203000
vn 0.000700 0.868900 0.494900
vn 0.000300 -0.976900 0.213700
vn 0.000000 -0.982200 0.188000
vn 0.000000 -0.494900 0.868900
vn -0.002700 -0.868900 -0.494900
vn -1.000000 -0.000000 0.000000
vn -0.065300 0.733600 0.676400
vn 0.852100 -0.107700 -0.512100
vn -0.984100 0.173700 -0.037200
vn 0.939100 0.341500 0.038700
vn -0.002500 0.205400 -0.978700
vn 0.008900 -0.535800 0.844300
vn -1.000000 0.000300 -0.000100
vn -0.999900 0.002300 0.011800
vn -0.002200 -0.976800 0.214300
vn -1.000000 -0.000100 -0.000200
vn -0.999900 0.010800 -0.011900
vn -0.507000 0.074100 0.858800
vn -0.213300 -0.976100 -0.041700
vn 0.507000 -0.074100 -0.858800
vn -0.835200 0.204300 -0.510600
vn 0.835400 -0.204400 0.510300
vn 0.003700 -0.976600 0.215000
vn 0.024100 -0.976300 0.215000
vn -0.002200 -0.976600 0.215000
vn -0.009600 -0.976600 0.215000
vn -0.000700 0.084500 0.996400
vn -0.000500 -0.976800 0.214000
vn -0.005400 -0.975900 0.218100
vn 0.000000 -0.996400 0.084500
vn 0.001200 -0.082600 -0.996600
vn 0.859900 -0.028800 0.509600
vn -0.785100 0.386800 -0.483600
vn 0.394200 -0.414400 -0.820300
vn -0.438000 0.314300 0.842200
vn -0.003000 0.129800 -0.991500
vn -0.000700 -0.110500 0.993900
vn -0.945000 -0.305600 0.116400
vn 0.223600 -0.966300 -0.127600
vn 0.976100 0.216600 0.014200
vn -0.342300 0.921100 0.185700
vn 0.222000 -0.261100 0.939400
vn -0.389800 0.919500 0.050700
vn 0.388300 -0.920700 -0.038800
vn -0.034700 0.994900 0.094900
vn 0.034700 -0.994900 -0.094900
vn 1.000000 -0.000900 0.000200
vn 1.000000 0.007700 -0.001700
vn 1.000000 0.000100 0.000600
vn 1.000000 0.000900 -0.000200
vn -0.996700 -0.081000 -0.008000
vn -0.001200 0.112900 -0.993600
vn 0.072100 -0.966900 0.244600
vn 1.000000 -0.000000 -0.000800
vn 0.003900 -0.976600 0.215000
vn -0.035700 -0.976000 0.214900
vn 0.000000 -0.976900 0.213900
vn -0.017800 -0.979000 0.203000
vn -0.001200 -0.868600 -0.495500
vn -0.838300 0.116100 0.532700
vn 0.072700 -0.827100 -0.557400
vn -0.982600 0.185600 0.011400
vn 0.945900 0.318100 -0.063900
vn -0.051600 0.225900 -0.972800
vn -0.000000 -0.531900 0.846800
vn -0.999900 0.013000 -0.002900
vn -0.999900 -0.014900 -0.006400
vn -1.000000 -0.000300 0.000100
vn 0.504700 -0.071900 -0.860300
vn -0.841200 0.200800 -0.502000
vn 0.003600 -0.976800 0.214000
vn 0.023600 -0.977900 0.207600
vn 0.000000 -0.975000 0.222400
vn -0.009500 -0.977200 0.212100
vn -0.000000 -0.975900 0.218100
vn 0.000000 -0.976800 0.214300
vn -0.003000 -0.084500 -0.996400
vn 0.449700 0.188100 0.873200
vn -0.523800 -0.172300 -0.834300
vn 0.999200 0.039600 -0.008700
vn -0.881200 0.463700 -0.092100
vn 0.015100 0.121100 -0.992500
vn -0.005700 -0.112800 0.993600
usemtl Material.001
s off
f 2/1/1 4/2/1 3/3/1
f 8/4/2 7/5/2 3/6/2
f 6/7/3 5/8/3 7/9/3
f 6/10/4 2/11/4 1/12/4
f 1/13/5 3/14/5 7/15/5
f 8/16/6 18/17/6 17/18/6
f 11/19/7 12/20/7 16/21/7
f 9/22/8 23/23/8 21/24/8
f 6/10/9 11/25/9 9/22/9
f 4/26/10 10/27/10 12/28/10
f 15/29/11 16/30/11 14/31/11
f 10/32/12 9/19/12 13/33/12
f 11/25/13 15/34/13 13/35/13
f 10/27/14 14/36/14 16/37/14
f 17/38/15 18/39/15 20/40/15
f 12/28/16 20/41/16 18/42/16
f 11/43/11 19/44/11 20/45/11
f 11/25/17 6/10/17 17/46/17
f 21/30/18 23/39/18 24/38/18
f 2/47/6 21/48/6 22/49/6
f 10/50/11 24/51/11 23/52/11
f 10/27/19 4/26/19 22/53/19
f 30/54/20 29/55/20 102/56/20
f 30/57/21 28/58/21 27/59/21
f 34/60/20 36/61/20 107/62/20
f 27/63/22 33/64/22 34/65/22
f 102/66/22 29/54/22 34/65/22
f 35/67/23 45/68/23 36/69/23
f 34/70/21 33/71/21 35/72/21
f 87/73/20 41/74/20 31/75/20
f 38/76/24 42/77/24 32/78/24
f 45/79/25 38/76/25 37/80/25
f 41/81/26 37/80/26 25/82/26
f 86/83/27 74/84/27 32/85/27
f 36/69/23 40/86/23 109/87/23
f 117/88/28 61/89/28 60/90/28
f 31/75/20 58/91/20 75/92/20
f 26/93/21 32/78/21 43/94/21
f 39/95/24 42/77/24 38/76/24
f 47/96/29 37/80/29 41/81/29
f 110/97/27 86/83/27 42/98/27
f 109/99/20 40/94/20 41/74/20
f 35/67/23 108/100/23 110/101/23
f 74/84/27 60/102/27 32/85/27
f 33/103/27 106/104/27 108/105/27
f 67/106/30 66/107/30 51/108/30
f 28/109/23 30/59/23 101/110/23
f 104/110/22 106/111/22 33/64/22
f 103/112/27 104/113/27 27/114/27
f 50/115/31 51/116/31 49/117/31
f 69/118/32 68/107/32 48/119/32
f 68/120/33 67/121/33 50/20/33
f 69/122/34 49/123/34 51/124/34
f 53/125/35 55/126/35 46/127/35
f 56/128/36 52/127/36 55/126/36
f 44/129/37 56/128/37 57/130/37
f 26/93/21 52/131/21 56/132/21
f 31/133/38 25/82/38 56/132/38
f 124/134/39 59/135/39 61/89/39
f 111/136/40 58/137/40 59/135/40
f 70/138/41 65/139/41 62/140/41
f 61/89/42 55/126/42 53/125/42
f 58/137/43 54/141/43 57/130/43
f 64/142/44 63/143/44 62/144/44
f 73/145/45 72/138/45 63/146/45
f 71/147/21 62/148/21 63/149/21
f 73/150/46 64/149/46 65/151/46
f 26/152/47 69/122/47 66/153/47
f 25/154/48 37/155/48 67/121/48
f 26/156/49 25/108/49 68/107/49
f 38/119/50 66/107/50 67/106/50
f 59/157/46 73/150/46 70/158/46
f 57/157/21 55/159/21 71/147/21
f 57/139/51 72/138/51 73/145/51
f 55/160/52 61/146/52 70/138/52
f 102/56/20 80/161/20 81/63/20
f 81/59/46 80/58/46 78/162/46
f 105/105/20 107/62/20 89/163/20
f 85/164/22 84/165/22 78/59/22
f 102/66/22 105/166/22 85/164/22
f 100/167/23 98/168/23 89/169/23
f 89/170/46 88/103/46 84/71/46
f 87/73/20 75/92/20 82/171/20
f 91/172/53 77/173/53 83/174/53
f 90/175/54 91/172/54 98/176/54
f 94/177/46 82/171/46 76/178/46
f 83/179/27 74/84/27 86/83/27
f 109/87/23 93/162/23 89/169/23
f 127/180/55 128/181/55 117/88/55
f 120/182/20 97/183/20 82/171/20
f 77/173/46 99/184/46 96/185/46
f 91/172/56 95/186/56 92/187/56
f 94/177/57 90/175/57 100/188/57
f 95/189/27 86/83/27 110/97/27
f 109/99/20 87/73/20 94/177/20
f 88/190/23 92/191/23 110/101/23
f 119/192/27 127/193/27 83/179/27
f 84/170/27 88/60/27 108/105/27
f 115/194/58 116/195/58 133/196/58
f 103/197/23 101/110/23 81/63/23
f 84/165/22 106/111/22 104/110/22
f 79/63/27 78/161/27 104/113/27
f 115/198/59 113/199/59 114/200/59
f 136/201/60 114/202/60 113/156/60
f 113/203/61 115/204/61 134/205/61
f 116/206/62 114/207/62 136/153/62
f 119/208/22 96/114/22 99/209/22
f 121/210/63 118/209/63 122/211/63
f 123/212/64 122/211/64 97/194/64
f 76/178/46 122/213/46 118/184/46
f 122/213/46 76/178/46 82/171/46
f 124/134/65 117/88/65 128/181/65
f 111/136/66 124/134/66 126/214/66
f 138/215/67 129/216/67 132/217/67
f 119/208/68 121/210/68 128/181/68
f 125/218/69 126/214/69 123/212/69
f 131/198/70 132/219/70 129/220/70
f 131/221/71 130/222/71 139/223/71
f 139/201/46 130/224/46 129/148/46
f 132/195/21 131/225/21 140/205/21
f 133/226/72 136/153/72 77/124/72
f 76/206/73 135/226/73 134/205/73
f 136/201/74 135/118/74 76/227/74
f 134/228/75 133/196/75 91/229/75
f 137/196/21 140/205/21 126/204/21
f 123/202/46 139/201/46 138/147/46
f 126/230/76 140/145/76 139/223/76
f 121/231/77 138/215/77 137/223/77
f 1/232/78 2/1/78 3/3/78
f 4/26/79 8/4/79 3/6/79
f 8/233/80 6/7/80 7/9/80
f 5/234/81 6/10/81 1/12/81
f 5/235/82 1/13/82 7/15/82
f 6/47/6 8/16/6 17/18/6
f 15/236/7 11/19/7 16/21/7
f 2/11/83 9/22/83 21/24/83
f 2/11/9 6/10/9 9/22/9
f 8/4/10 4/26/10 12/28/10
f 13/237/11 15/29/11 14/31/11
f 14/238/12 10/32/12 13/33/12
f 9/22/13 11/25/13 13/35/13
f 12/28/14 10/27/14 16/37/14
f 19/239/15 17/38/15 20/40/15
f 8/4/84 12/28/84 18/42/84
f 12/240/11 11/43/11 20/45/11
f 19/241/85 11/25/85 17/46/85
f 22/242/18 21/30/18 24/38/18
f 4/243/6 2/47/6 22/49/6
f 9/199/11 10/50/11 23/52/11
f 24/244/86 10/27/86 22/53/86
f 101/245/20 30/54/20 102/56/20
f 29/109/21 30/57/21 27/59/21
f 105/105/20 34/60/20 107/62/20
f 29/54/22 27/63/22 34/65/22
f 105/166/22 102/66/22 34/65/22
f 40/86/23 36/69/23 47/246/23
f 35/67/23 39/247/23 45/68/23
f 45/68/23 47/246/23 36/69/23
f 36/248/21 34/70/21 35/72/21
f 75/92/20 87/73/20 31/75/20
f 26/93/87 38/76/87 32/78/87
f 47/96/88 45/79/88 37/80/88
f 31/133/89 41/81/89 25/82/89
f 42/98/27 86/83/27 32/85/27
f 107/249/23 36/69/23 109/87/23
f 112/250/22 117/88/22 60/90/22
f 111/251/20 75/92/20 58/91/20
f 31/75/20 44/252/20 54/253/20
f 54/253/20 58/91/20 31/75/20
f 46/131/21 26/93/21 43/94/21
f 45/79/90 39/95/90 38/76/90
f 40/254/21 47/96/21 41/81/21
f 39/255/27 110/97/27 42/98/27
f 87/73/20 109/99/20 41/74/20
f 39/247/23 35/67/23 110/101/23
f 43/254/27 32/85/27 53/256/27
f 74/84/27 112/257/27 60/102/27
f 53/256/27 32/85/27 60/102/27
f 35/258/27 33/103/27 108/105/27
f 50/259/30 67/106/30 51/108/30
f 103/197/23 28/109/23 101/110/23
f 27/63/22 104/110/22 33/64/22
f 28/252/27 103/112/27 27/114/27
f 48/260/31 50/115/31 49/117/31
f 49/227/91 69/118/91 48/119/91
f 48/261/92 68/120/92 50/20/92
f 66/153/34 69/122/34 51/124/34
f 43/248/22 53/125/22 46/127/22
f 57/130/93 56/128/93 55/126/93
f 54/141/43 44/129/43 57/130/43
f 25/82/94 26/93/94 56/132/94
f 44/255/21 31/133/21 56/132/21
f 117/88/95 124/134/95 61/89/95
f 124/134/96 111/136/96 59/135/96
f 71/262/41 70/138/41 62/140/41
f 60/90/97 61/89/97 53/125/97
f 59/135/98 58/137/98 57/130/98
f 65/116/44 64/142/44 62/144/44
f 64/221/99 73/145/99 63/146/99
f 72/150/21 71/147/21 63/149/21
f 70/158/46 73/150/46 65/151/46
f 38/207/100 26/152/100 66/153/100
f 68/120/101 25/154/101 67/121/101
f 69/118/102 26/156/102 68/107/102
f 37/191/103 38/119/103 67/106/103
f 61/263/46 59/157/46 70/158/46
f 72/150/21 57/157/21 71/147/21
f 59/230/104 57/139/104 73/145/104
f 71/262/105 55/160/105 70/138/105
f 101/245/20 102/56/20 81/63/20
f 79/264/46 81/59/46 78/162/46
f 85/258/20 105/105/20 89/163/20
f 80/264/22 85/164/22 78/59/22
f 80/264/22 102/66/22 85/164/22
f 88/190/23 89/169/23 98/168/23
f 93/162/23 100/167/23 89/169/23
f 98/168/23 92/191/23 88/190/23
f 85/70/46 89/170/46 84/71/46
f 94/177/20 87/73/20 82/171/20
f 95/186/56 91/172/56 83/174/56
f 100/188/106 90/175/106 98/176/106
f 90/175/107 94/177/107 76/178/107
f 95/189/27 83/179/27 86/83/27
f 107/249/23 109/87/23 89/169/23
f 112/250/22 127/180/22 117/88/22
f 82/171/20 75/92/20 125/265/20
f 125/265/20 120/182/20 82/171/20
f 75/92/20 111/251/20 125/265/20
f 83/174/46 77/173/46 96/185/46
f 98/176/108 91/172/108 92/187/108
f 93/255/46 94/177/46 100/188/46
f 92/187/27 95/189/27 110/97/27
f 93/255/20 109/99/20 94/177/20
f 108/100/23 88/190/23 110/101/23
f 74/84/27 83/179/27 127/193/27
f 96/266/27 119/192/27 83/179/27
f 127/193/27 112/257/27 74/84/27
f 106/104/27 84/170/27 108/105/27
f 134/228/58 115/194/58 133/196/58
f 79/252/23 103/197/23 81/63/23
f 78/59/22 84/165/22 104/110/22
f 103/112/27 79/63/27 104/113/27
f 116/267/59 115/198/59 114/200/59
f 135/118/109 136/201/109 113/156/109
f 135/226/110 113/203/110 134/205/110
f 133/226/62 116/206/62 136/153/62
f 121/210/111 119/208/111 99/209/111
f 123/212/112 121/210/112 122/211/112
f 120/268/113 123/212/113 97/194/113
f 77/173/46 76/178/46 118/184/46
f 97/183/46 122/213/46 82/171/46
f 126/214/114 124/134/114 128/181/114
f 125/218/115 111/136/115 126/214/115
f 137/223/67 138/215/67 132/217/67
f 127/180/116 119/208/116 128/181/116
f 120/268/113 125/218/113 123/212/113
f 130/95/70 131/198/70 129/220/70
f 140/145/117 131/221/117 139/223/117
f 138/147/46 139/201/46 129/148/46
f 137/196/21 132/195/21 140/205/21
f 91/203/118 133/226/118 77/124/118
f 90/225/119 76/206/119 134/205/119
f 77/224/120 136/201/120 76/227/120
f 90/144/121 134/228/121 91/229/121
f 128/229/21 137/196/21 126/204/21
f 121/159/46 123/202/46 138/147/46
f 123/217/122 126/230/122 139/223/122
f 128/222/123 121/231/123 137/223/123
