# Blender v2.76 (sub 0) OBJ File: 'enemy1die.blend'
# www.blender.org
mtllib enemy1die_000002.mtl
o Cube
v -0.077322 -0.078380 0.125000
v 0.024126 -0.008466 0.125000
v -0.077322 -0.078380 -0.125000
v 0.024126 -0.008466 -0.125000
v 0.064541 -0.284231 0.125000
v 0.165990 -0.214317 0.125000
v 0.064541 -0.284231 -0.125000
v 0.165990 -0.214317 -0.125000
v -0.004190 0.041939 0.182572
v -0.004190 0.041939 -0.182572
v 0.203012 -0.258722 0.182572
v 0.203012 -0.258722 -0.182572
v 0.189279 0.175269 0.182572
v 0.189279 0.175269 -0.182572
v 0.396482 -0.125392 0.182572
v 0.396482 -0.125392 -0.182572
vt 0.871430 0.255027
vt 1.000000 0.255027
vt 1.000000 0.510054
vt 0.509614 0.744973
vt 0.509614 1.000000
vt 0.381043 1.000000
vt 0.871430 0.510054
vt 1.000000 0.765081
vt 0.871430 0.000000
vt 0.260885 1.000000
vt 0.000000 1.000000
vt 0.000000 0.744973
vt 0.320964 0.313757
vt 0.381043 0.372486
vt 0.000000 0.372487
vt 0.626236 0.372486
vt 0.381043 0.000000
vt 0.320964 0.058730
vt 0.060079 0.313757
vt 0.000000 0.000000
vt 0.060079 0.058730
vt 0.381043 0.744973
vt 0.871430 0.744973
vt 0.626236 0.744973
vt 0.871430 0.372486
vt 0.871430 0.765081
vt 1.000000 0.000000
vt 0.260885 0.744973
vt 0.626236 0.000000
vn -0.567500 0.823400 0.000000
vn 0.000000 0.000000 -1.000000
vn 0.567500 -0.823400 0.000000
vn -0.000000 0.000000 1.000000
vn -0.823400 -0.567500 0.000000
vn -0.871800 -0.489800 0.000000
vn -0.820000 -0.565100 0.091400
vn -0.820000 -0.565100 -0.091400
vn -0.768100 -0.640400 0.000000
vn 0.823400 0.567500 0.000000
usemtl None
s off
f 4/1/1 3/2/1 1/3/1
f 4/4/2 8/5/2 7/6/2
f 6/7/3 5/3/3 7/8/3
f 2/2/4 1/1/4 5/9/4
f 3/10/5 7/11/5 5/12/5
f 2/13/6 9/14/6 10/15/6
f 12/16/3 16/14/3 15/17/3
f 2/13/7 6/18/7 11/17/7
f 4/19/8 10/15/8 12/20/8
f 8/21/9 12/20/9 11/17/9
f 16/14/10 14/22/10 13/12/10
f 9/23/1 13/24/1 14/16/1
f 11/14/4 15/16/4 13/24/4
f 12/9/2 10/25/2 14/16/2
f 2/7/1 4/1/1 1/3/1
f 3/22/2 4/4/2 7/6/2
f 8/26/3 6/7/3 7/8/3
f 6/27/4 2/2/4 5/9/4
f 1/28/5 3/10/5 5/12/5
f 4/19/6 2/13/6 10/15/6
f 11/29/3 12/16/3 15/17/3
f 9/14/7 2/13/7 11/17/7
f 8/21/8 4/19/8 12/20/8
f 6/18/9 8/21/9 11/17/9
f 15/15/10 16/14/10 13/12/10
f 10/25/1 9/23/1 14/16/1
f 9/22/4 11/14/4 13/24/4
f 16/29/2 12/9/2 14/16/2
